  0
SECTION
  2
HEADER
  9
$ANGBASE
  50
0.0
  9
$ANGDIR
  70
1
  9
$MEASUREMENT
  70
0
  0
ENDSEC
  0
SECTION
  2
TABLES
  0
TABLE
  2
LTYPE
  70
4
  0
LTYPE
  5
40F
  2
CONTINUOUS
  70
0
  3
Solid line
  72
65
  73
0
  40
0.0
  0
LTYPE
  5
410
  2
DASHDOT
 70
0
  3
Dash Dot ____ _ ____ _
 72
65
 73
4
 40
2.0
 49
1.25
 49
-0.25
 49
0.25
 49
-0.25
  0
LTYPE
  5
411
  2
DASHED
 70
0
  3
Dashed __ __ __ __ __
 72
65
 73
2
 40
0.75
 49
0.5
 49
-0.25
  0
LTYPE
  5
43B
  2
DOTTED
 70
0
  3
Dotted .  .  .  .
 72
65
 73
2
 40
0.2
 49
0.0
 49
-0.2
  0
ENDTAB
  0
TABLE
  2
STYLE
  70
4
  0
STYLE
  2
KICAD
  70
0
  40
0
  41
1
  42
1
  50
0
  71
0
  3
isocp.shx
  0
STYLE
  2
KICADB
  70
0
  40
0
  41
1
  42
1
  50
0
  71
0
  3
isocp.shx
  0
STYLE
  2
KICADI
  70
0
  40
0
  41
1
  42
1
  50
15
  71
0
  3
isocp.shx
  0
STYLE
  2
KICADBI
  70
0
  40
0
  41
1
  42
1
  50
15
  71
0
  3
isocp.shx
  0
ENDTAB
  0
TABLE
  2
LAYER
  70
1
  0
LAYER
  2
BLACK
  70
0
  62
7
  6
CONTINUOUS
  0
ENDTAB
  0
ENDSEC
  0
SECTION
  2
ENTITIES
0
LINE
8
BLACK
6
CONTINUOUS
10
5.1813497244094489
20
-4.5969065748031497
11
5.1865993700787403
21
-4.5988646062992125
0
LINE
8
BLACK
6
CONTINUOUS
10
5.1865993700787403
20
-4.5988646062992125
11
5.1910847637795277
21
-4.6022223228346455
0
LINE
8
BLACK
6
CONTINUOUS
10
5.1910847637795277
20
-4.6022223228346455
11
5.1944424803149607
21
-4.6067077165354329
0
LINE
8
BLACK
6
CONTINUOUS
10
5.1944424803149607
20
-4.6067077165354329
11
5.1964005118110235
21
-4.6119573622047243
0
LINE
8
BLACK
6
CONTINUOUS
10
5.1964005118110235
20
-4.6119573622047243
11
5.1968503937007871
21
-4.6161417322834648
0
LINE
8
BLACK
6
CONTINUOUS
10
5.1968503937007871
20
-4.6161417322834648
11
5.1968503937007871
21
-4.6555118110236222
0
LINE
8
BLACK
6
CONTINUOUS
10
5.1968503937007871
20
-4.6555118110236222
11
5.1964005118110235
21
-4.6596961811023618
0
LINE
8
BLACK
6
CONTINUOUS
10
5.1964005118110235
20
-4.6596961811023618
11
5.1944424803149607
21
-4.6649458267716533
0
LINE
8
BLACK
6
CONTINUOUS
10
5.1944424803149607
20
-4.6649458267716533
11
5.1910847637795277
21
-4.6694312204724406
0
LINE
8
BLACK
6
CONTINUOUS
10
5.1910847637795277
20
-4.6694312204724406
11
5.1865993700787403
21
-4.6727889370078737
0
LINE
8
BLACK
6
CONTINUOUS
10
5.1865993700787403
20
-4.6727889370078737
11
5.1813497244094489
21
-4.6747469685039373
0
LINE
8
BLACK
6
CONTINUOUS
10
5.1813497244094489
20
-4.6747469685039373
11
5.1771653543307083
21
-4.6751968503937009
0
LINE
8
BLACK
6
CONTINUOUS
10
5.1771653543307083
20
-4.6751968503937009
11
5.0669291338582676
21
-4.6751968503937009
0
LINE
8
BLACK
6
CONTINUOUS
10
5.0669291338582676
20
-4.6751968503937009
11
5.0627447637795271
21
-4.6747469685039373
0
LINE
8
BLACK
6
CONTINUOUS
10
5.0627447637795271
20
-4.6747469685039373
11
5.0574951181102357
21
-4.6727889370078737
0
LINE
8
BLACK
6
CONTINUOUS
10
5.0574951181102357
20
-4.6727889370078737
11
5.0530097244094483
21
-4.6694312204724406
0
LINE
8
BLACK
6
CONTINUOUS
10
5.0530097244094483
20
-4.6694312204724406
11
5.0496520078740152
21
-4.6649458267716533
0
LINE
8
BLACK
6
CONTINUOUS
10
5.0496520078740152
20
-4.6649458267716533
11
5.0476939763779525
21
-4.6596961811023618
0
LINE
8
BLACK
6
CONTINUOUS
10
5.0476939763779525
20
-4.6596961811023618
11
5.0472440944881889
21
-4.6555118110236222
0
LINE
8
BLACK
6
CONTINUOUS
10
5.0472440944881889
20
-4.6555118110236222
11
5.0472440944881889
21
-4.6161417322834648
0
LINE
8
BLACK
6
CONTINUOUS
10
5.0472440944881889
20
-4.6161417322834648
11
5.0476939763779525
21
-4.6119573622047243
0
LINE
8
BLACK
6
CONTINUOUS
10
5.0476939763779525
20
-4.6119573622047243
11
5.0496520078740152
21
-4.6067077165354329
0
LINE
8
BLACK
6
CONTINUOUS
10
5.0496520078740152
20
-4.6067077165354329
11
5.0530097244094483
21
-4.6022223228346455
0
LINE
8
BLACK
6
CONTINUOUS
10
5.0530097244094483
20
-4.6022223228346455
11
5.0574951181102357
21
-4.5988646062992125
0
LINE
8
BLACK
6
CONTINUOUS
10
5.0574951181102357
20
-4.5988646062992125
11
5.0627447637795271
21
-4.5969065748031497
0
LINE
8
BLACK
6
CONTINUOUS
10
5.0627447637795271
20
-4.5969065748031497
11
5.0669291338582676
21
-4.5964566929133861
0
LINE
8
BLACK
6
CONTINUOUS
10
5.0669291338582676
20
-4.5964566929133861
11
5.1771653543307083
21
-4.5964566929133861
0
LINE
8
BLACK
6
CONTINUOUS
10
5.1771653543307083
20
-4.5964566929133861
11
5.1813497244094489
21
-4.5969065748031497
0
LINE
8
BLACK
6
CONTINUOUS
10
5.5159953937007868
20
-4.5969065748031497
11
5.5212450393700783
21
-4.5988646062992125
0
LINE
8
BLACK
6
CONTINUOUS
10
5.5212450393700783
20
-4.5988646062992125
11
5.5257304330708656
21
-4.6022223228346455
0
LINE
8
BLACK
6
CONTINUOUS
10
5.5257304330708656
20
-4.6022223228346455
11
5.5290881496062987
21
-4.6067077165354329
0
LINE
8
BLACK
6
CONTINUOUS
10
5.5290881496062987
20
-4.6067077165354329
11
5.5310461811023623
21
-4.6119573622047243
0
LINE
8
BLACK
6
CONTINUOUS
10
5.5310461811023623
20
-4.6119573622047243
11
5.5314960629921259
21
-4.6161417322834648
0
LINE
8
BLACK
6
CONTINUOUS
10
5.5314960629921259
20
-4.6161417322834648
11
5.5314960629921259
21
-4.6555118110236222
0
LINE
8
BLACK
6
CONTINUOUS
10
5.5314960629921259
20
-4.6555118110236222
11
5.5310461811023623
21
-4.6596961811023618
0
LINE
8
BLACK
6
CONTINUOUS
10
5.5310461811023623
20
-4.6596961811023618
11
5.5290881496062987
21
-4.6649458267716533
0
LINE
8
BLACK
6
CONTINUOUS
10
5.5290881496062987
20
-4.6649458267716533
11
5.5257304330708656
21
-4.6694312204724406
0
LINE
8
BLACK
6
CONTINUOUS
10
5.5257304330708656
20
-4.6694312204724406
11
5.5212450393700783
21
-4.6727889370078737
0
LINE
8
BLACK
6
CONTINUOUS
10
5.5212450393700783
20
-4.6727889370078737
11
5.5159953937007868
21
-4.6747469685039373
0
LINE
8
BLACK
6
CONTINUOUS
10
5.5159953937007868
20
-4.6747469685039373
11
5.5118110236220472
21
-4.6751968503937009
0
LINE
8
BLACK
6
CONTINUOUS
10
5.5118110236220472
20
-4.6751968503937009
11
5.4015748031496065
21
-4.6751968503937009
0
LINE
8
BLACK
6
CONTINUOUS
10
5.4015748031496065
20
-4.6751968503937009
11
5.397390433070866
21
-4.6747469685039373
0
LINE
8
BLACK
6
CONTINUOUS
10
5.397390433070866
20
-4.6747469685039373
11
5.3921407874015745
21
-4.6727889370078737
0
LINE
8
BLACK
6
CONTINUOUS
10
5.3921407874015745
20
-4.6727889370078737
11
5.3876553937007872
21
-4.6694312204724406
0
LINE
8
BLACK
6
CONTINUOUS
10
5.3876553937007872
20
-4.6694312204724406
11
5.3842976771653541
21
-4.6649458267716533
0
LINE
8
BLACK
6
CONTINUOUS
10
5.3842976771653541
20
-4.6649458267716533
11
5.3823396456692914
21
-4.6596961811023618
0
LINE
8
BLACK
6
CONTINUOUS
10
5.3823396456692914
20
-4.6596961811023618
11
5.3818897637795278
21
-4.6555118110236222
0
LINE
8
BLACK
6
CONTINUOUS
10
5.3818897637795278
20
-4.6555118110236222
11
5.3818897637795278
21
-4.6161417322834648
0
LINE
8
BLACK
6
CONTINUOUS
10
5.3818897637795278
20
-4.6161417322834648
11
5.3823396456692914
21
-4.6119573622047243
0
LINE
8
BLACK
6
CONTINUOUS
10
5.3823396456692914
20
-4.6119573622047243
11
5.3842976771653541
21
-4.6067077165354329
0
LINE
8
BLACK
6
CONTINUOUS
10
5.3842976771653541
20
-4.6067077165354329
11
5.3876553937007872
21
-4.6022223228346455
0
LINE
8
BLACK
6
CONTINUOUS
10
5.3876553937007872
20
-4.6022223228346455
11
5.3921407874015745
21
-4.5988646062992125
0
LINE
8
BLACK
6
CONTINUOUS
10
5.3921407874015745
20
-4.5988646062992125
11
5.397390433070866
21
-4.5969065748031497
0
LINE
8
BLACK
6
CONTINUOUS
10
5.397390433070866
20
-4.5969065748031497
11
5.4015748031496065
21
-4.5964566929133861
0
LINE
8
BLACK
6
CONTINUOUS
10
5.4015748031496065
20
-4.5964566929133861
11
5.5118110236220472
21
-4.5964566929133861
0
LINE
8
BLACK
6
CONTINUOUS
10
5.5118110236220472
20
-4.5964566929133861
11
5.5159953937007868
21
-4.5969065748031497
0
LINE
8
BLACK
6
CONTINUOUS
10
6.1195316535433069
20
-4.6325640551181104
11
6.1224054724409447
21
-4.6344842913385822
0
LINE
8
BLACK
6
CONTINUOUS
10
6.1224054724409447
20
-4.6344842913385822
11
6.1243257086614173
21
-4.63735811023622
0
LINE
8
BLACK
6
CONTINUOUS
10
6.1243257086614173
20
-4.63735811023622
11
6.125
21
-4.640748031496063
0
LINE
8
BLACK
6
CONTINUOUS
10
6.125
20
-4.640748031496063
11
6.125
21
-4.6584645669291334
0
LINE
8
BLACK
6
CONTINUOUS
10
6.125
20
-4.6584645669291334
11
6.1243257086614173
21
-4.6618544881889763
0
LINE
8
BLACK
6
CONTINUOUS
10
6.1243257086614173
20
-4.6618544881889763
11
6.1224054724409447
21
-4.6647283070866141
0
LINE
8
BLACK
6
CONTINUOUS
10
6.1224054724409447
20
-4.6647283070866141
11
6.1195316535433069
21
-4.6666485433070868
0
LINE
8
BLACK
6
CONTINUOUS
10
6.1195316535433069
20
-4.6666485433070868
11
6.1161417322834648
21
-4.6673228346456694
0
LINE
8
BLACK
6
CONTINUOUS
10
6.1161417322834648
20
-4.6673228346456694
11
6.0964566929133861
21
-4.6673228346456694
0
LINE
8
BLACK
6
CONTINUOUS
10
6.0964566929133861
20
-4.6673228346456694
11
6.0930667716535432
21
-4.6666485433070868
0
LINE
8
BLACK
6
CONTINUOUS
10
6.0930667716535432
20
-4.6666485433070868
11
6.0901929527559053
21
-4.6647283070866141
0
LINE
8
BLACK
6
CONTINUOUS
10
6.0901929527559053
20
-4.6647283070866141
11
6.0882727165354327
21
-4.6618544881889763
0
LINE
8
BLACK
6
CONTINUOUS
10
6.0882727165354327
20
-4.6618544881889763
11
6.08759842519685
21
-4.6584645669291334
0
LINE
8
BLACK
6
CONTINUOUS
10
6.08759842519685
20
-4.6584645669291334
11
6.08759842519685
21
-4.640748031496063
0
LINE
8
BLACK
6
CONTINUOUS
10
6.08759842519685
20
-4.640748031496063
11
6.0882727165354327
21
-4.63735811023622
0
LINE
8
BLACK
6
CONTINUOUS
10
6.0882727165354327
20
-4.63735811023622
11
6.0901929527559053
21
-4.6344842913385822
0
LINE
8
BLACK
6
CONTINUOUS
10
6.0901929527559053
20
-4.6344842913385822
11
6.0930667716535432
21
-4.6325640551181104
0
LINE
8
BLACK
6
CONTINUOUS
10
6.0930667716535432
20
-4.6325640551181104
11
6.0964566929133861
21
-4.6318897637795278
0
LINE
8
BLACK
6
CONTINUOUS
10
6.0964566929133861
20
-4.6318897637795278
11
6.1161417322834648
21
-4.6318897637795278
0
LINE
8
BLACK
6
CONTINUOUS
10
6.1161417322834648
20
-4.6318897637795278
11
6.1195316535433069
21
-4.6325640551181104
0
LINE
8
BLACK
6
CONTINUOUS
10
5.6812992125984252
20
-4.6402559055118111
11
5.6557086614173224
21
-4.6402559055118111
0
LINE
8
BLACK
6
CONTINUOUS
10
5.6557086614173224
20
-4.6402559055118111
11
5.6557086614173224
21
-4.5802165354330704
0
LINE
8
BLACK
6
CONTINUOUS
10
5.6557086614173224
20
-4.5802165354330704
11
5.6812992125984252
21
-4.5802165354330704
0
LINE
8
BLACK
6
CONTINUOUS
10
5.6812992125984252
20
-4.5802165354330704
11
5.6812992125984252
21
-4.6402559055118111
0
LINE
8
BLACK
6
CONTINUOUS
10
5.731299212598425
20
-4.6402559055118111
11
5.7057086614173231
21
-4.6402559055118111
0
LINE
8
BLACK
6
CONTINUOUS
10
5.7057086614173231
20
-4.6402559055118111
11
5.7057086614173231
21
-4.5802165354330704
0
LINE
8
BLACK
6
CONTINUOUS
10
5.7057086614173231
20
-4.5802165354330704
11
5.731299212598425
21
-4.5802165354330704
0
LINE
8
BLACK
6
CONTINUOUS
10
5.731299212598425
20
-4.5802165354330704
11
5.731299212598425
21
-4.6402559055118111
0
LINE
8
BLACK
6
CONTINUOUS
10
5.7812992125984248
20
-4.6402559055118111
11
5.755708661417323
21
-4.6402559055118111
0
LINE
8
BLACK
6
CONTINUOUS
10
5.755708661417323
20
-4.6402559055118111
11
5.755708661417323
21
-4.5802165354330704
0
LINE
8
BLACK
6
CONTINUOUS
10
5.755708661417323
20
-4.5802165354330704
11
5.7812992125984248
21
-4.5802165354330704
0
LINE
8
BLACK
6
CONTINUOUS
10
5.7812992125984248
20
-4.5802165354330704
11
5.7812992125984248
21
-4.6402559055118111
0
LINE
8
BLACK
6
CONTINUOUS
10
5.8312992125984247
20
-4.6402559055118111
11
5.8057086614173228
21
-4.6402559055118111
0
LINE
8
BLACK
6
CONTINUOUS
10
5.8057086614173228
20
-4.6402559055118111
11
5.8057086614173228
21
-4.5802165354330704
0
LINE
8
BLACK
6
CONTINUOUS
10
5.8057086614173228
20
-4.5802165354330704
11
5.8312992125984247
21
-4.5802165354330704
0
LINE
8
BLACK
6
CONTINUOUS
10
5.8312992125984247
20
-4.5802165354330704
11
5.8312992125984247
21
-4.6402559055118111
0
LINE
8
BLACK
6
CONTINUOUS
10
5.8812992125984254
20
-4.6402559055118111
11
5.8557086614173226
21
-4.6402559055118111
0
LINE
8
BLACK
6
CONTINUOUS
10
5.8557086614173226
20
-4.6402559055118111
11
5.8557086614173226
21
-4.5802165354330704
0
LINE
8
BLACK
6
CONTINUOUS
10
5.8557086614173226
20
-4.5802165354330704
11
5.8812992125984254
21
-4.5802165354330704
0
LINE
8
BLACK
6
CONTINUOUS
10
5.8812992125984254
20
-4.5802165354330704
11
5.8812992125984254
21
-4.6402559055118111
0
LINE
8
BLACK
6
CONTINUOUS
10
5.9312992125984252
20
-4.6402559055118111
11
5.9057086614173224
21
-4.6402559055118111
0
LINE
8
BLACK
6
CONTINUOUS
10
5.9057086614173224
20
-4.6402559055118111
11
5.9057086614173224
21
-4.5802165354330704
0
LINE
8
BLACK
6
CONTINUOUS
10
5.9057086614173224
20
-4.5802165354330704
11
5.9312992125984252
21
-4.5802165354330704
0
LINE
8
BLACK
6
CONTINUOUS
10
5.9312992125984252
20
-4.5802165354330704
11
5.9312992125984252
21
-4.6402559055118111
0
LINE
8
BLACK
6
CONTINUOUS
10
5.981299212598425
20
-4.6402559055118111
11
5.9557086614173231
21
-4.6402559055118111
0
LINE
8
BLACK
6
CONTINUOUS
10
5.9557086614173231
20
-4.6402559055118111
11
5.9557086614173231
21
-4.5802165354330704
0
LINE
8
BLACK
6
CONTINUOUS
10
5.9557086614173231
20
-4.5802165354330704
11
5.981299212598425
21
-4.5802165354330704
0
LINE
8
BLACK
6
CONTINUOUS
10
5.981299212598425
20
-4.5802165354330704
11
5.981299212598425
21
-4.6402559055118111
0
LINE
8
BLACK
6
CONTINUOUS
10
6.0312992125984248
20
-4.6402559055118111
11
6.005708661417323
21
-4.6402559055118111
0
LINE
8
BLACK
6
CONTINUOUS
10
6.005708661417323
20
-4.6402559055118111
11
6.005708661417323
21
-4.5802165354330704
0
LINE
8
BLACK
6
CONTINUOUS
10
6.005708661417323
20
-4.5802165354330704
11
6.0312992125984248
21
-4.5802165354330704
0
LINE
8
BLACK
6
CONTINUOUS
10
6.0312992125984248
20
-4.5802165354330704
11
6.0312992125984248
21
-4.6402559055118111
0
LINE
8
BLACK
6
CONTINUOUS
10
6.1195316535433069
20
-4.571540433070866
11
6.1224054724409447
21
-4.5734606692913387
0
LINE
8
BLACK
6
CONTINUOUS
10
6.1224054724409447
20
-4.5734606692913387
11
6.1243257086614173
21
-4.5763344881889765
0
LINE
8
BLACK
6
CONTINUOUS
10
6.1243257086614173
20
-4.5763344881889765
11
6.125
21
-4.5797244094488185
0
LINE
8
BLACK
6
CONTINUOUS
10
6.125
20
-4.5797244094488185
11
6.125
21
-4.5974409448818898
0
LINE
8
BLACK
6
CONTINUOUS
10
6.125
20
-4.5974409448818898
11
6.1243257086614173
21
-4.6008308661417319
0
LINE
8
BLACK
6
CONTINUOUS
10
6.1243257086614173
20
-4.6008308661417319
11
6.1224054724409447
21
-4.6037046850393697
0
LINE
8
BLACK
6
CONTINUOUS
10
6.1224054724409447
20
-4.6037046850393697
11
6.1195316535433069
21
-4.6056249212598424
0
LINE
8
BLACK
6
CONTINUOUS
10
6.1195316535433069
20
-4.6056249212598424
11
6.1161417322834648
21
-4.606299212598425
0
LINE
8
BLACK
6
CONTINUOUS
10
6.1161417322834648
20
-4.606299212598425
11
6.0964566929133861
21
-4.606299212598425
0
LINE
8
BLACK
6
CONTINUOUS
10
6.0964566929133861
20
-4.606299212598425
11
6.0930667716535432
21
-4.6056249212598424
0
LINE
8
BLACK
6
CONTINUOUS
10
6.0930667716535432
20
-4.6056249212598424
11
6.0901929527559053
21
-4.6037046850393697
0
LINE
8
BLACK
6
CONTINUOUS
10
6.0901929527559053
20
-4.6037046850393697
11
6.0882727165354327
21
-4.6008308661417319
0
LINE
8
BLACK
6
CONTINUOUS
10
6.0882727165354327
20
-4.6008308661417319
11
6.08759842519685
21
-4.5974409448818898
0
LINE
8
BLACK
6
CONTINUOUS
10
6.08759842519685
20
-4.5974409448818898
11
6.08759842519685
21
-4.5797244094488185
0
LINE
8
BLACK
6
CONTINUOUS
10
6.08759842519685
20
-4.5797244094488185
11
6.0882727165354327
21
-4.5763344881889765
0
LINE
8
BLACK
6
CONTINUOUS
10
6.0882727165354327
20
-4.5763344881889765
11
6.0901929527559053
21
-4.5734606692913387
0
LINE
8
BLACK
6
CONTINUOUS
10
6.0901929527559053
20
-4.5734606692913387
11
6.0930667716535432
21
-4.571540433070866
0
LINE
8
BLACK
6
CONTINUOUS
10
6.0930667716535432
20
-4.571540433070866
11
6.0964566929133861
21
-4.5708661417322833
0
LINE
8
BLACK
6
CONTINUOUS
10
6.0964566929133861
20
-4.5708661417322833
11
6.1161417322834648
21
-4.5708661417322833
0
LINE
8
BLACK
6
CONTINUOUS
10
6.1161417322834648
20
-4.5708661417322833
11
6.1195316535433069
21
-4.571540433070866
0
LINE
8
BLACK
6
CONTINUOUS
10
6.1195316535433069
20
-4.4553987007874012
11
6.1224054724409447
21
-4.4573189370078738
0
LINE
8
BLACK
6
CONTINUOUS
10
6.1224054724409447
20
-4.4573189370078738
11
6.1243257086614173
21
-4.4601927559055117
0
LINE
8
BLACK
6
CONTINUOUS
10
6.1243257086614173
20
-4.4601927559055117
11
6.125
21
-4.4635826771653546
0
LINE
8
BLACK
6
CONTINUOUS
10
6.125
20
-4.4635826771653546
11
6.125
21
-4.481299212598425
0
LINE
8
BLACK
6
CONTINUOUS
10
6.125
20
-4.481299212598425
11
6.1243257086614173
21
-4.484689133858268
0
LINE
8
BLACK
6
CONTINUOUS
10
6.1243257086614173
20
-4.484689133858268
11
6.1224054724409447
21
-4.4875629527559058
0
LINE
8
BLACK
6
CONTINUOUS
10
6.1224054724409447
20
-4.4875629527559058
11
6.1195316535433069
21
-4.4894831889763775
0
LINE
8
BLACK
6
CONTINUOUS
10
6.1195316535433069
20
-4.4894831889763775
11
6.1161417322834648
21
-4.4901574803149602
0
LINE
8
BLACK
6
CONTINUOUS
10
6.1161417322834648
20
-4.4901574803149602
11
6.0964566929133861
21
-4.4901574803149602
0
LINE
8
BLACK
6
CONTINUOUS
10
6.0964566929133861
20
-4.4901574803149602
11
6.0930667716535432
21
-4.4894831889763775
0
LINE
8
BLACK
6
CONTINUOUS
10
6.0930667716535432
20
-4.4894831889763775
11
6.0901929527559053
21
-4.4875629527559058
0
LINE
8
BLACK
6
CONTINUOUS
10
6.0901929527559053
20
-4.4875629527559058
11
6.0882727165354327
21
-4.484689133858268
0
LINE
8
BLACK
6
CONTINUOUS
10
6.0882727165354327
20
-4.484689133858268
11
6.08759842519685
21
-4.481299212598425
0
LINE
8
BLACK
6
CONTINUOUS
10
6.08759842519685
20
-4.481299212598425
11
6.08759842519685
21
-4.4635826771653546
0
LINE
8
BLACK
6
CONTINUOUS
10
6.08759842519685
20
-4.4635826771653546
11
6.0882727165354327
21
-4.4601927559055117
0
LINE
8
BLACK
6
CONTINUOUS
10
6.0882727165354327
20
-4.4601927559055117
11
6.0901929527559053
21
-4.4573189370078738
0
LINE
8
BLACK
6
CONTINUOUS
10
6.0901929527559053
20
-4.4573189370078738
11
6.0930667716535432
21
-4.4553987007874012
0
LINE
8
BLACK
6
CONTINUOUS
10
6.0930667716535432
20
-4.4553987007874012
11
6.0964566929133861
21
-4.4547244094488185
0
LINE
8
BLACK
6
CONTINUOUS
10
6.0964566929133861
20
-4.4547244094488185
11
6.1161417322834648
21
-4.4547244094488185
0
LINE
8
BLACK
6
CONTINUOUS
10
6.1161417322834648
20
-4.4547244094488185
11
6.1195316535433069
21
-4.4553987007874012
0
LINE
8
BLACK
6
CONTINUOUS
10
6.1195316535433069
20
-4.3943750787401576
11
6.1224054724409447
21
-4.3962953149606294
0
LINE
8
BLACK
6
CONTINUOUS
10
6.1224054724409447
20
-4.3962953149606294
11
6.1243257086614173
21
-4.3991691338582672
0
LINE
8
BLACK
6
CONTINUOUS
10
6.1243257086614173
20
-4.3991691338582672
11
6.125
21
-4.4025590551181102
0
LINE
8
BLACK
6
CONTINUOUS
10
6.125
20
-4.4025590551181102
11
6.125
21
-4.4202755905511806
0
LINE
8
BLACK
6
CONTINUOUS
10
6.125
20
-4.4202755905511806
11
6.1243257086614173
21
-4.4236655118110235
0
LINE
8
BLACK
6
CONTINUOUS
10
6.1243257086614173
20
-4.4236655118110235
11
6.1224054724409447
21
-4.4265393307086613
0
LINE
8
BLACK
6
CONTINUOUS
10
6.1224054724409447
20
-4.4265393307086613
11
6.1195316535433069
21
-4.428459566929134
0
LINE
8
BLACK
6
CONTINUOUS
10
6.1195316535433069
20
-4.428459566929134
11
6.1161417322834648
21
-4.4291338582677167
0
LINE
8
BLACK
6
CONTINUOUS
10
6.1161417322834648
20
-4.4291338582677167
11
6.0964566929133861
21
-4.4291338582677167
0
LINE
8
BLACK
6
CONTINUOUS
10
6.0964566929133861
20
-4.4291338582677167
11
6.0930667716535432
21
-4.428459566929134
0
LINE
8
BLACK
6
CONTINUOUS
10
6.0930667716535432
20
-4.428459566929134
11
6.0901929527559053
21
-4.4265393307086613
0
LINE
8
BLACK
6
CONTINUOUS
10
6.0901929527559053
20
-4.4265393307086613
11
6.0882727165354327
21
-4.4236655118110235
0
LINE
8
BLACK
6
CONTINUOUS
10
6.0882727165354327
20
-4.4236655118110235
11
6.08759842519685
21
-4.4202755905511806
0
LINE
8
BLACK
6
CONTINUOUS
10
6.08759842519685
20
-4.4202755905511806
11
6.08759842519685
21
-4.4025590551181102
0
LINE
8
BLACK
6
CONTINUOUS
10
6.08759842519685
20
-4.4025590551181102
11
6.0882727165354327
21
-4.3991691338582672
0
LINE
8
BLACK
6
CONTINUOUS
10
6.0882727165354327
20
-4.3991691338582672
11
6.0901929527559053
21
-4.3962953149606294
0
LINE
8
BLACK
6
CONTINUOUS
10
6.0901929527559053
20
-4.3962953149606294
11
6.0930667716535432
21
-4.3943750787401576
0
LINE
8
BLACK
6
CONTINUOUS
10
6.0930667716535432
20
-4.3943750787401576
11
6.0964566929133861
21
-4.393700787401575
0
LINE
8
BLACK
6
CONTINUOUS
10
6.0964566929133861
20
-4.393700787401575
11
6.1161417322834648
21
-4.393700787401575
0
LINE
8
BLACK
6
CONTINUOUS
10
6.1161417322834648
20
-4.393700787401575
11
6.1195316535433069
21
-4.3943750787401576
0
LINE
8
BLACK
6
CONTINUOUS
10
5.0504724803149603
20
-4.3490389763779529
11
5.0548387401574804
21
-4.3511735039370079
0
LINE
8
BLACK
6
CONTINUOUS
10
5.0548387401574804
20
-4.3511735039370079
11
5.0582753149606301
21
-4.3546100787401576
0
LINE
8
BLACK
6
CONTINUOUS
10
5.0582753149606301
20
-4.3546100787401576
11
5.0604098425196851
21
-4.3589763385826767
0
LINE
8
BLACK
6
CONTINUOUS
10
5.0604098425196851
20
-4.3589763385826767
11
5.0610236220472435
21
-4.3631889763779528
0
LINE
8
BLACK
6
CONTINUOUS
10
5.0610236220472435
20
-4.3631889763779528
11
5.0610236220472435
21
-4.4124015748031491
0
LINE
8
BLACK
6
CONTINUOUS
10
5.0610236220472435
20
-4.4124015748031491
11
5.0604098425196851
21
-4.4166142125984251
0
LINE
8
BLACK
6
CONTINUOUS
10
5.0604098425196851
20
-4.4166142125984251
11
5.0582753149606301
21
-4.4209804724409452
0
LINE
8
BLACK
6
CONTINUOUS
10
5.0582753149606301
20
-4.4209804724409452
11
5.0548387401574804
21
-4.424417047244094
0
LINE
8
BLACK
6
CONTINUOUS
10
5.0548387401574804
20
-4.424417047244094
11
5.0504724803149603
21
-4.4265515748031499
0
LINE
8
BLACK
6
CONTINUOUS
10
5.0504724803149603
20
-4.4265515748031499
11
5.0462598425196852
21
-4.4271653543307083
0
LINE
8
BLACK
6
CONTINUOUS
10
5.0462598425196852
20
-4.4271653543307083
11
5.0167322834645667
21
-4.4271653543307083
0
LINE
8
BLACK
6
CONTINUOUS
10
5.0167322834645667
20
-4.4271653543307083
11
5.0125196456692915
21
-4.4265515748031499
0
LINE
8
BLACK
6
CONTINUOUS
10
5.0125196456692915
20
-4.4265515748031499
11
5.0081533858267715
21
-4.424417047244094
0
LINE
8
BLACK
6
CONTINUOUS
10
5.0081533858267715
20
-4.424417047244094
11
5.0047168110236218
21
-4.4209804724409452
0
LINE
8
BLACK
6
CONTINUOUS
10
5.0047168110236218
20
-4.4209804724409452
11
5.0025822834645668
21
-4.4166142125984251
0
LINE
8
BLACK
6
CONTINUOUS
10
5.0025822834645668
20
-4.4166142125984251
11
5.0019685039370074
21
-4.4124015748031491
0
LINE
8
BLACK
6
CONTINUOUS
10
5.0019685039370074
20
-4.4124015748031491
11
5.0019685039370074
21
-4.3631889763779528
0
LINE
8
BLACK
6
CONTINUOUS
10
5.0019685039370074
20
-4.3631889763779528
11
5.0025822834645668
21
-4.3589763385826767
0
LINE
8
BLACK
6
CONTINUOUS
10
5.0025822834645668
20
-4.3589763385826767
11
5.0047168110236218
21
-4.3546100787401576
0
LINE
8
BLACK
6
CONTINUOUS
10
5.0047168110236218
20
-4.3546100787401576
11
5.0081533858267715
21
-4.3511735039370079
0
LINE
8
BLACK
6
CONTINUOUS
10
5.0081533858267715
20
-4.3511735039370079
11
5.0125196456692915
21
-4.3490389763779529
0
LINE
8
BLACK
6
CONTINUOUS
10
5.0125196456692915
20
-4.3490389763779529
11
5.0167322834645667
21
-4.3484251968503935
0
LINE
8
BLACK
6
CONTINUOUS
10
5.0167322834645667
20
-4.3484251968503935
11
5.0462598425196852
21
-4.3484251968503935
0
LINE
8
BLACK
6
CONTINUOUS
10
5.0462598425196852
20
-4.3484251968503935
11
5.0504724803149603
21
-4.3490389763779529
0
LINE
8
BLACK
6
CONTINUOUS
10
5.1410236614173224
20
-4.3490389763779529
11
5.1453899212598424
21
-4.3511735039370079
0
LINE
8
BLACK
6
CONTINUOUS
10
5.1453899212598424
20
-4.3511735039370079
11
5.1488264960629921
21
-4.3546100787401576
0
LINE
8
BLACK
6
CONTINUOUS
10
5.1488264960629921
20
-4.3546100787401576
11
5.1509610236220471
21
-4.3589763385826767
0
LINE
8
BLACK
6
CONTINUOUS
10
5.1509610236220471
20
-4.3589763385826767
11
5.1515748031496065
21
-4.3631889763779528
0
LINE
8
BLACK
6
CONTINUOUS
10
5.1515748031496065
20
-4.3631889763779528
11
5.1515748031496065
21
-4.4124015748031491
0
LINE
8
BLACK
6
CONTINUOUS
10
5.1515748031496065
20
-4.4124015748031491
11
5.1509610236220471
21
-4.4166142125984251
0
LINE
8
BLACK
6
CONTINUOUS
10
5.1509610236220471
20
-4.4166142125984251
11
5.1488264960629921
21
-4.4209804724409452
0
LINE
8
BLACK
6
CONTINUOUS
10
5.1488264960629921
20
-4.4209804724409452
11
5.1453899212598424
21
-4.424417047244094
0
LINE
8
BLACK
6
CONTINUOUS
10
5.1453899212598424
20
-4.424417047244094
11
5.1410236614173224
21
-4.4265515748031499
0
LINE
8
BLACK
6
CONTINUOUS
10
5.1410236614173224
20
-4.4265515748031499
11
5.1368110236220472
21
-4.4271653543307083
0
LINE
8
BLACK
6
CONTINUOUS
10
5.1368110236220472
20
-4.4271653543307083
11
5.1072834645669287
21
-4.4271653543307083
0
LINE
8
BLACK
6
CONTINUOUS
10
5.1072834645669287
20
-4.4271653543307083
11
5.1030708267716536
21
-4.4265515748031499
0
LINE
8
BLACK
6
CONTINUOUS
10
5.1030708267716536
20
-4.4265515748031499
11
5.0987045669291335
21
-4.424417047244094
0
LINE
8
BLACK
6
CONTINUOUS
10
5.0987045669291335
20
-4.424417047244094
11
5.0952679921259838
21
-4.4209804724409452
0
LINE
8
BLACK
6
CONTINUOUS
10
5.0952679921259838
20
-4.4209804724409452
11
5.0931334645669288
21
-4.4166142125984251
0
LINE
8
BLACK
6
CONTINUOUS
10
5.0931334645669288
20
-4.4166142125984251
11
5.0925196850393704
21
-4.4124015748031491
0
LINE
8
BLACK
6
CONTINUOUS
10
5.0925196850393704
20
-4.4124015748031491
11
5.0925196850393704
21
-4.3631889763779528
0
LINE
8
BLACK
6
CONTINUOUS
10
5.0925196850393704
20
-4.3631889763779528
11
5.0931334645669288
21
-4.3589763385826767
0
LINE
8
BLACK
6
CONTINUOUS
10
5.0931334645669288
20
-4.3589763385826767
11
5.0952679921259838
21
-4.3546100787401576
0
LINE
8
BLACK
6
CONTINUOUS
10
5.0952679921259838
20
-4.3546100787401576
11
5.0987045669291335
21
-4.3511735039370079
0
LINE
8
BLACK
6
CONTINUOUS
10
5.0987045669291335
20
-4.3511735039370079
11
5.1030708267716536
21
-4.3490389763779529
0
LINE
8
BLACK
6
CONTINUOUS
10
5.1030708267716536
20
-4.3490389763779529
11
5.1072834645669287
21
-4.3484251968503935
0
LINE
8
BLACK
6
CONTINUOUS
10
5.1072834645669287
20
-4.3484251968503935
11
5.1368110236220472
21
-4.3484251968503935
0
LINE
8
BLACK
6
CONTINUOUS
10
5.1368110236220472
20
-4.3484251968503935
11
5.1410236614173224
21
-4.3490389763779529
0
LINE
8
BLACK
6
CONTINUOUS
10
5.2315748425196853
20
-4.3490389763779529
11
5.2359411023622044
21
-4.3511735039370079
0
LINE
8
BLACK
6
CONTINUOUS
10
5.2359411023622044
20
-4.3511735039370079
11
5.2393776771653542
21
-4.3546100787401576
0
LINE
8
BLACK
6
CONTINUOUS
10
5.2393776771653542
20
-4.3546100787401576
11
5.2415122047244092
21
-4.3589763385826767
0
LINE
8
BLACK
6
CONTINUOUS
10
5.2415122047244092
20
-4.3589763385826767
11
5.2421259842519685
21
-4.3631889763779528
0
LINE
8
BLACK
6
CONTINUOUS
10
5.2421259842519685
20
-4.3631889763779528
11
5.2421259842519685
21
-4.4124015748031491
0
LINE
8
BLACK
6
CONTINUOUS
10
5.2421259842519685
20
-4.4124015748031491
11
5.2415122047244092
21
-4.4166142125984251
0
LINE
8
BLACK
6
CONTINUOUS
10
5.2415122047244092
20
-4.4166142125984251
11
5.2393776771653542
21
-4.4209804724409452
0
LINE
8
BLACK
6
CONTINUOUS
10
5.2393776771653542
20
-4.4209804724409452
11
5.2359411023622044
21
-4.424417047244094
0
LINE
8
BLACK
6
CONTINUOUS
10
5.2359411023622044
20
-4.424417047244094
11
5.2315748425196853
21
-4.4265515748031499
0
LINE
8
BLACK
6
CONTINUOUS
10
5.2315748425196853
20
-4.4265515748031499
11
5.2273622047244093
21
-4.4271653543307083
0
LINE
8
BLACK
6
CONTINUOUS
10
5.2273622047244093
20
-4.4271653543307083
11
5.1978346456692917
21
-4.4271653543307083
0
LINE
8
BLACK
6
CONTINUOUS
10
5.1978346456692917
20
-4.4271653543307083
11
5.1936220078740156
21
-4.4265515748031499
0
LINE
8
BLACK
6
CONTINUOUS
10
5.1936220078740156
20
-4.4265515748031499
11
5.1892557480314956
21
-4.424417047244094
0
LINE
8
BLACK
6
CONTINUOUS
10
5.1892557480314956
20
-4.424417047244094
11
5.1858191732283467
21
-4.4209804724409452
0
LINE
8
BLACK
6
CONTINUOUS
10
5.1858191732283467
20
-4.4209804724409452
11
5.1836846456692909
21
-4.4166142125984251
0
LINE
8
BLACK
6
CONTINUOUS
10
5.1836846456692909
20
-4.4166142125984251
11
5.1830708661417324
21
-4.4124015748031491
0
LINE
8
BLACK
6
CONTINUOUS
10
5.1830708661417324
20
-4.4124015748031491
11
5.1830708661417324
21
-4.3631889763779528
0
LINE
8
BLACK
6
CONTINUOUS
10
5.1830708661417324
20
-4.3631889763779528
11
5.1836846456692909
21
-4.3589763385826767
0
LINE
8
BLACK
6
CONTINUOUS
10
5.1836846456692909
20
-4.3589763385826767
11
5.1858191732283467
21
-4.3546100787401576
0
LINE
8
BLACK
6
CONTINUOUS
10
5.1858191732283467
20
-4.3546100787401576
11
5.1892557480314956
21
-4.3511735039370079
0
LINE
8
BLACK
6
CONTINUOUS
10
5.1892557480314956
20
-4.3511735039370079
11
5.1936220078740156
21
-4.3490389763779529
0
LINE
8
BLACK
6
CONTINUOUS
10
5.1936220078740156
20
-4.3490389763779529
11
5.1978346456692917
21
-4.3484251968503935
0
LINE
8
BLACK
6
CONTINUOUS
10
5.1978346456692917
20
-4.3484251968503935
11
5.2273622047244093
21
-4.3484251968503935
0
LINE
8
BLACK
6
CONTINUOUS
10
5.2273622047244093
20
-4.3484251968503935
11
5.2315748425196853
21
-4.3490389763779529
0
LINE
8
BLACK
6
CONTINUOUS
10
5.3851181496062992
20
-4.3490389763779529
11
5.3894844094488183
21
-4.3511735039370079
0
LINE
8
BLACK
6
CONTINUOUS
10
5.3894844094488183
20
-4.3511735039370079
11
5.3929209842519681
21
-4.3546100787401576
0
LINE
8
BLACK
6
CONTINUOUS
10
5.3929209842519681
20
-4.3546100787401576
11
5.3950555118110239
21
-4.3589763385826767
0
LINE
8
BLACK
6
CONTINUOUS
10
5.3950555118110239
20
-4.3589763385826767
11
5.3956692913385824
21
-4.3631889763779528
0
LINE
8
BLACK
6
CONTINUOUS
10
5.3956692913385824
20
-4.3631889763779528
11
5.3956692913385824
21
-4.4124015748031491
0
LINE
8
BLACK
6
CONTINUOUS
10
5.3956692913385824
20
-4.4124015748031491
11
5.3950555118110239
21
-4.4166142125984251
0
LINE
8
BLACK
6
CONTINUOUS
10
5.3950555118110239
20
-4.4166142125984251
11
5.3929209842519681
21
-4.4209804724409452
0
LINE
8
BLACK
6
CONTINUOUS
10
5.3929209842519681
20
-4.4209804724409452
11
5.3894844094488183
21
-4.424417047244094
0
LINE
8
BLACK
6
CONTINUOUS
10
5.3894844094488183
20
-4.424417047244094
11
5.3851181496062992
21
-4.4265515748031499
0
LINE
8
BLACK
6
CONTINUOUS
10
5.3851181496062992
20
-4.4265515748031499
11
5.3809055118110232
21
-4.4271653543307083
0
LINE
8
BLACK
6
CONTINUOUS
10
5.3809055118110232
20
-4.4271653543307083
11
5.3513779527559056
21
-4.4271653543307083
0
LINE
8
BLACK
6
CONTINUOUS
10
5.3513779527559056
20
-4.4271653543307083
11
5.3471653149606295
21
-4.4265515748031499
0
LINE
8
BLACK
6
CONTINUOUS
10
5.3471653149606295
20
-4.4265515748031499
11
5.3427990551181104
21
-4.424417047244094
0
LINE
8
BLACK
6
CONTINUOUS
10
5.3427990551181104
20
-4.424417047244094
11
5.3393624803149606
21
-4.4209804724409452
0
LINE
8
BLACK
6
CONTINUOUS
10
5.3393624803149606
20
-4.4209804724409452
11
5.3372279527559057
21
-4.4166142125984251
0
LINE
8
BLACK
6
CONTINUOUS
10
5.3372279527559057
20
-4.4166142125984251
11
5.3366141732283463
21
-4.4124015748031491
0
LINE
8
BLACK
6
CONTINUOUS
10
5.3366141732283463
20
-4.4124015748031491
11
5.3366141732283463
21
-4.3631889763779528
0
LINE
8
BLACK
6
CONTINUOUS
10
5.3366141732283463
20
-4.3631889763779528
11
5.3372279527559057
21
-4.3589763385826767
0
LINE
8
BLACK
6
CONTINUOUS
10
5.3372279527559057
20
-4.3589763385826767
11
5.3393624803149606
21
-4.3546100787401576
0
LINE
8
BLACK
6
CONTINUOUS
10
5.3393624803149606
20
-4.3546100787401576
11
5.3427990551181104
21
-4.3511735039370079
0
LINE
8
BLACK
6
CONTINUOUS
10
5.3427990551181104
20
-4.3511735039370079
11
5.3471653149606295
21
-4.3490389763779529
0
LINE
8
BLACK
6
CONTINUOUS
10
5.3471653149606295
20
-4.3490389763779529
11
5.3513779527559056
21
-4.3484251968503935
0
LINE
8
BLACK
6
CONTINUOUS
10
5.3513779527559056
20
-4.3484251968503935
11
5.3809055118110232
21
-4.3484251968503935
0
LINE
8
BLACK
6
CONTINUOUS
10
5.3809055118110232
20
-4.3484251968503935
11
5.3851181496062992
21
-4.3490389763779529
0
LINE
8
BLACK
6
CONTINUOUS
10
5.4756693307086612
20
-4.3490389763779529
11
5.4800355905511813
21
-4.3511735039370079
0
LINE
8
BLACK
6
CONTINUOUS
10
5.4800355905511813
20
-4.3511735039370079
11
5.483472165354331
21
-4.3546100787401576
0
LINE
8
BLACK
6
CONTINUOUS
10
5.483472165354331
20
-4.3546100787401576
11
5.485606692913386
21
-4.3589763385826767
0
LINE
8
BLACK
6
CONTINUOUS
10
5.485606692913386
20
-4.3589763385826767
11
5.4862204724409445
21
-4.3631889763779528
0
LINE
8
BLACK
6
CONTINUOUS
10
5.4862204724409445
20
-4.3631889763779528
11
5.4862204724409445
21
-4.4124015748031491
0
LINE
8
BLACK
6
CONTINUOUS
10
5.4862204724409445
20
-4.4124015748031491
11
5.485606692913386
21
-4.4166142125984251
0
LINE
8
BLACK
6
CONTINUOUS
10
5.485606692913386
20
-4.4166142125984251
11
5.483472165354331
21
-4.4209804724409452
0
LINE
8
BLACK
6
CONTINUOUS
10
5.483472165354331
20
-4.4209804724409452
11
5.4800355905511813
21
-4.424417047244094
0
LINE
8
BLACK
6
CONTINUOUS
10
5.4800355905511813
20
-4.424417047244094
11
5.4756693307086612
21
-4.4265515748031499
0
LINE
8
BLACK
6
CONTINUOUS
10
5.4756693307086612
20
-4.4265515748031499
11
5.4714566929133861
21
-4.4271653543307083
0
LINE
8
BLACK
6
CONTINUOUS
10
5.4714566929133861
20
-4.4271653543307083
11
5.4419291338582676
21
-4.4271653543307083
0
LINE
8
BLACK
6
CONTINUOUS
10
5.4419291338582676
20
-4.4271653543307083
11
5.4377164960629916
21
-4.4265515748031499
0
LINE
8
BLACK
6
CONTINUOUS
10
5.4377164960629916
20
-4.4265515748031499
11
5.4333502362204724
21
-4.424417047244094
0
LINE
8
BLACK
6
CONTINUOUS
10
5.4333502362204724
20
-4.424417047244094
11
5.4299136614173227
21
-4.4209804724409452
0
LINE
8
BLACK
6
CONTINUOUS
10
5.4299136614173227
20
-4.4209804724409452
11
5.4277791338582677
21
-4.4166142125984251
0
LINE
8
BLACK
6
CONTINUOUS
10
5.4277791338582677
20
-4.4166142125984251
11
5.4271653543307083
21
-4.4124015748031491
0
LINE
8
BLACK
6
CONTINUOUS
10
5.4271653543307083
20
-4.4124015748031491
11
5.4271653543307083
21
-4.3631889763779528
0
LINE
8
BLACK
6
CONTINUOUS
10
5.4271653543307083
20
-4.3631889763779528
11
5.4277791338582677
21
-4.3589763385826767
0
LINE
8
BLACK
6
CONTINUOUS
10
5.4277791338582677
20
-4.3589763385826767
11
5.4299136614173227
21
-4.3546100787401576
0
LINE
8
BLACK
6
CONTINUOUS
10
5.4299136614173227
20
-4.3546100787401576
11
5.4333502362204724
21
-4.3511735039370079
0
LINE
8
BLACK
6
CONTINUOUS
10
5.4333502362204724
20
-4.3511735039370079
11
5.4377164960629916
21
-4.3490389763779529
0
LINE
8
BLACK
6
CONTINUOUS
10
5.4377164960629916
20
-4.3490389763779529
11
5.4419291338582676
21
-4.3484251968503935
0
LINE
8
BLACK
6
CONTINUOUS
10
5.4419291338582676
20
-4.3484251968503935
11
5.4714566929133861
21
-4.3484251968503935
0
LINE
8
BLACK
6
CONTINUOUS
10
5.4714566929133861
20
-4.3484251968503935
11
5.4756693307086612
21
-4.3490389763779529
0
LINE
8
BLACK
6
CONTINUOUS
10
5.5662205118110233
20
-4.3490389763779529
11
5.5705867716535433
21
-4.3511735039370079
0
LINE
8
BLACK
6
CONTINUOUS
10
5.5705867716535433
20
-4.3511735039370079
11
5.5740233464566931
21
-4.3546100787401576
0
LINE
8
BLACK
6
CONTINUOUS
10
5.5740233464566931
20
-4.3546100787401576
11
5.576157874015748
21
-4.3589763385826767
0
LINE
8
BLACK
6
CONTINUOUS
10
5.576157874015748
20
-4.3589763385826767
11
5.5767716535433074
21
-4.3631889763779528
0
LINE
8
BLACK
6
CONTINUOUS
10
5.5767716535433074
20
-4.3631889763779528
11
5.5767716535433074
21
-4.4124015748031491
0
LINE
8
BLACK
6
CONTINUOUS
10
5.5767716535433074
20
-4.4124015748031491
11
5.576157874015748
21
-4.4166142125984251
0
LINE
8
BLACK
6
CONTINUOUS
10
5.576157874015748
20
-4.4166142125984251
11
5.5740233464566931
21
-4.4209804724409452
0
LINE
8
BLACK
6
CONTINUOUS
10
5.5740233464566931
20
-4.4209804724409452
11
5.5705867716535433
21
-4.424417047244094
0
LINE
8
BLACK
6
CONTINUOUS
10
5.5705867716535433
20
-4.424417047244094
11
5.5662205118110233
21
-4.4265515748031499
0
LINE
8
BLACK
6
CONTINUOUS
10
5.5662205118110233
20
-4.4265515748031499
11
5.5620078740157481
21
-4.4271653543307083
0
LINE
8
BLACK
6
CONTINUOUS
10
5.5620078740157481
20
-4.4271653543307083
11
5.5324803149606296
21
-4.4271653543307083
0
LINE
8
BLACK
6
CONTINUOUS
10
5.5324803149606296
20
-4.4271653543307083
11
5.5282676771653545
21
-4.4265515748031499
0
LINE
8
BLACK
6
CONTINUOUS
10
5.5282676771653545
20
-4.4265515748031499
11
5.5239014173228345
21
-4.424417047244094
0
LINE
8
BLACK
6
CONTINUOUS
10
5.5239014173228345
20
-4.424417047244094
11
5.5204648425196847
21
-4.4209804724409452
0
LINE
8
BLACK
6
CONTINUOUS
10
5.5204648425196847
20
-4.4209804724409452
11
5.5183303149606298
21
-4.4166142125984251
0
LINE
8
BLACK
6
CONTINUOUS
10
5.5183303149606298
20
-4.4166142125984251
11
5.5177165354330704
21
-4.4124015748031491
0
LINE
8
BLACK
6
CONTINUOUS
10
5.5177165354330704
20
-4.4124015748031491
11
5.5177165354330704
21
-4.3631889763779528
0
LINE
8
BLACK
6
CONTINUOUS
10
5.5177165354330704
20
-4.3631889763779528
11
5.5183303149606298
21
-4.3589763385826767
0
LINE
8
BLACK
6
CONTINUOUS
10
5.5183303149606298
20
-4.3589763385826767
11
5.5204648425196847
21
-4.3546100787401576
0
LINE
8
BLACK
6
CONTINUOUS
10
5.5204648425196847
20
-4.3546100787401576
11
5.5239014173228345
21
-4.3511735039370079
0
LINE
8
BLACK
6
CONTINUOUS
10
5.5239014173228345
20
-4.3511735039370079
11
5.5282676771653545
21
-4.3490389763779529
0
LINE
8
BLACK
6
CONTINUOUS
10
5.5282676771653545
20
-4.3490389763779529
11
5.5324803149606296
21
-4.3484251968503935
0
LINE
8
BLACK
6
CONTINUOUS
10
5.5324803149606296
20
-4.3484251968503935
11
5.5620078740157481
21
-4.3484251968503935
0
LINE
8
BLACK
6
CONTINUOUS
10
5.5620078740157481
20
-4.3484251968503935
11
5.5662205118110233
21
-4.3490389763779529
0
LINE
8
BLACK
6
CONTINUOUS
10
5.6812992125984252
20
-4.4267125984251967
11
5.6557086614173224
21
-4.4267125984251967
0
LINE
8
BLACK
6
CONTINUOUS
10
5.6557086614173224
20
-4.4267125984251967
11
5.6557086614173224
21
-4.3666732283464569
0
LINE
8
BLACK
6
CONTINUOUS
10
5.6557086614173224
20
-4.3666732283464569
11
5.6812992125984252
21
-4.3666732283464569
0
LINE
8
BLACK
6
CONTINUOUS
10
5.6812992125984252
20
-4.3666732283464569
11
5.6812992125984252
21
-4.4267125984251967
0
LINE
8
BLACK
6
CONTINUOUS
10
5.731299212598425
20
-4.4267125984251967
11
5.7057086614173231
21
-4.4267125984251967
0
LINE
8
BLACK
6
CONTINUOUS
10
5.7057086614173231
20
-4.4267125984251967
11
5.7057086614173231
21
-4.3666732283464569
0
LINE
8
BLACK
6
CONTINUOUS
10
5.7057086614173231
20
-4.3666732283464569
11
5.731299212598425
21
-4.3666732283464569
0
LINE
8
BLACK
6
CONTINUOUS
10
5.731299212598425
20
-4.3666732283464569
11
5.731299212598425
21
-4.4267125984251967
0
LINE
8
BLACK
6
CONTINUOUS
10
5.7812992125984248
20
-4.4267125984251967
11
5.755708661417323
21
-4.4267125984251967
0
LINE
8
BLACK
6
CONTINUOUS
10
5.755708661417323
20
-4.4267125984251967
11
5.755708661417323
21
-4.3666732283464569
0
LINE
8
BLACK
6
CONTINUOUS
10
5.755708661417323
20
-4.3666732283464569
11
5.7812992125984248
21
-4.3666732283464569
0
LINE
8
BLACK
6
CONTINUOUS
10
5.7812992125984248
20
-4.3666732283464569
11
5.7812992125984248
21
-4.4267125984251967
0
LINE
8
BLACK
6
CONTINUOUS
10
5.8312992125984247
20
-4.4267125984251967
11
5.8057086614173228
21
-4.4267125984251967
0
LINE
8
BLACK
6
CONTINUOUS
10
5.8057086614173228
20
-4.4267125984251967
11
5.8057086614173228
21
-4.3666732283464569
0
LINE
8
BLACK
6
CONTINUOUS
10
5.8057086614173228
20
-4.3666732283464569
11
5.8312992125984247
21
-4.3666732283464569
0
LINE
8
BLACK
6
CONTINUOUS
10
5.8312992125984247
20
-4.3666732283464569
11
5.8312992125984247
21
-4.4267125984251967
0
LINE
8
BLACK
6
CONTINUOUS
10
5.8812992125984254
20
-4.4267125984251967
11
5.8557086614173226
21
-4.4267125984251967
0
LINE
8
BLACK
6
CONTINUOUS
10
5.8557086614173226
20
-4.4267125984251967
11
5.8557086614173226
21
-4.3666732283464569
0
LINE
8
BLACK
6
CONTINUOUS
10
5.8557086614173226
20
-4.3666732283464569
11
5.8812992125984254
21
-4.3666732283464569
0
LINE
8
BLACK
6
CONTINUOUS
10
5.8812992125984254
20
-4.3666732283464569
11
5.8812992125984254
21
-4.4267125984251967
0
LINE
8
BLACK
6
CONTINUOUS
10
5.9312992125984252
20
-4.4267125984251967
11
5.9057086614173224
21
-4.4267125984251967
0
LINE
8
BLACK
6
CONTINUOUS
10
5.9057086614173224
20
-4.4267125984251967
11
5.9057086614173224
21
-4.3666732283464569
0
LINE
8
BLACK
6
CONTINUOUS
10
5.9057086614173224
20
-4.3666732283464569
11
5.9312992125984252
21
-4.3666732283464569
0
LINE
8
BLACK
6
CONTINUOUS
10
5.9312992125984252
20
-4.3666732283464569
11
5.9312992125984252
21
-4.4267125984251967
0
LINE
8
BLACK
6
CONTINUOUS
10
5.981299212598425
20
-4.4267125984251967
11
5.9557086614173231
21
-4.4267125984251967
0
LINE
8
BLACK
6
CONTINUOUS
10
5.9557086614173231
20
-4.4267125984251967
11
5.9557086614173231
21
-4.3666732283464569
0
LINE
8
BLACK
6
CONTINUOUS
10
5.9557086614173231
20
-4.3666732283464569
11
5.981299212598425
21
-4.3666732283464569
0
LINE
8
BLACK
6
CONTINUOUS
10
5.981299212598425
20
-4.3666732283464569
11
5.981299212598425
21
-4.4267125984251967
0
LINE
8
BLACK
6
CONTINUOUS
10
6.0312992125984248
20
-4.4267125984251967
11
6.005708661417323
21
-4.4267125984251967
0
LINE
8
BLACK
6
CONTINUOUS
10
6.005708661417323
20
-4.4267125984251967
11
6.005708661417323
21
-4.3666732283464569
0
LINE
8
BLACK
6
CONTINUOUS
10
6.005708661417323
20
-4.3666732283464569
11
6.0312992125984248
21
-4.3666732283464569
0
LINE
8
BLACK
6
CONTINUOUS
10
6.0312992125984248
20
-4.3666732283464569
11
6.0312992125984248
21
-4.4267125984251967
0
LINE
8
BLACK
6
CONTINUOUS
10
5.703193070866142
20
-4.2821703543307086
11
5.706066889763779
21
-4.2840905905511812
0
LINE
8
BLACK
6
CONTINUOUS
10
5.706066889763779
20
-4.2840905905511812
11
5.7079871259842516
21
-4.2869644094488191
0
LINE
8
BLACK
6
CONTINUOUS
10
5.7079871259842516
20
-4.2869644094488191
11
5.7086614173228343
21
-4.2903543307086611
0
LINE
8
BLACK
6
CONTINUOUS
10
5.7086614173228343
20
-4.2903543307086611
11
5.7086614173228343
21
-4.3100393700787398
0
LINE
8
BLACK
6
CONTINUOUS
10
5.7086614173228343
20
-4.3100393700787398
11
5.7079871259842516
21
-4.3134292913385828
0
LINE
8
BLACK
6
CONTINUOUS
10
5.7079871259842516
20
-4.3134292913385828
11
5.706066889763779
21
-4.3163031102362206
0
LINE
8
BLACK
6
CONTINUOUS
10
5.706066889763779
20
-4.3163031102362206
11
5.703193070866142
21
-4.3182233464566933
0
LINE
8
BLACK
6
CONTINUOUS
10
5.703193070866142
20
-4.3182233464566933
11
5.6998031496062991
21
-4.3188976377952759
0
LINE
8
BLACK
6
CONTINUOUS
10
5.6998031496062991
20
-4.3188976377952759
11
5.6820866141732278
21
-4.3188976377952759
0
LINE
8
BLACK
6
CONTINUOUS
10
5.6820866141732278
20
-4.3188976377952759
11
5.6786966929133857
21
-4.3182233464566933
0
LINE
8
BLACK
6
CONTINUOUS
10
5.6786966929133857
20
-4.3182233464566933
11
5.6758228740157479
21
-4.3163031102362206
0
LINE
8
BLACK
6
CONTINUOUS
10
5.6758228740157479
20
-4.3163031102362206
11
5.6739026377952753
21
-4.3134292913385828
0
LINE
8
BLACK
6
CONTINUOUS
10
5.6739026377952753
20
-4.3134292913385828
11
5.6732283464566926
21
-4.3100393700787398
0
LINE
8
BLACK
6
CONTINUOUS
10
5.6732283464566926
20
-4.3100393700787398
11
5.6732283464566926
21
-4.2903543307086611
0
LINE
8
BLACK
6
CONTINUOUS
10
5.6732283464566926
20
-4.2903543307086611
11
5.6739026377952753
21
-4.2869644094488191
0
LINE
8
BLACK
6
CONTINUOUS
10
5.6739026377952753
20
-4.2869644094488191
11
5.6758228740157479
21
-4.2840905905511812
0
LINE
8
BLACK
6
CONTINUOUS
10
5.6758228740157479
20
-4.2840905905511812
11
5.6786966929133857
21
-4.2821703543307086
0
LINE
8
BLACK
6
CONTINUOUS
10
5.6786966929133857
20
-4.2821703543307086
11
5.6820866141732278
21
-4.2814960629921259
0
LINE
8
BLACK
6
CONTINUOUS
10
5.6820866141732278
20
-4.2814960629921259
11
5.6998031496062991
21
-4.2814960629921259
0
LINE
8
BLACK
6
CONTINUOUS
10
5.6998031496062991
20
-4.2814960629921259
11
5.703193070866142
21
-4.2821703543307086
0
LINE
8
BLACK
6
CONTINUOUS
10
5.7642166929133856
20
-4.2821703543307086
11
5.7670905118110234
21
-4.2840905905511812
0
LINE
8
BLACK
6
CONTINUOUS
10
5.7670905118110234
20
-4.2840905905511812
11
5.769010748031496
21
-4.2869644094488191
0
LINE
8
BLACK
6
CONTINUOUS
10
5.769010748031496
20
-4.2869644094488191
11
5.7696850393700787
21
-4.2903543307086611
0
LINE
8
BLACK
6
CONTINUOUS
10
5.7696850393700787
20
-4.2903543307086611
11
5.7696850393700787
21
-4.3100393700787398
0
LINE
8
BLACK
6
CONTINUOUS
10
5.7696850393700787
20
-4.3100393700787398
11
5.769010748031496
21
-4.3134292913385828
0
LINE
8
BLACK
6
CONTINUOUS
10
5.769010748031496
20
-4.3134292913385828
11
5.7670905118110234
21
-4.3163031102362206
0
LINE
8
BLACK
6
CONTINUOUS
10
5.7670905118110234
20
-4.3163031102362206
11
5.7642166929133856
21
-4.3182233464566933
0
LINE
8
BLACK
6
CONTINUOUS
10
5.7642166929133856
20
-4.3182233464566933
11
5.7608267716535435
21
-4.3188976377952759
0
LINE
8
BLACK
6
CONTINUOUS
10
5.7608267716535435
20
-4.3188976377952759
11
5.7431102362204722
21
-4.3188976377952759
0
LINE
8
BLACK
6
CONTINUOUS
10
5.7431102362204722
20
-4.3188976377952759
11
5.7397203149606302
21
-4.3182233464566933
0
LINE
8
BLACK
6
CONTINUOUS
10
5.7397203149606302
20
-4.3182233464566933
11
5.7368464960629924
21
-4.3163031102362206
0
LINE
8
BLACK
6
CONTINUOUS
10
5.7368464960629924
20
-4.3163031102362206
11
5.7349262598425197
21
-4.3134292913385828
0
LINE
8
BLACK
6
CONTINUOUS
10
5.7349262598425197
20
-4.3134292913385828
11
5.734251968503937
21
-4.3100393700787398
0
LINE
8
BLACK
6
CONTINUOUS
10
5.734251968503937
20
-4.3100393700787398
11
5.734251968503937
21
-4.2903543307086611
0
LINE
8
BLACK
6
CONTINUOUS
10
5.734251968503937
20
-4.2903543307086611
11
5.7349262598425197
21
-4.2869644094488191
0
LINE
8
BLACK
6
CONTINUOUS
10
5.7349262598425197
20
-4.2869644094488191
11
5.7368464960629924
21
-4.2840905905511812
0
LINE
8
BLACK
6
CONTINUOUS
10
5.7368464960629924
20
-4.2840905905511812
11
5.7397203149606302
21
-4.2821703543307086
0
LINE
8
BLACK
6
CONTINUOUS
10
5.7397203149606302
20
-4.2821703543307086
11
5.7431102362204722
21
-4.2814960629921259
0
LINE
8
BLACK
6
CONTINUOUS
10
5.7431102362204722
20
-4.2814960629921259
11
5.7608267716535435
21
-4.2814960629921259
0
LINE
8
BLACK
6
CONTINUOUS
10
5.7608267716535435
20
-4.2814960629921259
11
5.7642166929133856
21
-4.2821703543307086
0
LINE
8
BLACK
6
CONTINUOUS
10
5.8321300787401578
20
-4.2821703543307086
11
5.8350038976377947
21
-4.2840905905511812
0
LINE
8
BLACK
6
CONTINUOUS
10
5.8350038976377947
20
-4.2840905905511812
11
5.8369241338582674
21
-4.2869644094488191
0
LINE
8
BLACK
6
CONTINUOUS
10
5.8369241338582674
20
-4.2869644094488191
11
5.83759842519685
21
-4.2903543307086611
0
LINE
8
BLACK
6
CONTINUOUS
10
5.83759842519685
20
-4.2903543307086611
11
5.83759842519685
21
-4.3100393700787398
0
LINE
8
BLACK
6
CONTINUOUS
10
5.83759842519685
20
-4.3100393700787398
11
5.8369241338582674
21
-4.3134292913385828
0
LINE
8
BLACK
6
CONTINUOUS
10
5.8369241338582674
20
-4.3134292913385828
11
5.8350038976377947
21
-4.3163031102362206
0
LINE
8
BLACK
6
CONTINUOUS
10
5.8350038976377947
20
-4.3163031102362206
11
5.8321300787401578
21
-4.3182233464566933
0
LINE
8
BLACK
6
CONTINUOUS
10
5.8321300787401578
20
-4.3182233464566933
11
5.8287401574803148
21
-4.3188976377952759
0
LINE
8
BLACK
6
CONTINUOUS
10
5.8287401574803148
20
-4.3188976377952759
11
5.8110236220472435
21
-4.3188976377952759
0
LINE
8
BLACK
6
CONTINUOUS
10
5.8110236220472435
20
-4.3188976377952759
11
5.8076337007874015
21
-4.3182233464566933
0
LINE
8
BLACK
6
CONTINUOUS
10
5.8076337007874015
20
-4.3182233464566933
11
5.8047598818897637
21
-4.3163031102362206
0
LINE
8
BLACK
6
CONTINUOUS
10
5.8047598818897637
20
-4.3163031102362206
11
5.802839645669291
21
-4.3134292913385828
0
LINE
8
BLACK
6
CONTINUOUS
10
5.802839645669291
20
-4.3134292913385828
11
5.8021653543307083
21
-4.3100393700787398
0
LINE
8
BLACK
6
CONTINUOUS
10
5.8021653543307083
20
-4.3100393700787398
11
5.8021653543307083
21
-4.2903543307086611
0
LINE
8
BLACK
6
CONTINUOUS
10
5.8021653543307083
20
-4.2903543307086611
11
5.802839645669291
21
-4.2869644094488191
0
LINE
8
BLACK
6
CONTINUOUS
10
5.802839645669291
20
-4.2869644094488191
11
5.8047598818897637
21
-4.2840905905511812
0
LINE
8
BLACK
6
CONTINUOUS
10
5.8047598818897637
20
-4.2840905905511812
11
5.8076337007874015
21
-4.2821703543307086
0
LINE
8
BLACK
6
CONTINUOUS
10
5.8076337007874015
20
-4.2821703543307086
11
5.8110236220472435
21
-4.2814960629921259
0
LINE
8
BLACK
6
CONTINUOUS
10
5.8110236220472435
20
-4.2814960629921259
11
5.8287401574803148
21
-4.2814960629921259
0
LINE
8
BLACK
6
CONTINUOUS
10
5.8287401574803148
20
-4.2814960629921259
11
5.8321300787401578
21
-4.2821703543307086
0
LINE
8
BLACK
6
CONTINUOUS
10
5.8931537007874013
20
-4.2821703543307086
11
5.8960275196850391
21
-4.2840905905511812
0
LINE
8
BLACK
6
CONTINUOUS
10
5.8960275196850391
20
-4.2840905905511812
11
5.8979477559055118
21
-4.2869644094488191
0
LINE
8
BLACK
6
CONTINUOUS
10
5.8979477559055118
20
-4.2869644094488191
11
5.8986220472440944
21
-4.2903543307086611
0
LINE
8
BLACK
6
CONTINUOUS
10
5.8986220472440944
20
-4.2903543307086611
11
5.8986220472440944
21
-4.3100393700787398
0
LINE
8
BLACK
6
CONTINUOUS
10
5.8986220472440944
20
-4.3100393700787398
11
5.8979477559055118
21
-4.3134292913385828
0
LINE
8
BLACK
6
CONTINUOUS
10
5.8979477559055118
20
-4.3134292913385828
11
5.8960275196850391
21
-4.3163031102362206
0
LINE
8
BLACK
6
CONTINUOUS
10
5.8960275196850391
20
-4.3163031102362206
11
5.8931537007874013
21
-4.3182233464566933
0
LINE
8
BLACK
6
CONTINUOUS
10
5.8931537007874013
20
-4.3182233464566933
11
5.8897637795275593
21
-4.3188976377952759
0
LINE
8
BLACK
6
CONTINUOUS
10
5.8897637795275593
20
-4.3188976377952759
11
5.872047244094488
21
-4.3188976377952759
0
LINE
8
BLACK
6
CONTINUOUS
10
5.872047244094488
20
-4.3188976377952759
11
5.8686573228346459
21
-4.3182233464566933
0
LINE
8
BLACK
6
CONTINUOUS
10
5.8686573228346459
20
-4.3182233464566933
11
5.8657835039370081
21
-4.3163031102362206
0
LINE
8
BLACK
6
CONTINUOUS
10
5.8657835039370081
20
-4.3163031102362206
11
5.8638632677165354
21
-4.3134292913385828
0
LINE
8
BLACK
6
CONTINUOUS
10
5.8638632677165354
20
-4.3134292913385828
11
5.8631889763779528
21
-4.3100393700787398
0
LINE
8
BLACK
6
CONTINUOUS
10
5.8631889763779528
20
-4.3100393700787398
11
5.8631889763779528
21
-4.2903543307086611
0
LINE
8
BLACK
6
CONTINUOUS
10
5.8631889763779528
20
-4.2903543307086611
11
5.8638632677165354
21
-4.2869644094488191
0
LINE
8
BLACK
6
CONTINUOUS
10
5.8638632677165354
20
-4.2869644094488191
11
5.8657835039370081
21
-4.2840905905511812
0
LINE
8
BLACK
6
CONTINUOUS
10
5.8657835039370081
20
-4.2840905905511812
11
5.8686573228346459
21
-4.2821703543307086
0
LINE
8
BLACK
6
CONTINUOUS
10
5.8686573228346459
20
-4.2821703543307086
11
5.872047244094488
21
-4.2814960629921259
0
LINE
8
BLACK
6
CONTINUOUS
10
5.872047244094488
20
-4.2814960629921259
11
5.8897637795275593
21
-4.2814960629921259
0
LINE
8
BLACK
6
CONTINUOUS
10
5.8897637795275593
20
-4.2814960629921259
11
5.8931537007874013
21
-4.2821703543307086
0
LINE
8
BLACK
6
CONTINUOUS
10
5.9590985826771652
20
-4.2821703543307086
11
5.961972401574803
21
-4.2840905905511812
0
LINE
8
BLACK
6
CONTINUOUS
10
5.961972401574803
20
-4.2840905905511812
11
5.9638926377952757
21
-4.2869644094488191
0
LINE
8
BLACK
6
CONTINUOUS
10
5.9638926377952757
20
-4.2869644094488191
11
5.9645669291338583
21
-4.2903543307086611
0
LINE
8
BLACK
6
CONTINUOUS
10
5.9645669291338583
20
-4.2903543307086611
11
5.9645669291338583
21
-4.3100393700787398
0
LINE
8
BLACK
6
CONTINUOUS
10
5.9645669291338583
20
-4.3100393700787398
11
5.9638926377952757
21
-4.3134292913385828
0
LINE
8
BLACK
6
CONTINUOUS
10
5.9638926377952757
20
-4.3134292913385828
11
5.961972401574803
21
-4.3163031102362206
0
LINE
8
BLACK
6
CONTINUOUS
10
5.961972401574803
20
-4.3163031102362206
11
5.9590985826771652
21
-4.3182233464566933
0
LINE
8
BLACK
6
CONTINUOUS
10
5.9590985826771652
20
-4.3182233464566933
11
5.9557086614173231
21
-4.3188976377952759
0
LINE
8
BLACK
6
CONTINUOUS
10
5.9557086614173231
20
-4.3188976377952759
11
5.9379921259842519
21
-4.3188976377952759
0
LINE
8
BLACK
6
CONTINUOUS
10
5.9379921259842519
20
-4.3188976377952759
11
5.9346022047244089
21
-4.3182233464566933
0
LINE
8
BLACK
6
CONTINUOUS
10
5.9346022047244089
20
-4.3182233464566933
11
5.9317283858267711
21
-4.3163031102362206
0
LINE
8
BLACK
6
CONTINUOUS
10
5.9317283858267711
20
-4.3163031102362206
11
5.9298081496062993
21
-4.3134292913385828
0
LINE
8
BLACK
6
CONTINUOUS
10
5.9298081496062993
20
-4.3134292913385828
11
5.9291338582677167
21
-4.3100393700787398
0
LINE
8
BLACK
6
CONTINUOUS
10
5.9291338582677167
20
-4.3100393700787398
11
5.9291338582677167
21
-4.2903543307086611
0
LINE
8
BLACK
6
CONTINUOUS
10
5.9291338582677167
20
-4.2903543307086611
11
5.9298081496062993
21
-4.2869644094488191
0
LINE
8
BLACK
6
CONTINUOUS
10
5.9298081496062993
20
-4.2869644094488191
11
5.9317283858267711
21
-4.2840905905511812
0
LINE
8
BLACK
6
CONTINUOUS
10
5.9317283858267711
20
-4.2840905905511812
11
5.9346022047244089
21
-4.2821703543307086
0
LINE
8
BLACK
6
CONTINUOUS
10
5.9346022047244089
20
-4.2821703543307086
11
5.9379921259842519
21
-4.2814960629921259
0
LINE
8
BLACK
6
CONTINUOUS
10
5.9379921259842519
20
-4.2814960629921259
11
5.9557086614173231
21
-4.2814960629921259
0
LINE
8
BLACK
6
CONTINUOUS
10
5.9557086614173231
20
-4.2814960629921259
11
5.9590985826771652
21
-4.2821703543307086
0
LINE
8
BLACK
6
CONTINUOUS
10
6.0201222047244096
20
-4.2821703543307086
11
6.0229960236220474
21
-4.2840905905511812
0
LINE
8
BLACK
6
CONTINUOUS
10
6.0229960236220474
20
-4.2840905905511812
11
6.0249162598425192
21
-4.2869644094488191
0
LINE
8
BLACK
6
CONTINUOUS
10
6.0249162598425192
20
-4.2869644094488191
11
6.0255905511811019
21
-4.2903543307086611
0
LINE
8
BLACK
6
CONTINUOUS
10
6.0255905511811019
20
-4.2903543307086611
11
6.0255905511811019
21
-4.3100393700787398
0
LINE
8
BLACK
6
CONTINUOUS
10
6.0255905511811019
20
-4.3100393700787398
11
6.0249162598425192
21
-4.3134292913385828
0
LINE
8
BLACK
6
CONTINUOUS
10
6.0249162598425192
20
-4.3134292913385828
11
6.0229960236220474
21
-4.3163031102362206
0
LINE
8
BLACK
6
CONTINUOUS
10
6.0229960236220474
20
-4.3163031102362206
11
6.0201222047244096
21
-4.3182233464566933
0
LINE
8
BLACK
6
CONTINUOUS
10
6.0201222047244096
20
-4.3182233464566933
11
6.0167322834645667
21
-4.3188976377952759
0
LINE
8
BLACK
6
CONTINUOUS
10
6.0167322834645667
20
-4.3188976377952759
11
5.9990157480314963
21
-4.3188976377952759
0
LINE
8
BLACK
6
CONTINUOUS
10
5.9990157480314963
20
-4.3188976377952759
11
5.9956258267716533
21
-4.3182233464566933
0
LINE
8
BLACK
6
CONTINUOUS
10
5.9956258267716533
20
-4.3182233464566933
11
5.9927520078740155
21
-4.3163031102362206
0
LINE
8
BLACK
6
CONTINUOUS
10
5.9927520078740155
20
-4.3163031102362206
11
5.9908317716535429
21
-4.3134292913385828
0
LINE
8
BLACK
6
CONTINUOUS
10
5.9908317716535429
20
-4.3134292913385828
11
5.9901574803149602
21
-4.3100393700787398
0
LINE
8
BLACK
6
CONTINUOUS
10
5.9901574803149602
20
-4.3100393700787398
11
5.9901574803149602
21
-4.2903543307086611
0
LINE
8
BLACK
6
CONTINUOUS
10
5.9901574803149602
20
-4.2903543307086611
11
5.9908317716535429
21
-4.2869644094488191
0
LINE
8
BLACK
6
CONTINUOUS
10
5.9908317716535429
20
-4.2869644094488191
11
5.9927520078740155
21
-4.2840905905511812
0
LINE
8
BLACK
6
CONTINUOUS
10
5.9927520078740155
20
-4.2840905905511812
11
5.9956258267716533
21
-4.2821703543307086
0
LINE
8
BLACK
6
CONTINUOUS
10
5.9956258267716533
20
-4.2821703543307086
11
5.9990157480314963
21
-4.2814960629921259
0
LINE
8
BLACK
6
CONTINUOUS
10
5.9990157480314963
20
-4.2814960629921259
11
6.0167322834645667
21
-4.2814960629921259
0
LINE
8
BLACK
6
CONTINUOUS
10
6.0167322834645667
20
-4.2814960629921259
11
6.0201222047244096
21
-4.2821703543307086
0
LINE
8
BLACK
6
CONTINUOUS
10
5.0339017322834643
20
-4.2772490944881891
11
5.0367755511811021
21
-4.2791693307086609
0
LINE
8
BLACK
6
CONTINUOUS
10
5.0367755511811021
20
-4.2791693307086609
11
5.0386957874015748
21
-4.2820431496062987
0
LINE
8
BLACK
6
CONTINUOUS
10
5.0386957874015748
20
-4.2820431496062987
11
5.0393700787401574
21
-4.2854330708661417
0
LINE
8
BLACK
6
CONTINUOUS
10
5.0393700787401574
20
-4.2854330708661417
11
5.0393700787401574
21
-4.3051181102362204
0
LINE
8
BLACK
6
CONTINUOUS
10
5.0393700787401574
20
-4.3051181102362204
11
5.0386957874015748
21
-4.3085080314960633
0
LINE
8
BLACK
6
CONTINUOUS
10
5.0386957874015748
20
-4.3085080314960633
11
5.0367755511811021
21
-4.3113818503937003
0
LINE
8
BLACK
6
CONTINUOUS
10
5.0367755511811021
20
-4.3113818503937003
11
5.0339017322834643
21
-4.3133020866141729
0
LINE
8
BLACK
6
CONTINUOUS
10
5.0339017322834643
20
-4.3133020866141729
11
5.0305118110236222
21
-4.3139763779527556
0
LINE
8
BLACK
6
CONTINUOUS
10
5.0305118110236222
20
-4.3139763779527556
11
5.0127952755905509
21
-4.3139763779527556
0
LINE
8
BLACK
6
CONTINUOUS
10
5.0127952755905509
20
-4.3139763779527556
11
5.0094053543307089
21
-4.3133020866141729
0
LINE
8
BLACK
6
CONTINUOUS
10
5.0094053543307089
20
-4.3133020866141729
11
5.0065315354330711
21
-4.3113818503937003
0
LINE
8
BLACK
6
CONTINUOUS
10
5.0065315354330711
20
-4.3113818503937003
11
5.0046112992125984
21
-4.3085080314960633
0
LINE
8
BLACK
6
CONTINUOUS
10
5.0046112992125984
20
-4.3085080314960633
11
5.0039370078740157
21
-4.3051181102362204
0
LINE
8
BLACK
6
CONTINUOUS
10
5.0039370078740157
20
-4.3051181102362204
11
5.0039370078740157
21
-4.2854330708661417
0
LINE
8
BLACK
6
CONTINUOUS
10
5.0039370078740157
20
-4.2854330708661417
11
5.0046112992125984
21
-4.2820431496062987
0
LINE
8
BLACK
6
CONTINUOUS
10
5.0046112992125984
20
-4.2820431496062987
11
5.0065315354330711
21
-4.2791693307086609
0
LINE
8
BLACK
6
CONTINUOUS
10
5.0065315354330711
20
-4.2791693307086609
11
5.0094053543307089
21
-4.2772490944881891
0
LINE
8
BLACK
6
CONTINUOUS
10
5.0094053543307089
20
-4.2772490944881891
11
5.0127952755905509
21
-4.2765748031496065
0
LINE
8
BLACK
6
CONTINUOUS
10
5.0127952755905509
20
-4.2765748031496065
11
5.0305118110236222
21
-4.2765748031496065
0
LINE
8
BLACK
6
CONTINUOUS
10
5.0305118110236222
20
-4.2765748031496065
11
5.0339017322834643
21
-4.2772490944881891
0
LINE
8
BLACK
6
CONTINUOUS
10
5.0949253543307087
20
-4.2772490944881891
11
5.0977991732283465
21
-4.2791693307086609
0
LINE
8
BLACK
6
CONTINUOUS
10
5.0977991732283465
20
-4.2791693307086609
11
5.0997194094488192
21
-4.2820431496062987
0
LINE
8
BLACK
6
CONTINUOUS
10
5.0997194094488192
20
-4.2820431496062987
11
5.1003937007874018
21
-4.2854330708661417
0
LINE
8
BLACK
6
CONTINUOUS
10
5.1003937007874018
20
-4.2854330708661417
11
5.1003937007874018
21
-4.3051181102362204
0
LINE
8
BLACK
6
CONTINUOUS
10
5.1003937007874018
20
-4.3051181102362204
11
5.0997194094488192
21
-4.3085080314960633
0
LINE
8
BLACK
6
CONTINUOUS
10
5.0997194094488192
20
-4.3085080314960633
11
5.0977991732283465
21
-4.3113818503937003
0
LINE
8
BLACK
6
CONTINUOUS
10
5.0977991732283465
20
-4.3113818503937003
11
5.0949253543307087
21
-4.3133020866141729
0
LINE
8
BLACK
6
CONTINUOUS
10
5.0949253543307087
20
-4.3133020866141729
11
5.0915354330708658
21
-4.3139763779527556
0
LINE
8
BLACK
6
CONTINUOUS
10
5.0915354330708658
20
-4.3139763779527556
11
5.0738188976377954
21
-4.3139763779527556
0
LINE
8
BLACK
6
CONTINUOUS
10
5.0738188976377954
20
-4.3139763779527556
11
5.0704289763779524
21
-4.3133020866141729
0
LINE
8
BLACK
6
CONTINUOUS
10
5.0704289763779524
20
-4.3133020866141729
11
5.0675551574803146
21
-4.3113818503937003
0
LINE
8
BLACK
6
CONTINUOUS
10
5.0675551574803146
20
-4.3113818503937003
11
5.0656349212598428
21
-4.3085080314960633
0
LINE
8
BLACK
6
CONTINUOUS
10
5.0656349212598428
20
-4.3085080314960633
11
5.0649606299212602
21
-4.3051181102362204
0
LINE
8
BLACK
6
CONTINUOUS
10
5.0649606299212602
20
-4.3051181102362204
11
5.0649606299212602
21
-4.2854330708661417
0
LINE
8
BLACK
6
CONTINUOUS
10
5.0649606299212602
20
-4.2854330708661417
11
5.0656349212598428
21
-4.2820431496062987
0
LINE
8
BLACK
6
CONTINUOUS
10
5.0656349212598428
20
-4.2820431496062987
11
5.0675551574803146
21
-4.2791693307086609
0
LINE
8
BLACK
6
CONTINUOUS
10
5.0675551574803146
20
-4.2791693307086609
11
5.0704289763779524
21
-4.2772490944881891
0
LINE
8
BLACK
6
CONTINUOUS
10
5.0704289763779524
20
-4.2772490944881891
11
5.0738188976377954
21
-4.2765748031496065
0
LINE
8
BLACK
6
CONTINUOUS
10
5.0738188976377954
20
-4.2765748031496065
11
5.0915354330708658
21
-4.2765748031496065
0
LINE
8
BLACK
6
CONTINUOUS
10
5.0915354330708658
20
-4.2765748031496065
11
5.0949253543307087
21
-4.2772490944881891
0
LINE
8
BLACK
6
CONTINUOUS
10
5.16283874015748
20
-4.2772490944881891
11
5.1657125590551178
21
-4.2791693307086609
0
LINE
8
BLACK
6
CONTINUOUS
10
5.1657125590551178
20
-4.2791693307086609
11
5.1676327952755905
21
-4.2820431496062987
0
LINE
8
BLACK
6
CONTINUOUS
10
5.1676327952755905
20
-4.2820431496062987
11
5.1683070866141732
21
-4.2854330708661417
0
LINE
8
BLACK
6
CONTINUOUS
10
5.1683070866141732
20
-4.2854330708661417
11
5.1683070866141732
21
-4.3051181102362204
0
LINE
8
BLACK
6
CONTINUOUS
10
5.1683070866141732
20
-4.3051181102362204
11
5.1676327952755905
21
-4.3085080314960633
0
LINE
8
BLACK
6
CONTINUOUS
10
5.1676327952755905
20
-4.3085080314960633
11
5.1657125590551178
21
-4.3113818503937003
0
LINE
8
BLACK
6
CONTINUOUS
10
5.1657125590551178
20
-4.3113818503937003
11
5.16283874015748
21
-4.3133020866141729
0
LINE
8
BLACK
6
CONTINUOUS
10
5.16283874015748
20
-4.3133020866141729
11
5.159448818897638
21
-4.3139763779527556
0
LINE
8
BLACK
6
CONTINUOUS
10
5.159448818897638
20
-4.3139763779527556
11
5.1417322834645667
21
-4.3139763779527556
0
LINE
8
BLACK
6
CONTINUOUS
10
5.1417322834645667
20
-4.3139763779527556
11
5.1383423622047246
21
-4.3133020866141729
0
LINE
8
BLACK
6
CONTINUOUS
10
5.1383423622047246
20
-4.3133020866141729
11
5.1354685433070868
21
-4.3113818503937003
0
LINE
8
BLACK
6
CONTINUOUS
10
5.1354685433070868
20
-4.3113818503937003
11
5.1335483070866141
21
-4.3085080314960633
0
LINE
8
BLACK
6
CONTINUOUS
10
5.1335483070866141
20
-4.3085080314960633
11
5.1328740157480315
21
-4.3051181102362204
0
LINE
8
BLACK
6
CONTINUOUS
10
5.1328740157480315
20
-4.3051181102362204
11
5.1328740157480315
21
-4.2854330708661417
0
LINE
8
BLACK
6
CONTINUOUS
10
5.1328740157480315
20
-4.2854330708661417
11
5.1335483070866141
21
-4.2820431496062987
0
LINE
8
BLACK
6
CONTINUOUS
10
5.1335483070866141
20
-4.2820431496062987
11
5.1354685433070868
21
-4.2791693307086609
0
LINE
8
BLACK
6
CONTINUOUS
10
5.1354685433070868
20
-4.2791693307086609
11
5.1383423622047246
21
-4.2772490944881891
0
LINE
8
BLACK
6
CONTINUOUS
10
5.1383423622047246
20
-4.2772490944881891
11
5.1417322834645667
21
-4.2765748031496065
0
LINE
8
BLACK
6
CONTINUOUS
10
5.1417322834645667
20
-4.2765748031496065
11
5.159448818897638
21
-4.2765748031496065
0
LINE
8
BLACK
6
CONTINUOUS
10
5.159448818897638
20
-4.2765748031496065
11
5.16283874015748
21
-4.2772490944881891
0
LINE
8
BLACK
6
CONTINUOUS
10
5.2238623622047244
20
-4.2772490944881891
11
5.2267361811023623
21
-4.2791693307086609
0
LINE
8
BLACK
6
CONTINUOUS
10
5.2267361811023623
20
-4.2791693307086609
11
5.2286564173228349
21
-4.2820431496062987
0
LINE
8
BLACK
6
CONTINUOUS
10
5.2286564173228349
20
-4.2820431496062987
11
5.2293307086614176
21
-4.2854330708661417
0
LINE
8
BLACK
6
CONTINUOUS
10
5.2293307086614176
20
-4.2854330708661417
11
5.2293307086614176
21
-4.3051181102362204
0
LINE
8
BLACK
6
CONTINUOUS
10
5.2293307086614176
20
-4.3051181102362204
11
5.2286564173228349
21
-4.3085080314960633
0
LINE
8
BLACK
6
CONTINUOUS
10
5.2286564173228349
20
-4.3085080314960633
11
5.2267361811023623
21
-4.3113818503937003
0
LINE
8
BLACK
6
CONTINUOUS
10
5.2267361811023623
20
-4.3113818503937003
11
5.2238623622047244
21
-4.3133020866141729
0
LINE
8
BLACK
6
CONTINUOUS
10
5.2238623622047244
20
-4.3133020866141729
11
5.2204724409448815
21
-4.3139763779527556
0
LINE
8
BLACK
6
CONTINUOUS
10
5.2204724409448815
20
-4.3139763779527556
11
5.2027559055118111
21
-4.3139763779527556
0
LINE
8
BLACK
6
CONTINUOUS
10
5.2027559055118111
20
-4.3139763779527556
11
5.1993659842519682
21
-4.3133020866141729
0
LINE
8
BLACK
6
CONTINUOUS
10
5.1993659842519682
20
-4.3133020866141729
11
5.1964921653543303
21
-4.3113818503937003
0
LINE
8
BLACK
6
CONTINUOUS
10
5.1964921653543303
20
-4.3113818503937003
11
5.1945719291338586
21
-4.3085080314960633
0
LINE
8
BLACK
6
CONTINUOUS
10
5.1945719291338586
20
-4.3085080314960633
11
5.1938976377952759
21
-4.3051181102362204
0
LINE
8
BLACK
6
CONTINUOUS
10
5.1938976377952759
20
-4.3051181102362204
11
5.1938976377952759
21
-4.2854330708661417
0
LINE
8
BLACK
6
CONTINUOUS
10
5.1938976377952759
20
-4.2854330708661417
11
5.1945719291338586
21
-4.2820431496062987
0
LINE
8
BLACK
6
CONTINUOUS
10
5.1945719291338586
20
-4.2820431496062987
11
5.1964921653543303
21
-4.2791693307086609
0
LINE
8
BLACK
6
CONTINUOUS
10
5.1964921653543303
20
-4.2791693307086609
11
5.1993659842519682
21
-4.2772490944881891
0
LINE
8
BLACK
6
CONTINUOUS
10
5.1993659842519682
20
-4.2772490944881891
11
5.2027559055118111
21
-4.2765748031496065
0
LINE
8
BLACK
6
CONTINUOUS
10
5.2027559055118111
20
-4.2765748031496065
11
5.2204724409448815
21
-4.2765748031496065
0
LINE
8
BLACK
6
CONTINUOUS
10
5.2204724409448815
20
-4.2765748031496065
11
5.2238623622047244
21
-4.2772490944881891
0
LINE
8
BLACK
6
CONTINUOUS
10
5.3715001574803152
20
-4.2772490944881891
11
5.374373976377953
21
-4.2791693307086609
0
LINE
8
BLACK
6
CONTINUOUS
10
5.374373976377953
20
-4.2791693307086609
11
5.3762942125984248
21
-4.2820431496062987
0
LINE
8
BLACK
6
CONTINUOUS
10
5.3762942125984248
20
-4.2820431496062987
11
5.3769685039370074
21
-4.2854330708661417
0
LINE
8
BLACK
6
CONTINUOUS
10
5.3769685039370074
20
-4.2854330708661417
11
5.3769685039370074
21
-4.3051181102362204
0
LINE
8
BLACK
6
CONTINUOUS
10
5.3769685039370074
20
-4.3051181102362204
11
5.3762942125984248
21
-4.3085080314960633
0
LINE
8
BLACK
6
CONTINUOUS
10
5.3762942125984248
20
-4.3085080314960633
11
5.374373976377953
21
-4.3113818503937003
0
LINE
8
BLACK
6
CONTINUOUS
10
5.374373976377953
20
-4.3113818503937003
11
5.3715001574803152
21
-4.3133020866141729
0
LINE
8
BLACK
6
CONTINUOUS
10
5.3715001574803152
20
-4.3133020866141729
11
5.3681102362204722
21
-4.3139763779527556
0
LINE
8
BLACK
6
CONTINUOUS
10
5.3681102362204722
20
-4.3139763779527556
11
5.3503937007874018
21
-4.3139763779527556
0
LINE
8
BLACK
6
CONTINUOUS
10
5.3503937007874018
20
-4.3139763779527556
11
5.3470037795275589
21
-4.3133020866141729
0
LINE
8
BLACK
6
CONTINUOUS
10
5.3470037795275589
20
-4.3133020866141729
11
5.3441299606299211
21
-4.3113818503937003
0
LINE
8
BLACK
6
CONTINUOUS
10
5.3441299606299211
20
-4.3113818503937003
11
5.3422097244094484
21
-4.3085080314960633
0
LINE
8
BLACK
6
CONTINUOUS
10
5.3422097244094484
20
-4.3085080314960633
11
5.3415354330708658
21
-4.3051181102362204
0
LINE
8
BLACK
6
CONTINUOUS
10
5.3415354330708658
20
-4.3051181102362204
11
5.3415354330708658
21
-4.2854330708661417
0
LINE
8
BLACK
6
CONTINUOUS
10
5.3415354330708658
20
-4.2854330708661417
11
5.3422097244094484
21
-4.2820431496062987
0
LINE
8
BLACK
6
CONTINUOUS
10
5.3422097244094484
20
-4.2820431496062987
11
5.3441299606299211
21
-4.2791693307086609
0
LINE
8
BLACK
6
CONTINUOUS
10
5.3441299606299211
20
-4.2791693307086609
11
5.3470037795275589
21
-4.2772490944881891
0
LINE
8
BLACK
6
CONTINUOUS
10
5.3470037795275589
20
-4.2772490944881891
11
5.3503937007874018
21
-4.2765748031496065
0
LINE
8
BLACK
6
CONTINUOUS
10
5.3503937007874018
20
-4.2765748031496065
11
5.3681102362204722
21
-4.2765748031496065
0
LINE
8
BLACK
6
CONTINUOUS
10
5.3681102362204722
20
-4.2765748031496065
11
5.3715001574803152
21
-4.2772490944881891
0
LINE
8
BLACK
6
CONTINUOUS
10
5.4325237795275587
20
-4.2772490944881891
11
5.4353975984251965
21
-4.2791693307086609
0
LINE
8
BLACK
6
CONTINUOUS
10
5.4353975984251965
20
-4.2791693307086609
11
5.4373178346456692
21
-4.2820431496062987
0
LINE
8
BLACK
6
CONTINUOUS
10
5.4373178346456692
20
-4.2820431496062987
11
5.4379921259842519
21
-4.2854330708661417
0
LINE
8
BLACK
6
CONTINUOUS
10
5.4379921259842519
20
-4.2854330708661417
11
5.4379921259842519
21
-4.3051181102362204
0
LINE
8
BLACK
6
CONTINUOUS
10
5.4379921259842519
20
-4.3051181102362204
11
5.4373178346456692
21
-4.3085080314960633
0
LINE
8
BLACK
6
CONTINUOUS
10
5.4373178346456692
20
-4.3085080314960633
11
5.4353975984251965
21
-4.3113818503937003
0
LINE
8
BLACK
6
CONTINUOUS
10
5.4353975984251965
20
-4.3113818503937003
11
5.4325237795275587
21
-4.3133020866141729
0
LINE
8
BLACK
6
CONTINUOUS
10
5.4325237795275587
20
-4.3133020866141729
11
5.4291338582677167
21
-4.3139763779527556
0
LINE
8
BLACK
6
CONTINUOUS
10
5.4291338582677167
20
-4.3139763779527556
11
5.4114173228346454
21
-4.3139763779527556
0
LINE
8
BLACK
6
CONTINUOUS
10
5.4114173228346454
20
-4.3139763779527556
11
5.4080274015748033
21
-4.3133020866141729
0
LINE
8
BLACK
6
CONTINUOUS
10
5.4080274015748033
20
-4.3133020866141729
11
5.4051535826771655
21
-4.3113818503937003
0
LINE
8
BLACK
6
CONTINUOUS
10
5.4051535826771655
20
-4.3113818503937003
11
5.4032333464566928
21
-4.3085080314960633
0
LINE
8
BLACK
6
CONTINUOUS
10
5.4032333464566928
20
-4.3085080314960633
11
5.4025590551181102
21
-4.3051181102362204
0
LINE
8
BLACK
6
CONTINUOUS
10
5.4025590551181102
20
-4.3051181102362204
11
5.4025590551181102
21
-4.2854330708661417
0
LINE
8
BLACK
6
CONTINUOUS
10
5.4025590551181102
20
-4.2854330708661417
11
5.4032333464566928
21
-4.2820431496062987
0
LINE
8
BLACK
6
CONTINUOUS
10
5.4032333464566928
20
-4.2820431496062987
11
5.4051535826771655
21
-4.2791693307086609
0
LINE
8
BLACK
6
CONTINUOUS
10
5.4051535826771655
20
-4.2791693307086609
11
5.4080274015748033
21
-4.2772490944881891
0
LINE
8
BLACK
6
CONTINUOUS
10
5.4080274015748033
20
-4.2772490944881891
11
5.4114173228346454
21
-4.2765748031496065
0
LINE
8
BLACK
6
CONTINUOUS
10
5.4114173228346454
20
-4.2765748031496065
11
5.4291338582677167
21
-4.2765748031496065
0
LINE
8
BLACK
6
CONTINUOUS
10
5.4291338582677167
20
-4.2765748031496065
11
5.4325237795275587
21
-4.2772490944881891
0
LINE
8
BLACK
6
CONTINUOUS
10
5.4984686614173226
20
-4.2772490944881891
11
5.5013424803149604
21
-4.2791693307086609
0
LINE
8
BLACK
6
CONTINUOUS
10
5.5013424803149604
20
-4.2791693307086609
11
5.5032627165354331
21
-4.2820431496062987
0
LINE
8
BLACK
6
CONTINUOUS
10
5.5032627165354331
20
-4.2820431496062987
11
5.5039370078740157
21
-4.2854330708661417
0
LINE
8
BLACK
6
CONTINUOUS
10
5.5039370078740157
20
-4.2854330708661417
11
5.5039370078740157
21
-4.3051181102362204
0
LINE
8
BLACK
6
CONTINUOUS
10
5.5039370078740157
20
-4.3051181102362204
11
5.5032627165354331
21
-4.3085080314960633
0
LINE
8
BLACK
6
CONTINUOUS
10
5.5032627165354331
20
-4.3085080314960633
11
5.5013424803149604
21
-4.3113818503937003
0
LINE
8
BLACK
6
CONTINUOUS
10
5.5013424803149604
20
-4.3113818503937003
11
5.4984686614173226
21
-4.3133020866141729
0
LINE
8
BLACK
6
CONTINUOUS
10
5.4984686614173226
20
-4.3133020866141729
11
5.4950787401574805
21
-4.3139763779527556
0
LINE
8
BLACK
6
CONTINUOUS
10
5.4950787401574805
20
-4.3139763779527556
11
5.4773622047244093
21
-4.3139763779527556
0
LINE
8
BLACK
6
CONTINUOUS
10
5.4773622047244093
20
-4.3139763779527556
11
5.4739722834645672
21
-4.3133020866141729
0
LINE
8
BLACK
6
CONTINUOUS
10
5.4739722834645672
20
-4.3133020866141729
11
5.4710984645669294
21
-4.3113818503937003
0
LINE
8
BLACK
6
CONTINUOUS
10
5.4710984645669294
20
-4.3113818503937003
11
5.4691782283464567
21
-4.3085080314960633
0
LINE
8
BLACK
6
CONTINUOUS
10
5.4691782283464567
20
-4.3085080314960633
11
5.4685039370078741
21
-4.3051181102362204
0
LINE
8
BLACK
6
CONTINUOUS
10
5.4685039370078741
20
-4.3051181102362204
11
5.4685039370078741
21
-4.2854330708661417
0
LINE
8
BLACK
6
CONTINUOUS
10
5.4685039370078741
20
-4.2854330708661417
11
5.4691782283464567
21
-4.2820431496062987
0
LINE
8
BLACK
6
CONTINUOUS
10
5.4691782283464567
20
-4.2820431496062987
11
5.4710984645669294
21
-4.2791693307086609
0
LINE
8
BLACK
6
CONTINUOUS
10
5.4710984645669294
20
-4.2791693307086609
11
5.4739722834645672
21
-4.2772490944881891
0
LINE
8
BLACK
6
CONTINUOUS
10
5.4739722834645672
20
-4.2772490944881891
11
5.4773622047244093
21
-4.2765748031496065
0
LINE
8
BLACK
6
CONTINUOUS
10
5.4773622047244093
20
-4.2765748031496065
11
5.4950787401574805
21
-4.2765748031496065
0
LINE
8
BLACK
6
CONTINUOUS
10
5.4950787401574805
20
-4.2765748031496065
11
5.4984686614173226
21
-4.2772490944881891
0
LINE
8
BLACK
6
CONTINUOUS
10
5.559492283464567
20
-4.2772490944881891
11
5.5623661023622049
21
-4.2791693307086609
0
LINE
8
BLACK
6
CONTINUOUS
10
5.5623661023622049
20
-4.2791693307086609
11
5.5642863385826766
21
-4.2820431496062987
0
LINE
8
BLACK
6
CONTINUOUS
10
5.5642863385826766
20
-4.2820431496062987
11
5.5649606299212593
21
-4.2854330708661417
0
LINE
8
BLACK
6
CONTINUOUS
10
5.5649606299212593
20
-4.2854330708661417
11
5.5649606299212593
21
-4.3051181102362204
0
LINE
8
BLACK
6
CONTINUOUS
10
5.5649606299212593
20
-4.3051181102362204
11
5.5642863385826766
21
-4.3085080314960633
0
LINE
8
BLACK
6
CONTINUOUS
10
5.5642863385826766
20
-4.3085080314960633
11
5.5623661023622049
21
-4.3113818503937003
0
LINE
8
BLACK
6
CONTINUOUS
10
5.5623661023622049
20
-4.3113818503937003
11
5.559492283464567
21
-4.3133020866141729
0
LINE
8
BLACK
6
CONTINUOUS
10
5.559492283464567
20
-4.3133020866141729
11
5.5561023622047241
21
-4.3139763779527556
0
LINE
8
BLACK
6
CONTINUOUS
10
5.5561023622047241
20
-4.3139763779527556
11
5.5383858267716537
21
-4.3139763779527556
0
LINE
8
BLACK
6
CONTINUOUS
10
5.5383858267716537
20
-4.3139763779527556
11
5.5349959055118108
21
-4.3133020866141729
0
LINE
8
BLACK
6
CONTINUOUS
10
5.5349959055118108
20
-4.3133020866141729
11
5.5321220866141729
21
-4.3113818503937003
0
LINE
8
BLACK
6
CONTINUOUS
10
5.5321220866141729
20
-4.3113818503937003
11
5.5302018503937003
21
-4.3085080314960633
0
LINE
8
BLACK
6
CONTINUOUS
10
5.5302018503937003
20
-4.3085080314960633
11
5.5295275590551176
21
-4.3051181102362204
0
LINE
8
BLACK
6
CONTINUOUS
10
5.5295275590551176
20
-4.3051181102362204
11
5.5295275590551176
21
-4.2854330708661417
0
LINE
8
BLACK
6
CONTINUOUS
10
5.5295275590551176
20
-4.2854330708661417
11
5.5302018503937003
21
-4.2820431496062987
0
LINE
8
BLACK
6
CONTINUOUS
10
5.5302018503937003
20
-4.2820431496062987
11
5.5321220866141729
21
-4.2791693307086609
0
LINE
8
BLACK
6
CONTINUOUS
10
5.5321220866141729
20
-4.2791693307086609
11
5.5349959055118108
21
-4.2772490944881891
0
LINE
8
BLACK
6
CONTINUOUS
10
5.5349959055118108
20
-4.2772490944881891
11
5.5383858267716537
21
-4.2765748031496065
0
LINE
8
BLACK
6
CONTINUOUS
10
5.5383858267716537
20
-4.2765748031496065
11
5.5561023622047241
21
-4.2765748031496065
0
LINE
8
BLACK
6
CONTINUOUS
10
5.5561023622047241
20
-4.2765748031496065
11
5.559492283464567
21
-4.2772490944881891
0
LINE
8
BLACK
6
CONTINUOUS
10
5.0319332283464568
20
-4.1847294094488188
11
5.0348070472440947
21
-4.1866496456692914
0
LINE
8
BLACK
6
CONTINUOUS
10
5.0348070472440947
20
-4.1866496456692914
11
5.0367272834645664
21
-4.1895234645669293
0
LINE
8
BLACK
6
CONTINUOUS
10
5.0367272834645664
20
-4.1895234645669293
11
5.0374015748031491
21
-4.1929133858267713
0
LINE
8
BLACK
6
CONTINUOUS
10
5.0374015748031491
20
-4.1929133858267713
11
5.0374015748031491
21
-4.21259842519685
0
LINE
8
BLACK
6
CONTINUOUS
10
5.0374015748031491
20
-4.21259842519685
11
5.0367272834645664
21
-4.215988346456693
0
LINE
8
BLACK
6
CONTINUOUS
10
5.0367272834645664
20
-4.215988346456693
11
5.0348070472440947
21
-4.2188621653543308
0
LINE
8
BLACK
6
CONTINUOUS
10
5.0348070472440947
20
-4.2188621653543308
11
5.0319332283464568
21
-4.2207824015748034
0
LINE
8
BLACK
6
CONTINUOUS
10
5.0319332283464568
20
-4.2207824015748034
11
5.0285433070866139
21
-4.2214566929133861
0
LINE
8
BLACK
6
CONTINUOUS
10
5.0285433070866139
20
-4.2214566929133861
11
5.0108267716535435
21
-4.2214566929133861
0
LINE
8
BLACK
6
CONTINUOUS
10
5.0108267716535435
20
-4.2214566929133861
11
5.0074368503937006
21
-4.2207824015748034
0
LINE
8
BLACK
6
CONTINUOUS
10
5.0074368503937006
20
-4.2207824015748034
11
5.0045630314960627
21
-4.2188621653543308
0
LINE
8
BLACK
6
CONTINUOUS
10
5.0045630314960627
20
-4.2188621653543308
11
5.0026427952755901
21
-4.215988346456693
0
LINE
8
BLACK
6
CONTINUOUS
10
5.0026427952755901
20
-4.215988346456693
11
5.0019685039370074
21
-4.21259842519685
0
LINE
8
BLACK
6
CONTINUOUS
10
5.0019685039370074
20
-4.21259842519685
11
5.0019685039370074
21
-4.1929133858267713
0
LINE
8
BLACK
6
CONTINUOUS
10
5.0019685039370074
20
-4.1929133858267713
11
5.0026427952755901
21
-4.1895234645669293
0
LINE
8
BLACK
6
CONTINUOUS
10
5.0026427952755901
20
-4.1895234645669293
11
5.0045630314960627
21
-4.1866496456692914
0
LINE
8
BLACK
6
CONTINUOUS
10
5.0045630314960627
20
-4.1866496456692914
11
5.0074368503937006
21
-4.1847294094488188
0
LINE
8
BLACK
6
CONTINUOUS
10
5.0074368503937006
20
-4.1847294094488188
11
5.0108267716535435
21
-4.1840551181102361
0
LINE
8
BLACK
6
CONTINUOUS
10
5.0108267716535435
20
-4.1840551181102361
11
5.0285433070866139
21
-4.1840551181102361
0
LINE
8
BLACK
6
CONTINUOUS
10
5.0285433070866139
20
-4.1840551181102361
11
5.0319332283464568
21
-4.1847294094488188
0
LINE
8
BLACK
6
CONTINUOUS
10
5.0929568503937004
20
-4.1847294094488188
11
5.0958306692913382
21
-4.1866496456692914
0
LINE
8
BLACK
6
CONTINUOUS
10
5.0958306692913382
20
-4.1866496456692914
11
5.0977509055118109
21
-4.1895234645669293
0
LINE
8
BLACK
6
CONTINUOUS
10
5.0977509055118109
20
-4.1895234645669293
11
5.0984251968503935
21
-4.1929133858267713
0
LINE
8
BLACK
6
CONTINUOUS
10
5.0984251968503935
20
-4.1929133858267713
11
5.0984251968503935
21
-4.21259842519685
0
LINE
8
BLACK
6
CONTINUOUS
10
5.0984251968503935
20
-4.21259842519685
11
5.0977509055118109
21
-4.215988346456693
0
LINE
8
BLACK
6
CONTINUOUS
10
5.0977509055118109
20
-4.215988346456693
11
5.0958306692913382
21
-4.2188621653543308
0
LINE
8
BLACK
6
CONTINUOUS
10
5.0958306692913382
20
-4.2188621653543308
11
5.0929568503937004
21
-4.2207824015748034
0
LINE
8
BLACK
6
CONTINUOUS
10
5.0929568503937004
20
-4.2207824015748034
11
5.0895669291338583
21
-4.2214566929133861
0
LINE
8
BLACK
6
CONTINUOUS
10
5.0895669291338583
20
-4.2214566929133861
11
5.0718503937007871
21
-4.2214566929133861
0
LINE
8
BLACK
6
CONTINUOUS
10
5.0718503937007871
20
-4.2214566929133861
11
5.068460472440945
21
-4.2207824015748034
0
LINE
8
BLACK
6
CONTINUOUS
10
5.068460472440945
20
-4.2207824015748034
11
5.0655866535433072
21
-4.2188621653543308
0
LINE
8
BLACK
6
CONTINUOUS
10
5.0655866535433072
20
-4.2188621653543308
11
5.0636664173228345
21
-4.215988346456693
0
LINE
8
BLACK
6
CONTINUOUS
10
5.0636664173228345
20
-4.215988346456693
11
5.0629921259842519
21
-4.21259842519685
0
LINE
8
BLACK
6
CONTINUOUS
10
5.0629921259842519
20
-4.21259842519685
11
5.0629921259842519
21
-4.1929133858267713
0
LINE
8
BLACK
6
CONTINUOUS
10
5.0629921259842519
20
-4.1929133858267713
11
5.0636664173228345
21
-4.1895234645669293
0
LINE
8
BLACK
6
CONTINUOUS
10
5.0636664173228345
20
-4.1895234645669293
11
5.0655866535433072
21
-4.1866496456692914
0
LINE
8
BLACK
6
CONTINUOUS
10
5.0655866535433072
20
-4.1866496456692914
11
5.068460472440945
21
-4.1847294094488188
0
LINE
8
BLACK
6
CONTINUOUS
10
5.068460472440945
20
-4.1847294094488188
11
5.0718503937007871
21
-4.1840551181102361
0
LINE
8
BLACK
6
CONTINUOUS
10
5.0718503937007871
20
-4.1840551181102361
11
5.0895669291338583
21
-4.1840551181102361
0
LINE
8
BLACK
6
CONTINUOUS
10
5.0895669291338583
20
-4.1840551181102361
11
5.0929568503937004
21
-4.1847294094488188
0
LINE
8
BLACK
6
CONTINUOUS
10
5.1638229921259837
20
-4.1847294094488188
11
5.1666968110236215
21
-4.1866496456692914
0
LINE
8
BLACK
6
CONTINUOUS
10
5.1666968110236215
20
-4.1866496456692914
11
5.1686170472440942
21
-4.1895234645669293
0
LINE
8
BLACK
6
CONTINUOUS
10
5.1686170472440942
20
-4.1895234645669293
11
5.1692913385826769
21
-4.1929133858267713
0
LINE
8
BLACK
6
CONTINUOUS
10
5.1692913385826769
20
-4.1929133858267713
11
5.1692913385826769
21
-4.21259842519685
0
LINE
8
BLACK
6
CONTINUOUS
10
5.1692913385826769
20
-4.21259842519685
11
5.1686170472440942
21
-4.215988346456693
0
LINE
8
BLACK
6
CONTINUOUS
10
5.1686170472440942
20
-4.215988346456693
11
5.1666968110236215
21
-4.2188621653543308
0
LINE
8
BLACK
6
CONTINUOUS
10
5.1666968110236215
20
-4.2188621653543308
11
5.1638229921259837
21
-4.2207824015748034
0
LINE
8
BLACK
6
CONTINUOUS
10
5.1638229921259837
20
-4.2207824015748034
11
5.1604330708661417
21
-4.2214566929133861
0
LINE
8
BLACK
6
CONTINUOUS
10
5.1604330708661417
20
-4.2214566929133861
11
5.1427165354330704
21
-4.2214566929133861
0
LINE
8
BLACK
6
CONTINUOUS
10
5.1427165354330704
20
-4.2214566929133861
11
5.1393266141732283
21
-4.2207824015748034
0
LINE
8
BLACK
6
CONTINUOUS
10
5.1393266141732283
20
-4.2207824015748034
11
5.1364527952755905
21
-4.2188621653543308
0
LINE
8
BLACK
6
CONTINUOUS
10
5.1364527952755905
20
-4.2188621653543308
11
5.1345325590551179
21
-4.215988346456693
0
LINE
8
BLACK
6
CONTINUOUS
10
5.1345325590551179
20
-4.215988346456693
11
5.1338582677165352
21
-4.21259842519685
0
LINE
8
BLACK
6
CONTINUOUS
10
5.1338582677165352
20
-4.21259842519685
11
5.1338582677165352
21
-4.1929133858267713
0
LINE
8
BLACK
6
CONTINUOUS
10
5.1338582677165352
20
-4.1929133858267713
11
5.1345325590551179
21
-4.1895234645669293
0
LINE
8
BLACK
6
CONTINUOUS
10
5.1345325590551179
20
-4.1895234645669293
11
5.1364527952755905
21
-4.1866496456692914
0
LINE
8
BLACK
6
CONTINUOUS
10
5.1364527952755905
20
-4.1866496456692914
11
5.1393266141732283
21
-4.1847294094488188
0
LINE
8
BLACK
6
CONTINUOUS
10
5.1393266141732283
20
-4.1847294094488188
11
5.1427165354330704
21
-4.1840551181102361
0
LINE
8
BLACK
6
CONTINUOUS
10
5.1427165354330704
20
-4.1840551181102361
11
5.1604330708661417
21
-4.1840551181102361
0
LINE
8
BLACK
6
CONTINUOUS
10
5.1604330708661417
20
-4.1840551181102361
11
5.1638229921259837
21
-4.1847294094488188
0
LINE
8
BLACK
6
CONTINUOUS
10
5.2248466141732282
20
-4.1847294094488188
11
5.227720433070866
21
-4.1866496456692914
0
LINE
8
BLACK
6
CONTINUOUS
10
5.227720433070866
20
-4.1866496456692914
11
5.2296406692913386
21
-4.1895234645669293
0
LINE
8
BLACK
6
CONTINUOUS
10
5.2296406692913386
20
-4.1895234645669293
11
5.2303149606299213
21
-4.1929133858267713
0
LINE
8
BLACK
6
CONTINUOUS
10
5.2303149606299213
20
-4.1929133858267713
11
5.2303149606299213
21
-4.21259842519685
0
LINE
8
BLACK
6
CONTINUOUS
10
5.2303149606299213
20
-4.21259842519685
11
5.2296406692913386
21
-4.215988346456693
0
LINE
8
BLACK
6
CONTINUOUS
10
5.2296406692913386
20
-4.215988346456693
11
5.227720433070866
21
-4.2188621653543308
0
LINE
8
BLACK
6
CONTINUOUS
10
5.227720433070866
20
-4.2188621653543308
11
5.2248466141732282
21
-4.2207824015748034
0
LINE
8
BLACK
6
CONTINUOUS
10
5.2248466141732282
20
-4.2207824015748034
11
5.2214566929133861
21
-4.2214566929133861
0
LINE
8
BLACK
6
CONTINUOUS
10
5.2214566929133861
20
-4.2214566929133861
11
5.2037401574803148
21
-4.2214566929133861
0
LINE
8
BLACK
6
CONTINUOUS
10
5.2037401574803148
20
-4.2214566929133861
11
5.2003502362204728
21
-4.2207824015748034
0
LINE
8
BLACK
6
CONTINUOUS
10
5.2003502362204728
20
-4.2207824015748034
11
5.1974764173228349
21
-4.2188621653543308
0
LINE
8
BLACK
6
CONTINUOUS
10
5.1974764173228349
20
-4.2188621653543308
11
5.1955561811023623
21
-4.215988346456693
0
LINE
8
BLACK
6
CONTINUOUS
10
5.1955561811023623
20
-4.215988346456693
11
5.1948818897637796
21
-4.21259842519685
0
LINE
8
BLACK
6
CONTINUOUS
10
5.1948818897637796
20
-4.21259842519685
11
5.1948818897637796
21
-4.1929133858267713
0
LINE
8
BLACK
6
CONTINUOUS
10
5.1948818897637796
20
-4.1929133858267713
11
5.1955561811023623
21
-4.1895234645669293
0
LINE
8
BLACK
6
CONTINUOUS
10
5.1955561811023623
20
-4.1895234645669293
11
5.1974764173228349
21
-4.1866496456692914
0
LINE
8
BLACK
6
CONTINUOUS
10
5.1974764173228349
20
-4.1866496456692914
11
5.2003502362204728
21
-4.1847294094488188
0
LINE
8
BLACK
6
CONTINUOUS
10
5.2003502362204728
20
-4.1847294094488188
11
5.2037401574803148
21
-4.1840551181102361
0
LINE
8
BLACK
6
CONTINUOUS
10
5.2037401574803148
20
-4.1840551181102361
11
5.2214566929133861
21
-4.1840551181102361
0
LINE
8
BLACK
6
CONTINUOUS
10
5.2214566929133861
20
-4.1840551181102361
11
5.2248466141732282
21
-4.1847294094488188
0
LINE
8
BLACK
6
CONTINUOUS
10
5.3715001574803152
20
-4.1847294094488188
11
5.374373976377953
21
-4.1866496456692914
0
LINE
8
BLACK
6
CONTINUOUS
10
5.374373976377953
20
-4.1866496456692914
11
5.3762942125984248
21
-4.1895234645669293
0
LINE
8
BLACK
6
CONTINUOUS
10
5.3762942125984248
20
-4.1895234645669293
11
5.3769685039370074
21
-4.1929133858267713
0
LINE
8
BLACK
6
CONTINUOUS
10
5.3769685039370074
20
-4.1929133858267713
11
5.3769685039370074
21
-4.21259842519685
0
LINE
8
BLACK
6
CONTINUOUS
10
5.3769685039370074
20
-4.21259842519685
11
5.3762942125984248
21
-4.215988346456693
0
LINE
8
BLACK
6
CONTINUOUS
10
5.3762942125984248
20
-4.215988346456693
11
5.374373976377953
21
-4.2188621653543308
0
LINE
8
BLACK
6
CONTINUOUS
10
5.374373976377953
20
-4.2188621653543308
11
5.3715001574803152
21
-4.2207824015748034
0
LINE
8
BLACK
6
CONTINUOUS
10
5.3715001574803152
20
-4.2207824015748034
11
5.3681102362204722
21
-4.2214566929133861
0
LINE
8
BLACK
6
CONTINUOUS
10
5.3681102362204722
20
-4.2214566929133861
11
5.3503937007874018
21
-4.2214566929133861
0
LINE
8
BLACK
6
CONTINUOUS
10
5.3503937007874018
20
-4.2214566929133861
11
5.3470037795275589
21
-4.2207824015748034
0
LINE
8
BLACK
6
CONTINUOUS
10
5.3470037795275589
20
-4.2207824015748034
11
5.3441299606299211
21
-4.2188621653543308
0
LINE
8
BLACK
6
CONTINUOUS
10
5.3441299606299211
20
-4.2188621653543308
11
5.3422097244094484
21
-4.215988346456693
0
LINE
8
BLACK
6
CONTINUOUS
10
5.3422097244094484
20
-4.215988346456693
11
5.3415354330708658
21
-4.21259842519685
0
LINE
8
BLACK
6
CONTINUOUS
10
5.3415354330708658
20
-4.21259842519685
11
5.3415354330708658
21
-4.1929133858267713
0
LINE
8
BLACK
6
CONTINUOUS
10
5.3415354330708658
20
-4.1929133858267713
11
5.3422097244094484
21
-4.1895234645669293
0
LINE
8
BLACK
6
CONTINUOUS
10
5.3422097244094484
20
-4.1895234645669293
11
5.3441299606299211
21
-4.1866496456692914
0
LINE
8
BLACK
6
CONTINUOUS
10
5.3441299606299211
20
-4.1866496456692914
11
5.3470037795275589
21
-4.1847294094488188
0
LINE
8
BLACK
6
CONTINUOUS
10
5.3470037795275589
20
-4.1847294094488188
11
5.3503937007874018
21
-4.1840551181102361
0
LINE
8
BLACK
6
CONTINUOUS
10
5.3503937007874018
20
-4.1840551181102361
11
5.3681102362204722
21
-4.1840551181102361
0
LINE
8
BLACK
6
CONTINUOUS
10
5.3681102362204722
20
-4.1840551181102361
11
5.3715001574803152
21
-4.1847294094488188
0
LINE
8
BLACK
6
CONTINUOUS
10
5.4325237795275587
20
-4.1847294094488188
11
5.4353975984251965
21
-4.1866496456692914
0
LINE
8
BLACK
6
CONTINUOUS
10
5.4353975984251965
20
-4.1866496456692914
11
5.4373178346456692
21
-4.1895234645669293
0
LINE
8
BLACK
6
CONTINUOUS
10
5.4373178346456692
20
-4.1895234645669293
11
5.4379921259842519
21
-4.1929133858267713
0
LINE
8
BLACK
6
CONTINUOUS
10
5.4379921259842519
20
-4.1929133858267713
11
5.4379921259842519
21
-4.21259842519685
0
LINE
8
BLACK
6
CONTINUOUS
10
5.4379921259842519
20
-4.21259842519685
11
5.4373178346456692
21
-4.215988346456693
0
LINE
8
BLACK
6
CONTINUOUS
10
5.4373178346456692
20
-4.215988346456693
11
5.4353975984251965
21
-4.2188621653543308
0
LINE
8
BLACK
6
CONTINUOUS
10
5.4353975984251965
20
-4.2188621653543308
11
5.4325237795275587
21
-4.2207824015748034
0
LINE
8
BLACK
6
CONTINUOUS
10
5.4325237795275587
20
-4.2207824015748034
11
5.4291338582677167
21
-4.2214566929133861
0
LINE
8
BLACK
6
CONTINUOUS
10
5.4291338582677167
20
-4.2214566929133861
11
5.4114173228346454
21
-4.2214566929133861
0
LINE
8
BLACK
6
CONTINUOUS
10
5.4114173228346454
20
-4.2214566929133861
11
5.4080274015748033
21
-4.2207824015748034
0
LINE
8
BLACK
6
CONTINUOUS
10
5.4080274015748033
20
-4.2207824015748034
11
5.4051535826771655
21
-4.2188621653543308
0
LINE
8
BLACK
6
CONTINUOUS
10
5.4051535826771655
20
-4.2188621653543308
11
5.4032333464566928
21
-4.215988346456693
0
LINE
8
BLACK
6
CONTINUOUS
10
5.4032333464566928
20
-4.215988346456693
11
5.4025590551181102
21
-4.21259842519685
0
LINE
8
BLACK
6
CONTINUOUS
10
5.4025590551181102
20
-4.21259842519685
11
5.4025590551181102
21
-4.1929133858267713
0
LINE
8
BLACK
6
CONTINUOUS
10
5.4025590551181102
20
-4.1929133858267713
11
5.4032333464566928
21
-4.1895234645669293
0
LINE
8
BLACK
6
CONTINUOUS
10
5.4032333464566928
20
-4.1895234645669293
11
5.4051535826771655
21
-4.1866496456692914
0
LINE
8
BLACK
6
CONTINUOUS
10
5.4051535826771655
20
-4.1866496456692914
11
5.4080274015748033
21
-4.1847294094488188
0
LINE
8
BLACK
6
CONTINUOUS
10
5.4080274015748033
20
-4.1847294094488188
11
5.4114173228346454
21
-4.1840551181102361
0
LINE
8
BLACK
6
CONTINUOUS
10
5.4114173228346454
20
-4.1840551181102361
11
5.4291338582677167
21
-4.1840551181102361
0
LINE
8
BLACK
6
CONTINUOUS
10
5.4291338582677167
20
-4.1840551181102361
11
5.4325237795275587
21
-4.1847294094488188
0
LINE
8
BLACK
6
CONTINUOUS
10
5.4974844094488189
20
-4.1847294094488188
11
5.5003582283464567
21
-4.1866496456692914
0
LINE
8
BLACK
6
CONTINUOUS
10
5.5003582283464567
20
-4.1866496456692914
11
5.5022784645669294
21
-4.1895234645669293
0
LINE
8
BLACK
6
CONTINUOUS
10
5.5022784645669294
20
-4.1895234645669293
11
5.502952755905512
21
-4.1929133858267713
0
LINE
8
BLACK
6
CONTINUOUS
10
5.502952755905512
20
-4.1929133858267713
11
5.502952755905512
21
-4.21259842519685
0
LINE
8
BLACK
6
CONTINUOUS
10
5.502952755905512
20
-4.21259842519685
11
5.5022784645669294
21
-4.215988346456693
0
LINE
8
BLACK
6
CONTINUOUS
10
5.5022784645669294
20
-4.215988346456693
11
5.5003582283464567
21
-4.2188621653543308
0
LINE
8
BLACK
6
CONTINUOUS
10
5.5003582283464567
20
-4.2188621653543308
11
5.4974844094488189
21
-4.2207824015748034
0
LINE
8
BLACK
6
CONTINUOUS
10
5.4974844094488189
20
-4.2207824015748034
11
5.4940944881889759
21
-4.2214566929133861
0
LINE
8
BLACK
6
CONTINUOUS
10
5.4940944881889759
20
-4.2214566929133861
11
5.4763779527559056
21
-4.2214566929133861
0
LINE
8
BLACK
6
CONTINUOUS
10
5.4763779527559056
20
-4.2214566929133861
11
5.4729880314960626
21
-4.2207824015748034
0
LINE
8
BLACK
6
CONTINUOUS
10
5.4729880314960626
20
-4.2207824015748034
11
5.4701142125984248
21
-4.2188621653543308
0
LINE
8
BLACK
6
CONTINUOUS
10
5.4701142125984248
20
-4.2188621653543308
11
5.468193976377953
21
-4.215988346456693
0
LINE
8
BLACK
6
CONTINUOUS
10
5.468193976377953
20
-4.215988346456693
11
5.4675196850393704
21
-4.21259842519685
0
LINE
8
BLACK
6
CONTINUOUS
10
5.4675196850393704
20
-4.21259842519685
11
5.4675196850393704
21
-4.1929133858267713
0
LINE
8
BLACK
6
CONTINUOUS
10
5.4675196850393704
20
-4.1929133858267713
11
5.468193976377953
21
-4.1895234645669293
0
LINE
8
BLACK
6
CONTINUOUS
10
5.468193976377953
20
-4.1895234645669293
11
5.4701142125984248
21
-4.1866496456692914
0
LINE
8
BLACK
6
CONTINUOUS
10
5.4701142125984248
20
-4.1866496456692914
11
5.4729880314960626
21
-4.1847294094488188
0
LINE
8
BLACK
6
CONTINUOUS
10
5.4729880314960626
20
-4.1847294094488188
11
5.4763779527559056
21
-4.1840551181102361
0
LINE
8
BLACK
6
CONTINUOUS
10
5.4763779527559056
20
-4.1840551181102361
11
5.4940944881889759
21
-4.1840551181102361
0
LINE
8
BLACK
6
CONTINUOUS
10
5.4940944881889759
20
-4.1840551181102361
11
5.4974844094488189
21
-4.1847294094488188
0
LINE
8
BLACK
6
CONTINUOUS
10
5.5585080314960624
20
-4.1847294094488188
11
5.5613818503937003
21
-4.1866496456692914
0
LINE
8
BLACK
6
CONTINUOUS
10
5.5613818503937003
20
-4.1866496456692914
11
5.5633020866141729
21
-4.1895234645669293
0
LINE
8
BLACK
6
CONTINUOUS
10
5.5633020866141729
20
-4.1895234645669293
11
5.5639763779527556
21
-4.1929133858267713
0
LINE
8
BLACK
6
CONTINUOUS
10
5.5639763779527556
20
-4.1929133858267713
11
5.5639763779527556
21
-4.21259842519685
0
LINE
8
BLACK
6
CONTINUOUS
10
5.5639763779527556
20
-4.21259842519685
11
5.5633020866141729
21
-4.215988346456693
0
LINE
8
BLACK
6
CONTINUOUS
10
5.5633020866141729
20
-4.215988346456693
11
5.5613818503937003
21
-4.2188621653543308
0
LINE
8
BLACK
6
CONTINUOUS
10
5.5613818503937003
20
-4.2188621653543308
11
5.5585080314960624
21
-4.2207824015748034
0
LINE
8
BLACK
6
CONTINUOUS
10
5.5585080314960624
20
-4.2207824015748034
11
5.5551181102362204
21
-4.2214566929133861
0
LINE
8
BLACK
6
CONTINUOUS
10
5.5551181102362204
20
-4.2214566929133861
11
5.5374015748031491
21
-4.2214566929133861
0
LINE
8
BLACK
6
CONTINUOUS
10
5.5374015748031491
20
-4.2214566929133861
11
5.534011653543307
21
-4.2207824015748034
0
LINE
8
BLACK
6
CONTINUOUS
10
5.534011653543307
20
-4.2207824015748034
11
5.5311378346456692
21
-4.2188621653543308
0
LINE
8
BLACK
6
CONTINUOUS
10
5.5311378346456692
20
-4.2188621653543308
11
5.5292175984251966
21
-4.215988346456693
0
LINE
8
BLACK
6
CONTINUOUS
10
5.5292175984251966
20
-4.215988346456693
11
5.5285433070866139
21
-4.21259842519685
0
LINE
8
BLACK
6
CONTINUOUS
10
5.5285433070866139
20
-4.21259842519685
11
5.5285433070866139
21
-4.1929133858267713
0
LINE
8
BLACK
6
CONTINUOUS
10
5.5285433070866139
20
-4.1929133858267713
11
5.5292175984251966
21
-4.1895234645669293
0
LINE
8
BLACK
6
CONTINUOUS
10
5.5292175984251966
20
-4.1895234645669293
11
5.5311378346456692
21
-4.1866496456692914
0
LINE
8
BLACK
6
CONTINUOUS
10
5.5311378346456692
20
-4.1866496456692914
11
5.534011653543307
21
-4.1847294094488188
0
LINE
8
BLACK
6
CONTINUOUS
10
5.534011653543307
20
-4.1847294094488188
11
5.5374015748031491
21
-4.1840551181102361
0
LINE
8
BLACK
6
CONTINUOUS
10
5.5374015748031491
20
-4.1840551181102361
11
5.5551181102362204
21
-4.1840551181102361
0
LINE
8
BLACK
6
CONTINUOUS
10
5.5551181102362204
20
-4.1840551181102361
11
5.5585080314960624
21
-4.1847294094488188
0
LINE
8
BLACK
6
CONTINUOUS
10
5.7051615748031494
20
-4.1512648425196845
11
5.7080353937007873
21
-4.1531850787401572
0
LINE
8
BLACK
6
CONTINUOUS
10
5.7080353937007873
20
-4.1531850787401572
11
5.7099556299212599
21
-4.156058897637795
0
LINE
8
BLACK
6
CONTINUOUS
10
5.7099556299212599
20
-4.156058897637795
11
5.7106299212598426
21
-4.159448818897638
0
LINE
8
BLACK
6
CONTINUOUS
10
5.7106299212598426
20
-4.159448818897638
11
5.7106299212598426
21
-4.1791338582677167
0
LINE
8
BLACK
6
CONTINUOUS
10
5.7106299212598426
20
-4.1791338582677167
11
5.7099556299212599
21
-4.1825237795275587
0
LINE
8
BLACK
6
CONTINUOUS
10
5.7099556299212599
20
-4.1825237795275587
11
5.7080353937007873
21
-4.1853975984251965
0
LINE
8
BLACK
6
CONTINUOUS
10
5.7080353937007873
20
-4.1853975984251965
11
5.7051615748031494
21
-4.1873178346456692
0
LINE
8
BLACK
6
CONTINUOUS
10
5.7051615748031494
20
-4.1873178346456692
11
5.7017716535433074
21
-4.1879921259842519
0
LINE
8
BLACK
6
CONTINUOUS
10
5.7017716535433074
20
-4.1879921259842519
11
5.6840551181102361
21
-4.1879921259842519
0
LINE
8
BLACK
6
CONTINUOUS
10
5.6840551181102361
20
-4.1879921259842519
11
5.6806651968503932
21
-4.1873178346456692
0
LINE
8
BLACK
6
CONTINUOUS
10
5.6806651968503932
20
-4.1873178346456692
11
5.6777913779527553
21
-4.1853975984251965
0
LINE
8
BLACK
6
CONTINUOUS
10
5.6777913779527553
20
-4.1853975984251965
11
5.6758711417322836
21
-4.1825237795275587
0
LINE
8
BLACK
6
CONTINUOUS
10
5.6758711417322836
20
-4.1825237795275587
11
5.6751968503937009
21
-4.1791338582677167
0
LINE
8
BLACK
6
CONTINUOUS
10
5.6751968503937009
20
-4.1791338582677167
11
5.6751968503937009
21
-4.159448818897638
0
LINE
8
BLACK
6
CONTINUOUS
10
5.6751968503937009
20
-4.159448818897638
11
5.6758711417322836
21
-4.156058897637795
0
LINE
8
BLACK
6
CONTINUOUS
10
5.6758711417322836
20
-4.156058897637795
11
5.6777913779527553
21
-4.1531850787401572
0
LINE
8
BLACK
6
CONTINUOUS
10
5.6777913779527553
20
-4.1531850787401572
11
5.6806651968503932
21
-4.1512648425196845
0
LINE
8
BLACK
6
CONTINUOUS
10
5.6806651968503932
20
-4.1512648425196845
11
5.6840551181102361
21
-4.1505905511811019
0
LINE
8
BLACK
6
CONTINUOUS
10
5.6840551181102361
20
-4.1505905511811019
11
5.7017716535433074
21
-4.1505905511811019
0
LINE
8
BLACK
6
CONTINUOUS
10
5.7017716535433074
20
-4.1505905511811019
11
5.7051615748031494
21
-4.1512648425196845
0
LINE
8
BLACK
6
CONTINUOUS
10
5.7661851968503939
20
-4.1512648425196845
11
5.7690590157480317
21
-4.1531850787401572
0
LINE
8
BLACK
6
CONTINUOUS
10
5.7690590157480317
20
-4.1531850787401572
11
5.7709792519685035
21
-4.156058897637795
0
LINE
8
BLACK
6
CONTINUOUS
10
5.7709792519685035
20
-4.156058897637795
11
5.7716535433070861
21
-4.159448818897638
0
LINE
8
BLACK
6
CONTINUOUS
10
5.7716535433070861
20
-4.159448818897638
11
5.7716535433070861
21
-4.1791338582677167
0
LINE
8
BLACK
6
CONTINUOUS
10
5.7716535433070861
20
-4.1791338582677167
11
5.7709792519685035
21
-4.1825237795275587
0
LINE
8
BLACK
6
CONTINUOUS
10
5.7709792519685035
20
-4.1825237795275587
11
5.7690590157480317
21
-4.1853975984251965
0
LINE
8
BLACK
6
CONTINUOUS
10
5.7690590157480317
20
-4.1853975984251965
11
5.7661851968503939
21
-4.1873178346456692
0
LINE
8
BLACK
6
CONTINUOUS
10
5.7661851968503939
20
-4.1873178346456692
11
5.7627952755905509
21
-4.1879921259842519
0
LINE
8
BLACK
6
CONTINUOUS
10
5.7627952755905509
20
-4.1879921259842519
11
5.7450787401574805
21
-4.1879921259842519
0
LINE
8
BLACK
6
CONTINUOUS
10
5.7450787401574805
20
-4.1879921259842519
11
5.7416888188976376
21
-4.1873178346456692
0
LINE
8
BLACK
6
CONTINUOUS
10
5.7416888188976376
20
-4.1873178346456692
11
5.7388149999999998
21
-4.1853975984251965
0
LINE
8
BLACK
6
CONTINUOUS
10
5.7388149999999998
20
-4.1853975984251965
11
5.7368947637795271
21
-4.1825237795275587
0
LINE
8
BLACK
6
CONTINUOUS
10
5.7368947637795271
20
-4.1825237795275587
11
5.7362204724409445
21
-4.1791338582677167
0
LINE
8
BLACK
6
CONTINUOUS
10
5.7362204724409445
20
-4.1791338582677167
11
5.7362204724409445
21
-4.159448818897638
0
LINE
8
BLACK
6
CONTINUOUS
10
5.7362204724409445
20
-4.159448818897638
11
5.7368947637795271
21
-4.156058897637795
0
LINE
8
BLACK
6
CONTINUOUS
10
5.7368947637795271
20
-4.156058897637795
11
5.7388149999999998
21
-4.1531850787401572
0
LINE
8
BLACK
6
CONTINUOUS
10
5.7388149999999998
20
-4.1531850787401572
11
5.7416888188976376
21
-4.1512648425196845
0
LINE
8
BLACK
6
CONTINUOUS
10
5.7416888188976376
20
-4.1512648425196845
11
5.7450787401574805
21
-4.1505905511811019
0
LINE
8
BLACK
6
CONTINUOUS
10
5.7450787401574805
20
-4.1505905511811019
11
5.7627952755905509
21
-4.1505905511811019
0
LINE
8
BLACK
6
CONTINUOUS
10
5.7627952755905509
20
-4.1505905511811019
11
5.7661851968503939
21
-4.1512648425196845
0
LINE
8
BLACK
6
CONTINUOUS
10
5.8858267716535435
20
-4.1771653543307083
11
5.818897637795275
21
-4.1771653543307083
0
LINE
8
BLACK
6
CONTINUOUS
10
5.818897637795275
20
-4.1771653543307083
11
5.818897637795275
21
-4.0826771653543306
0
LINE
8
BLACK
6
CONTINUOUS
10
5.818897637795275
20
-4.0826771653543306
11
5.8858267716535435
21
-4.0826771653543306
0
LINE
8
BLACK
6
CONTINUOUS
10
5.8858267716535435
20
-4.0826771653543306
11
5.8858267716535435
21
-4.1771653543307083
0
LINE
8
BLACK
6
CONTINUOUS
10
6.0314960629921259
20
-4.1771653543307083
11
5.9645669291338583
21
-4.1771653543307083
0
LINE
8
BLACK
6
CONTINUOUS
10
5.9645669291338583
20
-4.1771653543307083
11
5.9645669291338583
21
-4.0826771653543306
0
LINE
8
BLACK
6
CONTINUOUS
10
5.9645669291338583
20
-4.0826771653543306
11
6.0314960629921259
21
-4.0826771653543306
0
LINE
8
BLACK
6
CONTINUOUS
10
6.0314960629921259
20
-4.0826771653543306
11
6.0314960629921259
21
-4.1771653543307083
0
LINE
8
BLACK
6
CONTINUOUS
10
5.568897637795275
20
-4.1161417322834648
11
5.5078740157480315
21
-4.1161417322834648
0
LINE
8
BLACK
6
CONTINUOUS
10
5.5078740157480315
20
-4.1161417322834648
11
5.5078740157480315
21
-4.0295275590551176
0
LINE
8
BLACK
6
CONTINUOUS
10
5.5078740157480315
20
-4.0295275590551176
11
5.568897637795275
21
-4.0295275590551176
0
LINE
8
BLACK
6
CONTINUOUS
10
5.568897637795275
20
-4.0295275590551176
11
5.568897637795275
21
-4.1161417322834648
0
LINE
8
BLACK
6
CONTINUOUS
10
5.703193070866142
20
-4.0607136614173225
11
5.706066889763779
21
-4.0626338976377951
0
LINE
8
BLACK
6
CONTINUOUS
10
5.706066889763779
20
-4.0626338976377951
11
5.7079871259842516
21
-4.065507716535433
0
LINE
8
BLACK
6
CONTINUOUS
10
5.7079871259842516
20
-4.065507716535433
11
5.7086614173228343
21
-4.0688976377952759
0
LINE
8
BLACK
6
CONTINUOUS
10
5.7086614173228343
20
-4.0688976377952759
11
5.7086614173228343
21
-4.0885826771653546
0
LINE
8
BLACK
6
CONTINUOUS
10
5.7086614173228343
20
-4.0885826771653546
11
5.7079871259842516
21
-4.0919725984251967
0
LINE
8
BLACK
6
CONTINUOUS
10
5.7079871259842516
20
-4.0919725984251967
11
5.706066889763779
21
-4.0948464173228345
0
LINE
8
BLACK
6
CONTINUOUS
10
5.706066889763779
20
-4.0948464173228345
11
5.703193070866142
21
-4.0967666535433072
0
LINE
8
BLACK
6
CONTINUOUS
10
5.703193070866142
20
-4.0967666535433072
11
5.6998031496062991
21
-4.0974409448818898
0
LINE
8
BLACK
6
CONTINUOUS
10
5.6998031496062991
20
-4.0974409448818898
11
5.6820866141732278
21
-4.0974409448818898
0
LINE
8
BLACK
6
CONTINUOUS
10
5.6820866141732278
20
-4.0974409448818898
11
5.6786966929133857
21
-4.0967666535433072
0
LINE
8
BLACK
6
CONTINUOUS
10
5.6786966929133857
20
-4.0967666535433072
11
5.6758228740157479
21
-4.0948464173228345
0
LINE
8
BLACK
6
CONTINUOUS
10
5.6758228740157479
20
-4.0948464173228345
11
5.6739026377952753
21
-4.0919725984251967
0
LINE
8
BLACK
6
CONTINUOUS
10
5.6739026377952753
20
-4.0919725984251967
11
5.6732283464566926
21
-4.0885826771653546
0
LINE
8
BLACK
6
CONTINUOUS
10
5.6732283464566926
20
-4.0885826771653546
11
5.6732283464566926
21
-4.0688976377952759
0
LINE
8
BLACK
6
CONTINUOUS
10
5.6732283464566926
20
-4.0688976377952759
11
5.6739026377952753
21
-4.065507716535433
0
LINE
8
BLACK
6
CONTINUOUS
10
5.6739026377952753
20
-4.065507716535433
11
5.6758228740157479
21
-4.0626338976377951
0
LINE
8
BLACK
6
CONTINUOUS
10
5.6758228740157479
20
-4.0626338976377951
11
5.6786966929133857
21
-4.0607136614173225
0
LINE
8
BLACK
6
CONTINUOUS
10
5.6786966929133857
20
-4.0607136614173225
11
5.6820866141732278
21
-4.0600393700787398
0
LINE
8
BLACK
6
CONTINUOUS
10
5.6820866141732278
20
-4.0600393700787398
11
5.6998031496062991
21
-4.0600393700787398
0
LINE
8
BLACK
6
CONTINUOUS
10
5.6998031496062991
20
-4.0600393700787398
11
5.703193070866142
21
-4.0607136614173225
0
LINE
8
BLACK
6
CONTINUOUS
10
5.7642166929133856
20
-4.0607136614173225
11
5.7670905118110234
21
-4.0626338976377951
0
LINE
8
BLACK
6
CONTINUOUS
10
5.7670905118110234
20
-4.0626338976377951
11
5.769010748031496
21
-4.065507716535433
0
LINE
8
BLACK
6
CONTINUOUS
10
5.769010748031496
20
-4.065507716535433
11
5.7696850393700787
21
-4.0688976377952759
0
LINE
8
BLACK
6
CONTINUOUS
10
5.7696850393700787
20
-4.0688976377952759
11
5.7696850393700787
21
-4.0885826771653546
0
LINE
8
BLACK
6
CONTINUOUS
10
5.7696850393700787
20
-4.0885826771653546
11
5.769010748031496
21
-4.0919725984251967
0
LINE
8
BLACK
6
CONTINUOUS
10
5.769010748031496
20
-4.0919725984251967
11
5.7670905118110234
21
-4.0948464173228345
0
LINE
8
BLACK
6
CONTINUOUS
10
5.7670905118110234
20
-4.0948464173228345
11
5.7642166929133856
21
-4.0967666535433072
0
LINE
8
BLACK
6
CONTINUOUS
10
5.7642166929133856
20
-4.0967666535433072
11
5.7608267716535435
21
-4.0974409448818898
0
LINE
8
BLACK
6
CONTINUOUS
10
5.7608267716535435
20
-4.0974409448818898
11
5.7431102362204722
21
-4.0974409448818898
0
LINE
8
BLACK
6
CONTINUOUS
10
5.7431102362204722
20
-4.0974409448818898
11
5.7397203149606302
21
-4.0967666535433072
0
LINE
8
BLACK
6
CONTINUOUS
10
5.7397203149606302
20
-4.0967666535433072
11
5.7368464960629924
21
-4.0948464173228345
0
LINE
8
BLACK
6
CONTINUOUS
10
5.7368464960629924
20
-4.0948464173228345
11
5.7349262598425197
21
-4.0919725984251967
0
LINE
8
BLACK
6
CONTINUOUS
10
5.7349262598425197
20
-4.0919725984251967
11
5.734251968503937
21
-4.0885826771653546
0
LINE
8
BLACK
6
CONTINUOUS
10
5.734251968503937
20
-4.0885826771653546
11
5.734251968503937
21
-4.0688976377952759
0
LINE
8
BLACK
6
CONTINUOUS
10
5.734251968503937
20
-4.0688976377952759
11
5.7349262598425197
21
-4.065507716535433
0
LINE
8
BLACK
6
CONTINUOUS
10
5.7349262598425197
20
-4.065507716535433
11
5.7368464960629924
21
-4.0626338976377951
0
LINE
8
BLACK
6
CONTINUOUS
10
5.7368464960629924
20
-4.0626338976377951
11
5.7397203149606302
21
-4.0607136614173225
0
LINE
8
BLACK
6
CONTINUOUS
10
5.7397203149606302
20
-4.0607136614173225
11
5.7431102362204722
21
-4.0600393700787398
0
LINE
8
BLACK
6
CONTINUOUS
10
5.7431102362204722
20
-4.0600393700787398
11
5.7608267716535435
21
-4.0600393700787398
0
LINE
8
BLACK
6
CONTINUOUS
10
5.7608267716535435
20
-4.0600393700787398
11
5.7642166929133856
21
-4.0607136614173225
0
LINE
8
BLACK
6
CONTINUOUS
10
5.0431366535433071
20
-4.0164972440944879
11
5.0463298031496064
21
-4.0186308267716537
0
LINE
8
BLACK
6
CONTINUOUS
10
5.0463298031496064
20
-4.0186308267716537
11
5.0484633858267713
21
-4.0218239763779531
0
LINE
8
BLACK
6
CONTINUOUS
10
5.0484633858267713
20
-4.0218239763779531
11
5.0492125984251963
21
-4.0255905511811019
0
LINE
8
BLACK
6
CONTINUOUS
10
5.0492125984251963
20
-4.0255905511811019
11
5.0492125984251963
21
-4.0511811023622046
0
LINE
8
BLACK
6
CONTINUOUS
10
5.0492125984251963
20
-4.0511811023622046
11
5.0484633858267713
21
-4.0549476771653543
0
LINE
8
BLACK
6
CONTINUOUS
10
5.0484633858267713
20
-4.0549476771653543
11
5.0463298031496064
21
-4.0581408267716537
0
LINE
8
BLACK
6
CONTINUOUS
10
5.0463298031496064
20
-4.0581408267716537
11
5.0431366535433071
21
-4.0602744094488186
0
LINE
8
BLACK
6
CONTINUOUS
10
5.0431366535433071
20
-4.0602744094488186
11
5.0393700787401574
21
-4.0610236220472444
0
LINE
8
BLACK
6
CONTINUOUS
10
5.0393700787401574
20
-4.0610236220472444
11
4.9881889763779528
21
-4.0610236220472444
0
LINE
8
BLACK
6
CONTINUOUS
10
4.9881889763779528
20
-4.0610236220472444
11
4.9844224015748031
21
-4.0602744094488186
0
LINE
8
BLACK
6
CONTINUOUS
10
4.9844224015748031
20
-4.0602744094488186
11
4.9812292519685037
21
-4.0581408267716537
0
LINE
8
BLACK
6
CONTINUOUS
10
4.9812292519685037
20
-4.0581408267716537
11
4.9790956692913388
21
-4.0549476771653543
0
LINE
8
BLACK
6
CONTINUOUS
10
4.9790956692913388
20
-4.0549476771653543
11
4.978346456692913
21
-4.0511811023622046
0
LINE
8
BLACK
6
CONTINUOUS
10
4.978346456692913
20
-4.0511811023622046
11
4.978346456692913
21
-4.0255905511811019
0
LINE
8
BLACK
6
CONTINUOUS
10
4.978346456692913
20
-4.0255905511811019
11
4.9790956692913388
21
-4.0218239763779531
0
LINE
8
BLACK
6
CONTINUOUS
10
4.9790956692913388
20
-4.0218239763779531
11
4.9812292519685037
21
-4.0186308267716537
0
LINE
8
BLACK
6
CONTINUOUS
10
4.9812292519685037
20
-4.0186308267716537
11
4.9844224015748031
21
-4.0164972440944879
0
LINE
8
BLACK
6
CONTINUOUS
10
4.9844224015748031
20
-4.0164972440944879
11
4.9881889763779528
21
-4.015748031496063
0
LINE
8
BLACK
6
CONTINUOUS
10
4.9881889763779528
20
-4.015748031496063
11
5.0393700787401574
21
-4.015748031496063
0
LINE
8
BLACK
6
CONTINUOUS
10
5.0393700787401574
20
-4.015748031496063
11
5.0431366535433071
21
-4.0164972440944879
0
LINE
8
BLACK
6
CONTINUOUS
10
6.1211235039370075
20
-4.017331653543307
11
6.1236779921259838
21
-4.0190385433070865
0
LINE
8
BLACK
6
CONTINUOUS
10
6.1236779921259838
20
-4.0190385433070865
11
6.1253848818897634
21
-4.0215930314960628
0
LINE
8
BLACK
6
CONTINUOUS
10
6.1253848818897634
20
-4.0215930314960628
11
6.1259842519685037
21
-4.0246062992125982
0
LINE
8
BLACK
6
CONTINUOUS
10
6.1259842519685037
20
-4.0246062992125982
11
6.1259842519685037
21
-4.0403543307086611
0
LINE
8
BLACK
6
CONTINUOUS
10
6.1259842519685037
20
-4.0403543307086611
11
6.1253848818897634
21
-4.0433675984251964
0
LINE
8
BLACK
6
CONTINUOUS
10
6.1253848818897634
20
-4.0433675984251964
11
6.1236779921259838
21
-4.0459220866141727
0
LINE
8
BLACK
6
CONTINUOUS
10
6.1236779921259838
20
-4.0459220866141727
11
6.1211235039370075
21
-4.0476289763779523
0
LINE
8
BLACK
6
CONTINUOUS
10
6.1211235039370075
20
-4.0476289763779523
11
6.1181102362204722
21
-4.0482283464566926
0
LINE
8
BLACK
6
CONTINUOUS
10
6.1181102362204722
20
-4.0482283464566926
11
6.07755905511811
21
-4.0482283464566926
0
LINE
8
BLACK
6
CONTINUOUS
10
6.07755905511811
20
-4.0482283464566926
11
6.0745457874015747
21
-4.0476289763779523
0
LINE
8
BLACK
6
CONTINUOUS
10
6.0745457874015747
20
-4.0476289763779523
11
6.0719912992125984
21
-4.0459220866141727
0
LINE
8
BLACK
6
CONTINUOUS
10
6.0719912992125984
20
-4.0459220866141727
11
6.0702844094488189
21
-4.0433675984251964
0
LINE
8
BLACK
6
CONTINUOUS
10
6.0702844094488189
20
-4.0433675984251964
11
6.0696850393700785
21
-4.0403543307086611
0
LINE
8
BLACK
6
CONTINUOUS
10
6.0696850393700785
20
-4.0403543307086611
11
6.0696850393700785
21
-4.0246062992125982
0
LINE
8
BLACK
6
CONTINUOUS
10
6.0696850393700785
20
-4.0246062992125982
11
6.0702844094488189
21
-4.0215930314960628
0
LINE
8
BLACK
6
CONTINUOUS
10
6.0702844094488189
20
-4.0215930314960628
11
6.0719912992125984
21
-4.0190385433070865
0
LINE
8
BLACK
6
CONTINUOUS
10
6.0719912992125984
20
-4.0190385433070865
11
6.0745457874015747
21
-4.017331653543307
0
LINE
8
BLACK
6
CONTINUOUS
10
6.0745457874015747
20
-4.017331653543307
11
6.07755905511811
21
-4.0167322834645667
0
LINE
8
BLACK
6
CONTINUOUS
10
6.07755905511811
20
-4.0167322834645667
11
6.1181102362204722
21
-4.0167322834645667
0
LINE
8
BLACK
6
CONTINUOUS
10
6.1181102362204722
20
-4.0167322834645667
11
6.1211235039370075
21
-4.017331653543307
0
LINE
8
BLACK
6
CONTINUOUS
10
5.8793741732283467
20
-3.9977215354330706
11
5.8822479921259845
21
-3.9996417716535433
0
LINE
8
BLACK
6
CONTINUOUS
10
5.8822479921259845
20
-3.9996417716535433
11
5.8841682283464563
21
-4.0025155905511811
0
LINE
8
BLACK
6
CONTINUOUS
10
5.8841682283464563
20
-4.0025155905511811
11
5.8848425196850389
21
-4.0059055118110232
0
LINE
8
BLACK
6
CONTINUOUS
10
5.8848425196850389
20
-4.0059055118110232
11
5.8848425196850389
21
-4.0255905511811019
0
LINE
8
BLACK
6
CONTINUOUS
10
5.8848425196850389
20
-4.0255905511811019
11
5.8841682283464563
21
-4.0289804724409448
0
LINE
8
BLACK
6
CONTINUOUS
10
5.8841682283464563
20
-4.0289804724409448
11
5.8822479921259845
21
-4.0318542913385826
0
LINE
8
BLACK
6
CONTINUOUS
10
5.8822479921259845
20
-4.0318542913385826
11
5.8793741732283467
21
-4.0337745275590553
0
LINE
8
BLACK
6
CONTINUOUS
10
5.8793741732283467
20
-4.0337745275590553
11
5.8759842519685037
21
-4.034448818897638
0
LINE
8
BLACK
6
CONTINUOUS
10
5.8759842519685037
20
-4.034448818897638
11
5.8582677165354333
21
-4.034448818897638
0
LINE
8
BLACK
6
CONTINUOUS
10
5.8582677165354333
20
-4.034448818897638
11
5.8548777952755904
21
-4.0337745275590553
0
LINE
8
BLACK
6
CONTINUOUS
10
5.8548777952755904
20
-4.0337745275590553
11
5.8520039763779526
21
-4.0318542913385826
0
LINE
8
BLACK
6
CONTINUOUS
10
5.8520039763779526
20
-4.0318542913385826
11
5.8500837401574799
21
-4.0289804724409448
0
LINE
8
BLACK
6
CONTINUOUS
10
5.8500837401574799
20
-4.0289804724409448
11
5.8494094488188972
21
-4.0255905511811019
0
LINE
8
BLACK
6
CONTINUOUS
10
5.8494094488188972
20
-4.0255905511811019
11
5.8494094488188972
21
-4.0059055118110232
0
LINE
8
BLACK
6
CONTINUOUS
10
5.8494094488188972
20
-4.0059055118110232
11
5.8500837401574799
21
-4.0025155905511811
0
LINE
8
BLACK
6
CONTINUOUS
10
5.8500837401574799
20
-4.0025155905511811
11
5.8520039763779526
21
-3.9996417716535433
0
LINE
8
BLACK
6
CONTINUOUS
10
5.8520039763779526
20
-3.9996417716535433
11
5.8548777952755904
21
-3.9977215354330706
0
LINE
8
BLACK
6
CONTINUOUS
10
5.8548777952755904
20
-3.9977215354330706
11
5.8582677165354333
21
-3.997047244094488
0
LINE
8
BLACK
6
CONTINUOUS
10
5.8582677165354333
20
-3.997047244094488
11
5.8759842519685037
21
-3.997047244094488
0
LINE
8
BLACK
6
CONTINUOUS
10
5.8759842519685037
20
-3.997047244094488
11
5.8793741732283467
21
-3.9977215354330706
0
LINE
8
BLACK
6
CONTINUOUS
10
5.9403977952755902
20
-3.9977215354330706
11
5.943271614173228
21
-3.9996417716535433
0
LINE
8
BLACK
6
CONTINUOUS
10
5.943271614173228
20
-3.9996417716535433
11
5.9451918503937007
21
-4.0025155905511811
0
LINE
8
BLACK
6
CONTINUOUS
10
5.9451918503937007
20
-4.0025155905511811
11
5.9458661417322833
21
-4.0059055118110232
0
LINE
8
BLACK
6
CONTINUOUS
10
5.9458661417322833
20
-4.0059055118110232
11
5.9458661417322833
21
-4.0255905511811019
0
LINE
8
BLACK
6
CONTINUOUS
10
5.9458661417322833
20
-4.0255905511811019
11
5.9451918503937007
21
-4.0289804724409448
0
LINE
8
BLACK
6
CONTINUOUS
10
5.9451918503937007
20
-4.0289804724409448
11
5.943271614173228
21
-4.0318542913385826
0
LINE
8
BLACK
6
CONTINUOUS
10
5.943271614173228
20
-4.0318542913385826
11
5.9403977952755902
21
-4.0337745275590553
0
LINE
8
BLACK
6
CONTINUOUS
10
5.9403977952755902
20
-4.0337745275590553
11
5.9370078740157481
21
-4.034448818897638
0
LINE
8
BLACK
6
CONTINUOUS
10
5.9370078740157481
20
-4.034448818897638
11
5.9192913385826769
21
-4.034448818897638
0
LINE
8
BLACK
6
CONTINUOUS
10
5.9192913385826769
20
-4.034448818897638
11
5.9159014173228348
21
-4.0337745275590553
0
LINE
8
BLACK
6
CONTINUOUS
10
5.9159014173228348
20
-4.0337745275590553
11
5.913027598425197
21
-4.0318542913385826
0
LINE
8
BLACK
6
CONTINUOUS
10
5.913027598425197
20
-4.0318542913385826
11
5.9111073622047243
21
-4.0289804724409448
0
LINE
8
BLACK
6
CONTINUOUS
10
5.9111073622047243
20
-4.0289804724409448
11
5.9104330708661417
21
-4.0255905511811019
0
LINE
8
BLACK
6
CONTINUOUS
10
5.9104330708661417
20
-4.0255905511811019
11
5.9104330708661417
21
-4.0059055118110232
0
LINE
8
BLACK
6
CONTINUOUS
10
5.9104330708661417
20
-4.0059055118110232
11
5.9111073622047243
21
-4.0025155905511811
0
LINE
8
BLACK
6
CONTINUOUS
10
5.9111073622047243
20
-4.0025155905511811
11
5.913027598425197
21
-3.9996417716535433
0
LINE
8
BLACK
6
CONTINUOUS
10
5.913027598425197
20
-3.9996417716535433
11
5.9159014173228348
21
-3.9977215354330706
0
LINE
8
BLACK
6
CONTINUOUS
10
5.9159014173228348
20
-3.9977215354330706
11
5.9192913385826769
21
-3.997047244094488
0
LINE
8
BLACK
6
CONTINUOUS
10
5.9192913385826769
20
-3.997047244094488
11
5.9370078740157481
21
-3.997047244094488
0
LINE
8
BLACK
6
CONTINUOUS
10
5.9370078740157481
20
-3.997047244094488
11
5.9403977952755902
21
-3.9977215354330706
0
LINE
8
BLACK
6
CONTINUOUS
10
6.0431366535433071
20
-3.9766350393700787
11
6.0463298031496064
21
-3.978768622047244
0
LINE
8
BLACK
6
CONTINUOUS
10
6.0463298031496064
20
-3.978768622047244
11
6.0484633858267713
21
-3.9819617716535434
0
LINE
8
BLACK
6
CONTINUOUS
10
6.0484633858267713
20
-3.9819617716535434
11
6.0492125984251963
21
-3.9857283464566926
0
LINE
8
BLACK
6
CONTINUOUS
10
6.0492125984251963
20
-3.9857283464566926
11
6.0492125984251963
21
-4.0063976377952759
0
LINE
8
BLACK
6
CONTINUOUS
10
6.0492125984251963
20
-4.0063976377952759
11
6.0484633858267713
21
-4.0101642125984247
0
LINE
8
BLACK
6
CONTINUOUS
10
6.0484633858267713
20
-4.0101642125984247
11
6.0463298031496064
21
-4.0133573622047241
0
LINE
8
BLACK
6
CONTINUOUS
10
6.0463298031496064
20
-4.0133573622047241
11
6.0431366535433071
21
-4.0154909448818898
0
LINE
8
BLACK
6
CONTINUOUS
10
6.0431366535433071
20
-4.0154909448818898
11
6.0393700787401574
21
-4.0162401574803148
0
LINE
8
BLACK
6
CONTINUOUS
10
6.0393700787401574
20
-4.0162401574803148
11
6.0039370078740157
21
-4.0162401574803148
0
LINE
8
BLACK
6
CONTINUOUS
10
6.0039370078740157
20
-4.0162401574803148
11
6.0001704330708661
21
-4.0154909448818898
0
LINE
8
BLACK
6
CONTINUOUS
10
6.0001704330708661
20
-4.0154909448818898
11
5.9969772834645667
21
-4.0133573622047241
0
LINE
8
BLACK
6
CONTINUOUS
10
5.9969772834645667
20
-4.0133573622047241
11
5.9948437007874018
21
-4.0101642125984247
0
LINE
8
BLACK
6
CONTINUOUS
10
5.9948437007874018
20
-4.0101642125984247
11
5.9940944881889759
21
-4.0063976377952759
0
LINE
8
BLACK
6
CONTINUOUS
10
5.9940944881889759
20
-4.0063976377952759
11
5.9940944881889759
21
-3.9857283464566926
0
LINE
8
BLACK
6
CONTINUOUS
10
5.9940944881889759
20
-3.9857283464566926
11
5.9948437007874018
21
-3.9819617716535434
0
LINE
8
BLACK
6
CONTINUOUS
10
5.9948437007874018
20
-3.9819617716535434
11
5.9969772834645667
21
-3.978768622047244
0
LINE
8
BLACK
6
CONTINUOUS
10
5.9969772834645667
20
-3.978768622047244
11
6.0001704330708661
21
-3.9766350393700787
0
LINE
8
BLACK
6
CONTINUOUS
10
6.0001704330708661
20
-3.9766350393700787
11
6.0039370078740157
21
-3.9758858267716533
0
LINE
8
BLACK
6
CONTINUOUS
10
6.0039370078740157
20
-3.9758858267716533
11
6.0393700787401574
21
-3.9758858267716533
0
LINE
8
BLACK
6
CONTINUOUS
10
6.0393700787401574
20
-3.9758858267716533
11
6.0431366535433071
21
-3.9766350393700787
0
LINE
8
BLACK
6
CONTINUOUS
10
6.0848642519685034
20
-3.9383292913385826
11
6.0863011811023622
21
-3.9392893700787401
0
LINE
8
BLACK
6
CONTINUOUS
10
6.0863011811023622
20
-3.9392893700787401
11
6.0872612598425198
21
-3.9407262992125984
0
LINE
8
BLACK
6
CONTINUOUS
10
6.0872612598425198
20
-3.9407262992125984
11
6.08759842519685
21
-3.9424212598425195
0
LINE
8
BLACK
6
CONTINUOUS
10
6.08759842519685
20
-3.9424212598425195
11
6.08759842519685
21
-3.9768700787401574
0
LINE
8
BLACK
6
CONTINUOUS
10
6.08759842519685
20
-3.9768700787401574
11
6.0872612598425198
21
-3.9785650393700784
0
LINE
8
BLACK
6
CONTINUOUS
10
6.0872612598425198
20
-3.9785650393700784
11
6.0863011811023622
21
-3.9800019685039367
0
LINE
8
BLACK
6
CONTINUOUS
10
6.0863011811023622
20
-3.9800019685039367
11
6.0848642519685034
21
-3.9809620472440943
0
LINE
8
BLACK
6
CONTINUOUS
10
6.0848642519685034
20
-3.9809620472440943
11
6.0831692913385824
21
-3.981299212598425
0
LINE
8
BLACK
6
CONTINUOUS
10
6.0831692913385824
20
-3.981299212598425
11
6.0743110236220472
21
-3.981299212598425
0
LINE
8
BLACK
6
CONTINUOUS
10
6.0743110236220472
20
-3.981299212598425
11
6.0726160629921262
21
-3.9809620472440943
0
LINE
8
BLACK
6
CONTINUOUS
10
6.0726160629921262
20
-3.9809620472440943
11
6.0711791338582675
21
-3.9800019685039367
0
LINE
8
BLACK
6
CONTINUOUS
10
6.0711791338582675
20
-3.9800019685039367
11
6.0702190551181099
21
-3.9785650393700784
0
LINE
8
BLACK
6
CONTINUOUS
10
6.0702190551181099
20
-3.9785650393700784
11
6.0698818897637796
21
-3.9768700787401574
0
LINE
8
BLACK
6
CONTINUOUS
10
6.0698818897637796
20
-3.9768700787401574
11
6.0698818897637796
21
-3.9424212598425195
0
LINE
8
BLACK
6
CONTINUOUS
10
6.0698818897637796
20
-3.9424212598425195
11
6.0702190551181099
21
-3.9407262992125984
0
LINE
8
BLACK
6
CONTINUOUS
10
6.0702190551181099
20
-3.9407262992125984
11
6.0711791338582675
21
-3.9392893700787401
0
LINE
8
BLACK
6
CONTINUOUS
10
6.0711791338582675
20
-3.9392893700787401
11
6.0726160629921262
21
-3.9383292913385826
0
LINE
8
BLACK
6
CONTINUOUS
10
6.0726160629921262
20
-3.9383292913385826
11
6.0743110236220472
21
-3.9379921259842519
0
LINE
8
BLACK
6
CONTINUOUS
10
6.0743110236220472
20
-3.9379921259842519
11
6.0831692913385824
21
-3.9379921259842519
0
LINE
8
BLACK
6
CONTINUOUS
10
6.0831692913385824
20
-3.9379921259842519
11
6.0848642519685034
21
-3.9383292913385826
0
LINE
8
BLACK
6
CONTINUOUS
10
5.7027559055118111
20
-3.9576968503937007
11
5.6850393700787398
21
-3.9576968503937007
0
LINE
8
BLACK
6
CONTINUOUS
10
5.6850393700787398
20
-3.9576968503937007
11
5.6850393700787398
21
-3.8996259842519683
0
LINE
8
BLACK
6
CONTINUOUS
10
5.6850393700787398
20
-3.8996259842519683
11
5.7027559055118111
21
-3.8996259842519683
0
LINE
8
BLACK
6
CONTINUOUS
10
5.7027559055118111
20
-3.8996259842519683
11
5.7027559055118111
21
-3.9576968503937007
0
LINE
8
BLACK
6
CONTINUOUS
10
5.728346456692913
20
-3.9576968503937007
11
5.7106299212598426
21
-3.9576968503937007
0
LINE
8
BLACK
6
CONTINUOUS
10
5.7106299212598426
20
-3.9576968503937007
11
5.7106299212598426
21
-3.8996259842519683
0
LINE
8
BLACK
6
CONTINUOUS
10
5.7106299212598426
20
-3.8996259842519683
11
5.728346456692913
21
-3.8996259842519683
0
LINE
8
BLACK
6
CONTINUOUS
10
5.728346456692913
20
-3.8996259842519683
11
5.728346456692913
21
-3.9576968503937007
0
LINE
8
BLACK
6
CONTINUOUS
10
5.7539370078740157
20
-3.9576968503937007
11
5.7362204724409445
21
-3.9576968503937007
0
LINE
8
BLACK
6
CONTINUOUS
10
5.7362204724409445
20
-3.9576968503937007
11
5.7362204724409445
21
-3.8996259842519683
0
LINE
8
BLACK
6
CONTINUOUS
10
5.7362204724409445
20
-3.8996259842519683
11
5.7539370078740157
21
-3.8996259842519683
0
LINE
8
BLACK
6
CONTINUOUS
10
5.7539370078740157
20
-3.8996259842519683
11
5.7539370078740157
21
-3.9576968503937007
0
LINE
8
BLACK
6
CONTINUOUS
10
5.7795275590551176
20
-3.9576968503937007
11
5.7618110236220472
21
-3.9576968503937007
0
LINE
8
BLACK
6
CONTINUOUS
10
5.7618110236220472
20
-3.9576968503937007
11
5.7618110236220472
21
-3.8996259842519683
0
LINE
8
BLACK
6
CONTINUOUS
10
5.7618110236220472
20
-3.8996259842519683
11
5.7795275590551176
21
-3.8996259842519683
0
LINE
8
BLACK
6
CONTINUOUS
10
5.7795275590551176
20
-3.8996259842519683
11
5.7795275590551176
21
-3.9576968503937007
0
LINE
8
BLACK
6
CONTINUOUS
10
5.8051181102362204
20
-3.9576968503937007
11
5.7874015748031491
21
-3.9576968503937007
0
LINE
8
BLACK
6
CONTINUOUS
10
5.7874015748031491
20
-3.9576968503937007
11
5.7874015748031491
21
-3.8996259842519683
0
LINE
8
BLACK
6
CONTINUOUS
10
5.7874015748031491
20
-3.8996259842519683
11
5.8051181102362204
21
-3.8996259842519683
0
LINE
8
BLACK
6
CONTINUOUS
10
5.8051181102362204
20
-3.8996259842519683
11
5.8051181102362204
21
-3.9576968503937007
0
LINE
8
BLACK
6
CONTINUOUS
10
5.8307086614173231
20
-3.9576968503937007
11
5.8129921259842519
21
-3.9576968503937007
0
LINE
8
BLACK
6
CONTINUOUS
10
5.8129921259842519
20
-3.9576968503937007
11
5.8129921259842519
21
-3.8996259842519683
0
LINE
8
BLACK
6
CONTINUOUS
10
5.8129921259842519
20
-3.8996259842519683
11
5.8307086614173231
21
-3.8996259842519683
0
LINE
8
BLACK
6
CONTINUOUS
10
5.8307086614173231
20
-3.8996259842519683
11
5.8307086614173231
21
-3.9576968503937007
0
LINE
8
BLACK
6
CONTINUOUS
10
5.856299212598425
20
-3.9576968503937007
11
5.8385826771653546
21
-3.9576968503937007
0
LINE
8
BLACK
6
CONTINUOUS
10
5.8385826771653546
20
-3.9576968503937007
11
5.8385826771653546
21
-3.8996259842519683
0
LINE
8
BLACK
6
CONTINUOUS
10
5.8385826771653546
20
-3.8996259842519683
11
5.856299212598425
21
-3.8996259842519683
0
LINE
8
BLACK
6
CONTINUOUS
10
5.856299212598425
20
-3.8996259842519683
11
5.856299212598425
21
-3.9576968503937007
0
LINE
8
BLACK
6
CONTINUOUS
10
5.8818897637795278
20
-3.9576968503937007
11
5.8641732283464565
21
-3.9576968503937007
0
LINE
8
BLACK
6
CONTINUOUS
10
5.8641732283464565
20
-3.9576968503937007
11
5.8641732283464565
21
-3.8996259842519683
0
LINE
8
BLACK
6
CONTINUOUS
10
5.8641732283464565
20
-3.8996259842519683
11
5.8818897637795278
21
-3.8996259842519683
0
LINE
8
BLACK
6
CONTINUOUS
10
5.8818897637795278
20
-3.8996259842519683
11
5.8818897637795278
21
-3.9576968503937007
0
LINE
8
BLACK
6
CONTINUOUS
10
5.9074803149606296
20
-3.9576968503937007
11
5.8897637795275593
21
-3.9576968503937007
0
LINE
8
BLACK
6
CONTINUOUS
10
5.8897637795275593
20
-3.9576968503937007
11
5.8897637795275593
21
-3.8996259842519683
0
LINE
8
BLACK
6
CONTINUOUS
10
5.8897637795275593
20
-3.8996259842519683
11
5.9074803149606296
21
-3.8996259842519683
0
LINE
8
BLACK
6
CONTINUOUS
10
5.9074803149606296
20
-3.8996259842519683
11
5.9074803149606296
21
-3.9576968503937007
0
LINE
8
BLACK
6
CONTINUOUS
10
5.9330708661417324
20
-3.9576968503937007
11
5.9153543307086611
21
-3.9576968503937007
0
LINE
8
BLACK
6
CONTINUOUS
10
5.9153543307086611
20
-3.9576968503937007
11
5.9153543307086611
21
-3.8996259842519683
0
LINE
8
BLACK
6
CONTINUOUS
10
5.9153543307086611
20
-3.8996259842519683
11
5.9330708661417324
21
-3.8996259842519683
0
LINE
8
BLACK
6
CONTINUOUS
10
5.9330708661417324
20
-3.8996259842519683
11
5.9330708661417324
21
-3.9576968503937007
0
LINE
8
BLACK
6
CONTINUOUS
10
5.568897637795275
20
-3.954724409448819
11
5.5078740157480315
21
-3.954724409448819
0
LINE
8
BLACK
6
CONTINUOUS
10
5.5078740157480315
20
-3.954724409448819
11
5.5078740157480315
21
-3.8681102362204722
0
LINE
8
BLACK
6
CONTINUOUS
10
5.5078740157480315
20
-3.8681102362204722
11
5.568897637795275
21
-3.8681102362204722
0
LINE
8
BLACK
6
CONTINUOUS
10
5.568897637795275
20
-3.8681102362204722
11
5.568897637795275
21
-3.954724409448819
0
LINE
8
BLACK
6
CONTINUOUS
10
5.0431366535433071
20
-3.9003555118110236
11
5.0463298031496064
21
-3.9024890944881889
0
LINE
8
BLACK
6
CONTINUOUS
10
5.0463298031496064
20
-3.9024890944881889
11
5.0484633858267713
21
-3.9056822440944883
0
LINE
8
BLACK
6
CONTINUOUS
10
5.0484633858267713
20
-3.9056822440944883
11
5.0492125984251963
21
-3.9094488188976375
0
LINE
8
BLACK
6
CONTINUOUS
10
5.0492125984251963
20
-3.9094488188976375
11
5.0492125984251963
21
-3.9350393700787403
0
LINE
8
BLACK
6
CONTINUOUS
10
5.0492125984251963
20
-3.9350393700787403
11
5.0484633858267713
21
-3.9388059448818895
0
LINE
8
BLACK
6
CONTINUOUS
10
5.0484633858267713
20
-3.9388059448818895
11
5.0463298031496064
21
-3.9419990944881889
0
LINE
8
BLACK
6
CONTINUOUS
10
5.0463298031496064
20
-3.9419990944881889
11
5.0431366535433071
21
-3.9441326771653542
0
LINE
8
BLACK
6
CONTINUOUS
10
5.0431366535433071
20
-3.9441326771653542
11
5.0393700787401574
21
-3.9448818897637796
0
LINE
8
BLACK
6
CONTINUOUS
10
5.0393700787401574
20
-3.9448818897637796
11
4.9881889763779528
21
-3.9448818897637796
0
LINE
8
BLACK
6
CONTINUOUS
10
4.9881889763779528
20
-3.9448818897637796
11
4.9844224015748031
21
-3.9441326771653542
0
LINE
8
BLACK
6
CONTINUOUS
10
4.9844224015748031
20
-3.9441326771653542
11
4.9812292519685037
21
-3.9419990944881889
0
LINE
8
BLACK
6
CONTINUOUS
10
4.9812292519685037
20
-3.9419990944881889
11
4.9790956692913388
21
-3.9388059448818895
0
LINE
8
BLACK
6
CONTINUOUS
10
4.9790956692913388
20
-3.9388059448818895
11
4.978346456692913
21
-3.9350393700787403
0
LINE
8
BLACK
6
CONTINUOUS
10
4.978346456692913
20
-3.9350393700787403
11
4.978346456692913
21
-3.9094488188976375
0
LINE
8
BLACK
6
CONTINUOUS
10
4.978346456692913
20
-3.9094488188976375
11
4.9790956692913388
21
-3.9056822440944883
0
LINE
8
BLACK
6
CONTINUOUS
10
4.9790956692913388
20
-3.9056822440944883
11
4.9812292519685037
21
-3.9024890944881889
0
LINE
8
BLACK
6
CONTINUOUS
10
4.9812292519685037
20
-3.9024890944881889
11
4.9844224015748031
21
-3.9003555118110236
0
LINE
8
BLACK
6
CONTINUOUS
10
4.9844224015748031
20
-3.9003555118110236
11
4.9881889763779528
21
-3.8996062992125982
0
LINE
8
BLACK
6
CONTINUOUS
10
4.9881889763779528
20
-3.8996062992125982
11
5.0393700787401574
21
-3.8996062992125982
0
LINE
8
BLACK
6
CONTINUOUS
10
5.0393700787401574
20
-3.8996062992125982
11
5.0431366535433071
21
-3.9003555118110236
0
LINE
8
BLACK
6
CONTINUOUS
10
6.0431366535433071
20
-3.9047846456692912
11
6.0463298031496064
21
-3.9069182283464565
0
LINE
8
BLACK
6
CONTINUOUS
10
6.0463298031496064
20
-3.9069182283464565
11
6.0484633858267713
21
-3.9101113779527559
0
LINE
8
BLACK
6
CONTINUOUS
10
6.0484633858267713
20
-3.9101113779527559
11
6.0492125984251963
21
-3.9138779527559056
0
LINE
8
BLACK
6
CONTINUOUS
10
6.0492125984251963
20
-3.9138779527559056
11
6.0492125984251963
21
-3.934547244094488
0
LINE
8
BLACK
6
CONTINUOUS
10
6.0492125984251963
20
-3.934547244094488
11
6.0484633858267713
21
-3.9383138188976377
0
LINE
8
BLACK
6
CONTINUOUS
10
6.0484633858267713
20
-3.9383138188976377
11
6.0463298031496064
21
-3.941506968503937
0
LINE
8
BLACK
6
CONTINUOUS
10
6.0463298031496064
20
-3.941506968503937
11
6.0431366535433071
21
-3.9436405511811023
0
LINE
8
BLACK
6
CONTINUOUS
10
6.0431366535433071
20
-3.9436405511811023
11
6.0393700787401574
21
-3.9443897637795273
0
LINE
8
BLACK
6
CONTINUOUS
10
6.0393700787401574
20
-3.9443897637795273
11
6.0039370078740157
21
-3.9443897637795273
0
LINE
8
BLACK
6
CONTINUOUS
10
6.0039370078740157
20
-3.9443897637795273
11
6.0001704330708661
21
-3.9436405511811023
0
LINE
8
BLACK
6
CONTINUOUS
10
6.0001704330708661
20
-3.9436405511811023
11
5.9969772834645667
21
-3.941506968503937
0
LINE
8
BLACK
6
CONTINUOUS
10
5.9969772834645667
20
-3.941506968503937
11
5.9948437007874018
21
-3.9383138188976377
0
LINE
8
BLACK
6
CONTINUOUS
10
5.9948437007874018
20
-3.9383138188976377
11
5.9940944881889759
21
-3.934547244094488
0
LINE
8
BLACK
6
CONTINUOUS
10
5.9940944881889759
20
-3.934547244094488
11
5.9940944881889759
21
-3.9138779527559056
0
LINE
8
BLACK
6
CONTINUOUS
10
5.9940944881889759
20
-3.9138779527559056
11
5.9948437007874018
21
-3.9101113779527559
0
LINE
8
BLACK
6
CONTINUOUS
10
5.9948437007874018
20
-3.9101113779527559
11
5.9969772834645667
21
-3.9069182283464565
0
LINE
8
BLACK
6
CONTINUOUS
10
5.9969772834645667
20
-3.9069182283464565
11
6.0001704330708661
21
-3.9047846456692912
0
LINE
8
BLACK
6
CONTINUOUS
10
6.0001704330708661
20
-3.9047846456692912
11
6.0039370078740157
21
-3.9040354330708662
0
LINE
8
BLACK
6
CONTINUOUS
10
6.0039370078740157
20
-3.9040354330708662
11
6.0393700787401574
21
-3.9040354330708662
0
LINE
8
BLACK
6
CONTINUOUS
10
6.0393700787401574
20
-3.9040354330708662
11
6.0431366535433071
21
-3.9047846456692912
0
LINE
8
BLACK
6
CONTINUOUS
10
6.1215172047244097
20
-3.8748119685039368
11
6.124071692913386
21
-3.8765188582677164
0
LINE
8
BLACK
6
CONTINUOUS
10
6.124071692913386
20
-3.8765188582677164
11
6.1257785826771656
21
-3.8790733464566927
0
LINE
8
BLACK
6
CONTINUOUS
10
6.1257785826771656
20
-3.8790733464566927
11
6.126377952755905
21
-3.8820866141732284
0
LINE
8
BLACK
6
CONTINUOUS
10
6.126377952755905
20
-3.8820866141732284
11
6.126377952755905
21
-3.8978346456692914
0
LINE
8
BLACK
6
CONTINUOUS
10
6.126377952755905
20
-3.8978346456692914
11
6.1257785826771656
21
-3.9008479133858267
0
LINE
8
BLACK
6
CONTINUOUS
10
6.1257785826771656
20
-3.9008479133858267
11
6.124071692913386
21
-3.903402401574803
0
LINE
8
BLACK
6
CONTINUOUS
10
6.124071692913386
20
-3.903402401574803
11
6.1215172047244097
21
-3.9051092913385825
0
LINE
8
BLACK
6
CONTINUOUS
10
6.1215172047244097
20
-3.9051092913385825
11
6.1185039370078735
21
-3.9057086614173229
0
LINE
8
BLACK
6
CONTINUOUS
10
6.1185039370078735
20
-3.9057086614173229
11
6.0779527559055113
21
-3.9057086614173229
0
LINE
8
BLACK
6
CONTINUOUS
10
6.0779527559055113
20
-3.9057086614173229
11
6.074939488188976
21
-3.9051092913385825
0
LINE
8
BLACK
6
CONTINUOUS
10
6.074939488188976
20
-3.9051092913385825
11
6.0723849999999997
21
-3.903402401574803
0
LINE
8
BLACK
6
CONTINUOUS
10
6.0723849999999997
20
-3.903402401574803
11
6.0706781102362202
21
-3.9008479133858267
0
LINE
8
BLACK
6
CONTINUOUS
10
6.0706781102362202
20
-3.9008479133858267
11
6.0700787401574798
21
-3.8978346456692914
0
LINE
8
BLACK
6
CONTINUOUS
10
6.0700787401574798
20
-3.8978346456692914
11
6.0700787401574798
21
-3.8820866141732284
0
LINE
8
BLACK
6
CONTINUOUS
10
6.0700787401574798
20
-3.8820866141732284
11
6.0706781102362202
21
-3.8790733464566927
0
LINE
8
BLACK
6
CONTINUOUS
10
6.0706781102362202
20
-3.8790733464566927
11
6.0723849999999997
21
-3.8765188582677164
0
LINE
8
BLACK
6
CONTINUOUS
10
6.0723849999999997
20
-3.8765188582677164
11
6.074939488188976
21
-3.8748119685039368
0
LINE
8
BLACK
6
CONTINUOUS
10
6.074939488188976
20
-3.8748119685039368
11
6.0779527559055113
21
-3.8742125984251969
0
LINE
8
BLACK
6
CONTINUOUS
10
6.0779527559055113
20
-3.8742125984251969
11
6.1185039370078735
21
-3.8742125984251969
0
LINE
8
BLACK
6
CONTINUOUS
10
6.1185039370078735
20
-3.8742125984251969
11
6.1215172047244097
21
-3.8748119685039368
0
LINE
8
BLACK
6
CONTINUOUS
10
5.1880526377952751
20
-3.8549300787401575
11
5.1906071259842514
21
-3.856636968503937
0
LINE
8
BLACK
6
CONTINUOUS
10
5.1906071259842514
20
-3.856636968503937
11
5.192314015748031
21
-3.8591914566929133
0
LINE
8
BLACK
6
CONTINUOUS
10
5.192314015748031
20
-3.8591914566929133
11
5.1929133858267713
21
-3.8622047244094486
0
LINE
8
BLACK
6
CONTINUOUS
10
5.1929133858267713
20
-3.8622047244094486
11
5.1929133858267713
21
-3.8838582677165352
0
LINE
8
BLACK
6
CONTINUOUS
10
5.1929133858267713
20
-3.8838582677165352
11
5.192314015748031
21
-3.886871535433071
0
LINE
8
BLACK
6
CONTINUOUS
10
5.192314015748031
20
-3.886871535433071
11
5.1906071259842514
21
-3.8894260236220473
0
LINE
8
BLACK
6
CONTINUOUS
10
5.1906071259842514
20
-3.8894260236220473
11
5.1880526377952751
21
-3.8911329133858268
0
LINE
8
BLACK
6
CONTINUOUS
10
5.1880526377952751
20
-3.8911329133858268
11
5.1850393700787398
21
-3.8917322834645667
0
LINE
8
BLACK
6
CONTINUOUS
10
5.1850393700787398
20
-3.8917322834645667
11
5.1692913385826769
21
-3.8917322834645667
0
LINE
8
BLACK
6
CONTINUOUS
10
5.1692913385826769
20
-3.8917322834645667
11
5.1662780708661415
21
-3.8911329133858268
0
LINE
8
BLACK
6
CONTINUOUS
10
5.1662780708661415
20
-3.8911329133858268
11
5.1637235826771652
21
-3.8894260236220473
0
LINE
8
BLACK
6
CONTINUOUS
10
5.1637235826771652
20
-3.8894260236220473
11
5.1620166929133857
21
-3.886871535433071
0
LINE
8
BLACK
6
CONTINUOUS
10
5.1620166929133857
20
-3.886871535433071
11
5.1614173228346454
21
-3.8838582677165352
0
LINE
8
BLACK
6
CONTINUOUS
10
5.1614173228346454
20
-3.8838582677165352
11
5.1614173228346454
21
-3.8622047244094486
0
LINE
8
BLACK
6
CONTINUOUS
10
5.1614173228346454
20
-3.8622047244094486
11
5.1620166929133857
21
-3.8591914566929133
0
LINE
8
BLACK
6
CONTINUOUS
10
5.1620166929133857
20
-3.8591914566929133
11
5.1637235826771652
21
-3.856636968503937
0
LINE
8
BLACK
6
CONTINUOUS
10
5.1637235826771652
20
-3.856636968503937
11
5.1662780708661415
21
-3.8549300787401575
0
LINE
8
BLACK
6
CONTINUOUS
10
5.1662780708661415
20
-3.8549300787401575
11
5.1692913385826769
21
-3.8543307086614171
0
LINE
8
BLACK
6
CONTINUOUS
10
5.1692913385826769
20
-3.8543307086614171
11
5.1850393700787398
21
-3.8543307086614171
0
LINE
8
BLACK
6
CONTINUOUS
10
5.1850393700787398
20
-3.8543307086614171
11
5.1880526377952751
21
-3.8549300787401575
0
LINE
8
BLACK
6
CONTINUOUS
10
5.2530132677165353
20
-3.8549300787401575
11
5.2555677559055116
21
-3.856636968503937
0
LINE
8
BLACK
6
CONTINUOUS
10
5.2555677559055116
20
-3.856636968503937
11
5.2572746456692911
21
-3.8591914566929133
0
LINE
8
BLACK
6
CONTINUOUS
10
5.2572746456692911
20
-3.8591914566929133
11
5.2578740157480315
21
-3.8622047244094486
0
LINE
8
BLACK
6
CONTINUOUS
10
5.2578740157480315
20
-3.8622047244094486
11
5.2578740157480315
21
-3.8838582677165352
0
LINE
8
BLACK
6
CONTINUOUS
10
5.2578740157480315
20
-3.8838582677165352
11
5.2572746456692911
21
-3.886871535433071
0
LINE
8
BLACK
6
CONTINUOUS
10
5.2572746456692911
20
-3.886871535433071
11
5.2555677559055116
21
-3.8894260236220473
0
LINE
8
BLACK
6
CONTINUOUS
10
5.2555677559055116
20
-3.8894260236220473
11
5.2530132677165353
21
-3.8911329133858268
0
LINE
8
BLACK
6
CONTINUOUS
10
5.2530132677165353
20
-3.8911329133858268
11
5.25
21
-3.8917322834645667
0
LINE
8
BLACK
6
CONTINUOUS
10
5.25
20
-3.8917322834645667
11
5.234251968503937
21
-3.8917322834645667
0
LINE
8
BLACK
6
CONTINUOUS
10
5.234251968503937
20
-3.8917322834645667
11
5.2312387007874017
21
-3.8911329133858268
0
LINE
8
BLACK
6
CONTINUOUS
10
5.2312387007874017
20
-3.8911329133858268
11
5.2286842125984254
21
-3.8894260236220473
0
LINE
8
BLACK
6
CONTINUOUS
10
5.2286842125984254
20
-3.8894260236220473
11
5.2269773228346459
21
-3.886871535433071
0
LINE
8
BLACK
6
CONTINUOUS
10
5.2269773228346459
20
-3.886871535433071
11
5.2263779527559056
21
-3.8838582677165352
0
LINE
8
BLACK
6
CONTINUOUS
10
5.2263779527559056
20
-3.8838582677165352
11
5.2263779527559056
21
-3.8622047244094486
0
LINE
8
BLACK
6
CONTINUOUS
10
5.2263779527559056
20
-3.8622047244094486
11
5.2269773228346459
21
-3.8591914566929133
0
LINE
8
BLACK
6
CONTINUOUS
10
5.2269773228346459
20
-3.8591914566929133
11
5.2286842125984254
21
-3.856636968503937
0
LINE
8
BLACK
6
CONTINUOUS
10
5.2286842125984254
20
-3.856636968503937
11
5.2312387007874017
21
-3.8549300787401575
0
LINE
8
BLACK
6
CONTINUOUS
10
5.2312387007874017
20
-3.8549300787401575
11
5.234251968503937
21
-3.8543307086614171
0
LINE
8
BLACK
6
CONTINUOUS
10
5.234251968503937
20
-3.8543307086614171
11
5.25
21
-3.8543307086614171
0
LINE
8
BLACK
6
CONTINUOUS
10
5.25
20
-3.8543307086614171
11
5.2530132677165353
21
-3.8549300787401575
0
LINE
8
BLACK
6
CONTINUOUS
10
5.3490811811023624
20
-3.8608376377952753
11
5.3508054724409444
21
-3.8619898031496063
0
LINE
8
BLACK
6
CONTINUOUS
10
5.3508054724409444
20
-3.8619898031496063
11
5.3519576377952758
21
-3.8637140944881887
0
LINE
8
BLACK
6
CONTINUOUS
10
5.3519576377952758
20
-3.8637140944881887
11
5.3523622047244093
21
-3.8657480314960631
0
LINE
8
BLACK
6
CONTINUOUS
10
5.3523622047244093
20
-3.8657480314960631
11
5.3523622047244093
21
-3.8803149606299212
0
LINE
8
BLACK
6
CONTINUOUS
10
5.3523622047244093
20
-3.8803149606299212
11
5.3519576377952758
21
-3.8823488976377951
0
LINE
8
BLACK
6
CONTINUOUS
10
5.3519576377952758
20
-3.8823488976377951
11
5.3508054724409444
21
-3.884073188976378
0
LINE
8
BLACK
6
CONTINUOUS
10
5.3508054724409444
20
-3.884073188976378
11
5.3490811811023624
21
-3.8852253543307085
0
LINE
8
BLACK
6
CONTINUOUS
10
5.3490811811023624
20
-3.8852253543307085
11
5.3470472440944885
21
-3.8856299212598424
0
LINE
8
BLACK
6
CONTINUOUS
10
5.3470472440944885
20
-3.8856299212598424
11
5.3364173228346452
21
-3.8856299212598424
0
LINE
8
BLACK
6
CONTINUOUS
10
5.3364173228346452
20
-3.8856299212598424
11
5.3343833858267713
21
-3.8852253543307085
0
LINE
8
BLACK
6
CONTINUOUS
10
5.3343833858267713
20
-3.8852253543307085
11
5.3326590944881884
21
-3.884073188976378
0
LINE
8
BLACK
6
CONTINUOUS
10
5.3326590944881884
20
-3.884073188976378
11
5.3315069291338579
21
-3.8823488976377951
0
LINE
8
BLACK
6
CONTINUOUS
10
5.3315069291338579
20
-3.8823488976377951
11
5.3311023622047244
21
-3.8803149606299212
0
LINE
8
BLACK
6
CONTINUOUS
10
5.3311023622047244
20
-3.8803149606299212
11
5.3311023622047244
21
-3.8657480314960631
0
LINE
8
BLACK
6
CONTINUOUS
10
5.3311023622047244
20
-3.8657480314960631
11
5.3315069291338579
21
-3.8637140944881887
0
LINE
8
BLACK
6
CONTINUOUS
10
5.3315069291338579
20
-3.8637140944881887
11
5.3326590944881884
21
-3.8619898031496063
0
LINE
8
BLACK
6
CONTINUOUS
10
5.3326590944881884
20
-3.8619898031496063
11
5.3343833858267713
21
-3.8608376377952753
0
LINE
8
BLACK
6
CONTINUOUS
10
5.3343833858267713
20
-3.8608376377952753
11
5.3364173228346452
21
-3.8604330708661418
0
LINE
8
BLACK
6
CONTINUOUS
10
5.3364173228346452
20
-3.8604330708661418
11
5.3470472440944885
21
-3.8604330708661418
0
LINE
8
BLACK
6
CONTINUOUS
10
5.3470472440944885
20
-3.8604330708661418
11
5.3490811811023624
21
-3.8608376377952753
0
LINE
8
BLACK
6
CONTINUOUS
10
5.3892386614173224
20
-3.8608376377952753
11
5.3909629527559053
21
-3.8619898031496063
0
LINE
8
BLACK
6
CONTINUOUS
10
5.3909629527559053
20
-3.8619898031496063
11
5.3921151181102358
21
-3.8637140944881887
0
LINE
8
BLACK
6
CONTINUOUS
10
5.3921151181102358
20
-3.8637140944881887
11
5.3925196850393702
21
-3.8657480314960631
0
LINE
8
BLACK
6
CONTINUOUS
10
5.3925196850393702
20
-3.8657480314960631
11
5.3925196850393702
21
-3.8803149606299212
0
LINE
8
BLACK
6
CONTINUOUS
10
5.3925196850393702
20
-3.8803149606299212
11
5.3921151181102358
21
-3.8823488976377951
0
LINE
8
BLACK
6
CONTINUOUS
10
5.3921151181102358
20
-3.8823488976377951
11
5.3909629527559053
21
-3.884073188976378
0
LINE
8
BLACK
6
CONTINUOUS
10
5.3909629527559053
20
-3.884073188976378
11
5.3892386614173224
21
-3.8852253543307085
0
LINE
8
BLACK
6
CONTINUOUS
10
5.3892386614173224
20
-3.8852253543307085
11
5.3872047244094485
21
-3.8856299212598424
0
LINE
8
BLACK
6
CONTINUOUS
10
5.3872047244094485
20
-3.8856299212598424
11
5.3765748031496061
21
-3.8856299212598424
0
LINE
8
BLACK
6
CONTINUOUS
10
5.3765748031496061
20
-3.8856299212598424
11
5.3745408661417322
21
-3.8852253543307085
0
LINE
8
BLACK
6
CONTINUOUS
10
5.3745408661417322
20
-3.8852253543307085
11
5.3728165748031493
21
-3.884073188976378
0
LINE
8
BLACK
6
CONTINUOUS
10
5.3728165748031493
20
-3.884073188976378
11
5.3716644094488188
21
-3.8823488976377951
0
LINE
8
BLACK
6
CONTINUOUS
10
5.3716644094488188
20
-3.8823488976377951
11
5.3712598425196854
21
-3.8803149606299212
0
LINE
8
BLACK
6
CONTINUOUS
10
5.3712598425196854
20
-3.8803149606299212
11
5.3712598425196854
21
-3.8657480314960631
0
LINE
8
BLACK
6
CONTINUOUS
10
5.3712598425196854
20
-3.8657480314960631
11
5.3716644094488188
21
-3.8637140944881887
0
LINE
8
BLACK
6
CONTINUOUS
10
5.3716644094488188
20
-3.8637140944881887
11
5.3728165748031493
21
-3.8619898031496063
0
LINE
8
BLACK
6
CONTINUOUS
10
5.3728165748031493
20
-3.8619898031496063
11
5.3745408661417322
21
-3.8608376377952753
0
LINE
8
BLACK
6
CONTINUOUS
10
5.3745408661417322
20
-3.8608376377952753
11
5.3765748031496061
21
-3.8604330708661418
0
LINE
8
BLACK
6
CONTINUOUS
10
5.3765748031496061
20
-3.8604330708661418
11
5.3872047244094485
21
-3.8604330708661418
0
LINE
8
BLACK
6
CONTINUOUS
10
5.3872047244094485
20
-3.8604330708661418
11
5.3892386614173224
21
-3.8608376377952753
0
LINE
8
BLACK
6
CONTINUOUS
10
6.117125748031496
20
-3.7982371653543305
11
6.1196802362204723
21
-3.7999440551181101
0
LINE
8
BLACK
6
CONTINUOUS
10
6.1196802362204723
20
-3.7999440551181101
11
6.1213871259842518
21
-3.8024985433070864
0
LINE
8
BLACK
6
CONTINUOUS
10
6.1213871259842518
20
-3.8024985433070864
11
6.1219864960629922
21
-3.8055118110236221
0
LINE
8
BLACK
6
CONTINUOUS
10
6.1219864960629922
20
-3.8055118110236221
11
6.1219864960629922
21
-3.8212598425196851
0
LINE
8
BLACK
6
CONTINUOUS
10
6.1219864960629922
20
-3.8212598425196851
11
6.1213871259842518
21
-3.8242731102362204
0
LINE
8
BLACK
6
CONTINUOUS
10
6.1213871259842518
20
-3.8242731102362204
11
6.1196802362204723
21
-3.8268275984251967
0
LINE
8
BLACK
6
CONTINUOUS
10
6.1196802362204723
20
-3.8268275984251967
11
6.117125748031496
21
-3.8285344881889762
0
LINE
8
BLACK
6
CONTINUOUS
10
6.117125748031496
20
-3.8285344881889762
11
6.1141124803149607
21
-3.8291338582677166
0
LINE
8
BLACK
6
CONTINUOUS
10
6.1141124803149607
20
-3.8291338582677166
11
6.0735612992125985
21
-3.8291338582677166
0
LINE
8
BLACK
6
CONTINUOUS
10
6.0735612992125985
20
-3.8291338582677166
11
6.0705480314960631
21
-3.8285344881889762
0
LINE
8
BLACK
6
CONTINUOUS
10
6.0705480314960631
20
-3.8285344881889762
11
6.0679935433070868
21
-3.8268275984251967
0
LINE
8
BLACK
6
CONTINUOUS
10
6.0679935433070868
20
-3.8268275984251967
11
6.0662866535433073
21
-3.8242731102362204
0
LINE
8
BLACK
6
CONTINUOUS
10
6.0662866535433073
20
-3.8242731102362204
11
6.065687283464567
21
-3.8212598425196851
0
LINE
8
BLACK
6
CONTINUOUS
10
6.065687283464567
20
-3.8212598425196851
11
6.065687283464567
21
-3.8055118110236221
0
LINE
8
BLACK
6
CONTINUOUS
10
6.065687283464567
20
-3.8055118110236221
11
6.0662866535433073
21
-3.8024985433070864
0
LINE
8
BLACK
6
CONTINUOUS
10
6.0662866535433073
20
-3.8024985433070864
11
6.0679935433070868
21
-3.7999440551181101
0
LINE
8
BLACK
6
CONTINUOUS
10
6.0679935433070868
20
-3.7999440551181101
11
6.0705480314960631
21
-3.7982371653543305
0
LINE
8
BLACK
6
CONTINUOUS
10
6.0705480314960631
20
-3.7982371653543305
11
6.0735612992125985
21
-3.7976377952755906
0
LINE
8
BLACK
6
CONTINUOUS
10
6.0735612992125985
20
-3.7976377952755906
11
6.1141124803149607
21
-3.7976377952755906
0
LINE
8
BLACK
6
CONTINUOUS
10
6.1141124803149607
20
-3.7976377952755906
11
6.117125748031496
21
-3.7982371653543305
0
LINE
8
BLACK
6
CONTINUOUS
10
5.3523622047244093
20
-3.8159448818897639
11
5.3287401574803148
21
-3.8159448818897639
0
LINE
8
BLACK
6
CONTINUOUS
10
5.3287401574803148
20
-3.8159448818897639
11
5.3287401574803148
21
-3.7746062992125982
0
LINE
8
BLACK
6
CONTINUOUS
10
5.3287401574803148
20
-3.7746062992125982
11
5.3523622047244093
21
-3.7746062992125982
0
LINE
8
BLACK
6
CONTINUOUS
10
5.3523622047244093
20
-3.7746062992125982
11
5.3523622047244093
21
-3.8159448818897639
0
LINE
8
BLACK
6
CONTINUOUS
10
5.4271653543307083
20
-3.8159448818897639
11
5.4035433070866139
21
-3.8159448818897639
0
LINE
8
BLACK
6
CONTINUOUS
10
5.4035433070866139
20
-3.8159448818897639
11
5.4035433070866139
21
-3.7746062992125982
0
LINE
8
BLACK
6
CONTINUOUS
10
5.4035433070866139
20
-3.7746062992125982
11
5.4271653543307083
21
-3.7746062992125982
0
LINE
8
BLACK
6
CONTINUOUS
10
5.4271653543307083
20
-3.7746062992125982
11
5.4271653543307083
21
-3.8159448818897639
0
LINE
8
BLACK
6
CONTINUOUS
10
6.037231141732283
20
-3.7596074803149606
11
6.0404242913385824
21
-3.761741062992126
0
LINE
8
BLACK
6
CONTINUOUS
10
6.0404242913385824
20
-3.761741062992126
11
6.0425578740157482
21
-3.7649342125984253
0
LINE
8
BLACK
6
CONTINUOUS
10
6.0425578740157482
20
-3.7649342125984253
11
6.0433070866141732
21
-3.7687007874015745
0
LINE
8
BLACK
6
CONTINUOUS
10
6.0433070866141732
20
-3.7687007874015745
11
6.0433070866141732
21
-3.7893700787401574
0
LINE
8
BLACK
6
CONTINUOUS
10
6.0433070866141732
20
-3.7893700787401574
11
6.0425578740157482
21
-3.7931366535433071
0
LINE
8
BLACK
6
CONTINUOUS
10
6.0425578740157482
20
-3.7931366535433071
11
6.0404242913385824
21
-3.796329803149606
0
LINE
8
BLACK
6
CONTINUOUS
10
6.0404242913385824
20
-3.796329803149606
11
6.037231141732283
21
-3.7984633858267718
0
LINE
8
BLACK
6
CONTINUOUS
10
6.037231141732283
20
-3.7984633858267718
11
6.0334645669291334
21
-3.7992125984251968
0
LINE
8
BLACK
6
CONTINUOUS
10
6.0334645669291334
20
-3.7992125984251968
11
5.9980314960629917
21
-3.7992125984251968
0
LINE
8
BLACK
6
CONTINUOUS
10
5.9980314960629917
20
-3.7992125984251968
11
5.994264921259842
21
-3.7984633858267718
0
LINE
8
BLACK
6
CONTINUOUS
10
5.994264921259842
20
-3.7984633858267718
11
5.9910717716535435
21
-3.796329803149606
0
LINE
8
BLACK
6
CONTINUOUS
10
5.9910717716535435
20
-3.796329803149606
11
5.9889381889763778
21
-3.7931366535433071
0
LINE
8
BLACK
6
CONTINUOUS
10
5.9889381889763778
20
-3.7931366535433071
11
5.9881889763779528
21
-3.7893700787401574
0
LINE
8
BLACK
6
CONTINUOUS
10
5.9881889763779528
20
-3.7893700787401574
11
5.9881889763779528
21
-3.7687007874015745
0
LINE
8
BLACK
6
CONTINUOUS
10
5.9881889763779528
20
-3.7687007874015745
11
5.9889381889763778
21
-3.7649342125984253
0
LINE
8
BLACK
6
CONTINUOUS
10
5.9889381889763778
20
-3.7649342125984253
11
5.9910717716535435
21
-3.761741062992126
0
LINE
8
BLACK
6
CONTINUOUS
10
5.9910717716535435
20
-3.761741062992126
11
5.994264921259842
21
-3.7596074803149606
0
LINE
8
BLACK
6
CONTINUOUS
10
5.994264921259842
20
-3.7596074803149606
11
5.9980314960629917
21
-3.7588582677165352
0
LINE
8
BLACK
6
CONTINUOUS
10
5.9980314960629917
20
-3.7588582677165352
11
6.0334645669291334
21
-3.7588582677165352
0
LINE
8
BLACK
6
CONTINUOUS
10
6.0334645669291334
20
-3.7588582677165352
11
6.037231141732283
21
-3.7596074803149606
0
LINE
8
BLACK
6
CONTINUOUS
10
5.1151574803149602
20
-3.7795275590551181
11
5.0285433070866139
21
-3.7795275590551181
0
LINE
8
BLACK
6
CONTINUOUS
10
5.0285433070866139
20
-3.7795275590551181
11
5.0285433070866139
21
-3.7185039370078741
0
LINE
8
BLACK
6
CONTINUOUS
10
5.0285433070866139
20
-3.7185039370078741
11
5.1151574803149602
21
-3.7185039370078741
0
LINE
8
BLACK
6
CONTINUOUS
10
5.1151574803149602
20
-3.7185039370078741
11
5.1151574803149602
21
-3.7795275590551181
0
LINE
8
BLACK
6
CONTINUOUS
10
5.2765748031496065
20
-3.7795275590551181
11
5.1899606299212593
21
-3.7795275590551181
0
LINE
8
BLACK
6
CONTINUOUS
10
5.1899606299212593
20
-3.7795275590551181
11
5.1899606299212593
21
-3.7185039370078741
0
LINE
8
BLACK
6
CONTINUOUS
10
5.1899606299212593
20
-3.7185039370078741
11
5.2765748031496065
21
-3.7185039370078741
0
LINE
8
BLACK
6
CONTINUOUS
10
5.2765748031496065
20
-3.7185039370078741
11
5.2765748031496065
21
-3.7795275590551181
0
LINE
8
BLACK
6
CONTINUOUS
10
6.0808664960629919
20
-3.7192348031496061
11
6.0823034251968506
21
-3.7201948818897637
0
LINE
8
BLACK
6
CONTINUOUS
10
6.0823034251968506
20
-3.7201948818897637
11
6.0832635039370073
21
-3.7216318110236219
0
LINE
8
BLACK
6
CONTINUOUS
10
6.0832635039370073
20
-3.7216318110236219
11
6.0836006692913385
21
-3.7233267716535434
0
LINE
8
BLACK
6
CONTINUOUS
10
6.0836006692913385
20
-3.7233267716535434
11
6.0836006692913385
21
-3.7577755905511809
0
LINE
8
BLACK
6
CONTINUOUS
10
6.0836006692913385
20
-3.7577755905511809
11
6.0832635039370073
21
-3.7594705511811024
0
LINE
8
BLACK
6
CONTINUOUS
10
6.0832635039370073
20
-3.7594705511811024
11
6.0823034251968506
21
-3.7609074803149607
0
LINE
8
BLACK
6
CONTINUOUS
10
6.0823034251968506
20
-3.7609074803149607
11
6.0808664960629919
21
-3.7618675590551178
0
LINE
8
BLACK
6
CONTINUOUS
10
6.0808664960629919
20
-3.7618675590551178
11
6.0791715354330709
21
-3.7622047244094485
0
LINE
8
BLACK
6
CONTINUOUS
10
6.0791715354330709
20
-3.7622047244094485
11
6.0703132677165357
21
-3.7622047244094485
0
LINE
8
BLACK
6
CONTINUOUS
10
6.0703132677165357
20
-3.7622047244094485
11
6.0686183070866138
21
-3.7618675590551178
0
LINE
8
BLACK
6
CONTINUOUS
10
6.0686183070866138
20
-3.7618675590551178
11
6.0671813779527559
21
-3.7609074803149607
0
LINE
8
BLACK
6
CONTINUOUS
10
6.0671813779527559
20
-3.7609074803149607
11
6.0662212992125983
21
-3.7594705511811024
0
LINE
8
BLACK
6
CONTINUOUS
10
6.0662212992125983
20
-3.7594705511811024
11
6.0658841338582672
21
-3.7577755905511809
0
LINE
8
BLACK
6
CONTINUOUS
10
6.0658841338582672
20
-3.7577755905511809
11
6.0658841338582672
21
-3.7233267716535434
0
LINE
8
BLACK
6
CONTINUOUS
10
6.0658841338582672
20
-3.7233267716535434
11
6.0662212992125983
21
-3.7216318110236219
0
LINE
8
BLACK
6
CONTINUOUS
10
6.0662212992125983
20
-3.7216318110236219
11
6.0671813779527559
21
-3.7201948818897637
0
LINE
8
BLACK
6
CONTINUOUS
10
6.0671813779527559
20
-3.7201948818897637
11
6.0686183070866138
21
-3.7192348031496061
0
LINE
8
BLACK
6
CONTINUOUS
10
6.0686183070866138
20
-3.7192348031496061
11
6.0703132677165357
21
-3.7188976377952754
0
LINE
8
BLACK
6
CONTINUOUS
10
6.0703132677165357
20
-3.7188976377952754
11
6.0791715354330709
21
-3.7188976377952754
0
LINE
8
BLACK
6
CONTINUOUS
10
6.0791715354330709
20
-3.7188976377952754
11
6.0808664960629919
21
-3.7192348031496061
0
LINE
8
BLACK
6
CONTINUOUS
10
5.3897637795275593
20
-3.7293307086614171
11
5.3661417322834648
21
-3.7293307086614171
0
LINE
8
BLACK
6
CONTINUOUS
10
5.3661417322834648
20
-3.7293307086614171
11
5.3661417322834648
21
-3.6879921259842519
0
LINE
8
BLACK
6
CONTINUOUS
10
5.3661417322834648
20
-3.6879921259842519
11
5.3897637795275593
21
-3.6879921259842519
0
LINE
8
BLACK
6
CONTINUOUS
10
5.3897637795275593
20
-3.6879921259842519
11
5.3897637795275593
21
-3.7293307086614171
0
LINE
8
BLACK
6
CONTINUOUS
10
6.037231141732283
20
-3.6877570866141731
11
6.0404242913385824
21
-3.6898906692913385
0
LINE
8
BLACK
6
CONTINUOUS
10
6.0404242913385824
20
-3.6898906692913385
11
6.0425578740157482
21
-3.6930838188976378
0
LINE
8
BLACK
6
CONTINUOUS
10
6.0425578740157482
20
-3.6930838188976378
11
6.0433070866141732
21
-3.6968503937007875
0
LINE
8
BLACK
6
CONTINUOUS
10
6.0433070866141732
20
-3.6968503937007875
11
6.0433070866141732
21
-3.7175196850393699
0
LINE
8
BLACK
6
CONTINUOUS
10
6.0433070866141732
20
-3.7175196850393699
11
6.0425578740157482
21
-3.7212862598425196
0
LINE
8
BLACK
6
CONTINUOUS
10
6.0425578740157482
20
-3.7212862598425196
11
6.0404242913385824
21
-3.7244794094488189
0
LINE
8
BLACK
6
CONTINUOUS
10
6.0404242913385824
20
-3.7244794094488189
11
6.037231141732283
21
-3.7266129921259843
0
LINE
8
BLACK
6
CONTINUOUS
10
6.037231141732283
20
-3.7266129921259843
11
6.0334645669291334
21
-3.7273622047244093
0
LINE
8
BLACK
6
CONTINUOUS
10
6.0334645669291334
20
-3.7273622047244093
11
5.9980314960629917
21
-3.7273622047244093
0
LINE
8
BLACK
6
CONTINUOUS
10
5.9980314960629917
20
-3.7273622047244093
11
5.994264921259842
21
-3.7266129921259843
0
LINE
8
BLACK
6
CONTINUOUS
10
5.994264921259842
20
-3.7266129921259843
11
5.9910717716535435
21
-3.7244794094488189
0
LINE
8
BLACK
6
CONTINUOUS
10
5.9910717716535435
20
-3.7244794094488189
11
5.9889381889763778
21
-3.7212862598425196
0
LINE
8
BLACK
6
CONTINUOUS
10
5.9889381889763778
20
-3.7212862598425196
11
5.9881889763779528
21
-3.7175196850393699
0
LINE
8
BLACK
6
CONTINUOUS
10
5.9881889763779528
20
-3.7175196850393699
11
5.9881889763779528
21
-3.6968503937007875
0
LINE
8
BLACK
6
CONTINUOUS
10
5.9881889763779528
20
-3.6968503937007875
11
5.9889381889763778
21
-3.6930838188976378
0
LINE
8
BLACK
6
CONTINUOUS
10
5.9889381889763778
20
-3.6930838188976378
11
5.9910717716535435
21
-3.6898906692913385
0
LINE
8
BLACK
6
CONTINUOUS
10
5.9910717716535435
20
-3.6898906692913385
11
5.994264921259842
21
-3.6877570866141731
0
LINE
8
BLACK
6
CONTINUOUS
10
5.994264921259842
20
-3.6877570866141731
11
5.9980314960629917
21
-3.6870078740157481
0
LINE
8
BLACK
6
CONTINUOUS
10
5.9980314960629917
20
-3.6870078740157481
11
6.0334645669291334
21
-3.6870078740157481
0
LINE
8
BLACK
6
CONTINUOUS
10
6.0334645669291334
20
-3.6870078740157481
11
6.037231141732283
21
-3.6877570866141731
0
LINE
8
BLACK
6
CONTINUOUS
10
5.7027559055118111
20
-3.7263582677165354
11
5.6850393700787398
21
-3.7263582677165354
0
LINE
8
BLACK
6
CONTINUOUS
10
5.6850393700787398
20
-3.7263582677165354
11
5.6850393700787398
21
-3.668287401574803
0
LINE
8
BLACK
6
CONTINUOUS
10
5.6850393700787398
20
-3.668287401574803
11
5.7027559055118111
21
-3.668287401574803
0
LINE
8
BLACK
6
CONTINUOUS
10
5.7027559055118111
20
-3.668287401574803
11
5.7027559055118111
21
-3.7263582677165354
0
LINE
8
BLACK
6
CONTINUOUS
10
5.728346456692913
20
-3.7263582677165354
11
5.7106299212598426
21
-3.7263582677165354
0
LINE
8
BLACK
6
CONTINUOUS
10
5.7106299212598426
20
-3.7263582677165354
11
5.7106299212598426
21
-3.668287401574803
0
LINE
8
BLACK
6
CONTINUOUS
10
5.7106299212598426
20
-3.668287401574803
11
5.728346456692913
21
-3.668287401574803
0
LINE
8
BLACK
6
CONTINUOUS
10
5.728346456692913
20
-3.668287401574803
11
5.728346456692913
21
-3.7263582677165354
0
LINE
8
BLACK
6
CONTINUOUS
10
5.7539370078740157
20
-3.7263582677165354
11
5.7362204724409445
21
-3.7263582677165354
0
LINE
8
BLACK
6
CONTINUOUS
10
5.7362204724409445
20
-3.7263582677165354
11
5.7362204724409445
21
-3.668287401574803
0
LINE
8
BLACK
6
CONTINUOUS
10
5.7362204724409445
20
-3.668287401574803
11
5.7539370078740157
21
-3.668287401574803
0
LINE
8
BLACK
6
CONTINUOUS
10
5.7539370078740157
20
-3.668287401574803
11
5.7539370078740157
21
-3.7263582677165354
0
LINE
8
BLACK
6
CONTINUOUS
10
5.7795275590551176
20
-3.7263582677165354
11
5.7618110236220472
21
-3.7263582677165354
0
LINE
8
BLACK
6
CONTINUOUS
10
5.7618110236220472
20
-3.7263582677165354
11
5.7618110236220472
21
-3.668287401574803
0
LINE
8
BLACK
6
CONTINUOUS
10
5.7618110236220472
20
-3.668287401574803
11
5.7795275590551176
21
-3.668287401574803
0
LINE
8
BLACK
6
CONTINUOUS
10
5.7795275590551176
20
-3.668287401574803
11
5.7795275590551176
21
-3.7263582677165354
0
LINE
8
BLACK
6
CONTINUOUS
10
5.8051181102362204
20
-3.7263582677165354
11
5.7874015748031491
21
-3.7263582677165354
0
LINE
8
BLACK
6
CONTINUOUS
10
5.7874015748031491
20
-3.7263582677165354
11
5.7874015748031491
21
-3.668287401574803
0
LINE
8
BLACK
6
CONTINUOUS
10
5.7874015748031491
20
-3.668287401574803
11
5.8051181102362204
21
-3.668287401574803
0
LINE
8
BLACK
6
CONTINUOUS
10
5.8051181102362204
20
-3.668287401574803
11
5.8051181102362204
21
-3.7263582677165354
0
LINE
8
BLACK
6
CONTINUOUS
10
5.8307086614173231
20
-3.7263582677165354
11
5.8129921259842519
21
-3.7263582677165354
0
LINE
8
BLACK
6
CONTINUOUS
10
5.8129921259842519
20
-3.7263582677165354
11
5.8129921259842519
21
-3.668287401574803
0
LINE
8
BLACK
6
CONTINUOUS
10
5.8129921259842519
20
-3.668287401574803
11
5.8307086614173231
21
-3.668287401574803
0
LINE
8
BLACK
6
CONTINUOUS
10
5.8307086614173231
20
-3.668287401574803
11
5.8307086614173231
21
-3.7263582677165354
0
LINE
8
BLACK
6
CONTINUOUS
10
5.856299212598425
20
-3.7263582677165354
11
5.8385826771653546
21
-3.7263582677165354
0
LINE
8
BLACK
6
CONTINUOUS
10
5.8385826771653546
20
-3.7263582677165354
11
5.8385826771653546
21
-3.668287401574803
0
LINE
8
BLACK
6
CONTINUOUS
10
5.8385826771653546
20
-3.668287401574803
11
5.856299212598425
21
-3.668287401574803
0
LINE
8
BLACK
6
CONTINUOUS
10
5.856299212598425
20
-3.668287401574803
11
5.856299212598425
21
-3.7263582677165354
0
LINE
8
BLACK
6
CONTINUOUS
10
5.8818897637795278
20
-3.7263582677165354
11
5.8641732283464565
21
-3.7263582677165354
0
LINE
8
BLACK
6
CONTINUOUS
10
5.8641732283464565
20
-3.7263582677165354
11
5.8641732283464565
21
-3.668287401574803
0
LINE
8
BLACK
6
CONTINUOUS
10
5.8641732283464565
20
-3.668287401574803
11
5.8818897637795278
21
-3.668287401574803
0
LINE
8
BLACK
6
CONTINUOUS
10
5.8818897637795278
20
-3.668287401574803
11
5.8818897637795278
21
-3.7263582677165354
0
LINE
8
BLACK
6
CONTINUOUS
10
5.9074803149606296
20
-3.7263582677165354
11
5.8897637795275593
21
-3.7263582677165354
0
LINE
8
BLACK
6
CONTINUOUS
10
5.8897637795275593
20
-3.7263582677165354
11
5.8897637795275593
21
-3.668287401574803
0
LINE
8
BLACK
6
CONTINUOUS
10
5.8897637795275593
20
-3.668287401574803
11
5.9074803149606296
21
-3.668287401574803
0
LINE
8
BLACK
6
CONTINUOUS
10
5.9074803149606296
20
-3.668287401574803
11
5.9074803149606296
21
-3.7263582677165354
0
LINE
8
BLACK
6
CONTINUOUS
10
5.9330708661417324
20
-3.7263582677165354
11
5.9153543307086611
21
-3.7263582677165354
0
LINE
8
BLACK
6
CONTINUOUS
10
5.9153543307086611
20
-3.7263582677165354
11
5.9153543307086611
21
-3.668287401574803
0
LINE
8
BLACK
6
CONTINUOUS
10
5.9153543307086611
20
-3.668287401574803
11
5.9330708661417324
21
-3.668287401574803
0
LINE
8
BLACK
6
CONTINUOUS
10
5.9330708661417324
20
-3.668287401574803
11
5.9330708661417324
21
-3.7263582677165354
0
LINE
8
BLACK
6
CONTINUOUS
10
6.117125748031496
20
-3.6517804724409446
11
6.1196802362204723
21
-3.6534873622047241
0
LINE
8
BLACK
6
CONTINUOUS
10
6.1196802362204723
20
-3.6534873622047241
11
6.1213871259842518
21
-3.6560418503937009
0
LINE
8
BLACK
6
CONTINUOUS
10
6.1213871259842518
20
-3.6560418503937009
11
6.1219864960629922
21
-3.6590551181102362
0
LINE
8
BLACK
6
CONTINUOUS
10
6.1219864960629922
20
-3.6590551181102362
11
6.1219864960629922
21
-3.6748031496062992
0
LINE
8
BLACK
6
CONTINUOUS
10
6.1219864960629922
20
-3.6748031496062992
11
6.1213871259842518
21
-3.6778164173228345
0
LINE
8
BLACK
6
CONTINUOUS
10
6.1213871259842518
20
-3.6778164173228345
11
6.1196802362204723
21
-3.6803709055118108
0
LINE
8
BLACK
6
CONTINUOUS
10
6.1196802362204723
20
-3.6803709055118108
11
6.117125748031496
21
-3.6820777952755903
0
LINE
8
BLACK
6
CONTINUOUS
10
6.117125748031496
20
-3.6820777952755903
11
6.1141124803149607
21
-3.6826771653543307
0
LINE
8
BLACK
6
CONTINUOUS
10
6.1141124803149607
20
-3.6826771653543307
11
6.0735612992125985
21
-3.6826771653543307
0
LINE
8
BLACK
6
CONTINUOUS
10
6.0735612992125985
20
-3.6826771653543307
11
6.0705480314960631
21
-3.6820777952755903
0
LINE
8
BLACK
6
CONTINUOUS
10
6.0705480314960631
20
-3.6820777952755903
11
6.0679935433070868
21
-3.6803709055118108
0
LINE
8
BLACK
6
CONTINUOUS
10
6.0679935433070868
20
-3.6803709055118108
11
6.0662866535433073
21
-3.6778164173228345
0
LINE
8
BLACK
6
CONTINUOUS
10
6.0662866535433073
20
-3.6778164173228345
11
6.065687283464567
21
-3.6748031496062992
0
LINE
8
BLACK
6
CONTINUOUS
10
6.065687283464567
20
-3.6748031496062992
11
6.065687283464567
21
-3.6590551181102362
0
LINE
8
BLACK
6
CONTINUOUS
10
6.065687283464567
20
-3.6590551181102362
11
6.0662866535433073
21
-3.6560418503937009
0
LINE
8
BLACK
6
CONTINUOUS
10
6.0662866535433073
20
-3.6560418503937009
11
6.0679935433070868
21
-3.6534873622047241
0
LINE
8
BLACK
6
CONTINUOUS
10
6.0679935433070868
20
-3.6534873622047241
11
6.0705480314960631
21
-3.6517804724409446
0
LINE
8
BLACK
6
CONTINUOUS
10
6.0705480314960631
20
-3.6517804724409446
11
6.0735612992125985
21
-3.6511811023622047
0
LINE
8
BLACK
6
CONTINUOUS
10
6.0735612992125985
20
-3.6511811023622047
11
6.1141124803149607
21
-3.6511811023622047
0
LINE
8
BLACK
6
CONTINUOUS
10
6.1141124803149607
20
-3.6511811023622047
11
6.117125748031496
21
-3.6517804724409446
0
LINE
8
BLACK
6
CONTINUOUS
10
6.0986725590551183
20
-2.5713160236220474
11
6.1039222047244097
21
-2.5732740551181101
0
LINE
8
BLACK
6
CONTINUOUS
10
6.1039222047244097
20
-2.5732740551181101
11
6.1084075984251971
21
-2.5766317716535432
0
LINE
8
BLACK
6
CONTINUOUS
10
6.1084075984251971
20
-2.5766317716535432
11
6.1117653149606301
21
-2.5811171653543306
0
LINE
8
BLACK
6
CONTINUOUS
10
6.1117653149606301
20
-2.5811171653543306
11
6.1137233464566929
21
-2.586366811023622
0
LINE
8
BLACK
6
CONTINUOUS
10
6.1137233464566929
20
-2.586366811023622
11
6.1141732283464565
21
-2.590551181102362
0
LINE
8
BLACK
6
CONTINUOUS
10
6.1141732283464565
20
-2.590551181102362
11
6.1141732283464565
21
-2.6299212598425195
0
LINE
8
BLACK
6
CONTINUOUS
10
6.1141732283464565
20
-2.6299212598425195
11
6.1137233464566929
21
-2.63410562992126
0
LINE
8
BLACK
6
CONTINUOUS
10
6.1137233464566929
20
-2.63410562992126
11
6.1117653149606301
21
-2.6393552755905509
0
LINE
8
BLACK
6
CONTINUOUS
10
6.1117653149606301
20
-2.6393552755905509
11
6.1084075984251971
21
-2.6438406692913383
0
LINE
8
BLACK
6
CONTINUOUS
10
6.1084075984251971
20
-2.6438406692913383
11
6.1039222047244097
21
-2.6471983858267718
0
LINE
8
BLACK
6
CONTINUOUS
10
6.1039222047244097
20
-2.6471983858267718
11
6.0986725590551183
21
-2.6491564173228346
0
LINE
8
BLACK
6
CONTINUOUS
10
6.0986725590551183
20
-2.6491564173228346
11
6.0944881889763778
21
-2.6496062992125982
0
LINE
8
BLACK
6
CONTINUOUS
10
6.0944881889763778
20
-2.6496062992125982
11
5.9763779527559056
21
-2.6496062992125982
0
LINE
8
BLACK
6
CONTINUOUS
10
5.9763779527559056
20
-2.6496062992125982
11
5.972193582677165
21
-2.6491564173228346
0
LINE
8
BLACK
6
CONTINUOUS
10
5.972193582677165
20
-2.6491564173228346
11
5.9669439370078736
21
-2.6471983858267718
0
LINE
8
BLACK
6
CONTINUOUS
10
5.9669439370078736
20
-2.6471983858267718
11
5.9624585433070862
21
-2.6438406692913383
0
LINE
8
BLACK
6
CONTINUOUS
10
5.9624585433070862
20
-2.6438406692913383
11
5.9591008267716532
21
-2.6393552755905509
0
LINE
8
BLACK
6
CONTINUOUS
10
5.9591008267716532
20
-2.6393552755905509
11
5.9571427952755904
21
-2.63410562992126
0
LINE
8
BLACK
6
CONTINUOUS
10
5.9571427952755904
20
-2.63410562992126
11
5.9566929133858268
21
-2.6299212598425195
0
LINE
8
BLACK
6
CONTINUOUS
10
5.9566929133858268
20
-2.6299212598425195
11
5.9566929133858268
21
-2.590551181102362
0
LINE
8
BLACK
6
CONTINUOUS
10
5.9566929133858268
20
-2.590551181102362
11
5.9571427952755904
21
-2.586366811023622
0
LINE
8
BLACK
6
CONTINUOUS
10
5.9571427952755904
20
-2.586366811023622
11
5.9591008267716532
21
-2.5811171653543306
0
LINE
8
BLACK
6
CONTINUOUS
10
5.9591008267716532
20
-2.5811171653543306
11
5.9624585433070862
21
-2.5766317716535432
0
LINE
8
BLACK
6
CONTINUOUS
10
5.9624585433070862
20
-2.5766317716535432
11
5.9669439370078736
21
-2.5732740551181101
0
LINE
8
BLACK
6
CONTINUOUS
10
5.9669439370078736
20
-2.5732740551181101
11
5.972193582677165
21
-2.5713160236220474
0
LINE
8
BLACK
6
CONTINUOUS
10
5.972193582677165
20
-2.5713160236220474
11
5.9763779527559056
21
-2.5708661417322833
0
LINE
8
BLACK
6
CONTINUOUS
10
5.9763779527559056
20
-2.5708661417322833
11
6.0944881889763778
21
-2.5708661417322833
0
LINE
8
BLACK
6
CONTINUOUS
10
6.0944881889763778
20
-2.5708661417322833
11
6.0986725590551183
21
-2.5713160236220474
0
LINE
8
BLACK
6
CONTINUOUS
10
5.1419796456692914
20
-2.5693475196850395
11
5.1472292913385829
21
-2.5713055511811023
0
LINE
8
BLACK
6
CONTINUOUS
10
5.1472292913385829
20
-2.5713055511811023
11
5.1517146850393702
21
-2.5746632677165353
0
LINE
8
BLACK
6
CONTINUOUS
10
5.1517146850393702
20
-2.5746632677165353
11
5.1550724015748033
21
-2.5791486614173227
0
LINE
8
BLACK
6
CONTINUOUS
10
5.1550724015748033
20
-2.5791486614173227
11
5.1570304330708661
21
-2.5843983070866141
0
LINE
8
BLACK
6
CONTINUOUS
10
5.1570304330708661
20
-2.5843983070866141
11
5.1574803149606296
21
-2.5885826771653542
0
LINE
8
BLACK
6
CONTINUOUS
10
5.1574803149606296
20
-2.5885826771653542
11
5.1574803149606296
21
-2.6279527559055116
0
LINE
8
BLACK
6
CONTINUOUS
10
5.1574803149606296
20
-2.6279527559055116
11
5.1570304330708661
21
-2.6321371259842521
0
LINE
8
BLACK
6
CONTINUOUS
10
5.1570304330708661
20
-2.6321371259842521
11
5.1550724015748033
21
-2.6373867716535431
0
LINE
8
BLACK
6
CONTINUOUS
10
5.1550724015748033
20
-2.6373867716535431
11
5.1517146850393702
21
-2.6418721653543304
0
LINE
8
BLACK
6
CONTINUOUS
10
5.1517146850393702
20
-2.6418721653543304
11
5.1472292913385829
21
-2.6452298818897639
0
LINE
8
BLACK
6
CONTINUOUS
10
5.1472292913385829
20
-2.6452298818897639
11
5.1419796456692914
21
-2.6471879133858267
0
LINE
8
BLACK
6
CONTINUOUS
10
5.1419796456692914
20
-2.6471879133858267
11
5.1377952755905509
21
-2.6476377952755903
0
LINE
8
BLACK
6
CONTINUOUS
10
5.1377952755905509
20
-2.6476377952755903
11
5.0196850393700787
21
-2.6476377952755903
0
LINE
8
BLACK
6
CONTINUOUS
10
5.0196850393700787
20
-2.6476377952755903
11
5.0155006692913382
21
-2.6471879133858267
0
LINE
8
BLACK
6
CONTINUOUS
10
5.0155006692913382
20
-2.6471879133858267
11
5.0102510236220468
21
-2.6452298818897639
0
LINE
8
BLACK
6
CONTINUOUS
10
5.0102510236220468
20
-2.6452298818897639
11
5.0057656299212594
21
-2.6418721653543304
0
LINE
8
BLACK
6
CONTINUOUS
10
5.0057656299212594
20
-2.6418721653543304
11
5.0024079133858264
21
-2.6373867716535431
0
LINE
8
BLACK
6
CONTINUOUS
10
5.0024079133858264
20
-2.6373867716535431
11
5.0004498818897636
21
-2.6321371259842521
0
LINE
8
BLACK
6
CONTINUOUS
10
5.0004498818897636
20
-2.6321371259842521
11
5.
21
-2.6279527559055116
0
LINE
8
BLACK
6
CONTINUOUS
10
5.
20
-2.6279527559055116
11
5.
21
-2.5885826771653542
0
LINE
8
BLACK
6
CONTINUOUS
10
5.
20
-2.5885826771653542
11
5.0004498818897636
21
-2.5843983070866141
0
LINE
8
BLACK
6
CONTINUOUS
10
5.0004498818897636
20
-2.5843983070866141
11
5.0024079133858264
21
-2.5791486614173227
0
LINE
8
BLACK
6
CONTINUOUS
10
5.0024079133858264
20
-2.5791486614173227
11
5.0057656299212594
21
-2.5746632677165353
0
LINE
8
BLACK
6
CONTINUOUS
10
5.0057656299212594
20
-2.5746632677165353
11
5.0102510236220468
21
-2.5713055511811023
0
LINE
8
BLACK
6
CONTINUOUS
10
5.0102510236220468
20
-2.5713055511811023
11
5.0155006692913382
21
-2.5693475196850395
0
LINE
8
BLACK
6
CONTINUOUS
10
5.0155006692913382
20
-2.5693475196850395
11
5.0196850393700787
21
-2.5688976377952755
0
LINE
8
BLACK
6
CONTINUOUS
10
5.0196850393700787
20
-2.5688976377952755
11
5.1377952755905509
21
-2.5688976377952755
0
LINE
8
BLACK
6
CONTINUOUS
10
5.1377952755905509
20
-2.5688976377952755
11
5.1419796456692914
21
-2.5693475196850395
0
LINE
8
BLACK
6
CONTINUOUS
10
5.1439481496062989
20
-2.4748593307086613
11
5.1491977952755903
21
-2.4768173622047245
0
LINE
8
BLACK
6
CONTINUOUS
10
5.1491977952755903
20
-2.4768173622047245
11
5.1536831889763777
21
-2.4801750787401575
0
LINE
8
BLACK
6
CONTINUOUS
10
5.1536831889763777
20
-2.4801750787401575
11
5.1570409055118107
21
-2.4846604724409449
0
LINE
8
BLACK
6
CONTINUOUS
10
5.1570409055118107
20
-2.4846604724409449
11
5.1589989370078735
21
-2.4899101181102363
0
LINE
8
BLACK
6
CONTINUOUS
10
5.1589989370078735
20
-2.4899101181102363
11
5.159448818897638
21
-2.4940944881889764
0
LINE
8
BLACK
6
CONTINUOUS
10
5.159448818897638
20
-2.4940944881889764
11
5.159448818897638
21
-2.5334645669291338
0
LINE
8
BLACK
6
CONTINUOUS
10
5.159448818897638
20
-2.5334645669291338
11
5.1589989370078735
21
-2.5376489370078739
0
LINE
8
BLACK
6
CONTINUOUS
10
5.1589989370078735
20
-2.5376489370078739
11
5.1570409055118107
21
-2.5428985826771653
0
LINE
8
BLACK
6
CONTINUOUS
10
5.1570409055118107
20
-2.5428985826771653
11
5.1536831889763777
21
-2.5473839763779527
0
LINE
8
BLACK
6
CONTINUOUS
10
5.1536831889763777
20
-2.5473839763779527
11
5.1491977952755903
21
-2.5507416929133857
0
LINE
8
BLACK
6
CONTINUOUS
10
5.1491977952755903
20
-2.5507416929133857
11
5.1439481496062989
21
-2.5526997244094489
0
LINE
8
BLACK
6
CONTINUOUS
10
5.1439481496062989
20
-2.5526997244094489
11
5.1397637795275593
21
-2.5531496062992125
0
LINE
8
BLACK
6
CONTINUOUS
10
5.1397637795275593
20
-2.5531496062992125
11
5.0216535433070861
21
-2.5531496062992125
0
LINE
8
BLACK
6
CONTINUOUS
10
5.0216535433070861
20
-2.5531496062992125
11
5.0174691732283465
21
-2.5526997244094489
0
LINE
8
BLACK
6
CONTINUOUS
10
5.0174691732283465
20
-2.5526997244094489
11
5.0122195275590551
21
-2.5507416929133857
0
LINE
8
BLACK
6
CONTINUOUS
10
5.0122195275590551
20
-2.5507416929133857
11
5.0077341338582677
21
-2.5473839763779527
0
LINE
8
BLACK
6
CONTINUOUS
10
5.0077341338582677
20
-2.5473839763779527
11
5.0043764173228347
21
-2.5428985826771653
0
LINE
8
BLACK
6
CONTINUOUS
10
5.0043764173228347
20
-2.5428985826771653
11
5.0024183858267719
21
-2.5376489370078739
0
LINE
8
BLACK
6
CONTINUOUS
10
5.0024183858267719
20
-2.5376489370078739
11
5.0019685039370074
21
-2.5334645669291338
0
LINE
8
BLACK
6
CONTINUOUS
10
5.0019685039370074
20
-2.5334645669291338
11
5.0019685039370074
21
-2.4940944881889764
0
LINE
8
BLACK
6
CONTINUOUS
10
5.0019685039370074
20
-2.4940944881889764
11
5.0024183858267719
21
-2.4899101181102363
0
LINE
8
BLACK
6
CONTINUOUS
10
5.0024183858267719
20
-2.4899101181102363
11
5.0043764173228347
21
-2.4846604724409449
0
LINE
8
BLACK
6
CONTINUOUS
10
5.0043764173228347
20
-2.4846604724409449
11
5.0077341338582677
21
-2.4801750787401575
0
LINE
8
BLACK
6
CONTINUOUS
10
5.0077341338582677
20
-2.4801750787401575
11
5.0122195275590551
21
-2.4768173622047245
0
LINE
8
BLACK
6
CONTINUOUS
10
5.0122195275590551
20
-2.4768173622047245
11
5.0174691732283465
21
-2.4748593307086613
0
LINE
8
BLACK
6
CONTINUOUS
10
5.0174691732283465
20
-2.4748593307086613
11
5.0216535433070861
21
-2.4744094488188977
0
LINE
8
BLACK
6
CONTINUOUS
10
5.0216535433070861
20
-2.4744094488188977
11
5.1397637795275593
21
-2.4744094488188977
0
LINE
8
BLACK
6
CONTINUOUS
10
5.1397637795275593
20
-2.4744094488188977
11
5.1439481496062989
21
-2.4748593307086613
0
LINE
8
BLACK
6
CONTINUOUS
10
6.0986725590551183
20
-2.4728908267716534
11
6.1039222047244097
21
-2.4748488582677166
0
LINE
8
BLACK
6
CONTINUOUS
10
6.1039222047244097
20
-2.4748488582677166
11
6.1084075984251971
21
-2.4782065748031497
0
LINE
8
BLACK
6
CONTINUOUS
10
6.1084075984251971
20
-2.4782065748031497
11
6.1117653149606301
21
-2.482691968503937
0
LINE
8
BLACK
6
CONTINUOUS
10
6.1117653149606301
20
-2.482691968503937
11
6.1137233464566929
21
-2.4879416141732285
0
LINE
8
BLACK
6
CONTINUOUS
10
6.1137233464566929
20
-2.4879416141732285
11
6.1141732283464565
21
-2.4921259842519685
0
LINE
8
BLACK
6
CONTINUOUS
10
6.1141732283464565
20
-2.4921259842519685
11
6.1141732283464565
21
-2.5314960629921259
0
LINE
8
BLACK
6
CONTINUOUS
10
6.1141732283464565
20
-2.5314960629921259
11
6.1137233464566929
21
-2.535680433070866
0
LINE
8
BLACK
6
CONTINUOUS
10
6.1137233464566929
20
-2.535680433070866
11
6.1117653149606301
21
-2.5409300787401574
0
LINE
8
BLACK
6
CONTINUOUS
10
6.1117653149606301
20
-2.5409300787401574
11
6.1084075984251971
21
-2.5454154724409448
0
LINE
8
BLACK
6
CONTINUOUS
10
6.1084075984251971
20
-2.5454154724409448
11
6.1039222047244097
21
-2.5487731889763778
0
LINE
8
BLACK
6
CONTINUOUS
10
6.1039222047244097
20
-2.5487731889763778
11
6.0986725590551183
21
-2.5507312204724411
0
LINE
8
BLACK
6
CONTINUOUS
10
6.0986725590551183
20
-2.5507312204724411
11
6.0944881889763778
21
-2.5511811023622046
0
LINE
8
BLACK
6
CONTINUOUS
10
6.0944881889763778
20
-2.5511811023622046
11
5.9763779527559056
21
-2.5511811023622046
0
LINE
8
BLACK
6
CONTINUOUS
10
5.9763779527559056
20
-2.5511811023622046
11
5.972193582677165
21
-2.5507312204724411
0
LINE
8
BLACK
6
CONTINUOUS
10
5.972193582677165
20
-2.5507312204724411
11
5.9669439370078736
21
-2.5487731889763778
0
LINE
8
BLACK
6
CONTINUOUS
10
5.9669439370078736
20
-2.5487731889763778
11
5.9624585433070862
21
-2.5454154724409448
0
LINE
8
BLACK
6
CONTINUOUS
10
5.9624585433070862
20
-2.5454154724409448
11
5.9591008267716532
21
-2.5409300787401574
0
LINE
8
BLACK
6
CONTINUOUS
10
5.9591008267716532
20
-2.5409300787401574
11
5.9571427952755904
21
-2.535680433070866
0
LINE
8
BLACK
6
CONTINUOUS
10
5.9571427952755904
20
-2.535680433070866
11
5.9566929133858268
21
-2.5314960629921259
0
LINE
8
BLACK
6
CONTINUOUS
10
5.9566929133858268
20
-2.5314960629921259
11
5.9566929133858268
21
-2.4921259842519685
0
LINE
8
BLACK
6
CONTINUOUS
10
5.9566929133858268
20
-2.4921259842519685
11
5.9571427952755904
21
-2.4879416141732285
0
LINE
8
BLACK
6
CONTINUOUS
10
5.9571427952755904
20
-2.4879416141732285
11
5.9591008267716532
21
-2.482691968503937
0
LINE
8
BLACK
6
CONTINUOUS
10
5.9591008267716532
20
-2.482691968503937
11
5.9624585433070862
21
-2.4782065748031497
0
LINE
8
BLACK
6
CONTINUOUS
10
5.9624585433070862
20
-2.4782065748031497
11
5.9669439370078736
21
-2.4748488582677166
0
LINE
8
BLACK
6
CONTINUOUS
10
5.9669439370078736
20
-2.4748488582677166
11
5.972193582677165
21
-2.4728908267716534
0
LINE
8
BLACK
6
CONTINUOUS
10
5.972193582677165
20
-2.4728908267716534
11
5.9763779527559056
21
-2.4724409448818898
0
LINE
8
BLACK
6
CONTINUOUS
10
5.9763779527559056
20
-2.4724409448818898
11
6.0944881889763778
21
-2.4724409448818898
0
LINE
8
BLACK
6
CONTINUOUS
10
6.0944881889763778
20
-2.4724409448818898
11
6.0986725590551183
21
-2.4728908267716534
0
LINE
8
BLACK
6
CONTINUOUS
10
6.09670405511811
20
-2.1303711417322835
11
6.1019537007874014
21
-2.1323291732283463
0
LINE
8
BLACK
6
CONTINUOUS
10
6.1019537007874014
20
-2.1323291732283463
11
6.1064390944881888
21
-2.1356868897637793
0
LINE
8
BLACK
6
CONTINUOUS
10
6.1064390944881888
20
-2.1356868897637793
11
6.1097968110236218
21
-2.1401722834645667
0
LINE
8
BLACK
6
CONTINUOUS
10
6.1097968110236218
20
-2.1401722834645667
11
6.1117548425196846
21
-2.1454219291338581
0
LINE
8
BLACK
6
CONTINUOUS
10
6.1117548425196846
20
-2.1454219291338581
11
6.1122047244094491
21
-2.1496062992125982
0
LINE
8
BLACK
6
CONTINUOUS
10
6.1122047244094491
20
-2.1496062992125982
11
6.1122047244094491
21
-2.188976377952756
0
LINE
8
BLACK
6
CONTINUOUS
10
6.1122047244094491
20
-2.188976377952756
11
6.1117548425196846
21
-2.1931607480314961
0
LINE
8
BLACK
6
CONTINUOUS
10
6.1117548425196846
20
-2.1931607480314961
11
6.1097968110236218
21
-2.1984103937007875
0
LINE
8
BLACK
6
CONTINUOUS
10
6.1097968110236218
20
-2.1984103937007875
11
6.1064390944881888
21
-2.2028957874015749
0
LINE
8
BLACK
6
CONTINUOUS
10
6.1064390944881888
20
-2.2028957874015749
11
6.1019537007874014
21
-2.2062535039370079
0
LINE
8
BLACK
6
CONTINUOUS
10
6.1019537007874014
20
-2.2062535039370079
11
6.09670405511811
21
-2.2082115354330707
0
LINE
8
BLACK
6
CONTINUOUS
10
6.09670405511811
20
-2.2082115354330707
11
6.0925196850393704
21
-2.2086614173228347
0
LINE
8
BLACK
6
CONTINUOUS
10
6.0925196850393704
20
-2.2086614173228347
11
5.9744094488188972
21
-2.2086614173228347
0
LINE
8
BLACK
6
CONTINUOUS
10
5.9744094488188972
20
-2.2086614173228347
11
5.9702250787401576
21
-2.2082115354330707
0
LINE
8
BLACK
6
CONTINUOUS
10
5.9702250787401576
20
-2.2082115354330707
11
5.9649754330708662
21
-2.2062535039370079
0
LINE
8
BLACK
6
CONTINUOUS
10
5.9649754330708662
20
-2.2062535039370079
11
5.9604900393700788
21
-2.2028957874015749
0
LINE
8
BLACK
6
CONTINUOUS
10
5.9604900393700788
20
-2.2028957874015749
11
5.9571323228346458
21
-2.1984103937007875
0
LINE
8
BLACK
6
CONTINUOUS
10
5.9571323228346458
20
-2.1984103937007875
11
5.9551742913385821
21
-2.1931607480314961
0
LINE
8
BLACK
6
CONTINUOUS
10
5.9551742913385821
20
-2.1931607480314961
11
5.9547244094488185
21
-2.188976377952756
0
LINE
8
BLACK
6
CONTINUOUS
10
5.9547244094488185
20
-2.188976377952756
11
5.9547244094488185
21
-2.1496062992125982
0
LINE
8
BLACK
6
CONTINUOUS
10
5.9547244094488185
20
-2.1496062992125982
11
5.9551742913385821
21
-2.1454219291338581
0
LINE
8
BLACK
6
CONTINUOUS
10
5.9551742913385821
20
-2.1454219291338581
11
5.9571323228346458
21
-2.1401722834645667
0
LINE
8
BLACK
6
CONTINUOUS
10
5.9571323228346458
20
-2.1401722834645667
11
5.9604900393700788
21
-2.1356868897637793
0
LINE
8
BLACK
6
CONTINUOUS
10
5.9604900393700788
20
-2.1356868897637793
11
5.9649754330708662
21
-2.1323291732283463
0
LINE
8
BLACK
6
CONTINUOUS
10
5.9649754330708662
20
-2.1323291732283463
11
5.9702250787401576
21
-2.1303711417322835
0
LINE
8
BLACK
6
CONTINUOUS
10
5.9702250787401576
20
-2.1303711417322835
11
5.9744094488188972
21
-2.1299212598425195
0
LINE
8
BLACK
6
CONTINUOUS
10
5.9744094488188972
20
-2.1299212598425195
11
6.0925196850393704
21
-2.1299212598425195
0
LINE
8
BLACK
6
CONTINUOUS
10
6.0925196850393704
20
-2.1299212598425195
11
6.09670405511811
21
-2.1303711417322835
0
LINE
8
BLACK
6
CONTINUOUS
10
5.1419796456692914
20
-2.1264341338582677
11
5.1472292913385829
21
-2.1283921653543305
0
LINE
8
BLACK
6
CONTINUOUS
10
5.1472292913385829
20
-2.1283921653543305
11
5.1517146850393702
21
-2.1317498818897636
0
LINE
8
BLACK
6
CONTINUOUS
10
5.1517146850393702
20
-2.1317498818897636
11
5.1550724015748033
21
-2.1362352755905509
0
LINE
8
BLACK
6
CONTINUOUS
10
5.1550724015748033
20
-2.1362352755905509
11
5.1570304330708661
21
-2.1414849212598424
0
LINE
8
BLACK
6
CONTINUOUS
10
5.1570304330708661
20
-2.1414849212598424
11
5.1574803149606296
21
-2.1456692913385824
0
LINE
8
BLACK
6
CONTINUOUS
10
5.1574803149606296
20
-2.1456692913385824
11
5.1574803149606296
21
-2.1850393700787403
0
LINE
8
BLACK
6
CONTINUOUS
10
5.1574803149606296
20
-2.1850393700787403
11
5.1570304330708661
21
-2.1892237401574803
0
LINE
8
BLACK
6
CONTINUOUS
10
5.1570304330708661
20
-2.1892237401574803
11
5.1550724015748033
21
-2.1944733858267718
0
LINE
8
BLACK
6
CONTINUOUS
10
5.1550724015748033
20
-2.1944733858267718
11
5.1517146850393702
21
-2.1989587795275591
0
LINE
8
BLACK
6
CONTINUOUS
10
5.1517146850393702
20
-2.1989587795275591
11
5.1472292913385829
21
-2.2023164960629922
0
LINE
8
BLACK
6
CONTINUOUS
10
5.1472292913385829
20
-2.2023164960629922
11
5.1419796456692914
21
-2.204274527559055
0
LINE
8
BLACK
6
CONTINUOUS
10
5.1419796456692914
20
-2.204274527559055
11
5.1377952755905509
21
-2.204724409448819
0
LINE
8
BLACK
6
CONTINUOUS
10
5.1377952755905509
20
-2.204724409448819
11
5.0196850393700787
21
-2.204724409448819
0
LINE
8
BLACK
6
CONTINUOUS
10
5.0196850393700787
20
-2.204724409448819
11
5.0155006692913382
21
-2.204274527559055
0
LINE
8
BLACK
6
CONTINUOUS
10
5.0155006692913382
20
-2.204274527559055
11
5.0102510236220468
21
-2.2023164960629922
0
LINE
8
BLACK
6
CONTINUOUS
10
5.0102510236220468
20
-2.2023164960629922
11
5.0057656299212594
21
-2.1989587795275591
0
LINE
8
BLACK
6
CONTINUOUS
10
5.0057656299212594
20
-2.1989587795275591
11
5.0024079133858264
21
-2.1944733858267718
0
LINE
8
BLACK
6
CONTINUOUS
10
5.0024079133858264
20
-2.1944733858267718
11
5.0004498818897636
21
-2.1892237401574803
0
LINE
8
BLACK
6
CONTINUOUS
10
5.0004498818897636
20
-2.1892237401574803
11
5.
21
-2.1850393700787403
0
LINE
8
BLACK
6
CONTINUOUS
10
5.
20
-2.1850393700787403
11
5.
21
-2.1456692913385824
0
LINE
8
BLACK
6
CONTINUOUS
10
5.
20
-2.1456692913385824
11
5.0004498818897636
21
-2.1414849212598424
0
LINE
8
BLACK
6
CONTINUOUS
10
5.0004498818897636
20
-2.1414849212598424
11
5.0024079133858264
21
-2.1362352755905509
0
LINE
8
BLACK
6
CONTINUOUS
10
5.0024079133858264
20
-2.1362352755905509
11
5.0057656299212594
21
-2.1317498818897636
0
LINE
8
BLACK
6
CONTINUOUS
10
5.0057656299212594
20
-2.1317498818897636
11
5.0102510236220468
21
-2.1283921653543305
0
LINE
8
BLACK
6
CONTINUOUS
10
5.0102510236220468
20
-2.1283921653543305
11
5.0155006692913382
21
-2.1264341338582677
0
LINE
8
BLACK
6
CONTINUOUS
10
5.0155006692913382
20
-2.1264341338582677
11
5.0196850393700787
21
-2.1259842519685037
0
LINE
8
BLACK
6
CONTINUOUS
10
5.0196850393700787
20
-2.1259842519685037
11
5.1377952755905509
21
-2.1259842519685037
0
LINE
8
BLACK
6
CONTINUOUS
10
5.1377952755905509
20
-2.1259842519685037
11
5.1419796456692914
21
-2.1264341338582677
0
LINE
8
BLACK
6
CONTINUOUS
10
5.1419796456692914
20
-2.0339144488188974
11
5.1472292913385829
21
-2.0358724803149606
0
LINE
8
BLACK
6
CONTINUOUS
10
5.1472292913385829
20
-2.0358724803149606
11
5.1517146850393702
21
-2.0392301968503936
0
LINE
8
BLACK
6
CONTINUOUS
10
5.1517146850393702
20
-2.0392301968503936
11
5.1550724015748033
21
-2.043715590551181
0
LINE
8
BLACK
6
CONTINUOUS
10
5.1550724015748033
20
-2.043715590551181
11
5.1570304330708661
21
-2.0489652362204724
0
LINE
8
BLACK
6
CONTINUOUS
10
5.1570304330708661
20
-2.0489652362204724
11
5.1574803149606296
21
-2.0531496062992125
0
LINE
8
BLACK
6
CONTINUOUS
10
5.1574803149606296
20
-2.0531496062992125
11
5.1574803149606296
21
-2.0925196850393699
0
LINE
8
BLACK
6
CONTINUOUS
10
5.1574803149606296
20
-2.0925196850393699
11
5.1570304330708661
21
-2.09670405511811
0
LINE
8
BLACK
6
CONTINUOUS
10
5.1570304330708661
20
-2.09670405511811
11
5.1550724015748033
21
-2.1019537007874014
0
LINE
8
BLACK
6
CONTINUOUS
10
5.1550724015748033
20
-2.1019537007874014
11
5.1517146850393702
21
-2.1064390944881888
0
LINE
8
BLACK
6
CONTINUOUS
10
5.1517146850393702
20
-2.1064390944881888
11
5.1472292913385829
21
-2.1097968110236218
0
LINE
8
BLACK
6
CONTINUOUS
10
5.1472292913385829
20
-2.1097968110236218
11
5.1419796456692914
21
-2.111754842519685
0
LINE
8
BLACK
6
CONTINUOUS
10
5.1419796456692914
20
-2.111754842519685
11
5.1377952755905509
21
-2.1122047244094486
0
LINE
8
BLACK
6
CONTINUOUS
10
5.1377952755905509
20
-2.1122047244094486
11
5.0196850393700787
21
-2.1122047244094486
0
LINE
8
BLACK
6
CONTINUOUS
10
5.0196850393700787
20
-2.1122047244094486
11
5.0155006692913382
21
-2.111754842519685
0
LINE
8
BLACK
6
CONTINUOUS
10
5.0155006692913382
20
-2.111754842519685
11
5.0102510236220468
21
-2.1097968110236218
0
LINE
8
BLACK
6
CONTINUOUS
10
5.0102510236220468
20
-2.1097968110236218
11
5.0057656299212594
21
-2.1064390944881888
0
LINE
8
BLACK
6
CONTINUOUS
10
5.0057656299212594
20
-2.1064390944881888
11
5.0024079133858264
21
-2.1019537007874014
0
LINE
8
BLACK
6
CONTINUOUS
10
5.0024079133858264
20
-2.1019537007874014
11
5.0004498818897636
21
-2.09670405511811
0
LINE
8
BLACK
6
CONTINUOUS
10
5.0004498818897636
20
-2.09670405511811
11
5.
21
-2.0925196850393699
0
LINE
8
BLACK
6
CONTINUOUS
10
5.
20
-2.0925196850393699
11
5.
21
-2.0531496062992125
0
LINE
8
BLACK
6
CONTINUOUS
10
5.
20
-2.0531496062992125
11
5.0004498818897636
21
-2.0489652362204724
0
LINE
8
BLACK
6
CONTINUOUS
10
5.0004498818897636
20
-2.0489652362204724
11
5.0024079133858264
21
-2.043715590551181
0
LINE
8
BLACK
6
CONTINUOUS
10
5.0024079133858264
20
-2.043715590551181
11
5.0057656299212594
21
-2.0392301968503936
0
LINE
8
BLACK
6
CONTINUOUS
10
5.0057656299212594
20
-2.0392301968503936
11
5.0102510236220468
21
-2.0358724803149606
0
LINE
8
BLACK
6
CONTINUOUS
10
5.0102510236220468
20
-2.0358724803149606
11
5.0155006692913382
21
-2.0339144488188974
0
LINE
8
BLACK
6
CONTINUOUS
10
5.0155006692913382
20
-2.0339144488188974
11
5.0196850393700787
21
-2.0334645669291338
0
LINE
8
BLACK
6
CONTINUOUS
10
5.0196850393700787
20
-2.0334645669291338
11
5.1377952755905509
21
-2.0334645669291338
0
LINE
8
BLACK
6
CONTINUOUS
10
5.1377952755905509
20
-2.0334645669291338
11
5.1419796456692914
21
-2.0339144488188974
0
LINE
8
BLACK
6
CONTINUOUS
10
6.09670405511811
20
-2.0339144488188974
11
6.1019537007874014
21
-2.0358724803149606
0
LINE
8
BLACK
6
CONTINUOUS
10
6.1019537007874014
20
-2.0358724803149606
11
6.1064390944881888
21
-2.0392301968503936
0
LINE
8
BLACK
6
CONTINUOUS
10
6.1064390944881888
20
-2.0392301968503936
11
6.1097968110236218
21
-2.043715590551181
0
LINE
8
BLACK
6
CONTINUOUS
10
6.1097968110236218
20
-2.043715590551181
11
6.1117548425196846
21
-2.0489652362204724
0
LINE
8
BLACK
6
CONTINUOUS
10
6.1117548425196846
20
-2.0489652362204724
11
6.1122047244094491
21
-2.0531496062992125
0
LINE
8
BLACK
6
CONTINUOUS
10
6.1122047244094491
20
-2.0531496062992125
11
6.1122047244094491
21
-2.0925196850393699
0
LINE
8
BLACK
6
CONTINUOUS
10
6.1122047244094491
20
-2.0925196850393699
11
6.1117548425196846
21
-2.09670405511811
0
LINE
8
BLACK
6
CONTINUOUS
10
6.1117548425196846
20
-2.09670405511811
11
6.1097968110236218
21
-2.1019537007874014
0
LINE
8
BLACK
6
CONTINUOUS
10
6.1097968110236218
20
-2.1019537007874014
11
6.1064390944881888
21
-2.1064390944881888
0
LINE
8
BLACK
6
CONTINUOUS
10
6.1064390944881888
20
-2.1064390944881888
11
6.1019537007874014
21
-2.1097968110236218
0
LINE
8
BLACK
6
CONTINUOUS
10
6.1019537007874014
20
-2.1097968110236218
11
6.09670405511811
21
-2.111754842519685
0
LINE
8
BLACK
6
CONTINUOUS
10
6.09670405511811
20
-2.111754842519685
11
6.0925196850393704
21
-2.1122047244094486
0
LINE
8
BLACK
6
CONTINUOUS
10
6.0925196850393704
20
-2.1122047244094486
11
5.9744094488188972
21
-2.1122047244094486
0
LINE
8
BLACK
6
CONTINUOUS
10
5.9744094488188972
20
-2.1122047244094486
11
5.9702250787401576
21
-2.111754842519685
0
LINE
8
BLACK
6
CONTINUOUS
10
5.9702250787401576
20
-2.111754842519685
11
5.9649754330708662
21
-2.1097968110236218
0
LINE
8
BLACK
6
CONTINUOUS
10
5.9649754330708662
20
-2.1097968110236218
11
5.9604900393700788
21
-2.1064390944881888
0
LINE
8
BLACK
6
CONTINUOUS
10
5.9604900393700788
20
-2.1064390944881888
11
5.9571323228346458
21
-2.1019537007874014
0
LINE
8
BLACK
6
CONTINUOUS
10
5.9571323228346458
20
-2.1019537007874014
11
5.9551742913385821
21
-2.09670405511811
0
LINE
8
BLACK
6
CONTINUOUS
10
5.9551742913385821
20
-2.09670405511811
11
5.9547244094488185
21
-2.0925196850393699
0
LINE
8
BLACK
6
CONTINUOUS
10
5.9547244094488185
20
-2.0925196850393699
11
5.9547244094488185
21
-2.0531496062992125
0
LINE
8
BLACK
6
CONTINUOUS
10
5.9547244094488185
20
-2.0531496062992125
11
5.9551742913385821
21
-2.0489652362204724
0
LINE
8
BLACK
6
CONTINUOUS
10
5.9551742913385821
20
-2.0489652362204724
11
5.9571323228346458
21
-2.043715590551181
0
LINE
8
BLACK
6
CONTINUOUS
10
5.9571323228346458
20
-2.043715590551181
11
5.9604900393700788
21
-2.0392301968503936
0
LINE
8
BLACK
6
CONTINUOUS
10
5.9604900393700788
20
-2.0392301968503936
11
5.9649754330708662
21
-2.0358724803149606
0
LINE
8
BLACK
6
CONTINUOUS
10
5.9649754330708662
20
-2.0358724803149606
11
5.9702250787401576
21
-2.0339144488188974
0
LINE
8
BLACK
6
CONTINUOUS
10
5.9702250787401576
20
-2.0339144488188974
11
5.9744094488188972
21
-2.0334645669291338
0
LINE
8
BLACK
6
CONTINUOUS
10
5.9744094488188972
20
-2.0334645669291338
11
6.0925196850393704
21
-2.0334645669291338
0
LINE
8
BLACK
6
CONTINUOUS
10
6.0925196850393704
20
-2.0334645669291338
11
6.09670405511811
21
-2.0339144488188974
  0
ENDSEC
  0
EOF
