  0
SECTION
  2
HEADER
  9
$ANGBASE
  50
0.0
  9
$ANGDIR
  70
1
  9
$MEASUREMENT
  70
0
  0
ENDSEC
  0
SECTION
  2
TABLES
  0
TABLE
  2
LTYPE
  70
4
  0
LTYPE
  5
40F
  2
CONTINUOUS
  70
0
  3
Solid line
  72
65
  73
0
  40
0.0
  0
LTYPE
  5
410
  2
DASHDOT
 70
0
  3
Dash Dot ____ _ ____ _
 72
65
 73
4
 40
2.0
 49
1.25
 49
-0.25
 49
0.25
 49
-0.25
  0
LTYPE
  5
411
  2
DASHED
 70
0
  3
Dashed __ __ __ __ __
 72
65
 73
2
 40
0.75
 49
0.5
 49
-0.25
  0
LTYPE
  5
43B
  2
DOTTED
 70
0
  3
Dotted .  .  .  .
 72
65
 73
2
 40
0.2
 49
0.0
 49
-0.2
  0
ENDTAB
  0
TABLE
  2
STYLE
  70
4
  0
STYLE
  2
KICAD
  70
0
  40
0
  41
1
  42
1
  50
0
  71
0
  3
isocp.shx
  0
STYLE
  2
KICADB
  70
0
  40
0
  41
1
  42
1
  50
0
  71
0
  3
isocp.shx
  0
STYLE
  2
KICADI
  70
0
  40
0
  41
1
  42
1
  50
15
  71
0
  3
isocp.shx
  0
STYLE
  2
KICADBI
  70
0
  40
0
  41
1
  42
1
  50
15
  71
0
  3
isocp.shx
  0
ENDTAB
  0
TABLE
  2
LAYER
  70
1
  0
LAYER
  2
BLACK
  70
0
  62
7
  6
CONTINUOUS
  0
ENDTAB
  0
ENDSEC
  0
SECTION
  2
ENTITIES
0
LINE
8
BLACK
6
CONTINUOUS
10
5.0727787007874019
20
-5.0752783464566926
11
5.0843326377952751
21
-5.0775765748031496
0
LINE
8
BLACK
6
CONTINUOUS
10
5.0843326377952751
20
-5.0775765748031496
11
5.0954877165354331
21
-5.0813632283464569
0
LINE
8
BLACK
6
CONTINUOUS
10
5.0954877165354331
20
-5.0813632283464569
11
5.1060531496062991
21
-5.0865735039370081
0
LINE
8
BLACK
6
CONTINUOUS
10
5.1060531496062991
20
-5.0865735039370081
11
5.1158481102362208
21
-5.0931182677165356
0
LINE
8
BLACK
6
CONTINUOUS
10
5.1158481102362208
20
-5.0931182677165356
11
5.1247049999999996
21
-5.1008855511811024
0
LINE
8
BLACK
6
CONTINUOUS
10
5.1247049999999996
20
-5.1008855511811024
11
5.1324722834645664
21
-5.1097424409448822
0
LINE
8
BLACK
6
CONTINUOUS
10
5.1324722834645664
20
-5.1097424409448822
11
5.1390170472440948
21
-5.119537401574803
0
LINE
8
BLACK
6
CONTINUOUS
10
5.1390170472440948
20
-5.119537401574803
11
5.1442273228346451
21
-5.130102834645669
0
LINE
8
BLACK
6
CONTINUOUS
10
5.1442273228346451
20
-5.130102834645669
11
5.1480139763779524
21
-5.1412579133858269
0
LINE
8
BLACK
6
CONTINUOUS
10
5.1480139763779524
20
-5.1412579133858269
11
5.1503122047244094
21
-5.152811850393701
0
LINE
8
BLACK
6
CONTINUOUS
10
5.1503122047244094
20
-5.152811850393701
11
5.1510826771653546
21
-5.1645669291338585
0
LINE
8
BLACK
6
CONTINUOUS
10
5.1510826771653546
20
-5.1645669291338585
11
5.1503122047244094
21
-5.176322007874016
0
LINE
8
BLACK
6
CONTINUOUS
10
5.1503122047244094
20
-5.176322007874016
11
5.1480139763779524
21
-5.1878759448818901
0
LINE
8
BLACK
6
CONTINUOUS
10
5.1480139763779524
20
-5.1878759448818901
11
5.1442273228346451
21
-5.1990310236220472
0
LINE
8
BLACK
6
CONTINUOUS
10
5.1442273228346451
20
-5.1990310236220472
11
5.1390170472440948
21
-5.2095964566929132
0
LINE
8
BLACK
6
CONTINUOUS
10
5.1390170472440948
20
-5.2095964566929132
11
5.1324722834645664
21
-5.2193914173228348
0
LINE
8
BLACK
6
CONTINUOUS
10
5.1324722834645664
20
-5.2193914173228348
11
5.1247049999999996
21
-5.2282483070866137
0
LINE
8
BLACK
6
CONTINUOUS
10
5.1247049999999996
20
-5.2282483070866137
11
5.1158481102362208
21
-5.2360155905511814
0
LINE
8
BLACK
6
CONTINUOUS
10
5.1158481102362208
20
-5.2360155905511814
11
5.1060531496062991
21
-5.2425603543307089
0
LINE
8
BLACK
6
CONTINUOUS
10
5.1060531496062991
20
-5.2425603543307089
11
5.0954877165354331
21
-5.2477706299212601
0
LINE
8
BLACK
6
CONTINUOUS
10
5.0954877165354331
20
-5.2477706299212601
11
5.0843326377952751
21
-5.2515572834645665
0
LINE
8
BLACK
6
CONTINUOUS
10
5.0843326377952751
20
-5.2515572834645665
11
5.0727787007874019
21
-5.2538555118110235
0
LINE
8
BLACK
6
CONTINUOUS
10
5.0727787007874019
20
-5.2538555118110235
11
5.0610236220472435
21
-5.2546259842519687
0
LINE
8
BLACK
6
CONTINUOUS
10
5.0610236220472435
20
-5.2546259842519687
11
5.0492685433070861
21
-5.2538555118110235
0
LINE
8
BLACK
6
CONTINUOUS
10
5.0492685433070861
20
-5.2538555118110235
11
5.0377146062992129
21
-5.2515572834645665
0
LINE
8
BLACK
6
CONTINUOUS
10
5.0377146062992129
20
-5.2515572834645665
11
5.0265595275590549
21
-5.2477706299212601
0
LINE
8
BLACK
6
CONTINUOUS
10
5.0265595275590549
20
-5.2477706299212601
11
5.0159940944881889
21
-5.2425603543307089
0
LINE
8
BLACK
6
CONTINUOUS
10
5.0159940944881889
20
-5.2425603543307089
11
5.0061991338582672
21
-5.2360155905511814
0
LINE
8
BLACK
6
CONTINUOUS
10
5.0061991338582672
20
-5.2360155905511814
11
4.9973422440944884
21
-5.2282483070866137
0
LINE
8
BLACK
6
CONTINUOUS
10
4.9973422440944884
20
-5.2282483070866137
11
4.9895749606299216
21
-5.2193914173228348
0
LINE
8
BLACK
6
CONTINUOUS
10
4.9895749606299216
20
-5.2193914173228348
11
4.9830301968503932
21
-5.2095964566929132
0
LINE
8
BLACK
6
CONTINUOUS
10
4.9830301968503932
20
-5.2095964566929132
11
4.9778199212598429
21
-5.1990310236220472
0
LINE
8
BLACK
6
CONTINUOUS
10
4.9778199212598429
20
-5.1990310236220472
11
4.9740332677165355
21
-5.1878759448818901
0
LINE
8
BLACK
6
CONTINUOUS
10
4.9740332677165355
20
-5.1878759448818901
11
4.9717350393700785
21
-5.176322007874016
0
LINE
8
BLACK
6
CONTINUOUS
10
4.9717350393700785
20
-5.176322007874016
11
4.9709645669291334
21
-5.1645669291338585
0
LINE
8
BLACK
6
CONTINUOUS
10
4.9709645669291334
20
-5.1645669291338585
11
4.9717350393700785
21
-5.152811850393701
0
LINE
8
BLACK
6
CONTINUOUS
10
4.9717350393700785
20
-5.152811850393701
11
4.9740332677165355
21
-5.1412579133858269
0
LINE
8
BLACK
6
CONTINUOUS
10
4.9740332677165355
20
-5.1412579133858269
11
4.9778199212598429
21
-5.130102834645669
0
LINE
8
BLACK
6
CONTINUOUS
10
4.9778199212598429
20
-5.130102834645669
11
4.9830301968503932
21
-5.119537401574803
0
LINE
8
BLACK
6
CONTINUOUS
10
4.9830301968503932
20
-5.119537401574803
11
4.9895749606299216
21
-5.1097424409448822
0
LINE
8
BLACK
6
CONTINUOUS
10
4.9895749606299216
20
-5.1097424409448822
11
4.9973422440944884
21
-5.1008855511811024
0
LINE
8
BLACK
6
CONTINUOUS
10
4.9973422440944884
20
-5.1008855511811024
11
5.0061991338582672
21
-5.0931182677165356
0
LINE
8
BLACK
6
CONTINUOUS
10
5.0061991338582672
20
-5.0931182677165356
11
5.0159940944881889
21
-5.0865735039370081
0
LINE
8
BLACK
6
CONTINUOUS
10
5.0159940944881889
20
-5.0865735039370081
11
5.0265595275590549
21
-5.0813632283464569
0
LINE
8
BLACK
6
CONTINUOUS
10
5.0265595275590549
20
-5.0813632283464569
11
5.0377146062992129
21
-5.0775765748031496
0
LINE
8
BLACK
6
CONTINUOUS
10
5.0377146062992129
20
-5.0775765748031496
11
5.0492685433070861
21
-5.0752783464566926
0
LINE
8
BLACK
6
CONTINUOUS
10
5.0492685433070861
20
-5.0752783464566926
11
5.0610236220472435
21
-5.0745078740157483
0
LINE
8
BLACK
6
CONTINUOUS
10
5.0610236220472435
20
-5.0745078740157483
11
5.0727787007874019
21
-5.0752783464566926
0
LINE
8
BLACK
6
CONTINUOUS
10
6.0566369685039367
20
-5.0752783464566926
11
6.0681909055118108
21
-5.0775765748031496
0
LINE
8
BLACK
6
CONTINUOUS
10
6.0681909055118108
20
-5.0775765748031496
11
6.0793459842519679
21
-5.0813632283464569
0
LINE
8
BLACK
6
CONTINUOUS
10
6.0793459842519679
20
-5.0813632283464569
11
6.0899114173228348
21
-5.0865735039370081
0
LINE
8
BLACK
6
CONTINUOUS
10
6.0899114173228348
20
-5.0865735039370081
11
6.0997063779527556
21
-5.0931182677165356
0
LINE
8
BLACK
6
CONTINUOUS
10
6.0997063779527556
20
-5.0931182677165356
11
6.1085632677165353
21
-5.1008855511811024
0
LINE
8
BLACK
6
CONTINUOUS
10
6.1085632677165353
20
-5.1008855511811024
11
6.1163305511811021
21
-5.1097424409448822
0
LINE
8
BLACK
6
CONTINUOUS
10
6.1163305511811021
20
-5.1097424409448822
11
6.1228753149606296
21
-5.119537401574803
0
LINE
8
BLACK
6
CONTINUOUS
10
6.1228753149606296
20
-5.119537401574803
11
6.1280855905511809
21
-5.130102834645669
0
LINE
8
BLACK
6
CONTINUOUS
10
6.1280855905511809
20
-5.130102834645669
11
6.1318722440944882
21
-5.1412579133858269
0
LINE
8
BLACK
6
CONTINUOUS
10
6.1318722440944882
20
-5.1412579133858269
11
6.1341704724409452
21
-5.152811850393701
0
LINE
8
BLACK
6
CONTINUOUS
10
6.1341704724409452
20
-5.152811850393701
11
6.1349409448818895
21
-5.1645669291338585
0
LINE
8
BLACK
6
CONTINUOUS
10
6.1349409448818895
20
-5.1645669291338585
11
6.1341704724409452
21
-5.176322007874016
0
LINE
8
BLACK
6
CONTINUOUS
10
6.1341704724409452
20
-5.176322007874016
11
6.1318722440944882
21
-5.1878759448818901
0
LINE
8
BLACK
6
CONTINUOUS
10
6.1318722440944882
20
-5.1878759448818901
11
6.1280855905511809
21
-5.1990310236220472
0
LINE
8
BLACK
6
CONTINUOUS
10
6.1280855905511809
20
-5.1990310236220472
11
6.1228753149606296
21
-5.2095964566929132
0
LINE
8
BLACK
6
CONTINUOUS
10
6.1228753149606296
20
-5.2095964566929132
11
6.1163305511811021
21
-5.2193914173228348
0
LINE
8
BLACK
6
CONTINUOUS
10
6.1163305511811021
20
-5.2193914173228348
11
6.1085632677165353
21
-5.2282483070866137
0
LINE
8
BLACK
6
CONTINUOUS
10
6.1085632677165353
20
-5.2282483070866137
11
6.0997063779527556
21
-5.2360155905511814
0
LINE
8
BLACK
6
CONTINUOUS
10
6.0997063779527556
20
-5.2360155905511814
11
6.0899114173228348
21
-5.2425603543307089
0
LINE
8
BLACK
6
CONTINUOUS
10
6.0899114173228348
20
-5.2425603543307089
11
6.0793459842519679
21
-5.2477706299212601
0
LINE
8
BLACK
6
CONTINUOUS
10
6.0793459842519679
20
-5.2477706299212601
11
6.0681909055118108
21
-5.2515572834645665
0
LINE
8
BLACK
6
CONTINUOUS
10
6.0681909055118108
20
-5.2515572834645665
11
6.0566369685039367
21
-5.2538555118110235
0
LINE
8
BLACK
6
CONTINUOUS
10
6.0566369685039367
20
-5.2538555118110235
11
6.0448818897637793
21
-5.2546259842519687
0
LINE
8
BLACK
6
CONTINUOUS
10
6.0448818897637793
20
-5.2546259842519687
11
6.0331268110236218
21
-5.2538555118110235
0
LINE
8
BLACK
6
CONTINUOUS
10
6.0331268110236218
20
-5.2538555118110235
11
6.0215728740157477
21
-5.2515572834645665
0
LINE
8
BLACK
6
CONTINUOUS
10
6.0215728740157477
20
-5.2515572834645665
11
6.0104177952755906
21
-5.2477706299212601
0
LINE
8
BLACK
6
CONTINUOUS
10
6.0104177952755906
20
-5.2477706299212601
11
5.9998523622047246
21
-5.2425603543307089
0
LINE
8
BLACK
6
CONTINUOUS
10
5.9998523622047246
20
-5.2425603543307089
11
5.9900574015748029
21
-5.2360155905511814
0
LINE
8
BLACK
6
CONTINUOUS
10
5.9900574015748029
20
-5.2360155905511814
11
5.9812005118110232
21
-5.2282483070866137
0
LINE
8
BLACK
6
CONTINUOUS
10
5.9812005118110232
20
-5.2282483070866137
11
5.9734332283464564
21
-5.2193914173228348
0
LINE
8
BLACK
6
CONTINUOUS
10
5.9734332283464564
20
-5.2193914173228348
11
5.9668884645669289
21
-5.2095964566929132
0
LINE
8
BLACK
6
CONTINUOUS
10
5.9668884645669289
20
-5.2095964566929132
11
5.9616781889763777
21
-5.1990310236220472
0
LINE
8
BLACK
6
CONTINUOUS
10
5.9616781889763777
20
-5.1990310236220472
11
5.9578915354330704
21
-5.1878759448818901
0
LINE
8
BLACK
6
CONTINUOUS
10
5.9578915354330704
20
-5.1878759448818901
11
5.9555933070866143
21
-5.176322007874016
0
LINE
8
BLACK
6
CONTINUOUS
10
5.9555933070866143
20
-5.176322007874016
11
5.9548228346456691
21
-5.1645669291338585
0
LINE
8
BLACK
6
CONTINUOUS
10
5.9548228346456691
20
-5.1645669291338585
11
5.9555933070866143
21
-5.152811850393701
0
LINE
8
BLACK
6
CONTINUOUS
10
5.9555933070866143
20
-5.152811850393701
11
5.9578915354330704
21
-5.1412579133858269
0
LINE
8
BLACK
6
CONTINUOUS
10
5.9578915354330704
20
-5.1412579133858269
11
5.9616781889763777
21
-5.130102834645669
0
LINE
8
BLACK
6
CONTINUOUS
10
5.9616781889763777
20
-5.130102834645669
11
5.9668884645669289
21
-5.119537401574803
0
LINE
8
BLACK
6
CONTINUOUS
10
5.9668884645669289
20
-5.119537401574803
11
5.9734332283464564
21
-5.1097424409448822
0
LINE
8
BLACK
6
CONTINUOUS
10
5.9734332283464564
20
-5.1097424409448822
11
5.9812005118110232
21
-5.1008855511811024
0
LINE
8
BLACK
6
CONTINUOUS
10
5.9812005118110232
20
-5.1008855511811024
11
5.9900574015748029
21
-5.0931182677165356
0
LINE
8
BLACK
6
CONTINUOUS
10
5.9900574015748029
20
-5.0931182677165356
11
5.9998523622047246
21
-5.0865735039370081
0
LINE
8
BLACK
6
CONTINUOUS
10
5.9998523622047246
20
-5.0865735039370081
11
6.0104177952755906
21
-5.0813632283464569
0
LINE
8
BLACK
6
CONTINUOUS
10
6.0104177952755906
20
-5.0813632283464569
11
6.0215728740157477
21
-5.0775765748031496
0
LINE
8
BLACK
6
CONTINUOUS
10
6.0215728740157477
20
-5.0775765748031496
11
6.0331268110236218
21
-5.0752783464566926
0
LINE
8
BLACK
6
CONTINUOUS
10
6.0331268110236218
20
-5.0752783464566926
11
6.0448818897637793
21
-5.0745078740157483
0
LINE
8
BLACK
6
CONTINUOUS
10
6.0448818897637793
20
-5.0745078740157483
11
6.0566369685039367
21
-5.0752783464566926
0
LINE
8
BLACK
6
CONTINUOUS
10
5.3959405905511808
20
-5.1916851968503934
11
5.4021816141732284
21
-5.1938690157480316
0
LINE
8
BLACK
6
CONTINUOUS
10
5.4021816141732284
20
-5.1938690157480316
11
5.4077801968503936
21
-5.1973868503937011
0
LINE
8
BLACK
6
CONTINUOUS
10
5.4077801968503936
20
-5.1973868503937011
11
5.4124556692913384
21
-5.2020623228346459
0
LINE
8
BLACK
6
CONTINUOUS
10
5.4124556692913384
20
-5.2020623228346459
11
5.4159735039370078
21
-5.207660905511811
0
LINE
8
BLACK
6
CONTINUOUS
10
5.4159735039370078
20
-5.207660905511811
11
5.4181573228346451
21
-5.2139019291338577
0
LINE
8
BLACK
6
CONTINUOUS
10
5.4181573228346451
20
-5.2139019291338577
11
5.4188976377952756
21
-5.2204724409448815
0
LINE
8
BLACK
6
CONTINUOUS
10
5.4188976377952756
20
-5.2204724409448815
11
5.4181573228346451
21
-5.2270429527559052
0
LINE
8
BLACK
6
CONTINUOUS
10
5.4181573228346451
20
-5.2270429527559052
11
5.4159735039370078
21
-5.2332839763779528
0
LINE
8
BLACK
6
CONTINUOUS
10
5.4159735039370078
20
-5.2332839763779528
11
5.4124556692913384
21
-5.238882559055118
0
LINE
8
BLACK
6
CONTINUOUS
10
5.4124556692913384
20
-5.238882559055118
11
5.4077801968503936
21
-5.2435580314960628
0
LINE
8
BLACK
6
CONTINUOUS
10
5.4077801968503936
20
-5.2435580314960628
11
5.4021816141732284
21
-5.2470758661417323
0
LINE
8
BLACK
6
CONTINUOUS
10
5.4021816141732284
20
-5.2470758661417323
11
5.3959405905511808
21
-5.2492596850393696
0
LINE
8
BLACK
6
CONTINUOUS
10
5.3959405905511808
20
-5.2492596850393696
11
5.3893700787401571
21
-5.25
0
LINE
8
BLACK
6
CONTINUOUS
10
5.3893700787401571
20
-5.25
11
5.3827995669291333
21
-5.2492596850393696
0
LINE
8
BLACK
6
CONTINUOUS
10
5.3827995669291333
20
-5.2492596850393696
11
5.3765585433070866
21
-5.2470758661417323
0
LINE
8
BLACK
6
CONTINUOUS
10
5.3765585433070866
20
-5.2470758661417323
11
5.3709599606299214
21
-5.2435580314960628
0
LINE
8
BLACK
6
CONTINUOUS
10
5.3709599606299214
20
-5.2435580314960628
11
5.3662844881889766
21
-5.238882559055118
0
LINE
8
BLACK
6
CONTINUOUS
10
5.3662844881889766
20
-5.238882559055118
11
5.3627666535433072
21
-5.2332839763779528
0
LINE
8
BLACK
6
CONTINUOUS
10
5.3627666535433072
20
-5.2332839763779528
11
5.360582834645669
21
-5.2270429527559052
0
LINE
8
BLACK
6
CONTINUOUS
10
5.360582834645669
20
-5.2270429527559052
11
5.3598425196850394
21
-5.2204724409448815
0
LINE
8
BLACK
6
CONTINUOUS
10
5.3598425196850394
20
-5.2204724409448815
11
5.360582834645669
21
-5.2139019291338577
0
LINE
8
BLACK
6
CONTINUOUS
10
5.360582834645669
20
-5.2139019291338577
11
5.3627666535433072
21
-5.207660905511811
0
LINE
8
BLACK
6
CONTINUOUS
10
5.3627666535433072
20
-5.207660905511811
11
5.3662844881889766
21
-5.2020623228346459
0
LINE
8
BLACK
6
CONTINUOUS
10
5.3662844881889766
20
-5.2020623228346459
11
5.3709599606299214
21
-5.1973868503937011
0
LINE
8
BLACK
6
CONTINUOUS
10
5.3709599606299214
20
-5.1973868503937011
11
5.3765585433070866
21
-5.1938690157480316
0
LINE
8
BLACK
6
CONTINUOUS
10
5.3765585433070866
20
-5.1938690157480316
11
5.3827995669291333
21
-5.1916851968503934
0
LINE
8
BLACK
6
CONTINUOUS
10
5.3827995669291333
20
-5.1916851968503934
11
5.3893700787401571
21
-5.1909448818897639
0
LINE
8
BLACK
6
CONTINUOUS
10
5.3893700787401571
20
-5.1909448818897639
11
5.3959405905511808
21
-5.1916851968503934
0
LINE
8
BLACK
6
CONTINUOUS
10
5.5049957086614176
20
-5.1916851968503934
11
5.5112367322834643
21
-5.1938690157480316
0
LINE
8
BLACK
6
CONTINUOUS
10
5.5112367322834643
20
-5.1938690157480316
11
5.5168353149606295
21
-5.1973868503937011
0
LINE
8
BLACK
6
CONTINUOUS
10
5.5168353149606295
20
-5.1973868503937011
11
5.5215107874015743
21
-5.2020623228346459
0
LINE
8
BLACK
6
CONTINUOUS
10
5.5215107874015743
20
-5.2020623228346459
11
5.5250286220472438
21
-5.207660905511811
0
LINE
8
BLACK
6
CONTINUOUS
10
5.5250286220472438
20
-5.207660905511811
11
5.527212440944882
21
-5.2139019291338577
0
LINE
8
BLACK
6
CONTINUOUS
10
5.527212440944882
20
-5.2139019291338577
11
5.5279527559055115
21
-5.2204724409448815
0
LINE
8
BLACK
6
CONTINUOUS
10
5.5279527559055115
20
-5.2204724409448815
11
5.527212440944882
21
-5.2270429527559052
0
LINE
8
BLACK
6
CONTINUOUS
10
5.527212440944882
20
-5.2270429527559052
11
5.5250286220472438
21
-5.2332839763779528
0
LINE
8
BLACK
6
CONTINUOUS
10
5.5250286220472438
20
-5.2332839763779528
11
5.5215107874015743
21
-5.238882559055118
0
LINE
8
BLACK
6
CONTINUOUS
10
5.5215107874015743
20
-5.238882559055118
11
5.5168353149606295
21
-5.2435580314960628
0
LINE
8
BLACK
6
CONTINUOUS
10
5.5168353149606295
20
-5.2435580314960628
11
5.5112367322834643
21
-5.2470758661417323
0
LINE
8
BLACK
6
CONTINUOUS
10
5.5112367322834643
20
-5.2470758661417323
11
5.5049957086614176
21
-5.2492596850393696
0
LINE
8
BLACK
6
CONTINUOUS
10
5.5049957086614176
20
-5.2492596850393696
11
5.4984251968503939
21
-5.25
0
LINE
8
BLACK
6
CONTINUOUS
10
5.4984251968503939
20
-5.25
11
5.4918546850393701
21
-5.2492596850393696
0
LINE
8
BLACK
6
CONTINUOUS
10
5.4918546850393701
20
-5.2492596850393696
11
5.4856136614173225
21
-5.2470758661417323
0
LINE
8
BLACK
6
CONTINUOUS
10
5.4856136614173225
20
-5.2470758661417323
11
5.4800150787401574
21
-5.2435580314960628
0
LINE
8
BLACK
6
CONTINUOUS
10
5.4800150787401574
20
-5.2435580314960628
11
5.4753396062992126
21
-5.238882559055118
0
LINE
8
BLACK
6
CONTINUOUS
10
5.4753396062992126
20
-5.238882559055118
11
5.4718217716535431
21
-5.2332839763779528
0
LINE
8
BLACK
6
CONTINUOUS
10
5.4718217716535431
20
-5.2332839763779528
11
5.4696379527559058
21
-5.2270429527559052
0
LINE
8
BLACK
6
CONTINUOUS
10
5.4696379527559058
20
-5.2270429527559052
11
5.4688976377952754
21
-5.2204724409448815
0
LINE
8
BLACK
6
CONTINUOUS
10
5.4688976377952754
20
-5.2204724409448815
11
5.4696379527559058
21
-5.2139019291338577
0
LINE
8
BLACK
6
CONTINUOUS
10
5.4696379527559058
20
-5.2139019291338577
11
5.4718217716535431
21
-5.207660905511811
0
LINE
8
BLACK
6
CONTINUOUS
10
5.4718217716535431
20
-5.207660905511811
11
5.4753396062992126
21
-5.2020623228346459
0
LINE
8
BLACK
6
CONTINUOUS
10
5.4753396062992126
20
-5.2020623228346459
11
5.4800150787401574
21
-5.1973868503937011
0
LINE
8
BLACK
6
CONTINUOUS
10
5.4800150787401574
20
-5.1973868503937011
11
5.4856136614173225
21
-5.1938690157480316
0
LINE
8
BLACK
6
CONTINUOUS
10
5.4856136614173225
20
-5.1938690157480316
11
5.4918546850393701
21
-5.1916851968503934
0
LINE
8
BLACK
6
CONTINUOUS
10
5.4918546850393701
20
-5.1916851968503934
11
5.4984251968503939
21
-5.1909448818897639
0
LINE
8
BLACK
6
CONTINUOUS
10
5.4984251968503939
20
-5.1909448818897639
11
5.5049957086614176
21
-5.1916851968503934
0
LINE
8
BLACK
6
CONTINUOUS
10
5.6140508267716536
20
-5.1916851968503934
11
5.6202918503937003
21
-5.1938690157480316
0
LINE
8
BLACK
6
CONTINUOUS
10
5.6202918503937003
20
-5.1938690157480316
11
5.6258904330708663
21
-5.1973868503937011
0
LINE
8
BLACK
6
CONTINUOUS
10
5.6258904330708663
20
-5.1973868503937011
11
5.6305659055118111
21
-5.2020623228346459
0
LINE
8
BLACK
6
CONTINUOUS
10
5.6305659055118111
20
-5.2020623228346459
11
5.6340837401574806
21
-5.207660905511811
0
LINE
8
BLACK
6
CONTINUOUS
10
5.6340837401574806
20
-5.207660905511811
11
5.6362675590551179
21
-5.2139019291338577
0
LINE
8
BLACK
6
CONTINUOUS
10
5.6362675590551179
20
-5.2139019291338577
11
5.6370078740157483
21
-5.2204724409448815
0
LINE
8
BLACK
6
CONTINUOUS
10
5.6370078740157483
20
-5.2204724409448815
11
5.6362675590551179
21
-5.2270429527559052
0
LINE
8
BLACK
6
CONTINUOUS
10
5.6362675590551179
20
-5.2270429527559052
11
5.6340837401574806
21
-5.2332839763779528
0
LINE
8
BLACK
6
CONTINUOUS
10
5.6340837401574806
20
-5.2332839763779528
11
5.6305659055118111
21
-5.238882559055118
0
LINE
8
BLACK
6
CONTINUOUS
10
5.6305659055118111
20
-5.238882559055118
11
5.6258904330708663
21
-5.2435580314960628
0
LINE
8
BLACK
6
CONTINUOUS
10
5.6258904330708663
20
-5.2435580314960628
11
5.6202918503937003
21
-5.2470758661417323
0
LINE
8
BLACK
6
CONTINUOUS
10
5.6202918503937003
20
-5.2470758661417323
11
5.6140508267716536
21
-5.2492596850393696
0
LINE
8
BLACK
6
CONTINUOUS
10
5.6140508267716536
20
-5.2492596850393696
11
5.6074803149606298
21
-5.25
0
LINE
8
BLACK
6
CONTINUOUS
10
5.6074803149606298
20
-5.25
11
5.6009098031496061
21
-5.2492596850393696
0
LINE
8
BLACK
6
CONTINUOUS
10
5.6009098031496061
20
-5.2492596850393696
11
5.5946687795275594
21
-5.2470758661417323
0
LINE
8
BLACK
6
CONTINUOUS
10
5.5946687795275594
20
-5.2470758661417323
11
5.5890701968503933
21
-5.2435580314960628
0
LINE
8
BLACK
6
CONTINUOUS
10
5.5890701968503933
20
-5.2435580314960628
11
5.5843947244094485
21
-5.238882559055118
0
LINE
8
BLACK
6
CONTINUOUS
10
5.5843947244094485
20
-5.238882559055118
11
5.580876889763779
21
-5.2332839763779528
0
LINE
8
BLACK
6
CONTINUOUS
10
5.580876889763779
20
-5.2332839763779528
11
5.5786930708661417
21
-5.2270429527559052
0
LINE
8
BLACK
6
CONTINUOUS
10
5.5786930708661417
20
-5.2270429527559052
11
5.5779527559055113
21
-5.2204724409448815
0
LINE
8
BLACK
6
CONTINUOUS
10
5.5779527559055113
20
-5.2204724409448815
11
5.5786930708661417
21
-5.2139019291338577
0
LINE
8
BLACK
6
CONTINUOUS
10
5.5786930708661417
20
-5.2139019291338577
11
5.580876889763779
21
-5.207660905511811
0
LINE
8
BLACK
6
CONTINUOUS
10
5.580876889763779
20
-5.207660905511811
11
5.5843947244094485
21
-5.2020623228346459
0
LINE
8
BLACK
6
CONTINUOUS
10
5.5843947244094485
20
-5.2020623228346459
11
5.5890701968503933
21
-5.1973868503937011
0
LINE
8
BLACK
6
CONTINUOUS
10
5.5890701968503933
20
-5.1973868503937011
11
5.5946687795275594
21
-5.1938690157480316
0
LINE
8
BLACK
6
CONTINUOUS
10
5.5946687795275594
20
-5.1938690157480316
11
5.6009098031496061
21
-5.1916851968503934
0
LINE
8
BLACK
6
CONTINUOUS
10
5.6009098031496061
20
-5.1916851968503934
11
5.6074803149606298
21
-5.1909448818897639
0
LINE
8
BLACK
6
CONTINUOUS
10
5.6074803149606298
20
-5.1909448818897639
11
5.6140508267716536
21
-5.1916851968503934
0
LINE
8
BLACK
6
CONTINUOUS
10
5.7231059448818895
20
-5.1916851968503934
11
5.7293469685039371
21
-5.1938690157480316
0
LINE
8
BLACK
6
CONTINUOUS
10
5.7293469685039371
20
-5.1938690157480316
11
5.7349455511811023
21
-5.1973868503937011
0
LINE
8
BLACK
6
CONTINUOUS
10
5.7349455511811023
20
-5.1973868503937011
11
5.7396210236220471
21
-5.2020623228346459
0
LINE
8
BLACK
6
CONTINUOUS
10
5.7396210236220471
20
-5.2020623228346459
11
5.7431388582677165
21
-5.207660905511811
0
LINE
8
BLACK
6
CONTINUOUS
10
5.7431388582677165
20
-5.207660905511811
11
5.7453226771653538
21
-5.2139019291338577
0
LINE
8
BLACK
6
CONTINUOUS
10
5.7453226771653538
20
-5.2139019291338577
11
5.7460629921259843
21
-5.2204724409448815
0
LINE
8
BLACK
6
CONTINUOUS
10
5.7460629921259843
20
-5.2204724409448815
11
5.7453226771653538
21
-5.2270429527559052
0
LINE
8
BLACK
6
CONTINUOUS
10
5.7453226771653538
20
-5.2270429527559052
11
5.7431388582677165
21
-5.2332839763779528
0
LINE
8
BLACK
6
CONTINUOUS
10
5.7431388582677165
20
-5.2332839763779528
11
5.7396210236220471
21
-5.238882559055118
0
LINE
8
BLACK
6
CONTINUOUS
10
5.7396210236220471
20
-5.238882559055118
11
5.7349455511811023
21
-5.2435580314960628
0
LINE
8
BLACK
6
CONTINUOUS
10
5.7349455511811023
20
-5.2435580314960628
11
5.7293469685039371
21
-5.2470758661417323
0
LINE
8
BLACK
6
CONTINUOUS
10
5.7293469685039371
20
-5.2470758661417323
11
5.7231059448818895
21
-5.2492596850393696
0
LINE
8
BLACK
6
CONTINUOUS
10
5.7231059448818895
20
-5.2492596850393696
11
5.7165354330708658
21
-5.25
0
LINE
8
BLACK
6
CONTINUOUS
10
5.7165354330708658
20
-5.25
11
5.709964921259842
21
-5.2492596850393696
0
LINE
8
BLACK
6
CONTINUOUS
10
5.709964921259842
20
-5.2492596850393696
11
5.7037238976377953
21
-5.2470758661417323
0
LINE
8
BLACK
6
CONTINUOUS
10
5.7037238976377953
20
-5.2470758661417323
11
5.6981253149606301
21
-5.2435580314960628
0
LINE
8
BLACK
6
CONTINUOUS
10
5.6981253149606301
20
-5.2435580314960628
11
5.6934498425196853
21
-5.238882559055118
0
LINE
8
BLACK
6
CONTINUOUS
10
5.6934498425196853
20
-5.238882559055118
11
5.6899320078740159
21
-5.2332839763779528
0
LINE
8
BLACK
6
CONTINUOUS
10
5.6899320078740159
20
-5.2332839763779528
11
5.6877481889763777
21
-5.2270429527559052
0
LINE
8
BLACK
6
CONTINUOUS
10
5.6877481889763777
20
-5.2270429527559052
11
5.6870078740157481
21
-5.2204724409448815
0
LINE
8
BLACK
6
CONTINUOUS
10
5.6870078740157481
20
-5.2204724409448815
11
5.6877481889763777
21
-5.2139019291338577
0
LINE
8
BLACK
6
CONTINUOUS
10
5.6877481889763777
20
-5.2139019291338577
11
5.6899320078740159
21
-5.207660905511811
0
LINE
8
BLACK
6
CONTINUOUS
10
5.6899320078740159
20
-5.207660905511811
11
5.6934498425196853
21
-5.2020623228346459
0
LINE
8
BLACK
6
CONTINUOUS
10
5.6934498425196853
20
-5.2020623228346459
11
5.6981253149606301
21
-5.1973868503937011
0
LINE
8
BLACK
6
CONTINUOUS
10
5.6981253149606301
20
-5.1973868503937011
11
5.7037238976377953
21
-5.1938690157480316
0
LINE
8
BLACK
6
CONTINUOUS
10
5.7037238976377953
20
-5.1938690157480316
11
5.709964921259842
21
-5.1916851968503934
0
LINE
8
BLACK
6
CONTINUOUS
10
5.709964921259842
20
-5.1916851968503934
11
5.7165354330708658
21
-5.1909448818897639
0
LINE
8
BLACK
6
CONTINUOUS
10
5.7165354330708658
20
-5.1909448818897639
11
5.7231059448818895
21
-5.1916851968503934
0
LINE
8
BLACK
6
CONTINUOUS
10
5.3414130314960628
20
-5.0798741732283466
11
5.3476540551181104
21
-5.0820579921259839
0
LINE
8
BLACK
6
CONTINUOUS
10
5.3476540551181104
20
-5.0820579921259839
11
5.3532526377952756
21
-5.0855758267716533
0
LINE
8
BLACK
6
CONTINUOUS
10
5.3532526377952756
20
-5.0855758267716533
11
5.3579281102362204
21
-5.0902512992125981
0
LINE
8
BLACK
6
CONTINUOUS
10
5.3579281102362204
20
-5.0902512992125981
11
5.3614459448818899
21
-5.0958498818897633
0
LINE
8
BLACK
6
CONTINUOUS
10
5.3614459448818899
20
-5.0958498818897633
11
5.3636297637795272
21
-5.1020909055118109
0
LINE
8
BLACK
6
CONTINUOUS
10
5.3636297637795272
20
-5.1020909055118109
11
5.3643700787401576
21
-5.1086614173228346
0
LINE
8
BLACK
6
CONTINUOUS
10
5.3643700787401576
20
-5.1086614173228346
11
5.3636297637795272
21
-5.1152319291338584
0
LINE
8
BLACK
6
CONTINUOUS
10
5.3636297637795272
20
-5.1152319291338584
11
5.3614459448818899
21
-5.1214729527559051
0
LINE
8
BLACK
6
CONTINUOUS
10
5.3614459448818899
20
-5.1214729527559051
11
5.3579281102362204
21
-5.1270715354330711
0
LINE
8
BLACK
6
CONTINUOUS
10
5.3579281102362204
20
-5.1270715354330711
11
5.3532526377952756
21
-5.1317470078740159
0
LINE
8
BLACK
6
CONTINUOUS
10
5.3532526377952756
20
-5.1317470078740159
11
5.3476540551181104
21
-5.1352648425196845
0
LINE
8
BLACK
6
CONTINUOUS
10
5.3476540551181104
20
-5.1352648425196845
11
5.3414130314960628
21
-5.1374486614173227
0
LINE
8
BLACK
6
CONTINUOUS
10
5.3414130314960628
20
-5.1374486614173227
11
5.3348425196850391
21
-5.1381889763779522
0
LINE
8
BLACK
6
CONTINUOUS
10
5.3348425196850391
20
-5.1381889763779522
11
5.3282720078740153
21
-5.1374486614173227
0
LINE
8
BLACK
6
CONTINUOUS
10
5.3282720078740153
20
-5.1374486614173227
11
5.3220309842519686
21
-5.1352648425196845
0
LINE
8
BLACK
6
CONTINUOUS
10
5.3220309842519686
20
-5.1352648425196845
11
5.3164324015748035
21
-5.1317470078740159
0
LINE
8
BLACK
6
CONTINUOUS
10
5.3164324015748035
20
-5.1317470078740159
11
5.3117569291338578
21
-5.1270715354330711
0
LINE
8
BLACK
6
CONTINUOUS
10
5.3117569291338578
20
-5.1270715354330711
11
5.3082390944881892
21
-5.1214729527559051
0
LINE
8
BLACK
6
CONTINUOUS
10
5.3082390944881892
20
-5.1214729527559051
11
5.306055275590551
21
-5.1152319291338584
0
LINE
8
BLACK
6
CONTINUOUS
10
5.306055275590551
20
-5.1152319291338584
11
5.3053149606299215
21
-5.1086614173228346
0
LINE
8
BLACK
6
CONTINUOUS
10
5.3053149606299215
20
-5.1086614173228346
11
5.306055275590551
21
-5.1020909055118109
0
LINE
8
BLACK
6
CONTINUOUS
10
5.306055275590551
20
-5.1020909055118109
11
5.3082390944881892
21
-5.0958498818897633
0
LINE
8
BLACK
6
CONTINUOUS
10
5.3082390944881892
20
-5.0958498818897633
11
5.3117569291338578
21
-5.0902512992125981
0
LINE
8
BLACK
6
CONTINUOUS
10
5.3117569291338578
20
-5.0902512992125981
11
5.3164324015748035
21
-5.0855758267716533
0
LINE
8
BLACK
6
CONTINUOUS
10
5.3164324015748035
20
-5.0855758267716533
11
5.3220309842519686
21
-5.0820579921259839
0
LINE
8
BLACK
6
CONTINUOUS
10
5.3220309842519686
20
-5.0820579921259839
11
5.3282720078740153
21
-5.0798741732283466
0
LINE
8
BLACK
6
CONTINUOUS
10
5.3282720078740153
20
-5.0798741732283466
11
5.3348425196850391
21
-5.0791338582677161
0
LINE
8
BLACK
6
CONTINUOUS
10
5.3348425196850391
20
-5.0791338582677161
11
5.3414130314960628
21
-5.0798741732283466
0
LINE
8
BLACK
6
CONTINUOUS
10
5.4504681496062988
20
-5.0798741732283466
11
5.4567091732283464
21
-5.0820579921259839
0
LINE
8
BLACK
6
CONTINUOUS
10
5.4567091732283464
20
-5.0820579921259839
11
5.4623077559055115
21
-5.0855758267716533
0
LINE
8
BLACK
6
CONTINUOUS
10
5.4623077559055115
20
-5.0855758267716533
11
5.4669832283464563
21
-5.0902512992125981
0
LINE
8
BLACK
6
CONTINUOUS
10
5.4669832283464563
20
-5.0902512992125981
11
5.4705010629921258
21
-5.0958498818897633
0
LINE
8
BLACK
6
CONTINUOUS
10
5.4705010629921258
20
-5.0958498818897633
11
5.472684881889764
21
-5.1020909055118109
0
LINE
8
BLACK
6
CONTINUOUS
10
5.472684881889764
20
-5.1020909055118109
11
5.4734251968503935
21
-5.1086614173228346
0
LINE
8
BLACK
6
CONTINUOUS
10
5.4734251968503935
20
-5.1086614173228346
11
5.472684881889764
21
-5.1152319291338584
0
LINE
8
BLACK
6
CONTINUOUS
10
5.472684881889764
20
-5.1152319291338584
11
5.4705010629921258
21
-5.1214729527559051
0
LINE
8
BLACK
6
CONTINUOUS
10
5.4705010629921258
20
-5.1214729527559051
11
5.4669832283464563
21
-5.1270715354330711
0
LINE
8
BLACK
6
CONTINUOUS
10
5.4669832283464563
20
-5.1270715354330711
11
5.4623077559055115
21
-5.1317470078740159
0
LINE
8
BLACK
6
CONTINUOUS
10
5.4623077559055115
20
-5.1317470078740159
11
5.4567091732283464
21
-5.1352648425196845
0
LINE
8
BLACK
6
CONTINUOUS
10
5.4567091732283464
20
-5.1352648425196845
11
5.4504681496062988
21
-5.1374486614173227
0
LINE
8
BLACK
6
CONTINUOUS
10
5.4504681496062988
20
-5.1374486614173227
11
5.443897637795275
21
-5.1381889763779522
0
LINE
8
BLACK
6
CONTINUOUS
10
5.443897637795275
20
-5.1381889763779522
11
5.4373271259842522
21
-5.1374486614173227
0
LINE
8
BLACK
6
CONTINUOUS
10
5.4373271259842522
20
-5.1374486614173227
11
5.4310861023622046
21
-5.1352648425196845
0
LINE
8
BLACK
6
CONTINUOUS
10
5.4310861023622046
20
-5.1352648425196845
11
5.4254875196850394
21
-5.1317470078740159
0
LINE
8
BLACK
6
CONTINUOUS
10
5.4254875196850394
20
-5.1317470078740159
11
5.4208120472440946
21
-5.1270715354330711
0
LINE
8
BLACK
6
CONTINUOUS
10
5.4208120472440946
20
-5.1270715354330711
11
5.4172942125984251
21
-5.1214729527559051
0
LINE
8
BLACK
6
CONTINUOUS
10
5.4172942125984251
20
-5.1214729527559051
11
5.415110393700787
21
-5.1152319291338584
0
LINE
8
BLACK
6
CONTINUOUS
10
5.415110393700787
20
-5.1152319291338584
11
5.4143700787401574
21
-5.1086614173228346
0
LINE
8
BLACK
6
CONTINUOUS
10
5.4143700787401574
20
-5.1086614173228346
11
5.415110393700787
21
-5.1020909055118109
0
LINE
8
BLACK
6
CONTINUOUS
10
5.415110393700787
20
-5.1020909055118109
11
5.4172942125984251
21
-5.0958498818897633
0
LINE
8
BLACK
6
CONTINUOUS
10
5.4172942125984251
20
-5.0958498818897633
11
5.4208120472440946
21
-5.0902512992125981
0
LINE
8
BLACK
6
CONTINUOUS
10
5.4208120472440946
20
-5.0902512992125981
11
5.4254875196850394
21
-5.0855758267716533
0
LINE
8
BLACK
6
CONTINUOUS
10
5.4254875196850394
20
-5.0855758267716533
11
5.4310861023622046
21
-5.0820579921259839
0
LINE
8
BLACK
6
CONTINUOUS
10
5.4310861023622046
20
-5.0820579921259839
11
5.4373271259842522
21
-5.0798741732283466
0
LINE
8
BLACK
6
CONTINUOUS
10
5.4373271259842522
20
-5.0798741732283466
11
5.443897637795275
21
-5.0791338582677161
0
LINE
8
BLACK
6
CONTINUOUS
10
5.443897637795275
20
-5.0791338582677161
11
5.4504681496062988
21
-5.0798741732283466
0
LINE
8
BLACK
6
CONTINUOUS
10
5.5595232677165356
20
-5.0798741732283466
11
5.5657642913385823
21
-5.0820579921259839
0
LINE
8
BLACK
6
CONTINUOUS
10
5.5657642913385823
20
-5.0820579921259839
11
5.5713628740157475
21
-5.0855758267716533
0
LINE
8
BLACK
6
CONTINUOUS
10
5.5713628740157475
20
-5.0855758267716533
11
5.5760383464566932
21
-5.0902512992125981
0
LINE
8
BLACK
6
CONTINUOUS
10
5.5760383464566932
20
-5.0902512992125981
11
5.5795561811023617
21
-5.0958498818897633
0
LINE
8
BLACK
6
CONTINUOUS
10
5.5795561811023617
20
-5.0958498818897633
11
5.5817399999999999
21
-5.1020909055118109
0
LINE
8
BLACK
6
CONTINUOUS
10
5.5817399999999999
20
-5.1020909055118109
11
5.5824803149606295
21
-5.1086614173228346
0
LINE
8
BLACK
6
CONTINUOUS
10
5.5824803149606295
20
-5.1086614173228346
11
5.5817399999999999
21
-5.1152319291338584
0
LINE
8
BLACK
6
CONTINUOUS
10
5.5817399999999999
20
-5.1152319291338584
11
5.5795561811023617
21
-5.1214729527559051
0
LINE
8
BLACK
6
CONTINUOUS
10
5.5795561811023617
20
-5.1214729527559051
11
5.5760383464566932
21
-5.1270715354330711
0
LINE
8
BLACK
6
CONTINUOUS
10
5.5760383464566932
20
-5.1270715354330711
11
5.5713628740157475
21
-5.1317470078740159
0
LINE
8
BLACK
6
CONTINUOUS
10
5.5713628740157475
20
-5.1317470078740159
11
5.5657642913385823
21
-5.1352648425196845
0
LINE
8
BLACK
6
CONTINUOUS
10
5.5657642913385823
20
-5.1352648425196845
11
5.5595232677165356
21
-5.1374486614173227
0
LINE
8
BLACK
6
CONTINUOUS
10
5.5595232677165356
20
-5.1374486614173227
11
5.5529527559055119
21
-5.1381889763779522
0
LINE
8
BLACK
6
CONTINUOUS
10
5.5529527559055119
20
-5.1381889763779522
11
5.5463822440944881
21
-5.1374486614173227
0
LINE
8
BLACK
6
CONTINUOUS
10
5.5463822440944881
20
-5.1374486614173227
11
5.5401412204724405
21
-5.1352648425196845
0
LINE
8
BLACK
6
CONTINUOUS
10
5.5401412204724405
20
-5.1352648425196845
11
5.5345426377952753
21
-5.1317470078740159
0
LINE
8
BLACK
6
CONTINUOUS
10
5.5345426377952753
20
-5.1317470078740159
11
5.5298671653543305
21
-5.1270715354330711
0
LINE
8
BLACK
6
CONTINUOUS
10
5.5298671653543305
20
-5.1270715354330711
11
5.5263493307086611
21
-5.1214729527559051
0
LINE
8
BLACK
6
CONTINUOUS
10
5.5263493307086611
20
-5.1214729527559051
11
5.5241655118110238
21
-5.1152319291338584
0
LINE
8
BLACK
6
CONTINUOUS
10
5.5241655118110238
20
-5.1152319291338584
11
5.5234251968503933
21
-5.1086614173228346
0
LINE
8
BLACK
6
CONTINUOUS
10
5.5234251968503933
20
-5.1086614173228346
11
5.5241655118110238
21
-5.1020909055118109
0
LINE
8
BLACK
6
CONTINUOUS
10
5.5241655118110238
20
-5.1020909055118109
11
5.5263493307086611
21
-5.0958498818897633
0
LINE
8
BLACK
6
CONTINUOUS
10
5.5263493307086611
20
-5.0958498818897633
11
5.5298671653543305
21
-5.0902512992125981
0
LINE
8
BLACK
6
CONTINUOUS
10
5.5298671653543305
20
-5.0902512992125981
11
5.5345426377952753
21
-5.0855758267716533
0
LINE
8
BLACK
6
CONTINUOUS
10
5.5345426377952753
20
-5.0855758267716533
11
5.5401412204724405
21
-5.0820579921259839
0
LINE
8
BLACK
6
CONTINUOUS
10
5.5401412204724405
20
-5.0820579921259839
11
5.5463822440944881
21
-5.0798741732283466
0
LINE
8
BLACK
6
CONTINUOUS
10
5.5463822440944881
20
-5.0798741732283466
11
5.5529527559055119
21
-5.0791338582677161
0
LINE
8
BLACK
6
CONTINUOUS
10
5.5529527559055119
20
-5.0791338582677161
11
5.5595232677165356
21
-5.0798741732283466
0
LINE
8
BLACK
6
CONTINUOUS
10
5.6685783858267715
20
-5.0798741732283466
11
5.6748194094488191
21
-5.0820579921259839
0
LINE
8
BLACK
6
CONTINUOUS
10
5.6748194094488191
20
-5.0820579921259839
11
5.6804179921259843
21
-5.0855758267716533
0
LINE
8
BLACK
6
CONTINUOUS
10
5.6804179921259843
20
-5.0855758267716533
11
5.6850934645669291
21
-5.0902512992125981
0
LINE
8
BLACK
6
CONTINUOUS
10
5.6850934645669291
20
-5.0902512992125981
11
5.6886112992125986
21
-5.0958498818897633
0
LINE
8
BLACK
6
CONTINUOUS
10
5.6886112992125986
20
-5.0958498818897633
11
5.6907951181102359
21
-5.1020909055118109
0
LINE
8
BLACK
6
CONTINUOUS
10
5.6907951181102359
20
-5.1020909055118109
11
5.6915354330708663
21
-5.1086614173228346
0
LINE
8
BLACK
6
CONTINUOUS
10
5.6915354330708663
20
-5.1086614173228346
11
5.6907951181102359
21
-5.1152319291338584
0
LINE
8
BLACK
6
CONTINUOUS
10
5.6907951181102359
20
-5.1152319291338584
11
5.6886112992125986
21
-5.1214729527559051
0
LINE
8
BLACK
6
CONTINUOUS
10
5.6886112992125986
20
-5.1214729527559051
11
5.6850934645669291
21
-5.1270715354330711
0
LINE
8
BLACK
6
CONTINUOUS
10
5.6850934645669291
20
-5.1270715354330711
11
5.6804179921259843
21
-5.1317470078740159
0
LINE
8
BLACK
6
CONTINUOUS
10
5.6804179921259843
20
-5.1317470078740159
11
5.6748194094488191
21
-5.1352648425196845
0
LINE
8
BLACK
6
CONTINUOUS
10
5.6748194094488191
20
-5.1352648425196845
11
5.6685783858267715
21
-5.1374486614173227
0
LINE
8
BLACK
6
CONTINUOUS
10
5.6685783858267715
20
-5.1374486614173227
11
5.6620078740157478
21
-5.1381889763779522
0
LINE
8
BLACK
6
CONTINUOUS
10
5.6620078740157478
20
-5.1381889763779522
11
5.655437362204724
21
-5.1374486614173227
0
LINE
8
BLACK
6
CONTINUOUS
10
5.655437362204724
20
-5.1374486614173227
11
5.6491963385826773
21
-5.1352648425196845
0
LINE
8
BLACK
6
CONTINUOUS
10
5.6491963385826773
20
-5.1352648425196845
11
5.6435977559055113
21
-5.1317470078740159
0
LINE
8
BLACK
6
CONTINUOUS
10
5.6435977559055113
20
-5.1317470078740159
11
5.6389222834645665
21
-5.1270715354330711
0
LINE
8
BLACK
6
CONTINUOUS
10
5.6389222834645665
20
-5.1270715354330711
11
5.6354044488188979
21
-5.1214729527559051
0
LINE
8
BLACK
6
CONTINUOUS
10
5.6354044488188979
20
-5.1214729527559051
11
5.6332206299212597
21
-5.1152319291338584
0
LINE
8
BLACK
6
CONTINUOUS
10
5.6332206299212597
20
-5.1152319291338584
11
5.6324803149606302
21
-5.1086614173228346
0
LINE
8
BLACK
6
CONTINUOUS
10
5.6324803149606302
20
-5.1086614173228346
11
5.6332206299212597
21
-5.1020909055118109
0
LINE
8
BLACK
6
CONTINUOUS
10
5.6332206299212597
20
-5.1020909055118109
11
5.6354044488188979
21
-5.0958498818897633
0
LINE
8
BLACK
6
CONTINUOUS
10
5.6354044488188979
20
-5.0958498818897633
11
5.6389222834645665
21
-5.0902512992125981
0
LINE
8
BLACK
6
CONTINUOUS
10
5.6389222834645665
20
-5.0902512992125981
11
5.6435977559055113
21
-5.0855758267716533
0
LINE
8
BLACK
6
CONTINUOUS
10
5.6435977559055113
20
-5.0855758267716533
11
5.6491963385826773
21
-5.0820579921259839
0
LINE
8
BLACK
6
CONTINUOUS
10
5.6491963385826773
20
-5.0820579921259839
11
5.655437362204724
21
-5.0798741732283466
0
LINE
8
BLACK
6
CONTINUOUS
10
5.655437362204724
20
-5.0798741732283466
11
5.6620078740157478
21
-5.0791338582677161
0
LINE
8
BLACK
6
CONTINUOUS
10
5.6620078740157478
20
-5.0791338582677161
11
5.6685783858267715
21
-5.0798741732283466
0
LINE
8
BLACK
6
CONTINUOUS
10
5.7776335039370075
20
-5.0798741732283466
11
5.7838745275590551
21
-5.0820579921259839
0
LINE
8
BLACK
6
CONTINUOUS
10
5.7838745275590551
20
-5.0820579921259839
11
5.7894731102362202
21
-5.0855758267716533
0
LINE
8
BLACK
6
CONTINUOUS
10
5.7894731102362202
20
-5.0855758267716533
11
5.794148582677165
21
-5.0902512992125981
0
LINE
8
BLACK
6
CONTINUOUS
10
5.794148582677165
20
-5.0902512992125981
11
5.7976664173228345
21
-5.0958498818897633
0
LINE
8
BLACK
6
CONTINUOUS
10
5.7976664173228345
20
-5.0958498818897633
11
5.7998502362204727
21
-5.1020909055118109
0
LINE
8
BLACK
6
CONTINUOUS
10
5.7998502362204727
20
-5.1020909055118109
11
5.8005905511811022
21
-5.1086614173228346
0
LINE
8
BLACK
6
CONTINUOUS
10
5.8005905511811022
20
-5.1086614173228346
11
5.7998502362204727
21
-5.1152319291338584
0
LINE
8
BLACK
6
CONTINUOUS
10
5.7998502362204727
20
-5.1152319291338584
11
5.7976664173228345
21
-5.1214729527559051
0
LINE
8
BLACK
6
CONTINUOUS
10
5.7976664173228345
20
-5.1214729527559051
11
5.794148582677165
21
-5.1270715354330711
0
LINE
8
BLACK
6
CONTINUOUS
10
5.794148582677165
20
-5.1270715354330711
11
5.7894731102362202
21
-5.1317470078740159
0
LINE
8
BLACK
6
CONTINUOUS
10
5.7894731102362202
20
-5.1317470078740159
11
5.7838745275590551
21
-5.1352648425196845
0
LINE
8
BLACK
6
CONTINUOUS
10
5.7838745275590551
20
-5.1352648425196845
11
5.7776335039370075
21
-5.1374486614173227
0
LINE
8
BLACK
6
CONTINUOUS
10
5.7776335039370075
20
-5.1374486614173227
11
5.7710629921259837
21
-5.1381889763779522
0
LINE
8
BLACK
6
CONTINUOUS
10
5.7710629921259837
20
-5.1381889763779522
11
5.7644924803149609
21
-5.1374486614173227
0
LINE
8
BLACK
6
CONTINUOUS
10
5.7644924803149609
20
-5.1374486614173227
11
5.7582514566929133
21
-5.1352648425196845
0
LINE
8
BLACK
6
CONTINUOUS
10
5.7582514566929133
20
-5.1352648425196845
11
5.7526528740157481
21
-5.1317470078740159
0
LINE
8
BLACK
6
CONTINUOUS
10
5.7526528740157481
20
-5.1317470078740159
11
5.7479774015748033
21
-5.1270715354330711
0
LINE
8
BLACK
6
CONTINUOUS
10
5.7479774015748033
20
-5.1270715354330711
11
5.7444595669291338
21
-5.1214729527559051
0
LINE
8
BLACK
6
CONTINUOUS
10
5.7444595669291338
20
-5.1214729527559051
11
5.7422757480314957
21
-5.1152319291338584
0
LINE
8
BLACK
6
CONTINUOUS
10
5.7422757480314957
20
-5.1152319291338584
11
5.7415354330708661
21
-5.1086614173228346
0
LINE
8
BLACK
6
CONTINUOUS
10
5.7415354330708661
20
-5.1086614173228346
11
5.7422757480314957
21
-5.1020909055118109
0
LINE
8
BLACK
6
CONTINUOUS
10
5.7422757480314957
20
-5.1020909055118109
11
5.7444595669291338
21
-5.0958498818897633
0
LINE
8
BLACK
6
CONTINUOUS
10
5.7444595669291338
20
-5.0958498818897633
11
5.7479774015748033
21
-5.0902512992125981
0
LINE
8
BLACK
6
CONTINUOUS
10
5.7479774015748033
20
-5.0902512992125981
11
5.7526528740157481
21
-5.0855758267716533
0
LINE
8
BLACK
6
CONTINUOUS
10
5.7526528740157481
20
-5.0855758267716533
11
5.7582514566929133
21
-5.0820579921259839
0
LINE
8
BLACK
6
CONTINUOUS
10
5.7582514566929133
20
-5.0820579921259839
11
5.7644924803149609
21
-5.0798741732283466
0
LINE
8
BLACK
6
CONTINUOUS
10
5.7644924803149609
20
-5.0798741732283466
11
5.7710629921259837
21
-5.0791338582677161
0
LINE
8
BLACK
6
CONTINUOUS
10
5.7710629921259837
20
-5.0791338582677161
11
5.7776335039370075
21
-5.0798741732283466
0
LINE
8
BLACK
6
CONTINUOUS
10
5.076783267716535
20
-4.7901456299212599
11
5.086394763779527
21
-4.792453149606299
0
LINE
8
BLACK
6
CONTINUOUS
10
5.086394763779527
20
-4.792453149606299
11
5.095526968503937
21
-4.7962358267716532
0
LINE
8
BLACK
6
CONTINUOUS
10
5.095526968503937
20
-4.7962358267716532
11
5.1039549606299213
21
-4.8014005118110239
0
LINE
8
BLACK
6
CONTINUOUS
10
5.1039549606299213
20
-4.8014005118110239
11
5.1114712992125986
21
-4.8078200393700783
0
LINE
8
BLACK
6
CONTINUOUS
10
5.1114712992125986
20
-4.8078200393700783
11
5.1178908267716539
21
-4.8153363779527556
0
LINE
8
BLACK
6
CONTINUOUS
10
5.1178908267716539
20
-4.8153363779527556
11
5.1230555118110237
21
-4.8237643700787398
0
LINE
8
BLACK
6
CONTINUOUS
10
5.1230555118110237
20
-4.8237643700787398
11
5.1268381889763779
21
-4.8328965748031498
0
LINE
8
BLACK
6
CONTINUOUS
10
5.1268381889763779
20
-4.8328965748031498
11
5.1291457086614169
21
-4.8425080708661419
0
LINE
8
BLACK
6
CONTINUOUS
10
5.1291457086614169
20
-4.8425080708661419
11
5.1299212598425195
21
-4.8523622047244093
0
LINE
8
BLACK
6
CONTINUOUS
10
5.1299212598425195
20
-4.8523622047244093
11
5.1291457086614169
21
-4.8622163385826767
0
LINE
8
BLACK
6
CONTINUOUS
10
5.1291457086614169
20
-4.8622163385826767
11
5.1268381889763779
21
-4.8718278346456696
0
LINE
8
BLACK
6
CONTINUOUS
10
5.1268381889763779
20
-4.8718278346456696
11
5.1230555118110237
21
-4.8809600393700787
0
LINE
8
BLACK
6
CONTINUOUS
10
5.1230555118110237
20
-4.8809600393700787
11
5.1178908267716539
21
-4.8893880314960629
0
LINE
8
BLACK
6
CONTINUOUS
10
5.1178908267716539
20
-4.8893880314960629
11
5.1114712992125986
21
-4.8969043700787402
0
LINE
8
BLACK
6
CONTINUOUS
10
5.1114712992125986
20
-4.8969043700787402
11
5.1039549606299213
21
-4.9033238976377955
0
LINE
8
BLACK
6
CONTINUOUS
10
5.1039549606299213
20
-4.9033238976377955
11
5.095526968503937
21
-4.9084885826771654
0
LINE
8
BLACK
6
CONTINUOUS
10
5.095526968503937
20
-4.9084885826771654
11
5.086394763779527
21
-4.9122712598425196
0
LINE
8
BLACK
6
CONTINUOUS
10
5.086394763779527
20
-4.9122712598425196
11
5.076783267716535
21
-4.9145787795275586
0
LINE
8
BLACK
6
CONTINUOUS
10
5.076783267716535
20
-4.9145787795275586
11
5.0669291338582676
21
-4.9153543307086611
0
LINE
8
BLACK
6
CONTINUOUS
10
5.0669291338582676
20
-4.9153543307086611
11
5.0570750000000002
21
-4.9145787795275586
0
LINE
8
BLACK
6
CONTINUOUS
10
5.0570750000000002
20
-4.9145787795275586
11
5.0474635039370082
21
-4.9122712598425196
0
LINE
8
BLACK
6
CONTINUOUS
10
5.0474635039370082
20
-4.9122712598425196
11
5.0383312992125981
21
-4.9084885826771654
0
LINE
8
BLACK
6
CONTINUOUS
10
5.0383312992125981
20
-4.9084885826771654
11
5.0299033070866139
21
-4.9033238976377955
0
LINE
8
BLACK
6
CONTINUOUS
10
5.0299033070866139
20
-4.9033238976377955
11
5.0223869685039366
21
-4.8969043700787402
0
LINE
8
BLACK
6
CONTINUOUS
10
5.0223869685039366
20
-4.8969043700787402
11
5.0159674409448813
21
-4.8893880314960629
0
LINE
8
BLACK
6
CONTINUOUS
10
5.0159674409448813
20
-4.8893880314960629
11
5.0108027559055115
21
-4.8809600393700787
0
LINE
8
BLACK
6
CONTINUOUS
10
5.0108027559055115
20
-4.8809600393700787
11
5.0070200787401573
21
-4.8718278346456696
0
LINE
8
BLACK
6
CONTINUOUS
10
5.0070200787401573
20
-4.8718278346456696
11
5.0047125590551182
21
-4.8622163385826767
0
LINE
8
BLACK
6
CONTINUOUS
10
5.0047125590551182
20
-4.8622163385826767
11
5.0039370078740157
21
-4.8523622047244093
0
LINE
8
BLACK
6
CONTINUOUS
10
5.0039370078740157
20
-4.8523622047244093
11
5.0047125590551182
21
-4.8425080708661419
0
LINE
8
BLACK
6
CONTINUOUS
10
5.0047125590551182
20
-4.8425080708661419
11
5.0070200787401573
21
-4.8328965748031498
0
LINE
8
BLACK
6
CONTINUOUS
10
5.0070200787401573
20
-4.8328965748031498
11
5.0108027559055115
21
-4.8237643700787398
0
LINE
8
BLACK
6
CONTINUOUS
10
5.0108027559055115
20
-4.8237643700787398
11
5.0159674409448813
21
-4.8153363779527556
0
LINE
8
BLACK
6
CONTINUOUS
10
5.0159674409448813
20
-4.8153363779527556
11
5.0223869685039366
21
-4.8078200393700783
0
LINE
8
BLACK
6
CONTINUOUS
10
5.0223869685039366
20
-4.8078200393700783
11
5.0299033070866139
21
-4.8014005118110239
0
LINE
8
BLACK
6
CONTINUOUS
10
5.0299033070866139
20
-4.8014005118110239
11
5.0383312992125981
21
-4.7962358267716532
0
LINE
8
BLACK
6
CONTINUOUS
10
5.0383312992125981
20
-4.7962358267716532
11
5.0474635039370082
21
-4.792453149606299
0
LINE
8
BLACK
6
CONTINUOUS
10
5.0474635039370082
20
-4.792453149606299
11
5.0570750000000002
21
-4.7901456299212599
0
LINE
8
BLACK
6
CONTINUOUS
10
5.0570750000000002
20
-4.7901456299212599
11
5.0669291338582676
21
-4.7893700787401574
0
LINE
8
BLACK
6
CONTINUOUS
10
5.0669291338582676
20
-4.7893700787401574
11
5.076783267716535
21
-4.7901456299212599
0
LINE
8
BLACK
6
CONTINUOUS
10
6.061035236220472
20
-4.7901456299212599
11
6.0706467322834641
21
-4.792453149606299
0
LINE
8
BLACK
6
CONTINUOUS
10
6.0706467322834641
20
-4.792453149606299
11
6.0797789370078741
21
-4.7962358267716532
0
LINE
8
BLACK
6
CONTINUOUS
10
6.0797789370078741
20
-4.7962358267716532
11
6.0882069291338583
21
-4.8014005118110239
0
LINE
8
BLACK
6
CONTINUOUS
10
6.0882069291338583
20
-4.8014005118110239
11
6.0957232677165356
21
-4.8078200393700783
0
LINE
8
BLACK
6
CONTINUOUS
10
6.0957232677165356
20
-4.8078200393700783
11
6.10214279527559
21
-4.8153363779527556
0
LINE
8
BLACK
6
CONTINUOUS
10
6.10214279527559
20
-4.8153363779527556
11
6.1073074803149607
21
-4.8237643700787398
0
LINE
8
BLACK
6
CONTINUOUS
10
6.1073074803149607
20
-4.8237643700787398
11
6.1110901574803149
21
-4.8328965748031498
0
LINE
8
BLACK
6
CONTINUOUS
10
6.1110901574803149
20
-4.8328965748031498
11
6.113397677165354
21
-4.8425080708661419
0
LINE
8
BLACK
6
CONTINUOUS
10
6.113397677165354
20
-4.8425080708661419
11
6.1141732283464565
21
-4.8523622047244093
0
LINE
8
BLACK
6
CONTINUOUS
10
6.1141732283464565
20
-4.8523622047244093
11
6.113397677165354
21
-4.8622163385826767
0
LINE
8
BLACK
6
CONTINUOUS
10
6.113397677165354
20
-4.8622163385826767
11
6.1110901574803149
21
-4.8718278346456696
0
LINE
8
BLACK
6
CONTINUOUS
10
6.1110901574803149
20
-4.8718278346456696
11
6.1073074803149607
21
-4.8809600393700787
0
LINE
8
BLACK
6
CONTINUOUS
10
6.1073074803149607
20
-4.8809600393700787
11
6.10214279527559
21
-4.8893880314960629
0
LINE
8
BLACK
6
CONTINUOUS
10
6.10214279527559
20
-4.8893880314960629
11
6.0957232677165356
21
-4.8969043700787402
0
LINE
8
BLACK
6
CONTINUOUS
10
6.0957232677165356
20
-4.8969043700787402
11
6.0882069291338583
21
-4.9033238976377955
0
LINE
8
BLACK
6
CONTINUOUS
10
6.0882069291338583
20
-4.9033238976377955
11
6.0797789370078741
21
-4.9084885826771654
0
LINE
8
BLACK
6
CONTINUOUS
10
6.0797789370078741
20
-4.9084885826771654
11
6.0706467322834641
21
-4.9122712598425196
0
LINE
8
BLACK
6
CONTINUOUS
10
6.0706467322834641
20
-4.9122712598425196
11
6.061035236220472
21
-4.9145787795275586
0
LINE
8
BLACK
6
CONTINUOUS
10
6.061035236220472
20
-4.9145787795275586
11
6.0511811023622046
21
-4.9153543307086611
0
LINE
8
BLACK
6
CONTINUOUS
10
6.0511811023622046
20
-4.9153543307086611
11
6.0413269685039372
21
-4.9145787795275586
0
LINE
8
BLACK
6
CONTINUOUS
10
6.0413269685039372
20
-4.9145787795275586
11
6.0317154724409443
21
-4.9122712598425196
0
LINE
8
BLACK
6
CONTINUOUS
10
6.0317154724409443
20
-4.9122712598425196
11
6.0225832677165352
21
-4.9084885826771654
0
LINE
8
BLACK
6
CONTINUOUS
10
6.0225832677165352
20
-4.9084885826771654
11
6.014155275590551
21
-4.9033238976377955
0
LINE
8
BLACK
6
CONTINUOUS
10
6.014155275590551
20
-4.9033238976377955
11
6.0066389370078737
21
-4.8969043700787402
0
LINE
8
BLACK
6
CONTINUOUS
10
6.0066389370078737
20
-4.8969043700787402
11
6.0002194094488184
21
-4.8893880314960629
0
LINE
8
BLACK
6
CONTINUOUS
10
6.0002194094488184
20
-4.8893880314960629
11
5.9950547244094485
21
-4.8809600393700787
0
LINE
8
BLACK
6
CONTINUOUS
10
5.9950547244094485
20
-4.8809600393700787
11
5.9912720472440943
21
-4.8718278346456696
0
LINE
8
BLACK
6
CONTINUOUS
10
5.9912720472440943
20
-4.8718278346456696
11
5.9889645275590553
21
-4.8622163385826767
0
LINE
8
BLACK
6
CONTINUOUS
10
5.9889645275590553
20
-4.8622163385826767
11
5.9881889763779528
21
-4.8523622047244093
0
LINE
8
BLACK
6
CONTINUOUS
10
5.9881889763779528
20
-4.8523622047244093
11
5.9889645275590553
21
-4.8425080708661419
0
LINE
8
BLACK
6
CONTINUOUS
10
5.9889645275590553
20
-4.8425080708661419
11
5.9912720472440943
21
-4.8328965748031498
0
LINE
8
BLACK
6
CONTINUOUS
10
5.9912720472440943
20
-4.8328965748031498
11
5.9950547244094485
21
-4.8237643700787398
0
LINE
8
BLACK
6
CONTINUOUS
10
5.9950547244094485
20
-4.8237643700787398
11
6.0002194094488184
21
-4.8153363779527556
0
LINE
8
BLACK
6
CONTINUOUS
10
6.0002194094488184
20
-4.8153363779527556
11
6.0066389370078737
21
-4.8078200393700783
0
LINE
8
BLACK
6
CONTINUOUS
10
6.0066389370078737
20
-4.8078200393700783
11
6.014155275590551
21
-4.8014005118110239
0
LINE
8
BLACK
6
CONTINUOUS
10
6.014155275590551
20
-4.8014005118110239
11
6.0225832677165352
21
-4.7962358267716532
0
LINE
8
BLACK
6
CONTINUOUS
10
6.0225832677165352
20
-4.7962358267716532
11
6.0317154724409443
21
-4.792453149606299
0
LINE
8
BLACK
6
CONTINUOUS
10
6.0317154724409443
20
-4.792453149606299
11
6.0413269685039372
21
-4.7901456299212599
0
LINE
8
BLACK
6
CONTINUOUS
10
6.0413269685039372
20
-4.7901456299212599
11
6.0511811023622046
21
-4.7893700787401574
0
LINE
8
BLACK
6
CONTINUOUS
10
6.0511811023622046
20
-4.7893700787401574
11
6.061035236220472
21
-4.7901456299212599
0
LINE
8
BLACK
6
CONTINUOUS
10
5.1244209055118111
20
-4.0411592519685042
11
5.1301181102362206
21
-4.0435190944881887
0
LINE
8
BLACK
6
CONTINUOUS
10
5.1301181102362206
20
-4.0435190944881887
11
5.1350103937007869
21
-4.047273070866142
0
LINE
8
BLACK
6
CONTINUOUS
10
5.1350103937007869
20
-4.047273070866142
11
5.1387643700787402
21
-4.0521653543307083
0
LINE
8
BLACK
6
CONTINUOUS
10
5.1387643700787402
20
-4.0521653543307083
11
5.1411242125984247
21
-4.0578625590551178
0
LINE
8
BLACK
6
CONTINUOUS
10
5.1411242125984247
20
-4.0578625590551178
11
5.1419291338582678
21
-4.0639763779527556
0
LINE
8
BLACK
6
CONTINUOUS
10
5.1419291338582678
20
-4.0639763779527556
11
5.1411242125984247
21
-4.0700901968503933
0
LINE
8
BLACK
6
CONTINUOUS
10
5.1411242125984247
20
-4.0700901968503933
11
5.1387643700787402
21
-4.0757874015748028
0
LINE
8
BLACK
6
CONTINUOUS
10
5.1387643700787402
20
-4.0757874015748028
11
5.1350103937007869
21
-4.0806796850393701
0
LINE
8
BLACK
6
CONTINUOUS
10
5.1350103937007869
20
-4.0806796850393701
11
5.1301181102362206
21
-4.0844336614173224
0
LINE
8
BLACK
6
CONTINUOUS
10
5.1301181102362206
20
-4.0844336614173224
11
5.1244209055118111
21
-4.0867935039370078
0
LINE
8
BLACK
6
CONTINUOUS
10
5.1244209055118111
20
-4.0867935039370078
11
5.1183070866141733
21
-4.08759842519685
0
LINE
8
BLACK
6
CONTINUOUS
10
5.1183070866141733
20
-4.08759842519685
11
5.1121932677165356
21
-4.0867935039370078
0
LINE
8
BLACK
6
CONTINUOUS
10
5.1121932677165356
20
-4.0867935039370078
11
5.1064960629921261
21
-4.0844336614173224
0
LINE
8
BLACK
6
CONTINUOUS
10
5.1064960629921261
20
-4.0844336614173224
11
5.1016037795275588
21
-4.0806796850393701
0
LINE
8
BLACK
6
CONTINUOUS
10
5.1016037795275588
20
-4.0806796850393701
11
5.0978498031496065
21
-4.0757874015748028
0
LINE
8
BLACK
6
CONTINUOUS
10
5.0978498031496065
20
-4.0757874015748028
11
5.0954899606299211
21
-4.0700901968503933
0
LINE
8
BLACK
6
CONTINUOUS
10
5.0954899606299211
20
-4.0700901968503933
11
5.0946850393700789
21
-4.0639763779527556
0
LINE
8
BLACK
6
CONTINUOUS
10
5.0946850393700789
20
-4.0639763779527556
11
5.0954899606299211
21
-4.0578625590551178
0
LINE
8
BLACK
6
CONTINUOUS
10
5.0954899606299211
20
-4.0578625590551178
11
5.0978498031496065
21
-4.0521653543307083
0
LINE
8
BLACK
6
CONTINUOUS
10
5.0978498031496065
20
-4.0521653543307083
11
5.1016037795275588
21
-4.047273070866142
0
LINE
8
BLACK
6
CONTINUOUS
10
5.1016037795275588
20
-4.047273070866142
11
5.1064960629921261
21
-4.0435190944881887
0
LINE
8
BLACK
6
CONTINUOUS
10
5.1064960629921261
20
-4.0435190944881887
11
5.1121932677165356
21
-4.0411592519685042
0
LINE
8
BLACK
6
CONTINUOUS
10
5.1121932677165356
20
-4.0411592519685042
11
5.1183070866141733
21
-4.0403543307086611
0
LINE
8
BLACK
6
CONTINUOUS
10
5.1183070866141733
20
-4.0403543307086611
11
5.1244209055118111
21
-4.0411592519685042
0
LINE
8
BLACK
6
CONTINUOUS
10
5.4419291338582676
20
-4.08759842519685
11
5.3946850393700787
21
-4.08759842519685
0
LINE
8
BLACK
6
CONTINUOUS
10
5.3946850393700787
20
-4.08759842519685
11
5.3946850393700787
21
-4.0403543307086611
0
LINE
8
BLACK
6
CONTINUOUS
10
5.3946850393700787
20
-4.0403543307086611
11
5.4419291338582676
21
-4.0403543307086611
0
LINE
8
BLACK
6
CONTINUOUS
10
5.4419291338582676
20
-4.0403543307086611
11
5.4419291338582676
21
-4.08759842519685
0
LINE
8
BLACK
6
CONTINUOUS
10
5.1244209055118111
20
-3.9411592519685037
11
5.1301181102362206
21
-3.943519094488189
0
LINE
8
BLACK
6
CONTINUOUS
10
5.1301181102362206
20
-3.943519094488189
11
5.1350103937007869
21
-3.9472730708661414
0
LINE
8
BLACK
6
CONTINUOUS
10
5.1350103937007869
20
-3.9472730708661414
11
5.1387643700787402
21
-3.9521653543307087
0
LINE
8
BLACK
6
CONTINUOUS
10
5.1387643700787402
20
-3.9521653543307087
11
5.1411242125984247
21
-3.9578625590551182
0
LINE
8
BLACK
6
CONTINUOUS
10
5.1411242125984247
20
-3.9578625590551182
11
5.1419291338582678
21
-3.9639763779527559
0
LINE
8
BLACK
6
CONTINUOUS
10
5.1419291338582678
20
-3.9639763779527559
11
5.1411242125984247
21
-3.9700901968503937
0
LINE
8
BLACK
6
CONTINUOUS
10
5.1411242125984247
20
-3.9700901968503937
11
5.1387643700787402
21
-3.9757874015748031
0
LINE
8
BLACK
6
CONTINUOUS
10
5.1387643700787402
20
-3.9757874015748031
11
5.1350103937007869
21
-3.98067968503937
0
LINE
8
BLACK
6
CONTINUOUS
10
5.1350103937007869
20
-3.98067968503937
11
5.1301181102362206
21
-3.9844336614173228
0
LINE
8
BLACK
6
CONTINUOUS
10
5.1301181102362206
20
-3.9844336614173228
11
5.1244209055118111
21
-3.9867935039370077
0
LINE
8
BLACK
6
CONTINUOUS
10
5.1244209055118111
20
-3.9867935039370077
11
5.1183070866141733
21
-3.9875984251968504
0
LINE
8
BLACK
6
CONTINUOUS
10
5.1183070866141733
20
-3.9875984251968504
11
5.1121932677165356
21
-3.9867935039370077
0
LINE
8
BLACK
6
CONTINUOUS
10
5.1121932677165356
20
-3.9867935039370077
11
5.1064960629921261
21
-3.9844336614173228
0
LINE
8
BLACK
6
CONTINUOUS
10
5.1064960629921261
20
-3.9844336614173228
11
5.1016037795275588
21
-3.98067968503937
0
LINE
8
BLACK
6
CONTINUOUS
10
5.1016037795275588
20
-3.98067968503937
11
5.0978498031496065
21
-3.9757874015748031
0
LINE
8
BLACK
6
CONTINUOUS
10
5.0978498031496065
20
-3.9757874015748031
11
5.0954899606299211
21
-3.9700901968503937
0
LINE
8
BLACK
6
CONTINUOUS
10
5.0954899606299211
20
-3.9700901968503937
11
5.0946850393700789
21
-3.9639763779527559
0
LINE
8
BLACK
6
CONTINUOUS
10
5.0946850393700789
20
-3.9639763779527559
11
5.0954899606299211
21
-3.9578625590551182
0
LINE
8
BLACK
6
CONTINUOUS
10
5.0954899606299211
20
-3.9578625590551182
11
5.0978498031496065
21
-3.9521653543307087
0
LINE
8
BLACK
6
CONTINUOUS
10
5.0978498031496065
20
-3.9521653543307087
11
5.1016037795275588
21
-3.9472730708661414
0
LINE
8
BLACK
6
CONTINUOUS
10
5.1016037795275588
20
-3.9472730708661414
11
5.1064960629921261
21
-3.943519094488189
0
LINE
8
BLACK
6
CONTINUOUS
10
5.1064960629921261
20
-3.943519094488189
11
5.1121932677165356
21
-3.9411592519685037
0
LINE
8
BLACK
6
CONTINUOUS
10
5.1121932677165356
20
-3.9411592519685037
11
5.1183070866141733
21
-3.9403543307086615
0
LINE
8
BLACK
6
CONTINUOUS
10
5.1183070866141733
20
-3.9403543307086615
11
5.1244209055118111
21
-3.9411592519685037
0
LINE
8
BLACK
6
CONTINUOUS
10
5.4244209055118109
20
-3.9411592519685037
11
5.4301181102362204
21
-3.943519094488189
0
LINE
8
BLACK
6
CONTINUOUS
10
5.4301181102362204
20
-3.943519094488189
11
5.4350103937007876
21
-3.9472730708661414
0
LINE
8
BLACK
6
CONTINUOUS
10
5.4350103937007876
20
-3.9472730708661414
11
5.43876437007874
21
-3.9521653543307087
0
LINE
8
BLACK
6
CONTINUOUS
10
5.43876437007874
20
-3.9521653543307087
11
5.4411242125984254
21
-3.9578625590551182
0
LINE
8
BLACK
6
CONTINUOUS
10
5.4411242125984254
20
-3.9578625590551182
11
5.4419291338582676
21
-3.9639763779527559
0
LINE
8
BLACK
6
CONTINUOUS
10
5.4419291338582676
20
-3.9639763779527559
11
5.4411242125984254
21
-3.9700901968503937
0
LINE
8
BLACK
6
CONTINUOUS
10
5.4411242125984254
20
-3.9700901968503937
11
5.43876437007874
21
-3.9757874015748031
0
LINE
8
BLACK
6
CONTINUOUS
10
5.43876437007874
20
-3.9757874015748031
11
5.4350103937007876
21
-3.98067968503937
0
LINE
8
BLACK
6
CONTINUOUS
10
5.4350103937007876
20
-3.98067968503937
11
5.4301181102362204
21
-3.9844336614173228
0
LINE
8
BLACK
6
CONTINUOUS
10
5.4301181102362204
20
-3.9844336614173228
11
5.4244209055118109
21
-3.9867935039370077
0
LINE
8
BLACK
6
CONTINUOUS
10
5.4244209055118109
20
-3.9867935039370077
11
5.4183070866141732
21
-3.9875984251968504
0
LINE
8
BLACK
6
CONTINUOUS
10
5.4183070866141732
20
-3.9875984251968504
11
5.4121932677165354
21
-3.9867935039370077
0
LINE
8
BLACK
6
CONTINUOUS
10
5.4121932677165354
20
-3.9867935039370077
11
5.4064960629921259
21
-3.9844336614173228
0
LINE
8
BLACK
6
CONTINUOUS
10
5.4064960629921259
20
-3.9844336614173228
11
5.4016037795275587
21
-3.98067968503937
0
LINE
8
BLACK
6
CONTINUOUS
10
5.4016037795275587
20
-3.98067968503937
11
5.3978498031496063
21
-3.9757874015748031
0
LINE
8
BLACK
6
CONTINUOUS
10
5.3978498031496063
20
-3.9757874015748031
11
5.3954899606299209
21
-3.9700901968503937
0
LINE
8
BLACK
6
CONTINUOUS
10
5.3954899606299209
20
-3.9700901968503937
11
5.3946850393700787
21
-3.9639763779527559
0
LINE
8
BLACK
6
CONTINUOUS
10
5.3946850393700787
20
-3.9639763779527559
11
5.3954899606299209
21
-3.9578625590551182
0
LINE
8
BLACK
6
CONTINUOUS
10
5.3954899606299209
20
-3.9578625590551182
11
5.3978498031496063
21
-3.9521653543307087
0
LINE
8
BLACK
6
CONTINUOUS
10
5.3978498031496063
20
-3.9521653543307087
11
5.4016037795275587
21
-3.9472730708661414
0
LINE
8
BLACK
6
CONTINUOUS
10
5.4016037795275587
20
-3.9472730708661414
11
5.4064960629921259
21
-3.943519094488189
0
LINE
8
BLACK
6
CONTINUOUS
10
5.4064960629921259
20
-3.943519094488189
11
5.4121932677165354
21
-3.9411592519685037
0
LINE
8
BLACK
6
CONTINUOUS
10
5.4121932677165354
20
-3.9411592519685037
11
5.4183070866141732
21
-3.9403543307086615
0
LINE
8
BLACK
6
CONTINUOUS
10
5.4183070866141732
20
-3.9403543307086615
11
5.4244209055118109
21
-3.9411592519685037
0
LINE
8
BLACK
6
CONTINUOUS
10
5.1069642125984247
20
-3.5204253543307087
11
5.1132052362204723
21
-3.5226091732283464
0
LINE
8
BLACK
6
CONTINUOUS
10
5.1132052362204723
20
-3.5226091732283464
11
5.1188038188976375
21
-3.5261270078740155
0
LINE
8
BLACK
6
CONTINUOUS
10
5.1188038188976375
20
-3.5261270078740155
11
5.1234792913385823
21
-3.5308024803149607
0
LINE
8
BLACK
6
CONTINUOUS
10
5.1234792913385823
20
-3.5308024803149607
11
5.1269971259842517
21
-3.5364010629921259
0
LINE
8
BLACK
6
CONTINUOUS
10
5.1269971259842517
20
-3.5364010629921259
11
5.1291809448818899
21
-3.542642086614173
0
LINE
8
BLACK
6
CONTINUOUS
10
5.1291809448818899
20
-3.542642086614173
11
5.1299212598425195
21
-3.5492125984251968
0
LINE
8
BLACK
6
CONTINUOUS
10
5.1299212598425195
20
-3.5492125984251968
11
5.1291809448818899
21
-3.5557831102362205
0
LINE
8
BLACK
6
CONTINUOUS
10
5.1291809448818899
20
-3.5557831102362205
11
5.1269971259842517
21
-3.5620241338582677
0
LINE
8
BLACK
6
CONTINUOUS
10
5.1269971259842517
20
-3.5620241338582677
11
5.1234792913385823
21
-3.5676227165354328
0
LINE
8
BLACK
6
CONTINUOUS
10
5.1234792913385823
20
-3.5676227165354328
11
5.1188038188976375
21
-3.5722981889763781
0
LINE
8
BLACK
6
CONTINUOUS
10
5.1188038188976375
20
-3.5722981889763781
11
5.1132052362204723
21
-3.5758160236220471
0
LINE
8
BLACK
6
CONTINUOUS
10
5.1132052362204723
20
-3.5758160236220471
11
5.1069642125984247
21
-3.5779998425196848
0
LINE
8
BLACK
6
CONTINUOUS
10
5.1069642125984247
20
-3.5779998425196848
11
5.1003937007874018
21
-3.5787401574803148
0
LINE
8
BLACK
6
CONTINUOUS
10
5.1003937007874018
20
-3.5787401574803148
11
5.0938231889763781
21
-3.5779998425196848
0
LINE
8
BLACK
6
CONTINUOUS
10
5.0938231889763781
20
-3.5779998425196848
11
5.0875821653543305
21
-3.5758160236220471
0
LINE
8
BLACK
6
CONTINUOUS
10
5.0875821653543305
20
-3.5758160236220471
11
5.0819835826771653
21
-3.5722981889763781
0
LINE
8
BLACK
6
CONTINUOUS
10
5.0819835826771653
20
-3.5722981889763781
11
5.0773081102362205
21
-3.5676227165354328
0
LINE
8
BLACK
6
CONTINUOUS
10
5.0773081102362205
20
-3.5676227165354328
11
5.0737902755905511
21
-3.5620241338582677
0
LINE
8
BLACK
6
CONTINUOUS
10
5.0737902755905511
20
-3.5620241338582677
11
5.0716064566929129
21
-3.5557831102362205
0
LINE
8
BLACK
6
CONTINUOUS
10
5.0716064566929129
20
-3.5557831102362205
11
5.0708661417322833
21
-3.5492125984251968
0
LINE
8
BLACK
6
CONTINUOUS
10
5.0708661417322833
20
-3.5492125984251968
11
5.0716064566929129
21
-3.542642086614173
0
LINE
8
BLACK
6
CONTINUOUS
10
5.0716064566929129
20
-3.542642086614173
11
5.0737902755905511
21
-3.5364010629921259
0
LINE
8
BLACK
6
CONTINUOUS
10
5.0737902755905511
20
-3.5364010629921259
11
5.0773081102362205
21
-3.5308024803149607
0
LINE
8
BLACK
6
CONTINUOUS
10
5.0773081102362205
20
-3.5308024803149607
11
5.0819835826771653
21
-3.5261270078740155
0
LINE
8
BLACK
6
CONTINUOUS
10
5.0819835826771653
20
-3.5261270078740155
11
5.0875821653543305
21
-3.5226091732283464
0
LINE
8
BLACK
6
CONTINUOUS
10
5.0875821653543305
20
-3.5226091732283464
11
5.0938231889763781
21
-3.5204253543307087
0
LINE
8
BLACK
6
CONTINUOUS
10
5.0938231889763781
20
-3.5204253543307087
11
5.1003937007874018
21
-3.5196850393700787
0
LINE
8
BLACK
6
CONTINUOUS
10
5.1003937007874018
20
-3.5196850393700787
11
5.1069642125984247
21
-3.5204253543307087
0
LINE
8
BLACK
6
CONTINUOUS
10
5.4299212598425193
20
-3.5787401574803148
11
5.3708661417322832
21
-3.5787401574803148
0
LINE
8
BLACK
6
CONTINUOUS
10
5.3708661417322832
20
-3.5787401574803148
11
5.3708661417322832
21
-3.5196850393700787
0
LINE
8
BLACK
6
CONTINUOUS
10
5.3708661417322832
20
-3.5196850393700787
11
5.4299212598425193
21
-3.5196850393700787
0
LINE
8
BLACK
6
CONTINUOUS
10
5.4299212598425193
20
-3.5196850393700787
11
5.4299212598425193
21
-3.5787401574803148
0
LINE
8
BLACK
6
CONTINUOUS
10
5.7459887795275586
20
-3.4161042913385824
11
5.7527559055118109
21
-3.4191172047244094
0
LINE
8
BLACK
6
CONTINUOUS
10
5.7527559055118109
20
-3.4191172047244094
11
5.75874874015748
21
-3.4234712598425197
0
LINE
8
BLACK
6
CONTINUOUS
10
5.75874874015748
20
-3.4234712598425197
11
5.7637053149606299
21
-3.4289761023622045
0
LINE
8
BLACK
6
CONTINUOUS
10
5.7637053149606299
20
-3.4289761023622045
11
5.7674090944881886
21
-3.4353912204724408
0
LINE
8
BLACK
6
CONTINUOUS
10
5.7674090944881886
20
-3.4353912204724408
11
5.7696981496062989
21
-3.4424361811023623
0
LINE
8
BLACK
6
CONTINUOUS
10
5.7696981496062989
20
-3.4424361811023623
11
5.7704724409448813
21
-3.4498031496062991
0
LINE
8
BLACK
6
CONTINUOUS
10
5.7704724409448813
20
-3.4498031496062991
11
5.7696981496062989
21
-3.4571701181102363
0
LINE
8
BLACK
6
CONTINUOUS
10
5.7696981496062989
20
-3.4571701181102363
11
5.7674090944881886
21
-3.4642150787401573
0
LINE
8
BLACK
6
CONTINUOUS
10
5.7674090944881886
20
-3.4642150787401573
11
5.7637053149606299
21
-3.4706301968503936
0
LINE
8
BLACK
6
CONTINUOUS
10
5.7637053149606299
20
-3.4706301968503936
11
5.75874874015748
21
-3.4761350393700785
0
LINE
8
BLACK
6
CONTINUOUS
10
5.75874874015748
20
-3.4761350393700785
11
5.7527559055118109
21
-3.4804890944881888
0
LINE
8
BLACK
6
CONTINUOUS
10
5.7527559055118109
20
-3.4804890944881888
11
5.7459887795275586
21
-3.4835020078740158
0
LINE
8
BLACK
6
CONTINUOUS
10
5.7459887795275586
20
-3.4835020078740158
11
5.7387431496062993
21
-3.4850421259842519
0
LINE
8
BLACK
6
CONTINUOUS
10
5.7387431496062993
20
-3.4850421259842519
11
5.7313355905511809
21
-3.4850421259842519
0
LINE
8
BLACK
6
CONTINUOUS
10
5.7313355905511809
20
-3.4850421259842519
11
5.7240899606299207
21
-3.4835020078740158
0
LINE
8
BLACK
6
CONTINUOUS
10
5.7240899606299207
20
-3.4835020078740158
11
5.7173228346456693
21
-3.4804890944881888
0
LINE
8
BLACK
6
CONTINUOUS
10
5.7173228346456693
20
-3.4804890944881888
11
5.7113300000000002
21
-3.4761350393700785
0
LINE
8
BLACK
6
CONTINUOUS
10
5.7113300000000002
20
-3.4761350393700785
11
5.7063734251968503
21
-3.4706301968503936
0
LINE
8
BLACK
6
CONTINUOUS
10
5.7063734251968503
20
-3.4706301968503936
11
5.7026696456692916
21
-3.4642150787401573
0
LINE
8
BLACK
6
CONTINUOUS
10
5.7026696456692916
20
-3.4642150787401573
11
5.7003805905511813
21
-3.4571701181102363
0
LINE
8
BLACK
6
CONTINUOUS
10
5.7003805905511813
20
-3.4571701181102363
11
5.699606299212598
21
-3.4498031496062991
0
LINE
8
BLACK
6
CONTINUOUS
10
5.699606299212598
20
-3.4498031496062991
11
5.7003805905511813
21
-3.4424361811023623
0
LINE
8
BLACK
6
CONTINUOUS
10
5.7003805905511813
20
-3.4424361811023623
11
5.7026696456692916
21
-3.4353912204724408
0
LINE
8
BLACK
6
CONTINUOUS
10
5.7026696456692916
20
-3.4353912204724408
11
5.7063734251968503
21
-3.4289761023622045
0
LINE
8
BLACK
6
CONTINUOUS
10
5.7063734251968503
20
-3.4289761023622045
11
5.7113300000000002
21
-3.4234712598425197
0
LINE
8
BLACK
6
CONTINUOUS
10
5.7113300000000002
20
-3.4234712598425197
11
5.7173228346456693
21
-3.4191172047244094
0
LINE
8
BLACK
6
CONTINUOUS
10
5.7173228346456693
20
-3.4191172047244094
11
5.7240899606299207
21
-3.4161042913385824
0
LINE
8
BLACK
6
CONTINUOUS
10
5.7240899606299207
20
-3.4161042913385824
11
5.7313355905511809
21
-3.4145641732283463
0
LINE
8
BLACK
6
CONTINUOUS
10
5.7313355905511809
20
-3.4145641732283463
11
5.7387431496062993
21
-3.4145641732283463
0
LINE
8
BLACK
6
CONTINUOUS
10
5.7387431496062993
20
-3.4145641732283463
11
5.7459887795275586
21
-3.4161042913385824
0
LINE
8
BLACK
6
CONTINUOUS
10
5.8459887795275591
20
-3.4161042913385824
11
5.8527559055118106
21
-3.4191172047244094
0
LINE
8
BLACK
6
CONTINUOUS
10
5.8527559055118106
20
-3.4191172047244094
11
5.8587487401574805
21
-3.4234712598425197
0
LINE
8
BLACK
6
CONTINUOUS
10
5.8587487401574805
20
-3.4234712598425197
11
5.8637053149606295
21
-3.4289761023622045
0
LINE
8
BLACK
6
CONTINUOUS
10
5.8637053149606295
20
-3.4289761023622045
11
5.8674090944881891
21
-3.4353912204724408
0
LINE
8
BLACK
6
CONTINUOUS
10
5.8674090944881891
20
-3.4353912204724408
11
5.8696981496062994
21
-3.4424361811023623
0
LINE
8
BLACK
6
CONTINUOUS
10
5.8696981496062994
20
-3.4424361811023623
11
5.8704724409448819
21
-3.4498031496062991
0
LINE
8
BLACK
6
CONTINUOUS
10
5.8704724409448819
20
-3.4498031496062991
11
5.8696981496062994
21
-3.4571701181102363
0
LINE
8
BLACK
6
CONTINUOUS
10
5.8696981496062994
20
-3.4571701181102363
11
5.8674090944881891
21
-3.4642150787401573
0
LINE
8
BLACK
6
CONTINUOUS
10
5.8674090944881891
20
-3.4642150787401573
11
5.8637053149606295
21
-3.4706301968503936
0
LINE
8
BLACK
6
CONTINUOUS
10
5.8637053149606295
20
-3.4706301968503936
11
5.8587487401574805
21
-3.4761350393700785
0
LINE
8
BLACK
6
CONTINUOUS
10
5.8587487401574805
20
-3.4761350393700785
11
5.8527559055118106
21
-3.4804890944881888
0
LINE
8
BLACK
6
CONTINUOUS
10
5.8527559055118106
20
-3.4804890944881888
11
5.8459887795275591
21
-3.4835020078740158
0
LINE
8
BLACK
6
CONTINUOUS
10
5.8459887795275591
20
-3.4835020078740158
11
5.8387431496062989
21
-3.4850421259842519
0
LINE
8
BLACK
6
CONTINUOUS
10
5.8387431496062989
20
-3.4850421259842519
11
5.8313355905511806
21
-3.4850421259842519
0
LINE
8
BLACK
6
CONTINUOUS
10
5.8313355905511806
20
-3.4850421259842519
11
5.8240899606299212
21
-3.4835020078740158
0
LINE
8
BLACK
6
CONTINUOUS
10
5.8240899606299212
20
-3.4835020078740158
11
5.8173228346456689
21
-3.4804890944881888
0
LINE
8
BLACK
6
CONTINUOUS
10
5.8173228346456689
20
-3.4804890944881888
11
5.8113299999999999
21
-3.4761350393700785
0
LINE
8
BLACK
6
CONTINUOUS
10
5.8113299999999999
20
-3.4761350393700785
11
5.80637342519685
21
-3.4706301968503936
0
LINE
8
BLACK
6
CONTINUOUS
10
5.80637342519685
20
-3.4706301968503936
11
5.8026696456692912
21
-3.4642150787401573
0
LINE
8
BLACK
6
CONTINUOUS
10
5.8026696456692912
20
-3.4642150787401573
11
5.8003805905511809
21
-3.4571701181102363
0
LINE
8
BLACK
6
CONTINUOUS
10
5.8003805905511809
20
-3.4571701181102363
11
5.7996062992125985
21
-3.4498031496062991
0
LINE
8
BLACK
6
CONTINUOUS
10
5.7996062992125985
20
-3.4498031496062991
11
5.8003805905511809
21
-3.4424361811023623
0
LINE
8
BLACK
6
CONTINUOUS
10
5.8003805905511809
20
-3.4424361811023623
11
5.8026696456692912
21
-3.4353912204724408
0
LINE
8
BLACK
6
CONTINUOUS
10
5.8026696456692912
20
-3.4353912204724408
11
5.80637342519685
21
-3.4289761023622045
0
LINE
8
BLACK
6
CONTINUOUS
10
5.80637342519685
20
-3.4289761023622045
11
5.8113299999999999
21
-3.4234712598425197
0
LINE
8
BLACK
6
CONTINUOUS
10
5.8113299999999999
20
-3.4234712598425197
11
5.8173228346456689
21
-3.4191172047244094
0
LINE
8
BLACK
6
CONTINUOUS
10
5.8173228346456689
20
-3.4191172047244094
11
5.8240899606299212
21
-3.4161042913385824
0
LINE
8
BLACK
6
CONTINUOUS
10
5.8240899606299212
20
-3.4161042913385824
11
5.8313355905511806
21
-3.4145641732283463
0
LINE
8
BLACK
6
CONTINUOUS
10
5.8313355905511806
20
-3.4145641732283463
11
5.8387431496062989
21
-3.4145641732283463
0
LINE
8
BLACK
6
CONTINUOUS
10
5.8387431496062989
20
-3.4145641732283463
11
5.8459887795275591
21
-3.4161042913385824
0
LINE
8
BLACK
6
CONTINUOUS
10
5.9459887795275588
20
-3.4161042913385824
11
5.9527559055118111
21
-3.4191172047244094
0
LINE
8
BLACK
6
CONTINUOUS
10
5.9527559055118111
20
-3.4191172047244094
11
5.9587487401574801
21
-3.4234712598425197
0
LINE
8
BLACK
6
CONTINUOUS
10
5.9587487401574801
20
-3.4234712598425197
11
5.9637053149606301
21
-3.4289761023622045
0
LINE
8
BLACK
6
CONTINUOUS
10
5.9637053149606301
20
-3.4289761023622045
11
5.9674090944881888
21
-3.4353912204724408
0
LINE
8
BLACK
6
CONTINUOUS
10
5.9674090944881888
20
-3.4353912204724408
11
5.9696981496062991
21
-3.4424361811023623
0
LINE
8
BLACK
6
CONTINUOUS
10
5.9696981496062991
20
-3.4424361811023623
11
5.9704724409448815
21
-3.4498031496062991
0
LINE
8
BLACK
6
CONTINUOUS
10
5.9704724409448815
20
-3.4498031496062991
11
5.9696981496062991
21
-3.4571701181102363
0
LINE
8
BLACK
6
CONTINUOUS
10
5.9696981496062991
20
-3.4571701181102363
11
5.9674090944881888
21
-3.4642150787401573
0
LINE
8
BLACK
6
CONTINUOUS
10
5.9674090944881888
20
-3.4642150787401573
11
5.9637053149606301
21
-3.4706301968503936
0
LINE
8
BLACK
6
CONTINUOUS
10
5.9637053149606301
20
-3.4706301968503936
11
5.9587487401574801
21
-3.4761350393700785
0
LINE
8
BLACK
6
CONTINUOUS
10
5.9587487401574801
20
-3.4761350393700785
11
5.9527559055118111
21
-3.4804890944881888
0
LINE
8
BLACK
6
CONTINUOUS
10
5.9527559055118111
20
-3.4804890944881888
11
5.9459887795275588
21
-3.4835020078740158
0
LINE
8
BLACK
6
CONTINUOUS
10
5.9459887795275588
20
-3.4835020078740158
11
5.9387431496062995
21
-3.4850421259842519
0
LINE
8
BLACK
6
CONTINUOUS
10
5.9387431496062995
20
-3.4850421259842519
11
5.9313355905511811
21
-3.4850421259842519
0
LINE
8
BLACK
6
CONTINUOUS
10
5.9313355905511811
20
-3.4850421259842519
11
5.9240899606299209
21
-3.4835020078740158
0
LINE
8
BLACK
6
CONTINUOUS
10
5.9240899606299209
20
-3.4835020078740158
11
5.9173228346456694
21
-3.4804890944881888
0
LINE
8
BLACK
6
CONTINUOUS
10
5.9173228346456694
20
-3.4804890944881888
11
5.9113299999999995
21
-3.4761350393700785
0
LINE
8
BLACK
6
CONTINUOUS
10
5.9113299999999995
20
-3.4761350393700785
11
5.9063734251968505
21
-3.4706301968503936
0
LINE
8
BLACK
6
CONTINUOUS
10
5.9063734251968505
20
-3.4706301968503936
11
5.9026696456692909
21
-3.4642150787401573
0
LINE
8
BLACK
6
CONTINUOUS
10
5.9026696456692909
20
-3.4642150787401573
11
5.9003805905511806
21
-3.4571701181102363
0
LINE
8
BLACK
6
CONTINUOUS
10
5.9003805905511806
20
-3.4571701181102363
11
5.8996062992125982
21
-3.4498031496062991
0
LINE
8
BLACK
6
CONTINUOUS
10
5.8996062992125982
20
-3.4498031496062991
11
5.9003805905511806
21
-3.4424361811023623
0
LINE
8
BLACK
6
CONTINUOUS
10
5.9003805905511806
20
-3.4424361811023623
11
5.9026696456692909
21
-3.4353912204724408
0
LINE
8
BLACK
6
CONTINUOUS
10
5.9026696456692909
20
-3.4353912204724408
11
5.9063734251968505
21
-3.4289761023622045
0
LINE
8
BLACK
6
CONTINUOUS
10
5.9063734251968505
20
-3.4289761023622045
11
5.9113299999999995
21
-3.4234712598425197
0
LINE
8
BLACK
6
CONTINUOUS
10
5.9113299999999995
20
-3.4234712598425197
11
5.9173228346456694
21
-3.4191172047244094
0
LINE
8
BLACK
6
CONTINUOUS
10
5.9173228346456694
20
-3.4191172047244094
11
5.9240899606299209
21
-3.4161042913385824
0
LINE
8
BLACK
6
CONTINUOUS
10
5.9240899606299209
20
-3.4161042913385824
11
5.9313355905511811
21
-3.4145641732283463
0
LINE
8
BLACK
6
CONTINUOUS
10
5.9313355905511811
20
-3.4145641732283463
11
5.9387431496062995
21
-3.4145641732283463
0
LINE
8
BLACK
6
CONTINUOUS
10
5.9387431496062995
20
-3.4145641732283463
11
5.9459887795275588
21
-3.4161042913385824
0
LINE
8
BLACK
6
CONTINUOUS
10
5.7459887795275586
20
-3.3161042913385828
11
5.7527559055118109
21
-3.3191172047244093
0
LINE
8
BLACK
6
CONTINUOUS
10
5.7527559055118109
20
-3.3191172047244093
11
5.75874874015748
21
-3.3234712598425196
0
LINE
8
BLACK
6
CONTINUOUS
10
5.75874874015748
20
-3.3234712598425196
11
5.7637053149606299
21
-3.3289761023622049
0
LINE
8
BLACK
6
CONTINUOUS
10
5.7637053149606299
20
-3.3289761023622049
11
5.7674090944881886
21
-3.3353912204724407
0
LINE
8
BLACK
6
CONTINUOUS
10
5.7674090944881886
20
-3.3353912204724407
11
5.7696981496062989
21
-3.3424361811023622
0
LINE
8
BLACK
6
CONTINUOUS
10
5.7696981496062989
20
-3.3424361811023622
11
5.7704724409448813
21
-3.349803149606299
0
LINE
8
BLACK
6
CONTINUOUS
10
5.7704724409448813
20
-3.349803149606299
11
5.7696981496062989
21
-3.3571701181102362
0
LINE
8
BLACK
6
CONTINUOUS
10
5.7696981496062989
20
-3.3571701181102362
11
5.7674090944881886
21
-3.3642150787401572
0
LINE
8
BLACK
6
CONTINUOUS
10
5.7674090944881886
20
-3.3642150787401572
11
5.7637053149606299
21
-3.3706301968503936
0
LINE
8
BLACK
6
CONTINUOUS
10
5.7637053149606299
20
-3.3706301968503936
11
5.75874874015748
21
-3.3761350393700789
0
LINE
8
BLACK
6
CONTINUOUS
10
5.75874874015748
20
-3.3761350393700789
11
5.7527559055118109
21
-3.3804890944881887
0
LINE
8
BLACK
6
CONTINUOUS
10
5.7527559055118109
20
-3.3804890944881887
11
5.7459887795275586
21
-3.3835020078740157
0
LINE
8
BLACK
6
CONTINUOUS
10
5.7459887795275586
20
-3.3835020078740157
11
5.7387431496062993
21
-3.3850421259842518
0
LINE
8
BLACK
6
CONTINUOUS
10
5.7387431496062993
20
-3.3850421259842518
11
5.7313355905511809
21
-3.3850421259842518
0
LINE
8
BLACK
6
CONTINUOUS
10
5.7313355905511809
20
-3.3850421259842518
11
5.7240899606299207
21
-3.3835020078740157
0
LINE
8
BLACK
6
CONTINUOUS
10
5.7240899606299207
20
-3.3835020078740157
11
5.7173228346456693
21
-3.3804890944881887
0
LINE
8
BLACK
6
CONTINUOUS
10
5.7173228346456693
20
-3.3804890944881887
11
5.7113300000000002
21
-3.3761350393700789
0
LINE
8
BLACK
6
CONTINUOUS
10
5.7113300000000002
20
-3.3761350393700789
11
5.7063734251968503
21
-3.3706301968503936
0
LINE
8
BLACK
6
CONTINUOUS
10
5.7063734251968503
20
-3.3706301968503936
11
5.7026696456692916
21
-3.3642150787401572
0
LINE
8
BLACK
6
CONTINUOUS
10
5.7026696456692916
20
-3.3642150787401572
11
5.7003805905511813
21
-3.3571701181102362
0
LINE
8
BLACK
6
CONTINUOUS
10
5.7003805905511813
20
-3.3571701181102362
11
5.699606299212598
21
-3.349803149606299
0
LINE
8
BLACK
6
CONTINUOUS
10
5.699606299212598
20
-3.349803149606299
11
5.7003805905511813
21
-3.3424361811023622
0
LINE
8
BLACK
6
CONTINUOUS
10
5.7003805905511813
20
-3.3424361811023622
11
5.7026696456692916
21
-3.3353912204724407
0
LINE
8
BLACK
6
CONTINUOUS
10
5.7026696456692916
20
-3.3353912204724407
11
5.7063734251968503
21
-3.3289761023622049
0
LINE
8
BLACK
6
CONTINUOUS
10
5.7063734251968503
20
-3.3289761023622049
11
5.7113300000000002
21
-3.3234712598425196
0
LINE
8
BLACK
6
CONTINUOUS
10
5.7113300000000002
20
-3.3234712598425196
11
5.7173228346456693
21
-3.3191172047244093
0
LINE
8
BLACK
6
CONTINUOUS
10
5.7173228346456693
20
-3.3191172047244093
11
5.7240899606299207
21
-3.3161042913385828
0
LINE
8
BLACK
6
CONTINUOUS
10
5.7240899606299207
20
-3.3161042913385828
11
5.7313355905511809
21
-3.3145641732283462
0
LINE
8
BLACK
6
CONTINUOUS
10
5.7313355905511809
20
-3.3145641732283462
11
5.7387431496062993
21
-3.3145641732283462
0
LINE
8
BLACK
6
CONTINUOUS
10
5.7387431496062993
20
-3.3145641732283462
11
5.7459887795275586
21
-3.3161042913385828
0
LINE
8
BLACK
6
CONTINUOUS
10
5.8459887795275591
20
-3.3161042913385828
11
5.8527559055118106
21
-3.3191172047244093
0
LINE
8
BLACK
6
CONTINUOUS
10
5.8527559055118106
20
-3.3191172047244093
11
5.8587487401574805
21
-3.3234712598425196
0
LINE
8
BLACK
6
CONTINUOUS
10
5.8587487401574805
20
-3.3234712598425196
11
5.8637053149606295
21
-3.3289761023622049
0
LINE
8
BLACK
6
CONTINUOUS
10
5.8637053149606295
20
-3.3289761023622049
11
5.8674090944881891
21
-3.3353912204724407
0
LINE
8
BLACK
6
CONTINUOUS
10
5.8674090944881891
20
-3.3353912204724407
11
5.8696981496062994
21
-3.3424361811023622
0
LINE
8
BLACK
6
CONTINUOUS
10
5.8696981496062994
20
-3.3424361811023622
11
5.8704724409448819
21
-3.349803149606299
0
LINE
8
BLACK
6
CONTINUOUS
10
5.8704724409448819
20
-3.349803149606299
11
5.8696981496062994
21
-3.3571701181102362
0
LINE
8
BLACK
6
CONTINUOUS
10
5.8696981496062994
20
-3.3571701181102362
11
5.8674090944881891
21
-3.3642150787401572
0
LINE
8
BLACK
6
CONTINUOUS
10
5.8674090944881891
20
-3.3642150787401572
11
5.8637053149606295
21
-3.3706301968503936
0
LINE
8
BLACK
6
CONTINUOUS
10
5.8637053149606295
20
-3.3706301968503936
11
5.8587487401574805
21
-3.3761350393700789
0
LINE
8
BLACK
6
CONTINUOUS
10
5.8587487401574805
20
-3.3761350393700789
11
5.8527559055118106
21
-3.3804890944881887
0
LINE
8
BLACK
6
CONTINUOUS
10
5.8527559055118106
20
-3.3804890944881887
11
5.8459887795275591
21
-3.3835020078740157
0
LINE
8
BLACK
6
CONTINUOUS
10
5.8459887795275591
20
-3.3835020078740157
11
5.8387431496062989
21
-3.3850421259842518
0
LINE
8
BLACK
6
CONTINUOUS
10
5.8387431496062989
20
-3.3850421259842518
11
5.8313355905511806
21
-3.3850421259842518
0
LINE
8
BLACK
6
CONTINUOUS
10
5.8313355905511806
20
-3.3850421259842518
11
5.8240899606299212
21
-3.3835020078740157
0
LINE
8
BLACK
6
CONTINUOUS
10
5.8240899606299212
20
-3.3835020078740157
11
5.8173228346456689
21
-3.3804890944881887
0
LINE
8
BLACK
6
CONTINUOUS
10
5.8173228346456689
20
-3.3804890944881887
11
5.8113299999999999
21
-3.3761350393700789
0
LINE
8
BLACK
6
CONTINUOUS
10
5.8113299999999999
20
-3.3761350393700789
11
5.80637342519685
21
-3.3706301968503936
0
LINE
8
BLACK
6
CONTINUOUS
10
5.80637342519685
20
-3.3706301968503936
11
5.8026696456692912
21
-3.3642150787401572
0
LINE
8
BLACK
6
CONTINUOUS
10
5.8026696456692912
20
-3.3642150787401572
11
5.8003805905511809
21
-3.3571701181102362
0
LINE
8
BLACK
6
CONTINUOUS
10
5.8003805905511809
20
-3.3571701181102362
11
5.7996062992125985
21
-3.349803149606299
0
LINE
8
BLACK
6
CONTINUOUS
10
5.7996062992125985
20
-3.349803149606299
11
5.8003805905511809
21
-3.3424361811023622
0
LINE
8
BLACK
6
CONTINUOUS
10
5.8003805905511809
20
-3.3424361811023622
11
5.8026696456692912
21
-3.3353912204724407
0
LINE
8
BLACK
6
CONTINUOUS
10
5.8026696456692912
20
-3.3353912204724407
11
5.80637342519685
21
-3.3289761023622049
0
LINE
8
BLACK
6
CONTINUOUS
10
5.80637342519685
20
-3.3289761023622049
11
5.8113299999999999
21
-3.3234712598425196
0
LINE
8
BLACK
6
CONTINUOUS
10
5.8113299999999999
20
-3.3234712598425196
11
5.8173228346456689
21
-3.3191172047244093
0
LINE
8
BLACK
6
CONTINUOUS
10
5.8173228346456689
20
-3.3191172047244093
11
5.8240899606299212
21
-3.3161042913385828
0
LINE
8
BLACK
6
CONTINUOUS
10
5.8240899606299212
20
-3.3161042913385828
11
5.8313355905511806
21
-3.3145641732283462
0
LINE
8
BLACK
6
CONTINUOUS
10
5.8313355905511806
20
-3.3145641732283462
11
5.8387431496062989
21
-3.3145641732283462
0
LINE
8
BLACK
6
CONTINUOUS
10
5.8387431496062989
20
-3.3145641732283462
11
5.8459887795275591
21
-3.3161042913385828
0
LINE
8
BLACK
6
CONTINUOUS
10
5.9459887795275588
20
-3.3161042913385828
11
5.9527559055118111
21
-3.3191172047244093
0
LINE
8
BLACK
6
CONTINUOUS
10
5.9527559055118111
20
-3.3191172047244093
11
5.9587487401574801
21
-3.3234712598425196
0
LINE
8
BLACK
6
CONTINUOUS
10
5.9587487401574801
20
-3.3234712598425196
11
5.9637053149606301
21
-3.3289761023622049
0
LINE
8
BLACK
6
CONTINUOUS
10
5.9637053149606301
20
-3.3289761023622049
11
5.9674090944881888
21
-3.3353912204724407
0
LINE
8
BLACK
6
CONTINUOUS
10
5.9674090944881888
20
-3.3353912204724407
11
5.9696981496062991
21
-3.3424361811023622
0
LINE
8
BLACK
6
CONTINUOUS
10
5.9696981496062991
20
-3.3424361811023622
11
5.9704724409448815
21
-3.349803149606299
0
LINE
8
BLACK
6
CONTINUOUS
10
5.9704724409448815
20
-3.349803149606299
11
5.9696981496062991
21
-3.3571701181102362
0
LINE
8
BLACK
6
CONTINUOUS
10
5.9696981496062991
20
-3.3571701181102362
11
5.9674090944881888
21
-3.3642150787401572
0
LINE
8
BLACK
6
CONTINUOUS
10
5.9674090944881888
20
-3.3642150787401572
11
5.9637053149606301
21
-3.3706301968503936
0
LINE
8
BLACK
6
CONTINUOUS
10
5.9637053149606301
20
-3.3706301968503936
11
5.9587487401574801
21
-3.3761350393700789
0
LINE
8
BLACK
6
CONTINUOUS
10
5.9587487401574801
20
-3.3761350393700789
11
5.9527559055118111
21
-3.3804890944881887
0
LINE
8
BLACK
6
CONTINUOUS
10
5.9527559055118111
20
-3.3804890944881887
11
5.9459887795275588
21
-3.3835020078740157
0
LINE
8
BLACK
6
CONTINUOUS
10
5.9459887795275588
20
-3.3835020078740157
11
5.9387431496062995
21
-3.3850421259842518
0
LINE
8
BLACK
6
CONTINUOUS
10
5.9387431496062995
20
-3.3850421259842518
11
5.9313355905511811
21
-3.3850421259842518
0
LINE
8
BLACK
6
CONTINUOUS
10
5.9313355905511811
20
-3.3850421259842518
11
5.9240899606299209
21
-3.3835020078740157
0
LINE
8
BLACK
6
CONTINUOUS
10
5.9240899606299209
20
-3.3835020078740157
11
5.9173228346456694
21
-3.3804890944881887
0
LINE
8
BLACK
6
CONTINUOUS
10
5.9173228346456694
20
-3.3804890944881887
11
5.9113299999999995
21
-3.3761350393700789
0
LINE
8
BLACK
6
CONTINUOUS
10
5.9113299999999995
20
-3.3761350393700789
11
5.9063734251968505
21
-3.3706301968503936
0
LINE
8
BLACK
6
CONTINUOUS
10
5.9063734251968505
20
-3.3706301968503936
11
5.9026696456692909
21
-3.3642150787401572
0
LINE
8
BLACK
6
CONTINUOUS
10
5.9026696456692909
20
-3.3642150787401572
11
5.9003805905511806
21
-3.3571701181102362
0
LINE
8
BLACK
6
CONTINUOUS
10
5.9003805905511806
20
-3.3571701181102362
11
5.8996062992125982
21
-3.349803149606299
0
LINE
8
BLACK
6
CONTINUOUS
10
5.8996062992125982
20
-3.349803149606299
11
5.9003805905511806
21
-3.3424361811023622
0
LINE
8
BLACK
6
CONTINUOUS
10
5.9003805905511806
20
-3.3424361811023622
11
5.9026696456692909
21
-3.3353912204724407
0
LINE
8
BLACK
6
CONTINUOUS
10
5.9026696456692909
20
-3.3353912204724407
11
5.9063734251968505
21
-3.3289761023622049
0
LINE
8
BLACK
6
CONTINUOUS
10
5.9063734251968505
20
-3.3289761023622049
11
5.9113299999999995
21
-3.3234712598425196
0
LINE
8
BLACK
6
CONTINUOUS
10
5.9113299999999995
20
-3.3234712598425196
11
5.9173228346456694
21
-3.3191172047244093
0
LINE
8
BLACK
6
CONTINUOUS
10
5.9173228346456694
20
-3.3191172047244093
11
5.9240899606299209
21
-3.3161042913385828
0
LINE
8
BLACK
6
CONTINUOUS
10
5.9240899606299209
20
-3.3161042913385828
11
5.9313355905511811
21
-3.3145641732283462
0
LINE
8
BLACK
6
CONTINUOUS
10
5.9313355905511811
20
-3.3145641732283462
11
5.9387431496062995
21
-3.3145641732283462
0
LINE
8
BLACK
6
CONTINUOUS
10
5.9387431496062995
20
-3.3145641732283462
11
5.9459887795275588
21
-3.3161042913385828
0
LINE
8
BLACK
6
CONTINUOUS
10
5.1069642125984247
20
-3.2204253543307084
11
5.1132052362204723
21
-3.2226091732283462
0
LINE
8
BLACK
6
CONTINUOUS
10
5.1132052362204723
20
-3.2226091732283462
11
5.1188038188976375
21
-3.2261270078740156
0
LINE
8
BLACK
6
CONTINUOUS
10
5.1188038188976375
20
-3.2261270078740156
11
5.1234792913385823
21
-3.2308024803149604
0
LINE
8
BLACK
6
CONTINUOUS
10
5.1234792913385823
20
-3.2308024803149604
11
5.1269971259842517
21
-3.236401062992126
0
LINE
8
BLACK
6
CONTINUOUS
10
5.1269971259842517
20
-3.236401062992126
11
5.1291809448818899
21
-3.2426420866141732
0
LINE
8
BLACK
6
CONTINUOUS
10
5.1291809448818899
20
-3.2426420866141732
11
5.1299212598425195
21
-3.2492125984251969
0
LINE
8
BLACK
6
CONTINUOUS
10
5.1299212598425195
20
-3.2492125984251969
11
5.1291809448818899
21
-3.2557831102362202
0
LINE
8
BLACK
6
CONTINUOUS
10
5.1291809448818899
20
-3.2557831102362202
11
5.1269971259842517
21
-3.2620241338582678
0
LINE
8
BLACK
6
CONTINUOUS
10
5.1269971259842517
20
-3.2620241338582678
11
5.1234792913385823
21
-3.267622716535433
0
LINE
8
BLACK
6
CONTINUOUS
10
5.1234792913385823
20
-3.267622716535433
11
5.1188038188976375
21
-3.2722981889763778
0
LINE
8
BLACK
6
CONTINUOUS
10
5.1188038188976375
20
-3.2722981889763778
11
5.1132052362204723
21
-3.2758160236220473
0
LINE
8
BLACK
6
CONTINUOUS
10
5.1132052362204723
20
-3.2758160236220473
11
5.1069642125984247
21
-3.277999842519685
0
LINE
8
BLACK
6
CONTINUOUS
10
5.1069642125984247
20
-3.277999842519685
11
5.1003937007874018
21
-3.278740157480315
0
LINE
8
BLACK
6
CONTINUOUS
10
5.1003937007874018
20
-3.278740157480315
11
5.0938231889763781
21
-3.277999842519685
0
LINE
8
BLACK
6
CONTINUOUS
10
5.0938231889763781
20
-3.277999842519685
11
5.0875821653543305
21
-3.2758160236220473
0
LINE
8
BLACK
6
CONTINUOUS
10
5.0875821653543305
20
-3.2758160236220473
11
5.0819835826771653
21
-3.2722981889763778
0
LINE
8
BLACK
6
CONTINUOUS
10
5.0819835826771653
20
-3.2722981889763778
11
5.0773081102362205
21
-3.267622716535433
0
LINE
8
BLACK
6
CONTINUOUS
10
5.0773081102362205
20
-3.267622716535433
11
5.0737902755905511
21
-3.2620241338582678
0
LINE
8
BLACK
6
CONTINUOUS
10
5.0737902755905511
20
-3.2620241338582678
11
5.0716064566929129
21
-3.2557831102362202
0
LINE
8
BLACK
6
CONTINUOUS
10
5.0716064566929129
20
-3.2557831102362202
11
5.0708661417322833
21
-3.2492125984251969
0
LINE
8
BLACK
6
CONTINUOUS
10
5.0708661417322833
20
-3.2492125984251969
11
5.0716064566929129
21
-3.2426420866141732
0
LINE
8
BLACK
6
CONTINUOUS
10
5.0716064566929129
20
-3.2426420866141732
11
5.0737902755905511
21
-3.236401062992126
0
LINE
8
BLACK
6
CONTINUOUS
10
5.0737902755905511
20
-3.236401062992126
11
5.0773081102362205
21
-3.2308024803149604
0
LINE
8
BLACK
6
CONTINUOUS
10
5.0773081102362205
20
-3.2308024803149604
11
5.0819835826771653
21
-3.2261270078740156
0
LINE
8
BLACK
6
CONTINUOUS
10
5.0819835826771653
20
-3.2261270078740156
11
5.0875821653543305
21
-3.2226091732283462
0
LINE
8
BLACK
6
CONTINUOUS
10
5.0875821653543305
20
-3.2226091732283462
11
5.0938231889763781
21
-3.2204253543307084
0
LINE
8
BLACK
6
CONTINUOUS
10
5.0938231889763781
20
-3.2204253543307084
11
5.1003937007874018
21
-3.2196850393700789
0
LINE
8
BLACK
6
CONTINUOUS
10
5.1003937007874018
20
-3.2196850393700789
11
5.1069642125984247
21
-3.2204253543307084
0
LINE
8
BLACK
6
CONTINUOUS
10
5.4069642125984254
20
-3.2204253543307084
11
5.4132052362204721
21
-3.2226091732283462
0
LINE
8
BLACK
6
CONTINUOUS
10
5.4132052362204721
20
-3.2226091732283462
11
5.4188038188976373
21
-3.2261270078740156
0
LINE
8
BLACK
6
CONTINUOUS
10
5.4188038188976373
20
-3.2261270078740156
11
5.423479291338583
21
-3.2308024803149604
0
LINE
8
BLACK
6
CONTINUOUS
10
5.423479291338583
20
-3.2308024803149604
11
5.4269971259842515
21
-3.236401062992126
0
LINE
8
BLACK
6
CONTINUOUS
10
5.4269971259842515
20
-3.236401062992126
11
5.4291809448818897
21
-3.2426420866141732
0
LINE
8
BLACK
6
CONTINUOUS
10
5.4291809448818897
20
-3.2426420866141732
11
5.4299212598425193
21
-3.2492125984251969
0
LINE
8
BLACK
6
CONTINUOUS
10
5.4299212598425193
20
-3.2492125984251969
11
5.4291809448818897
21
-3.2557831102362202
0
LINE
8
BLACK
6
CONTINUOUS
10
5.4291809448818897
20
-3.2557831102362202
11
5.4269971259842515
21
-3.2620241338582678
0
LINE
8
BLACK
6
CONTINUOUS
10
5.4269971259842515
20
-3.2620241338582678
11
5.423479291338583
21
-3.267622716535433
0
LINE
8
BLACK
6
CONTINUOUS
10
5.423479291338583
20
-3.267622716535433
11
5.4188038188976373
21
-3.2722981889763778
0
LINE
8
BLACK
6
CONTINUOUS
10
5.4188038188976373
20
-3.2722981889763778
11
5.4132052362204721
21
-3.2758160236220473
0
LINE
8
BLACK
6
CONTINUOUS
10
5.4132052362204721
20
-3.2758160236220473
11
5.4069642125984254
21
-3.277999842519685
0
LINE
8
BLACK
6
CONTINUOUS
10
5.4069642125984254
20
-3.277999842519685
11
5.4003937007874017
21
-3.278740157480315
0
LINE
8
BLACK
6
CONTINUOUS
10
5.4003937007874017
20
-3.278740157480315
11
5.3938231889763779
21
-3.277999842519685
0
LINE
8
BLACK
6
CONTINUOUS
10
5.3938231889763779
20
-3.277999842519685
11
5.3875821653543303
21
-3.2758160236220473
0
LINE
8
BLACK
6
CONTINUOUS
10
5.3875821653543303
20
-3.2758160236220473
11
5.3819835826771651
21
-3.2722981889763778
0
LINE
8
BLACK
6
CONTINUOUS
10
5.3819835826771651
20
-3.2722981889763778
11
5.3773081102362204
21
-3.267622716535433
0
LINE
8
BLACK
6
CONTINUOUS
10
5.3773081102362204
20
-3.267622716535433
11
5.3737902755905509
21
-3.2620241338582678
0
LINE
8
BLACK
6
CONTINUOUS
10
5.3737902755905509
20
-3.2620241338582678
11
5.3716064566929136
21
-3.2557831102362202
0
LINE
8
BLACK
6
CONTINUOUS
10
5.3716064566929136
20
-3.2557831102362202
11
5.3708661417322832
21
-3.2492125984251969
0
LINE
8
BLACK
6
CONTINUOUS
10
5.3708661417322832
20
-3.2492125984251969
11
5.3716064566929136
21
-3.2426420866141732
0
LINE
8
BLACK
6
CONTINUOUS
10
5.3716064566929136
20
-3.2426420866141732
11
5.3737902755905509
21
-3.236401062992126
0
LINE
8
BLACK
6
CONTINUOUS
10
5.3737902755905509
20
-3.236401062992126
11
5.3773081102362204
21
-3.2308024803149604
0
LINE
8
BLACK
6
CONTINUOUS
10
5.3773081102362204
20
-3.2308024803149604
11
5.3819835826771651
21
-3.2261270078740156
0
LINE
8
BLACK
6
CONTINUOUS
10
5.3819835826771651
20
-3.2261270078740156
11
5.3875821653543303
21
-3.2226091732283462
0
LINE
8
BLACK
6
CONTINUOUS
10
5.3875821653543303
20
-3.2226091732283462
11
5.3938231889763779
21
-3.2204253543307084
0
LINE
8
BLACK
6
CONTINUOUS
10
5.3938231889763779
20
-3.2204253543307084
11
5.4003937007874017
21
-3.2196850393700789
0
LINE
8
BLACK
6
CONTINUOUS
10
5.4003937007874017
20
-3.2196850393700789
11
5.4069642125984254
21
-3.2204253543307084
0
LINE
8
BLACK
6
CONTINUOUS
10
5.1069642125984247
20
-3.0204253543307087
11
5.1132052362204723
21
-3.0226091732283464
0
LINE
8
BLACK
6
CONTINUOUS
10
5.1132052362204723
20
-3.0226091732283464
11
5.1188038188976375
21
-3.0261270078740159
0
LINE
8
BLACK
6
CONTINUOUS
10
5.1188038188976375
20
-3.0261270078740159
11
5.1234792913385823
21
-3.0308024803149607
0
LINE
8
BLACK
6
CONTINUOUS
10
5.1234792913385823
20
-3.0308024803149607
11
5.1269971259842517
21
-3.0364010629921259
0
LINE
8
BLACK
6
CONTINUOUS
10
5.1269971259842517
20
-3.0364010629921259
11
5.1291809448818899
21
-3.042642086614173
0
LINE
8
BLACK
6
CONTINUOUS
10
5.1291809448818899
20
-3.042642086614173
11
5.1299212598425195
21
-3.0492125984251968
0
LINE
8
BLACK
6
CONTINUOUS
10
5.1299212598425195
20
-3.0492125984251968
11
5.1291809448818899
21
-3.0557831102362205
0
LINE
8
BLACK
6
CONTINUOUS
10
5.1291809448818899
20
-3.0557831102362205
11
5.1269971259842517
21
-3.0620241338582677
0
LINE
8
BLACK
6
CONTINUOUS
10
5.1269971259842517
20
-3.0620241338582677
11
5.1234792913385823
21
-3.0676227165354328
0
LINE
8
BLACK
6
CONTINUOUS
10
5.1234792913385823
20
-3.0676227165354328
11
5.1188038188976375
21
-3.0722981889763781
0
LINE
8
BLACK
6
CONTINUOUS
10
5.1188038188976375
20
-3.0722981889763781
11
5.1132052362204723
21
-3.0758160236220471
0
LINE
8
BLACK
6
CONTINUOUS
10
5.1132052362204723
20
-3.0758160236220471
11
5.1069642125984247
21
-3.0779998425196848
0
LINE
8
BLACK
6
CONTINUOUS
10
5.1069642125984247
20
-3.0779998425196848
11
5.1003937007874018
21
-3.0787401574803148
0
LINE
8
BLACK
6
CONTINUOUS
10
5.1003937007874018
20
-3.0787401574803148
11
5.0938231889763781
21
-3.0779998425196848
0
LINE
8
BLACK
6
CONTINUOUS
10
5.0938231889763781
20
-3.0779998425196848
11
5.0875821653543305
21
-3.0758160236220471
0
LINE
8
BLACK
6
CONTINUOUS
10
5.0875821653543305
20
-3.0758160236220471
11
5.0819835826771653
21
-3.0722981889763781
0
LINE
8
BLACK
6
CONTINUOUS
10
5.0819835826771653
20
-3.0722981889763781
11
5.0773081102362205
21
-3.0676227165354328
0
LINE
8
BLACK
6
CONTINUOUS
10
5.0773081102362205
20
-3.0676227165354328
11
5.0737902755905511
21
-3.0620241338582677
0
LINE
8
BLACK
6
CONTINUOUS
10
5.0737902755905511
20
-3.0620241338582677
11
5.0716064566929129
21
-3.0557831102362205
0
LINE
8
BLACK
6
CONTINUOUS
10
5.0716064566929129
20
-3.0557831102362205
11
5.0708661417322833
21
-3.0492125984251968
0
LINE
8
BLACK
6
CONTINUOUS
10
5.0708661417322833
20
-3.0492125984251968
11
5.0716064566929129
21
-3.042642086614173
0
LINE
8
BLACK
6
CONTINUOUS
10
5.0716064566929129
20
-3.042642086614173
11
5.0737902755905511
21
-3.0364010629921259
0
LINE
8
BLACK
6
CONTINUOUS
10
5.0737902755905511
20
-3.0364010629921259
11
5.0773081102362205
21
-3.0308024803149607
0
LINE
8
BLACK
6
CONTINUOUS
10
5.0773081102362205
20
-3.0308024803149607
11
5.0819835826771653
21
-3.0261270078740159
0
LINE
8
BLACK
6
CONTINUOUS
10
5.0819835826771653
20
-3.0261270078740159
11
5.0875821653543305
21
-3.0226091732283464
0
LINE
8
BLACK
6
CONTINUOUS
10
5.0875821653543305
20
-3.0226091732283464
11
5.0938231889763781
21
-3.0204253543307087
0
LINE
8
BLACK
6
CONTINUOUS
10
5.0938231889763781
20
-3.0204253543307087
11
5.1003937007874018
21
-3.0196850393700787
0
LINE
8
BLACK
6
CONTINUOUS
10
5.1003937007874018
20
-3.0196850393700787
11
5.1069642125984247
21
-3.0204253543307087
0
LINE
8
BLACK
6
CONTINUOUS
10
5.4069642125984254
20
-3.0204253543307087
11
5.4132052362204721
21
-3.0226091732283464
0
LINE
8
BLACK
6
CONTINUOUS
10
5.4132052362204721
20
-3.0226091732283464
11
5.4188038188976373
21
-3.0261270078740159
0
LINE
8
BLACK
6
CONTINUOUS
10
5.4188038188976373
20
-3.0261270078740159
11
5.423479291338583
21
-3.0308024803149607
0
LINE
8
BLACK
6
CONTINUOUS
10
5.423479291338583
20
-3.0308024803149607
11
5.4269971259842515
21
-3.0364010629921259
0
LINE
8
BLACK
6
CONTINUOUS
10
5.4269971259842515
20
-3.0364010629921259
11
5.4291809448818897
21
-3.042642086614173
0
LINE
8
BLACK
6
CONTINUOUS
10
5.4291809448818897
20
-3.042642086614173
11
5.4299212598425193
21
-3.0492125984251968
0
LINE
8
BLACK
6
CONTINUOUS
10
5.4299212598425193
20
-3.0492125984251968
11
5.4291809448818897
21
-3.0557831102362205
0
LINE
8
BLACK
6
CONTINUOUS
10
5.4291809448818897
20
-3.0557831102362205
11
5.4269971259842515
21
-3.0620241338582677
0
LINE
8
BLACK
6
CONTINUOUS
10
5.4269971259842515
20
-3.0620241338582677
11
5.423479291338583
21
-3.0676227165354328
0
LINE
8
BLACK
6
CONTINUOUS
10
5.423479291338583
20
-3.0676227165354328
11
5.4188038188976373
21
-3.0722981889763781
0
LINE
8
BLACK
6
CONTINUOUS
10
5.4188038188976373
20
-3.0722981889763781
11
5.4132052362204721
21
-3.0758160236220471
0
LINE
8
BLACK
6
CONTINUOUS
10
5.4132052362204721
20
-3.0758160236220471
11
5.4069642125984254
21
-3.0779998425196848
0
LINE
8
BLACK
6
CONTINUOUS
10
5.4069642125984254
20
-3.0779998425196848
11
5.4003937007874017
21
-3.0787401574803148
0
LINE
8
BLACK
6
CONTINUOUS
10
5.4003937007874017
20
-3.0787401574803148
11
5.3938231889763779
21
-3.0779998425196848
0
LINE
8
BLACK
6
CONTINUOUS
10
5.3938231889763779
20
-3.0779998425196848
11
5.3875821653543303
21
-3.0758160236220471
0
LINE
8
BLACK
6
CONTINUOUS
10
5.3875821653543303
20
-3.0758160236220471
11
5.3819835826771651
21
-3.0722981889763781
0
LINE
8
BLACK
6
CONTINUOUS
10
5.3819835826771651
20
-3.0722981889763781
11
5.3773081102362204
21
-3.0676227165354328
0
LINE
8
BLACK
6
CONTINUOUS
10
5.3773081102362204
20
-3.0676227165354328
11
5.3737902755905509
21
-3.0620241338582677
0
LINE
8
BLACK
6
CONTINUOUS
10
5.3737902755905509
20
-3.0620241338582677
11
5.3716064566929136
21
-3.0557831102362205
0
LINE
8
BLACK
6
CONTINUOUS
10
5.3716064566929136
20
-3.0557831102362205
11
5.3708661417322832
21
-3.0492125984251968
0
LINE
8
BLACK
6
CONTINUOUS
10
5.3708661417322832
20
-3.0492125984251968
11
5.3716064566929136
21
-3.042642086614173
0
LINE
8
BLACK
6
CONTINUOUS
10
5.3716064566929136
20
-3.042642086614173
11
5.3737902755905509
21
-3.0364010629921259
0
LINE
8
BLACK
6
CONTINUOUS
10
5.3737902755905509
20
-3.0364010629921259
11
5.3773081102362204
21
-3.0308024803149607
0
LINE
8
BLACK
6
CONTINUOUS
10
5.3773081102362204
20
-3.0308024803149607
11
5.3819835826771651
21
-3.0261270078740159
0
LINE
8
BLACK
6
CONTINUOUS
10
5.3819835826771651
20
-3.0261270078740159
11
5.3875821653543303
21
-3.0226091732283464
0
LINE
8
BLACK
6
CONTINUOUS
10
5.3875821653543303
20
-3.0226091732283464
11
5.3938231889763779
21
-3.0204253543307087
0
LINE
8
BLACK
6
CONTINUOUS
10
5.3938231889763779
20
-3.0204253543307087
11
5.4003937007874017
21
-3.0196850393700787
0
LINE
8
BLACK
6
CONTINUOUS
10
5.4003937007874017
20
-3.0196850393700787
11
5.4069642125984254
21
-3.0204253543307087
0
LINE
8
BLACK
6
CONTINUOUS
10
5.1069642125984247
20
-2.8204253543307085
11
5.1132052362204723
21
-2.8226091732283463
0
LINE
8
BLACK
6
CONTINUOUS
10
5.1132052362204723
20
-2.8226091732283463
11
5.1188038188976375
21
-2.8261270078740157
0
LINE
8
BLACK
6
CONTINUOUS
10
5.1188038188976375
20
-2.8261270078740157
11
5.1234792913385823
21
-2.8308024803149605
0
LINE
8
BLACK
6
CONTINUOUS
10
5.1234792913385823
20
-2.8308024803149605
11
5.1269971259842517
21
-2.8364010629921261
0
LINE
8
BLACK
6
CONTINUOUS
10
5.1269971259842517
20
-2.8364010629921261
11
5.1291809448818899
21
-2.8426420866141733
0
LINE
8
BLACK
6
CONTINUOUS
10
5.1291809448818899
20
-2.8426420866141733
11
5.1299212598425195
21
-2.8492125984251966
0
LINE
8
BLACK
6
CONTINUOUS
10
5.1299212598425195
20
-2.8492125984251966
11
5.1291809448818899
21
-2.8557831102362203
0
LINE
8
BLACK
6
CONTINUOUS
10
5.1291809448818899
20
-2.8557831102362203
11
5.1269971259842517
21
-2.8620241338582675
0
LINE
8
BLACK
6
CONTINUOUS
10
5.1269971259842517
20
-2.8620241338582675
11
5.1234792913385823
21
-2.8676227165354331
0
LINE
8
BLACK
6
CONTINUOUS
10
5.1234792913385823
20
-2.8676227165354331
11
5.1188038188976375
21
-2.8722981889763779
0
LINE
8
BLACK
6
CONTINUOUS
10
5.1188038188976375
20
-2.8722981889763779
11
5.1132052362204723
21
-2.8758160236220474
0
LINE
8
BLACK
6
CONTINUOUS
10
5.1132052362204723
20
-2.8758160236220474
11
5.1069642125984247
21
-2.8779998425196851
0
LINE
8
BLACK
6
CONTINUOUS
10
5.1069642125984247
20
-2.8779998425196851
11
5.1003937007874018
21
-2.8787401574803151
0
LINE
8
BLACK
6
CONTINUOUS
10
5.1003937007874018
20
-2.8787401574803151
11
5.0938231889763781
21
-2.8779998425196851
0
LINE
8
BLACK
6
CONTINUOUS
10
5.0938231889763781
20
-2.8779998425196851
11
5.0875821653543305
21
-2.8758160236220474
0
LINE
8
BLACK
6
CONTINUOUS
10
5.0875821653543305
20
-2.8758160236220474
11
5.0819835826771653
21
-2.8722981889763779
0
LINE
8
BLACK
6
CONTINUOUS
10
5.0819835826771653
20
-2.8722981889763779
11
5.0773081102362205
21
-2.8676227165354331
0
LINE
8
BLACK
6
CONTINUOUS
10
5.0773081102362205
20
-2.8676227165354331
11
5.0737902755905511
21
-2.8620241338582675
0
LINE
8
BLACK
6
CONTINUOUS
10
5.0737902755905511
20
-2.8620241338582675
11
5.0716064566929129
21
-2.8557831102362203
0
LINE
8
BLACK
6
CONTINUOUS
10
5.0716064566929129
20
-2.8557831102362203
11
5.0708661417322833
21
-2.8492125984251966
0
LINE
8
BLACK
6
CONTINUOUS
10
5.0708661417322833
20
-2.8492125984251966
11
5.0716064566929129
21
-2.8426420866141733
0
LINE
8
BLACK
6
CONTINUOUS
10
5.0716064566929129
20
-2.8426420866141733
11
5.0737902755905511
21
-2.8364010629921261
0
LINE
8
BLACK
6
CONTINUOUS
10
5.0737902755905511
20
-2.8364010629921261
11
5.0773081102362205
21
-2.8308024803149605
0
LINE
8
BLACK
6
CONTINUOUS
10
5.0773081102362205
20
-2.8308024803149605
11
5.0819835826771653
21
-2.8261270078740157
0
LINE
8
BLACK
6
CONTINUOUS
10
5.0819835826771653
20
-2.8261270078740157
11
5.0875821653543305
21
-2.8226091732283463
0
LINE
8
BLACK
6
CONTINUOUS
10
5.0875821653543305
20
-2.8226091732283463
11
5.0938231889763781
21
-2.8204253543307085
0
LINE
8
BLACK
6
CONTINUOUS
10
5.0938231889763781
20
-2.8204253543307085
11
5.1003937007874018
21
-2.8196850393700785
0
LINE
8
BLACK
6
CONTINUOUS
10
5.1003937007874018
20
-2.8196850393700785
11
5.1069642125984247
21
-2.8204253543307085
0
LINE
8
BLACK
6
CONTINUOUS
10
5.4069642125984254
20
-2.8204253543307085
11
5.4132052362204721
21
-2.8226091732283463
0
LINE
8
BLACK
6
CONTINUOUS
10
5.4132052362204721
20
-2.8226091732283463
11
5.4188038188976373
21
-2.8261270078740157
0
LINE
8
BLACK
6
CONTINUOUS
10
5.4188038188976373
20
-2.8261270078740157
11
5.423479291338583
21
-2.8308024803149605
0
LINE
8
BLACK
6
CONTINUOUS
10
5.423479291338583
20
-2.8308024803149605
11
5.4269971259842515
21
-2.8364010629921261
0
LINE
8
BLACK
6
CONTINUOUS
10
5.4269971259842515
20
-2.8364010629921261
11
5.4291809448818897
21
-2.8426420866141733
0
LINE
8
BLACK
6
CONTINUOUS
10
5.4291809448818897
20
-2.8426420866141733
11
5.4299212598425193
21
-2.8492125984251966
0
LINE
8
BLACK
6
CONTINUOUS
10
5.4299212598425193
20
-2.8492125984251966
11
5.4291809448818897
21
-2.8557831102362203
0
LINE
8
BLACK
6
CONTINUOUS
10
5.4291809448818897
20
-2.8557831102362203
11
5.4269971259842515
21
-2.8620241338582675
0
LINE
8
BLACK
6
CONTINUOUS
10
5.4269971259842515
20
-2.8620241338582675
11
5.423479291338583
21
-2.8676227165354331
0
LINE
8
BLACK
6
CONTINUOUS
10
5.423479291338583
20
-2.8676227165354331
11
5.4188038188976373
21
-2.8722981889763779
0
LINE
8
BLACK
6
CONTINUOUS
10
5.4188038188976373
20
-2.8722981889763779
11
5.4132052362204721
21
-2.8758160236220474
0
LINE
8
BLACK
6
CONTINUOUS
10
5.4132052362204721
20
-2.8758160236220474
11
5.4069642125984254
21
-2.8779998425196851
0
LINE
8
BLACK
6
CONTINUOUS
10
5.4069642125984254
20
-2.8779998425196851
11
5.4003937007874017
21
-2.8787401574803151
0
LINE
8
BLACK
6
CONTINUOUS
10
5.4003937007874017
20
-2.8787401574803151
11
5.3938231889763779
21
-2.8779998425196851
0
LINE
8
BLACK
6
CONTINUOUS
10
5.3938231889763779
20
-2.8779998425196851
11
5.3875821653543303
21
-2.8758160236220474
0
LINE
8
BLACK
6
CONTINUOUS
10
5.3875821653543303
20
-2.8758160236220474
11
5.3819835826771651
21
-2.8722981889763779
0
LINE
8
BLACK
6
CONTINUOUS
10
5.3819835826771651
20
-2.8722981889763779
11
5.3773081102362204
21
-2.8676227165354331
0
LINE
8
BLACK
6
CONTINUOUS
10
5.3773081102362204
20
-2.8676227165354331
11
5.3737902755905509
21
-2.8620241338582675
0
LINE
8
BLACK
6
CONTINUOUS
10
5.3737902755905509
20
-2.8620241338582675
11
5.3716064566929136
21
-2.8557831102362203
0
LINE
8
BLACK
6
CONTINUOUS
10
5.3716064566929136
20
-2.8557831102362203
11
5.3708661417322832
21
-2.8492125984251966
0
LINE
8
BLACK
6
CONTINUOUS
10
5.3708661417322832
20
-2.8492125984251966
11
5.3716064566929136
21
-2.8426420866141733
0
LINE
8
BLACK
6
CONTINUOUS
10
5.3716064566929136
20
-2.8426420866141733
11
5.3737902755905509
21
-2.8364010629921261
0
LINE
8
BLACK
6
CONTINUOUS
10
5.3737902755905509
20
-2.8364010629921261
11
5.3773081102362204
21
-2.8308024803149605
0
LINE
8
BLACK
6
CONTINUOUS
10
5.3773081102362204
20
-2.8308024803149605
11
5.3819835826771651
21
-2.8261270078740157
0
LINE
8
BLACK
6
CONTINUOUS
10
5.3819835826771651
20
-2.8261270078740157
11
5.3875821653543303
21
-2.8226091732283463
0
LINE
8
BLACK
6
CONTINUOUS
10
5.3875821653543303
20
-2.8226091732283463
11
5.3938231889763779
21
-2.8204253543307085
0
LINE
8
BLACK
6
CONTINUOUS
10
5.3938231889763779
20
-2.8204253543307085
11
5.4003937007874017
21
-2.8196850393700785
0
LINE
8
BLACK
6
CONTINUOUS
10
5.4003937007874017
20
-2.8196850393700785
11
5.4069642125984254
21
-2.8204253543307085
0
LINE
8
BLACK
6
CONTINUOUS
10
5.076783267716535
20
-1.7488070472440944
11
5.086394763779527
21
-1.7511145669291339
0
LINE
8
BLACK
6
CONTINUOUS
10
5.086394763779527
20
-1.7511145669291339
11
5.095526968503937
21
-1.7548972440944881
0
LINE
8
BLACK
6
CONTINUOUS
10
5.095526968503937
20
-1.7548972440944881
11
5.1039549606299213
21
-1.7600619291338582
0
LINE
8
BLACK
6
CONTINUOUS
10
5.1039549606299213
20
-1.7600619291338582
11
5.1114712992125986
21
-1.7664814566929135
0
LINE
8
BLACK
6
CONTINUOUS
10
5.1114712992125986
20
-1.7664814566929135
11
5.1178908267716539
21
-1.7739977952755905
0
LINE
8
BLACK
6
CONTINUOUS
10
5.1178908267716539
20
-1.7739977952755905
11
5.1230555118110237
21
-1.7824257874015748
0
LINE
8
BLACK
6
CONTINUOUS
10
5.1230555118110237
20
-1.7824257874015748
11
5.1268381889763779
21
-1.7915579921259843
0
LINE
8
BLACK
6
CONTINUOUS
10
5.1268381889763779
20
-1.7915579921259843
11
5.1291457086614169
21
-1.8011694881889764
0
LINE
8
BLACK
6
CONTINUOUS
10
5.1291457086614169
20
-1.8011694881889764
11
5.1299212598425195
21
-1.811023622047244
0
LINE
8
BLACK
6
CONTINUOUS
10
5.1299212598425195
20
-1.811023622047244
11
5.1291457086614169
21
-1.8208777559055118
0
LINE
8
BLACK
6
CONTINUOUS
10
5.1291457086614169
20
-1.8208777559055118
11
5.1268381889763779
21
-1.8304892519685039
0
LINE
8
BLACK
6
CONTINUOUS
10
5.1268381889763779
20
-1.8304892519685039
11
5.1230555118110237
21
-1.8396214566929134
0
LINE
8
BLACK
6
CONTINUOUS
10
5.1230555118110237
20
-1.8396214566929134
11
5.1178908267716539
21
-1.8480494488188977
0
LINE
8
BLACK
6
CONTINUOUS
10
5.1178908267716539
20
-1.8480494488188977
11
5.1114712992125986
21
-1.8555657874015747
0
LINE
8
BLACK
6
CONTINUOUS
10
5.1114712992125986
20
-1.8555657874015747
11
5.1039549606299213
21
-1.8619853149606298
0
LINE
8
BLACK
6
CONTINUOUS
10
5.1039549606299213
20
-1.8619853149606298
11
5.095526968503937
21
-1.8671499999999999
0
LINE
8
BLACK
6
CONTINUOUS
10
5.095526968503937
20
-1.8671499999999999
11
5.086394763779527
21
-1.8709326771653543
0
LINE
8
BLACK
6
CONTINUOUS
10
5.086394763779527
20
-1.8709326771653543
11
5.076783267716535
21
-1.8732401968503936
0
LINE
8
BLACK
6
CONTINUOUS
10
5.076783267716535
20
-1.8732401968503936
11
5.0669291338582676
21
-1.8740157480314961
0
LINE
8
BLACK
6
CONTINUOUS
10
5.0669291338582676
20
-1.8740157480314961
11
5.0570750000000002
21
-1.8732401968503936
0
LINE
8
BLACK
6
CONTINUOUS
10
5.0570750000000002
20
-1.8732401968503936
11
5.0474635039370082
21
-1.8709326771653543
0
LINE
8
BLACK
6
CONTINUOUS
10
5.0474635039370082
20
-1.8709326771653543
11
5.0383312992125981
21
-1.8671499999999999
0
LINE
8
BLACK
6
CONTINUOUS
10
5.0383312992125981
20
-1.8671499999999999
11
5.0299033070866139
21
-1.8619853149606298
0
LINE
8
BLACK
6
CONTINUOUS
10
5.0299033070866139
20
-1.8619853149606298
11
5.0223869685039366
21
-1.8555657874015747
0
LINE
8
BLACK
6
CONTINUOUS
10
5.0223869685039366
20
-1.8555657874015747
11
5.0159674409448813
21
-1.8480494488188977
0
LINE
8
BLACK
6
CONTINUOUS
10
5.0159674409448813
20
-1.8480494488188977
11
5.0108027559055115
21
-1.8396214566929134
0
LINE
8
BLACK
6
CONTINUOUS
10
5.0108027559055115
20
-1.8396214566929134
11
5.0070200787401573
21
-1.8304892519685039
0
LINE
8
BLACK
6
CONTINUOUS
10
5.0070200787401573
20
-1.8304892519685039
11
5.0047125590551182
21
-1.8208777559055118
0
LINE
8
BLACK
6
CONTINUOUS
10
5.0047125590551182
20
-1.8208777559055118
11
5.0039370078740157
21
-1.811023622047244
0
LINE
8
BLACK
6
CONTINUOUS
10
5.0039370078740157
20
-1.811023622047244
11
5.0047125590551182
21
-1.8011694881889764
0
LINE
8
BLACK
6
CONTINUOUS
10
5.0047125590551182
20
-1.8011694881889764
11
5.0070200787401573
21
-1.7915579921259843
0
LINE
8
BLACK
6
CONTINUOUS
10
5.0070200787401573
20
-1.7915579921259843
11
5.0108027559055115
21
-1.7824257874015748
0
LINE
8
BLACK
6
CONTINUOUS
10
5.0108027559055115
20
-1.7824257874015748
11
5.0159674409448813
21
-1.7739977952755905
0
LINE
8
BLACK
6
CONTINUOUS
10
5.0159674409448813
20
-1.7739977952755905
11
5.0223869685039366
21
-1.7664814566929135
0
LINE
8
BLACK
6
CONTINUOUS
10
5.0223869685039366
20
-1.7664814566929135
11
5.0299033070866139
21
-1.7600619291338582
0
LINE
8
BLACK
6
CONTINUOUS
10
5.0299033070866139
20
-1.7600619291338582
11
5.0383312992125981
21
-1.7548972440944881
0
LINE
8
BLACK
6
CONTINUOUS
10
5.0383312992125981
20
-1.7548972440944881
11
5.0474635039370082
21
-1.7511145669291339
0
LINE
8
BLACK
6
CONTINUOUS
10
5.0474635039370082
20
-1.7511145669291339
11
5.0570750000000002
21
-1.7488070472440944
0
LINE
8
BLACK
6
CONTINUOUS
10
5.0570750000000002
20
-1.7488070472440944
11
5.0669291338582676
21
-1.7480314960629921
0
LINE
8
BLACK
6
CONTINUOUS
10
5.0669291338582676
20
-1.7480314960629921
11
5.076783267716535
21
-1.7488070472440944
0
LINE
8
BLACK
6
CONTINUOUS
10
6.061035236220472
20
-1.7488070472440944
11
6.0706467322834641
21
-1.7511145669291339
0
LINE
8
BLACK
6
CONTINUOUS
10
6.0706467322834641
20
-1.7511145669291339
11
6.0797789370078741
21
-1.7548972440944881
0
LINE
8
BLACK
6
CONTINUOUS
10
6.0797789370078741
20
-1.7548972440944881
11
6.0882069291338583
21
-1.7600619291338582
0
LINE
8
BLACK
6
CONTINUOUS
10
6.0882069291338583
20
-1.7600619291338582
11
6.0957232677165356
21
-1.7664814566929135
0
LINE
8
BLACK
6
CONTINUOUS
10
6.0957232677165356
20
-1.7664814566929135
11
6.10214279527559
21
-1.7739977952755905
0
LINE
8
BLACK
6
CONTINUOUS
10
6.10214279527559
20
-1.7739977952755905
11
6.1073074803149607
21
-1.7824257874015748
0
LINE
8
BLACK
6
CONTINUOUS
10
6.1073074803149607
20
-1.7824257874015748
11
6.1110901574803149
21
-1.7915579921259843
0
LINE
8
BLACK
6
CONTINUOUS
10
6.1110901574803149
20
-1.7915579921259843
11
6.113397677165354
21
-1.8011694881889764
0
LINE
8
BLACK
6
CONTINUOUS
10
6.113397677165354
20
-1.8011694881889764
11
6.1141732283464565
21
-1.811023622047244
0
LINE
8
BLACK
6
CONTINUOUS
10
6.1141732283464565
20
-1.811023622047244
11
6.113397677165354
21
-1.8208777559055118
0
LINE
8
BLACK
6
CONTINUOUS
10
6.113397677165354
20
-1.8208777559055118
11
6.1110901574803149
21
-1.8304892519685039
0
LINE
8
BLACK
6
CONTINUOUS
10
6.1110901574803149
20
-1.8304892519685039
11
6.1073074803149607
21
-1.8396214566929134
0
LINE
8
BLACK
6
CONTINUOUS
10
6.1073074803149607
20
-1.8396214566929134
11
6.10214279527559
21
-1.8480494488188977
0
LINE
8
BLACK
6
CONTINUOUS
10
6.10214279527559
20
-1.8480494488188977
11
6.0957232677165356
21
-1.8555657874015747
0
LINE
8
BLACK
6
CONTINUOUS
10
6.0957232677165356
20
-1.8555657874015747
11
6.0882069291338583
21
-1.8619853149606298
0
LINE
8
BLACK
6
CONTINUOUS
10
6.0882069291338583
20
-1.8619853149606298
11
6.0797789370078741
21
-1.8671499999999999
0
LINE
8
BLACK
6
CONTINUOUS
10
6.0797789370078741
20
-1.8671499999999999
11
6.0706467322834641
21
-1.8709326771653543
0
LINE
8
BLACK
6
CONTINUOUS
10
6.0706467322834641
20
-1.8709326771653543
11
6.061035236220472
21
-1.8732401968503936
0
LINE
8
BLACK
6
CONTINUOUS
10
6.061035236220472
20
-1.8732401968503936
11
6.0511811023622046
21
-1.8740157480314961
0
LINE
8
BLACK
6
CONTINUOUS
10
6.0511811023622046
20
-1.8740157480314961
11
6.0413269685039372
21
-1.8732401968503936
0
LINE
8
BLACK
6
CONTINUOUS
10
6.0413269685039372
20
-1.8732401968503936
11
6.0317154724409443
21
-1.8709326771653543
0
LINE
8
BLACK
6
CONTINUOUS
10
6.0317154724409443
20
-1.8709326771653543
11
6.0225832677165352
21
-1.8671499999999999
0
LINE
8
BLACK
6
CONTINUOUS
10
6.0225832677165352
20
-1.8671499999999999
11
6.014155275590551
21
-1.8619853149606298
0
LINE
8
BLACK
6
CONTINUOUS
10
6.014155275590551
20
-1.8619853149606298
11
6.0066389370078737
21
-1.8555657874015747
0
LINE
8
BLACK
6
CONTINUOUS
10
6.0066389370078737
20
-1.8555657874015747
11
6.0002194094488184
21
-1.8480494488188977
0
LINE
8
BLACK
6
CONTINUOUS
10
6.0002194094488184
20
-1.8480494488188977
11
5.9950547244094485
21
-1.8396214566929134
0
LINE
8
BLACK
6
CONTINUOUS
10
5.9950547244094485
20
-1.8396214566929134
11
5.9912720472440943
21
-1.8304892519685039
0
LINE
8
BLACK
6
CONTINUOUS
10
5.9912720472440943
20
-1.8304892519685039
11
5.9889645275590553
21
-1.8208777559055118
0
LINE
8
BLACK
6
CONTINUOUS
10
5.9889645275590553
20
-1.8208777559055118
11
5.9881889763779528
21
-1.811023622047244
0
LINE
8
BLACK
6
CONTINUOUS
10
5.9881889763779528
20
-1.811023622047244
11
5.9889645275590553
21
-1.8011694881889764
0
LINE
8
BLACK
6
CONTINUOUS
10
5.9889645275590553
20
-1.8011694881889764
11
5.9912720472440943
21
-1.7915579921259843
0
LINE
8
BLACK
6
CONTINUOUS
10
5.9912720472440943
20
-1.7915579921259843
11
5.9950547244094485
21
-1.7824257874015748
0
LINE
8
BLACK
6
CONTINUOUS
10
5.9950547244094485
20
-1.7824257874015748
11
6.0002194094488184
21
-1.7739977952755905
0
LINE
8
BLACK
6
CONTINUOUS
10
6.0002194094488184
20
-1.7739977952755905
11
6.0066389370078737
21
-1.7664814566929135
0
LINE
8
BLACK
6
CONTINUOUS
10
6.0066389370078737
20
-1.7664814566929135
11
6.014155275590551
21
-1.7600619291338582
0
LINE
8
BLACK
6
CONTINUOUS
10
6.014155275590551
20
-1.7600619291338582
11
6.0225832677165352
21
-1.7548972440944881
0
LINE
8
BLACK
6
CONTINUOUS
10
6.0225832677165352
20
-1.7548972440944881
11
6.0317154724409443
21
-1.7511145669291339
0
LINE
8
BLACK
6
CONTINUOUS
10
6.0317154724409443
20
-1.7511145669291339
11
6.0413269685039372
21
-1.7488070472440944
0
LINE
8
BLACK
6
CONTINUOUS
10
6.0413269685039372
20
-1.7488070472440944
11
6.0511811023622046
21
-1.7480314960629921
0
LINE
8
BLACK
6
CONTINUOUS
10
6.0511811023622046
20
-1.7480314960629921
11
6.061035236220472
21
-1.7488070472440944
0
LINE
8
BLACK
6
CONTINUOUS
10
6.0295275590551176
20
-1.4862204724409449
11
5.9114173228346454
21
-1.4862204724409449
0
LINE
8
BLACK
6
CONTINUOUS
10
5.9114173228346454
20
-1.4862204724409449
11
5.9114173228346454
21
-1.3681102362204725
0
LINE
8
BLACK
6
CONTINUOUS
10
5.9114173228346454
20
-1.3681102362204725
11
6.0295275590551176
21
-1.3681102362204725
0
LINE
8
BLACK
6
CONTINUOUS
10
6.0295275590551176
20
-1.3681102362204725
11
6.0295275590551176
21
-1.4862204724409449
0
LINE
8
BLACK
6
CONTINUOUS
10
5.7881192125984251
20
-1.3699173228346457
11
5.7973442125984249
21
-1.3730842519685038
0
LINE
8
BLACK
6
CONTINUOUS
10
5.7973442125984249
20
-1.3730842519685038
11
5.8059221259842522
21
-1.3777263779527558
0
LINE
8
BLACK
6
CONTINUOUS
10
5.8059221259842522
20
-1.3777263779527558
11
5.8136189763779527
21
-1.3837170866141733
0
LINE
8
BLACK
6
CONTINUOUS
10
5.8136189763779527
20
-1.3837170866141733
11
5.8202248425196847
21
-1.3908929527559055
0
LINE
8
BLACK
6
CONTINUOUS
10
5.8202248425196847
20
-1.3908929527559055
11
5.8255594881889765
21
-1.3990582283464568
0
LINE
8
BLACK
6
CONTINUOUS
10
5.8255594881889765
20
-1.3990582283464568
11
5.8294774015748034
21
-1.4079901968503936
0
LINE
8
BLACK
6
CONTINUOUS
10
5.8294774015748034
20
-1.4079901968503936
11
5.8318717322834646
21
-1.4174451968503936
0
LINE
8
BLACK
6
CONTINUOUS
10
5.8318717322834646
20
-1.4174451968503936
11
5.8326771653543306
21
-1.4271653543307086
0
LINE
8
BLACK
6
CONTINUOUS
10
5.8326771653543306
20
-1.4271653543307086
11
5.8318717322834646
21
-1.4368855118110235
0
LINE
8
BLACK
6
CONTINUOUS
10
5.8318717322834646
20
-1.4368855118110235
11
5.8294774015748034
21
-1.4463405118110235
0
LINE
8
BLACK
6
CONTINUOUS
10
5.8294774015748034
20
-1.4463405118110235
11
5.8255594881889765
21
-1.4552724803149606
0
LINE
8
BLACK
6
CONTINUOUS
10
5.8255594881889765
20
-1.4552724803149606
11
5.8202248425196847
21
-1.4634377559055118
0
LINE
8
BLACK
6
CONTINUOUS
10
5.8202248425196847
20
-1.4634377559055118
11
5.8136189763779527
21
-1.4706136220472441
0
LINE
8
BLACK
6
CONTINUOUS
10
5.8136189763779527
20
-1.4706136220472441
11
5.8059221259842522
21
-1.4766043307086614
0
LINE
8
BLACK
6
CONTINUOUS
10
5.8059221259842522
20
-1.4766043307086614
11
5.7973442125984249
21
-1.4812464566929133
0
LINE
8
BLACK
6
CONTINUOUS
10
5.7973442125984249
20
-1.4812464566929133
11
5.7881192125984251
21
-1.4844133858267716
0
LINE
8
BLACK
6
CONTINUOUS
10
5.7881192125984251
20
-1.4844133858267716
11
5.7784987795275589
21
-1.486018779527559
0
LINE
8
BLACK
6
CONTINUOUS
10
5.7784987795275589
20
-1.486018779527559
11
5.76874531496063
21
-1.486018779527559
0
LINE
8
BLACK
6
CONTINUOUS
10
5.76874531496063
20
-1.486018779527559
11
5.7591248818897638
21
-1.4844133858267716
0
LINE
8
BLACK
6
CONTINUOUS
10
5.7591248818897638
20
-1.4844133858267716
11
5.749899881889764
21
-1.4812464566929133
0
LINE
8
BLACK
6
CONTINUOUS
10
5.749899881889764
20
-1.4812464566929133
11
5.7413219685039367
21
-1.4766043307086614
0
LINE
8
BLACK
6
CONTINUOUS
10
5.7413219685039367
20
-1.4766043307086614
11
5.7336251181102362
21
-1.4706136220472441
0
LINE
8
BLACK
6
CONTINUOUS
10
5.7336251181102362
20
-1.4706136220472441
11
5.7270192519685041
21
-1.4634377559055118
0
LINE
8
BLACK
6
CONTINUOUS
10
5.7270192519685041
20
-1.4634377559055118
11
5.7216846062992124
21
-1.4552724803149606
0
LINE
8
BLACK
6
CONTINUOUS
10
5.7216846062992124
20
-1.4552724803149606
11
5.7177666929133855
21
-1.4463405118110235
0
LINE
8
BLACK
6
CONTINUOUS
10
5.7177666929133855
20
-1.4463405118110235
11
5.7153723622047243
21
-1.4368855118110235
0
LINE
8
BLACK
6
CONTINUOUS
10
5.7153723622047243
20
-1.4368855118110235
11
5.7145669291338583
21
-1.4271653543307086
0
LINE
8
BLACK
6
CONTINUOUS
10
5.7145669291338583
20
-1.4271653543307086
11
5.7153723622047243
21
-1.4174451968503936
0
LINE
8
BLACK
6
CONTINUOUS
10
5.7153723622047243
20
-1.4174451968503936
11
5.7177666929133855
21
-1.4079901968503936
0
LINE
8
BLACK
6
CONTINUOUS
10
5.7177666929133855
20
-1.4079901968503936
11
5.7216846062992124
21
-1.3990582283464568
0
LINE
8
BLACK
6
CONTINUOUS
10
5.7216846062992124
20
-1.3990582283464568
11
5.7270192519685041
21
-1.3908929527559055
0
LINE
8
BLACK
6
CONTINUOUS
10
5.7270192519685041
20
-1.3908929527559055
11
5.7336251181102362
21
-1.3837170866141733
0
LINE
8
BLACK
6
CONTINUOUS
10
5.7336251181102362
20
-1.3837170866141733
11
5.7413219685039367
21
-1.3777263779527558
0
LINE
8
BLACK
6
CONTINUOUS
10
5.7413219685039367
20
-1.3777263779527558
11
5.749899881889764
21
-1.3730842519685038
0
LINE
8
BLACK
6
CONTINUOUS
10
5.749899881889764
20
-1.3730842519685038
11
5.7591248818897638
21
-1.3699173228346457
0
LINE
8
BLACK
6
CONTINUOUS
10
5.7591248818897638
20
-1.3699173228346457
11
5.76874531496063
21
-1.3683119291338581
0
LINE
8
BLACK
6
CONTINUOUS
10
5.76874531496063
20
-1.3683119291338581
11
5.7784987795275589
21
-1.3683119291338581
0
LINE
8
BLACK
6
CONTINUOUS
10
5.7784987795275589
20
-1.3683119291338581
11
5.7881192125984251
21
-1.3699173228346457
0
LINE
8
BLACK
6
CONTINUOUS
10
5.5492125984251963
20
-1.484251968503937
11
5.4311023622047241
21
-1.484251968503937
0
LINE
8
BLACK
6
CONTINUOUS
10
5.4311023622047241
20
-1.484251968503937
11
5.4311023622047241
21
-1.3661417322834646
0
LINE
8
BLACK
6
CONTINUOUS
10
5.4311023622047241
20
-1.3661417322834646
11
5.5492125984251963
21
-1.3661417322834646
0
LINE
8
BLACK
6
CONTINUOUS
10
5.5492125984251963
20
-1.3661417322834646
11
5.5492125984251963
21
-1.484251968503937
0
LINE
8
BLACK
6
CONTINUOUS
10
5.3078042519685038
20
-1.3679488188976379
11
5.3170292519685036
21
-1.3711157480314959
0
LINE
8
BLACK
6
CONTINUOUS
10
5.3170292519685036
20
-1.3711157480314959
11
5.3256071653543309
21
-1.3757578740157479
0
LINE
8
BLACK
6
CONTINUOUS
10
5.3256071653543309
20
-1.3757578740157479
11
5.3333040157480314
21
-1.3817485826771654
0
LINE
8
BLACK
6
CONTINUOUS
10
5.3333040157480314
20
-1.3817485826771654
11
5.3399098818897635
21
-1.3889244488188977
0
LINE
8
BLACK
6
CONTINUOUS
10
5.3399098818897635
20
-1.3889244488188977
11
5.3452445275590552
21
-1.3970897244094489
0
LINE
8
BLACK
6
CONTINUOUS
10
5.3452445275590552
20
-1.3970897244094489
11
5.3491624409448821
21
-1.4060216929133857
0
LINE
8
BLACK
6
CONTINUOUS
10
5.3491624409448821
20
-1.4060216929133857
11
5.3515567716535433
21
-1.4154766929133857
0
LINE
8
BLACK
6
CONTINUOUS
10
5.3515567716535433
20
-1.4154766929133857
11
5.3523622047244093
21
-1.4251968503937007
0
LINE
8
BLACK
6
CONTINUOUS
10
5.3523622047244093
20
-1.4251968503937007
11
5.3515567716535433
21
-1.4349170078740157
0
LINE
8
BLACK
6
CONTINUOUS
10
5.3515567716535433
20
-1.4349170078740157
11
5.3491624409448821
21
-1.4443720078740157
0
LINE
8
BLACK
6
CONTINUOUS
10
5.3491624409448821
20
-1.4443720078740157
11
5.3452445275590552
21
-1.4533039763779527
0
LINE
8
BLACK
6
CONTINUOUS
10
5.3452445275590552
20
-1.4533039763779527
11
5.3399098818897635
21
-1.461469251968504
0
LINE
8
BLACK
6
CONTINUOUS
10
5.3399098818897635
20
-1.461469251968504
11
5.3333040157480314
21
-1.4686451181102362
0
LINE
8
BLACK
6
CONTINUOUS
10
5.3333040157480314
20
-1.4686451181102362
11
5.3256071653543309
21
-1.4746358267716535
0
LINE
8
BLACK
6
CONTINUOUS
10
5.3256071653543309
20
-1.4746358267716535
11
5.3170292519685036
21
-1.4792779527559055
0
LINE
8
BLACK
6
CONTINUOUS
10
5.3170292519685036
20
-1.4792779527559055
11
5.3078042519685038
21
-1.4824448818897638
0
LINE
8
BLACK
6
CONTINUOUS
10
5.3078042519685038
20
-1.4824448818897638
11
5.2981838188976376
21
-1.4840502755905511
0
LINE
8
BLACK
6
CONTINUOUS
10
5.2981838188976376
20
-1.4840502755905511
11
5.2884303543307087
21
-1.4840502755905511
0
LINE
8
BLACK
6
CONTINUOUS
10
5.2884303543307087
20
-1.4840502755905511
11
5.2788099212598425
21
-1.4824448818897638
0
LINE
8
BLACK
6
CONTINUOUS
10
5.2788099212598425
20
-1.4824448818897638
11
5.2695849212598427
21
-1.4792779527559055
0
LINE
8
BLACK
6
CONTINUOUS
10
5.2695849212598427
20
-1.4792779527559055
11
5.2610070078740154
21
-1.4746358267716535
0
LINE
8
BLACK
6
CONTINUOUS
10
5.2610070078740154
20
-1.4746358267716535
11
5.2533101574803149
21
-1.4686451181102362
0
LINE
8
BLACK
6
CONTINUOUS
10
5.2533101574803149
20
-1.4686451181102362
11
5.2467042913385828
21
-1.461469251968504
0
LINE
8
BLACK
6
CONTINUOUS
10
5.2467042913385828
20
-1.461469251968504
11
5.2413696456692911
21
-1.4533039763779527
0
LINE
8
BLACK
6
CONTINUOUS
10
5.2413696456692911
20
-1.4533039763779527
11
5.2374517322834642
21
-1.4443720078740157
0
LINE
8
BLACK
6
CONTINUOUS
10
5.2374517322834642
20
-1.4443720078740157
11
5.235057401574803
21
-1.4349170078740157
0
LINE
8
BLACK
6
CONTINUOUS
10
5.235057401574803
20
-1.4349170078740157
11
5.234251968503937
21
-1.4251968503937007
0
LINE
8
BLACK
6
CONTINUOUS
10
5.234251968503937
20
-1.4251968503937007
11
5.235057401574803
21
-1.4154766929133857
0
LINE
8
BLACK
6
CONTINUOUS
10
5.235057401574803
20
-1.4154766929133857
11
5.2374517322834642
21
-1.4060216929133857
0
LINE
8
BLACK
6
CONTINUOUS
10
5.2374517322834642
20
-1.4060216929133857
11
5.2413696456692911
21
-1.3970897244094489
0
LINE
8
BLACK
6
CONTINUOUS
10
5.2413696456692911
20
-1.3970897244094489
11
5.2467042913385828
21
-1.3889244488188977
0
LINE
8
BLACK
6
CONTINUOUS
10
5.2467042913385828
20
-1.3889244488188977
11
5.2533101574803149
21
-1.3817485826771654
0
LINE
8
BLACK
6
CONTINUOUS
10
5.2533101574803149
20
-1.3817485826771654
11
5.2610070078740154
21
-1.3757578740157479
0
LINE
8
BLACK
6
CONTINUOUS
10
5.2610070078740154
20
-1.3757578740157479
11
5.2695849212598427
21
-1.3711157480314959
0
LINE
8
BLACK
6
CONTINUOUS
10
5.2695849212598427
20
-1.3711157480314959
11
5.2788099212598425
21
-1.3679488188976379
0
LINE
8
BLACK
6
CONTINUOUS
10
5.2788099212598425
20
-1.3679488188976379
11
5.2884303543307087
21
-1.3663434251968503
0
LINE
8
BLACK
6
CONTINUOUS
10
5.2884303543307087
20
-1.3663434251968503
11
5.2981838188976376
21
-1.3663434251968503
0
LINE
8
BLACK
6
CONTINUOUS
10
5.2981838188976376
20
-1.3663434251968503
11
5.3078042519685038
21
-1.3679488188976379
0
LINE
8
BLACK
6
CONTINUOUS
10
5.1109538582677168
20
-1.36598031496063
11
5.1201788582677166
21
-1.3691472440944881
0
LINE
8
BLACK
6
CONTINUOUS
10
5.1201788582677166
20
-1.3691472440944881
11
5.1287567716535429
21
-1.37378937007874
0
LINE
8
BLACK
6
CONTINUOUS
10
5.1287567716535429
20
-1.37378937007874
11
5.1364536220472443
21
-1.3797800787401575
0
LINE
8
BLACK
6
CONTINUOUS
10
5.1364536220472443
20
-1.3797800787401575
11
5.1430594881889764
21
-1.3869559448818898
0
LINE
8
BLACK
6
CONTINUOUS
10
5.1430594881889764
20
-1.3869559448818898
11
5.1483941338582673
21
-1.3951212204724408
0
LINE
8
BLACK
6
CONTINUOUS
10
5.1483941338582673
20
-1.3951212204724408
11
5.1523120472440942
21
-1.4040531889763779
0
LINE
8
BLACK
6
CONTINUOUS
10
5.1523120472440942
20
-1.4040531889763779
11
5.1547063779527562
21
-1.4135081889763779
0
LINE
8
BLACK
6
CONTINUOUS
10
5.1547063779527562
20
-1.4135081889763779
11
5.1555118110236222
21
-1.4232283464566928
0
LINE
8
BLACK
6
CONTINUOUS
10
5.1555118110236222
20
-1.4232283464566928
11
5.1547063779527562
21
-1.4329485039370078
0
LINE
8
BLACK
6
CONTINUOUS
10
5.1547063779527562
20
-1.4329485039370078
11
5.1523120472440942
21
-1.4424035039370078
0
LINE
8
BLACK
6
CONTINUOUS
10
5.1523120472440942
20
-1.4424035039370078
11
5.1483941338582673
21
-1.4513354724409449
0
LINE
8
BLACK
6
CONTINUOUS
10
5.1483941338582673
20
-1.4513354724409449
11
5.1430594881889764
21
-1.4595007480314961
0
LINE
8
BLACK
6
CONTINUOUS
10
5.1430594881889764
20
-1.4595007480314961
11
5.1364536220472443
21
-1.4666766141732284
0
LINE
8
BLACK
6
CONTINUOUS
10
5.1364536220472443
20
-1.4666766141732284
11
5.1287567716535429
21
-1.4726673228346456
0
LINE
8
BLACK
6
CONTINUOUS
10
5.1287567716535429
20
-1.4726673228346456
11
5.1201788582677166
21
-1.4773094488188976
0
LINE
8
BLACK
6
CONTINUOUS
10
5.1201788582677166
20
-1.4773094488188976
11
5.1109538582677168
21
-1.4804763779527559
0
LINE
8
BLACK
6
CONTINUOUS
10
5.1109538582677168
20
-1.4804763779527559
11
5.1013334251968505
21
-1.4820817716535433
0
LINE
8
BLACK
6
CONTINUOUS
10
5.1013334251968505
20
-1.4820817716535433
11
5.0915799606299208
21
-1.4820817716535433
0
LINE
8
BLACK
6
CONTINUOUS
10
5.0915799606299208
20
-1.4820817716535433
11
5.0819595275590554
21
-1.4804763779527559
0
LINE
8
BLACK
6
CONTINUOUS
10
5.0819595275590554
20
-1.4804763779527559
11
5.0727345275590547
21
-1.4773094488188976
0
LINE
8
BLACK
6
CONTINUOUS
10
5.0727345275590547
20
-1.4773094488188976
11
5.0641566141732284
21
-1.4726673228346456
0
LINE
8
BLACK
6
CONTINUOUS
10
5.0641566141732284
20
-1.4726673228346456
11
5.0564597637795279
21
-1.4666766141732284
0
LINE
8
BLACK
6
CONTINUOUS
10
5.0564597637795279
20
-1.4666766141732284
11
5.0498538976377949
21
-1.4595007480314961
0
LINE
8
BLACK
6
CONTINUOUS
10
5.0498538976377949
20
-1.4595007480314961
11
5.044519251968504
21
-1.4513354724409449
0
LINE
8
BLACK
6
CONTINUOUS
10
5.044519251968504
20
-1.4513354724409449
11
5.0406013385826771
21
-1.4424035039370078
0
LINE
8
BLACK
6
CONTINUOUS
10
5.0406013385826771
20
-1.4424035039370078
11
5.038207007874016
21
-1.4329485039370078
0
LINE
8
BLACK
6
CONTINUOUS
10
5.038207007874016
20
-1.4329485039370078
11
5.0374015748031491
21
-1.4232283464566928
0
LINE
8
BLACK
6
CONTINUOUS
10
5.0374015748031491
20
-1.4232283464566928
11
5.038207007874016
21
-1.4135081889763779
0
LINE
8
BLACK
6
CONTINUOUS
10
5.038207007874016
20
-1.4135081889763779
11
5.0406013385826771
21
-1.4040531889763779
0
LINE
8
BLACK
6
CONTINUOUS
10
5.0406013385826771
20
-1.4040531889763779
11
5.044519251968504
21
-1.3951212204724408
0
LINE
8
BLACK
6
CONTINUOUS
10
5.044519251968504
20
-1.3951212204724408
11
5.0498538976377949
21
-1.3869559448818898
0
LINE
8
BLACK
6
CONTINUOUS
10
5.0498538976377949
20
-1.3869559448818898
11
5.0564597637795279
21
-1.3797800787401575
0
LINE
8
BLACK
6
CONTINUOUS
10
5.0564597637795279
20
-1.3797800787401575
11
5.0641566141732284
21
-1.37378937007874
0
LINE
8
BLACK
6
CONTINUOUS
10
5.0641566141732284
20
-1.37378937007874
11
5.0727345275590547
21
-1.3691472440944881
0
LINE
8
BLACK
6
CONTINUOUS
10
5.0727345275590547
20
-1.3691472440944881
11
5.0819595275590554
21
-1.36598031496063
0
LINE
8
BLACK
6
CONTINUOUS
10
5.0819595275590554
20
-1.36598031496063
11
5.0915799606299208
21
-1.3643749212598424
0
LINE
8
BLACK
6
CONTINUOUS
10
5.0915799606299208
20
-1.3643749212598424
11
5.1013334251968505
21
-1.3643749212598424
0
LINE
8
BLACK
6
CONTINUOUS
10
5.1013334251968505
20
-1.3643749212598424
11
5.1109538582677168
21
-1.36598031496063
  0
ENDSEC
  0
EOF
