<?xml version="1.0" standalone="no"?>
 <!DOCTYPE svg PUBLIC "-//W3C//DTD SVG 1.1//EN" 
 "http://www.w3.org/Graphics/SVG/1.1/DTD/svg11.dtd"> 
<svg
  xmlns:svg="http://www.w3.org/2000/svg"
  xmlns="http://www.w3.org/2000/svg"
  xmlns:xlink="http://www.w3.org/1999/xlink"
  version="1.1"
  width="297.0022mm" height="210.0072mm" viewBox="0.0000 0.0000 297.0022 210.0072">
<title>SVG Image created as Timer_Flashar-B_Cu.svg date 2024/07/30 16:54:25 </title>
  <desc>Image generated by PCBNEW </desc>
<g style="fill:#000000; fill-opacity:1.0000;stroke:#000000; stroke-opacity:1.0000;
stroke-linecap:round; stroke-linejoin:round;"
 transform="translate(0 0) scale(1 1)">
</g>
<g style="fill:#000000; fill-opacity:1.0000; stroke:none;">
<circle cx="146.6500" cy="36.2500" r="1.5000" /> 
<path style="fill:#000000; fill-opacity:1.0000; stroke:none;fill-rule:evenodd;"
d="M 153.1500,37.7500
150.1500,37.7500
150.1500,34.7500
153.1500,34.7500
Z" /> 
</g>
<g style="fill:#000000; fill-opacity:1.0000; stroke:none;">
<circle cx="135.5050" cy="129.7600" r="0.7500" /> 
</g>
<g style="fill:#000000; fill-opacity:1.0000; stroke:none;">
<circle cx="138.2750" cy="129.7600" r="0.7500" /> 
</g>
<g style="fill:#000000; fill-opacity:1.0000; stroke:none;">
<circle cx="141.0450" cy="129.7600" r="0.7500" /> 
</g>
<g style="fill:#000000; fill-opacity:1.0000; stroke:none;">
<circle cx="143.8150" cy="129.7600" r="0.7500" /> 
</g>
<g style="fill:#000000; fill-opacity:1.0000; stroke:none;">
<circle cx="146.5850" cy="129.7600" r="0.7500" /> 
</g>
<g style="fill:#000000; fill-opacity:1.0000; stroke:none;">
<circle cx="136.8900" cy="132.6000" r="0.7500" /> 
</g>
<g style="fill:#000000; fill-opacity:1.0000; stroke:none;">
<circle cx="139.6600" cy="132.6000" r="0.7500" /> 
</g>
<g style="fill:#000000; fill-opacity:1.0000; stroke:none;">
<circle cx="142.4300" cy="132.6000" r="0.7500" /> 
</g>
<g style="fill:#000000; fill-opacity:1.0000; stroke:none;">
<circle cx="145.2000" cy="132.6000" r="0.7500" /> 
</g>
<g style="fill:#000000; fill-opacity:1.0000; stroke:none;">
<circle cx="128.5500" cy="131.1800" r="2.2875" /> 
</g>
<g style="fill:#000000; fill-opacity:1.0000; stroke:none;">
<circle cx="153.5400" cy="131.1800" r="2.2875" /> 
</g>
<g style="fill:#000000; fill-opacity:1.0000; stroke:none;">
<circle cx="150.7500" cy="85.0850" r="0.9000" /> 
</g>
<g style="fill:#000000; fill-opacity:1.0000; stroke:none;">
<circle cx="150.7500" cy="87.6250" r="0.9000" /> 
</g>
<g style="fill:#000000; fill-opacity:1.0000; stroke:none;">
<circle cx="148.2100" cy="85.0850" r="0.9000" /> 
</g>
<g style="fill:#000000; fill-opacity:1.0000; stroke:none;">
<circle cx="148.2100" cy="87.6250" r="0.9000" /> 
</g>
<g style="fill:#000000; fill-opacity:1.0000; stroke:none;">
<circle cx="145.6700" cy="85.0850" r="0.9000" /> 
</g>
<g style="fill:#000000; fill-opacity:1.0000; stroke:none;">
<circle cx="145.6700" cy="87.6250" r="0.9000" /> 
</g>
<g style="fill:#000000; fill-opacity:1.0000; stroke:none;">
<circle cx="129.4500" cy="36.1500" r="1.5000" /> 
</g>
<g style="fill:#000000; fill-opacity:1.0000; stroke:none;">
<circle cx="134.4500" cy="36.2000" r="1.5000" /> 
<path style="fill:#000000; fill-opacity:1.0000; stroke:none;fill-rule:evenodd;"
d="M 140.9500,37.7000
137.9500,37.7000
137.9500,34.7000
140.9500,34.7000
Z" /> 
<path style="fill:#000000; fill-opacity:1.0000; stroke:none;fill-rule:evenodd;"
d="M 138.2250,102.6250
138.2250,103.8250
137.0250,103.8250
137.0250,102.6250
Z" /> 
</g>
<g style="fill:#000000; fill-opacity:1.0000; stroke:none;">
<circle cx="137.6250" cy="100.6850" r="0.6000" /> 
</g>
<g style="fill:#000000; fill-opacity:1.0000; stroke:none;">
<circle cx="130.0050" cy="100.6850" r="0.6000" /> 
</g>
<g style="fill:#000000; fill-opacity:1.0000; stroke:none;">
<circle cx="130.0050" cy="103.2250" r="0.6000" /> 
<path style="fill:#000000; fill-opacity:1.0000; stroke:none;fill-rule:evenodd;"
d="M 137.9200,90.9000
136.4200,90.9000
136.4200,89.4000
137.9200,89.4000
Z" /> 
</g>
<g style="fill:#000000; fill-opacity:1.0000; stroke:none;">
<circle cx="137.1700" cy="82.5300" r="0.7500" /> 
</g>
<g style="fill:#000000; fill-opacity:1.0000; stroke:none;">
<circle cx="137.1700" cy="77.4500" r="0.7500" /> 
</g>
<g style="fill:#000000; fill-opacity:1.0000; stroke:none;">
<circle cx="137.1700" cy="72.3700" r="0.7500" /> 
</g>
<g style="fill:#000000; fill-opacity:1.0000; stroke:none;">
<circle cx="129.5500" cy="72.3700" r="0.7500" /> 
</g>
<g style="fill:#000000; fill-opacity:1.0000; stroke:none;">
<circle cx="129.5500" cy="77.4500" r="0.7500" /> 
</g>
<g style="fill:#000000; fill-opacity:1.0000; stroke:none;">
<circle cx="129.5500" cy="82.5300" r="0.7500" /> 
</g>
<g style="fill:#000000; fill-opacity:1.0000; stroke:none;">
<circle cx="129.5500" cy="90.1500" r="0.7500" /> 
</g>
<g style="fill:#000000; fill-opacity:1.0000; stroke:none;">
<circle cx="142.5000" cy="94.0500" r="0.4000" /> 
</g>
<g style="fill:#000000; fill-opacity:1.0000; stroke:none;">
<circle cx="134.4000" cy="64.8500" r="0.4000" /> 
</g>
<g style="fill:#000000; fill-opacity:1.0000; stroke:none;">
<circle cx="151.8500" cy="98.5000" r="0.4000" /> 
</g>
<g style="fill:#000000; fill-opacity:1.0000; stroke:none;">
<circle cx="139.3000" cy="94.0500" r="0.4000" /> 
</g>
<g style="fill:#000000; fill-opacity:1.0000; stroke:none;">
<circle cx="132.4000" cy="114.6500" r="0.4000" /> 
</g>
<g style="fill:#000000; fill-opacity:1.0000; stroke:none;">
<circle cx="140.9000" cy="112.9000" r="0.4000" /> 
</g>
<g style="fill:#000000; fill-opacity:1.0000; stroke:none;">
<circle cx="151.4500" cy="96.5000" r="0.4000" /> 
</g>
<g style="fill:#000000; fill-opacity:1.0000; stroke:none;">
<circle cx="145.2000" cy="113.8000" r="0.4000" /> 
</g>
<g style="fill:#000000; fill-opacity:1.0000; stroke:none;">
<circle cx="145.2000" cy="101.5500" r="0.4000" /> 
</g>
<g style="fill:#000000; fill-opacity:1.0000; stroke:none;">
<circle cx="147.1000" cy="113.8500" r="0.4000" /> 
</g>
<g style="fill:#000000; fill-opacity:1.0000; stroke:none;">
<circle cx="146.3500" cy="101.5000" r="0.4000" /> 
</g>
<g style="fill:#000000; fill-opacity:1.0000; stroke:none;">
<circle cx="146.6000" cy="97.9500" r="0.4000" /> 
</g>
<g style="fill:#000000; fill-opacity:1.0000; stroke:none;">
<circle cx="147.8500" cy="98.0500" r="0.4000" /> 
</g>
<g style="fill:#000000; fill-opacity:1.0000; stroke:none;">
<circle cx="150.6000" cy="104.0000" r="0.4000" /> 
</g>
<g style="fill:#000000; fill-opacity:1.0000; stroke:none;">
<circle cx="154.8500" cy="103.5000" r="0.4000" /> 
</g>
<g style="fill:#000000; fill-opacity:1.0000; stroke:none;">
<circle cx="150.2000" cy="95.4500" r="0.4000" /> 
</g>
<g style="fill:#000000; fill-opacity:1.0000; stroke:none;">
<circle cx="146.6500" cy="92.0000" r="0.4000" /> 
</g>
<g style="fill:#000000; fill-opacity:1.0000; stroke:none;">
<circle cx="152.6000" cy="65.1500" r="0.5000" /> 
</g>
<g style="fill:#000000; fill-opacity:1.0000; stroke:none;">
<circle cx="131.9500" cy="57.9500" r="0.5000" /> 
</g>
<g style="fill:#000000; fill-opacity:1.0000; stroke:none;">
<circle cx="128.2000" cy="113.1500" r="0.4000" /> 
</g>
<g style="fill:#000000; fill-opacity:1.0000; stroke:none;">
<circle cx="130.1000" cy="114.6000" r="0.4000" /> 
</g>
<g style="fill:#000000; fill-opacity:1.0000; stroke:none;">
<circle cx="153.5500" cy="97.5000" r="0.4000" /> 
</g>
<g style="fill:#000000; fill-opacity:1.0000; stroke:none;">
<circle cx="155.1000" cy="114.9000" r="0.4000" /> 
</g>
<g style="fill:#000000; fill-opacity:1.0000; stroke:none;">
<circle cx="138.6000" cy="114.9500" r="0.4000" /> 
</g>
<g style="fill:none; 
stroke:#000000; stroke-width:1.0000; stroke-opacity:1; 
stroke-linecap:round; stroke-linejoin:round;">
<path d="M142.5000 111.3000
L140.9000 112.9000
" />
</g>
<g style="fill:none; 
stroke:#000000; stroke-width:0.5000; stroke-opacity:1; 
stroke-linecap:round; stroke-linejoin:round;">
<path d="M151.5500 96.5000
L151.5500 98.2000
" />
<path d="M151.5500 98.2000
L151.8500 98.5000
" />
<path d="M140.9000 112.9000
L134.1500 112.9000
" />
<path d="M134.1500 112.9000
L132.4000 114.6500
" />
</g>
<g style="fill:none; 
stroke:#000000; stroke-width:1.0000; stroke-opacity:1; 
stroke-linecap:round; stroke-linejoin:round;">
<path d="M142.5000 94.0500
L142.5000 111.3000
" />
<path d="M151.4500 96.5000
L151.5500 96.5000
" />
<path d="M136.5500 94.0500
L139.3000 94.0500
" />
</g>
<g style="fill:none; 
stroke:#000000; stroke-width:0.5000; stroke-opacity:1; 
stroke-linecap:round; stroke-linejoin:round;">
<path d="M146.5850 128.8350
L146.5850 129.7600
" />
</g>
<g style="fill:none; 
stroke:#000000; stroke-width:1.0000; stroke-opacity:1; 
stroke-linecap:round; stroke-linejoin:round;">
<path d="M134.4000 64.8500
L134.4000 91.9000
" />
<path d="M134.4000 91.9000
L136.5500 94.0500
" />
</g>
<g style="fill:none; 
stroke:#000000; stroke-width:0.5000; stroke-opacity:1; 
stroke-linecap:round; stroke-linejoin:round;">
<path d="M132.4000 115.5750
L146.5850 129.7600
" />
</g>
<g style="fill:none; 
stroke:#000000; stroke-width:0.3000; stroke-opacity:1; 
stroke-linecap:round; stroke-linejoin:round;">
<path d="M151.8500 88.7250
L150.7500 87.6250
" />
</g>
<g style="fill:none; 
stroke:#000000; stroke-width:0.5000; stroke-opacity:1; 
stroke-linecap:round; stroke-linejoin:round;">
<path d="M132.4000 114.6500
L132.4000 115.5750
" />
</g>
<g style="fill:none; 
stroke:#000000; stroke-width:0.3000; stroke-opacity:1; 
stroke-linecap:round; stroke-linejoin:round;">
<path d="M151.8500 98.5000
L151.8500 88.7250
" />
<path d="M145.2000 113.8000
L145.2000 101.5500
" />
<path d="M146.3500 113.1000
L147.1000 113.8500
" />
<path d="M146.3500 101.5000
L146.3500 113.1000
" />
<path d="M146.6000 97.9500
L145.6700 97.0200
" />
<path d="M145.6700 97.0200
L145.6700 87.6250
" />
<path d="M150.6000 104.0000
L147.8500 101.2500
" />
<path d="M147.8500 101.2500
L147.8500 98.0500
" />
<path d="M154.8000 103.5000
L150.2000 98.9000
" />
<path d="M154.8500 103.5000
L154.8000 103.5000
" />
<path d="M150.2000 98.9000
L150.2000 95.4500
" />
<path d="M148.2100 90.4400
L148.2100 87.6250
" />
<path d="M146.6500 92.0000
L148.2100 90.4400
" />
</g>
<g style="fill:none; 
stroke:#000000; stroke-width:1.0000; stroke-opacity:1; 
stroke-linecap:round; stroke-linejoin:round;">
<path d="M152.6000 63.5000
L152.6000 67.1000
" />
<path d="M139.2536 42.3036
L134.4500 37.5000
" />
<path d="M151.6500 36.2500
L145.5964 42.3036
" />
<path d="M145.5964 42.3036
L145.5964 56.4964
" />
<path d="M134.4500 37.5000
L134.4500 36.2000
" />
<path d="M145.2429 42.4500
L139.6071 42.4500
" />
<path d="M145.5964 56.4964
L152.6000 63.5000
" />
<path d="M152.6000 67.1000
L137.1700 82.5300
" />
<path d="M145.2429 42.4500 A0.5000 0.5000 0.0 0 0 145.5964 42.3036" />
<path d="M139.2536 42.3036 A0.5000 0.5000 0.0 0 0 139.6071 42.4500" />
</g>
<g style="fill:none; 
stroke:#000000; stroke-width:0.8000; stroke-opacity:1; 
stroke-linecap:round; stroke-linejoin:round;">
<path d="M126.8000 100.0500
L129.9750 103.2250
" />
<path d="M129.9750 103.2250
L130.0050 103.2250
" />
<path d="M128.2000 113.1500
L128.2000 105.0300
" />
<path d="M129.5500 90.1500
L127.3500 90.1500
" />
<path d="M128.2000 105.0300
L130.0050 103.2250
" />
<path d="M132.1500 57.9500
L132.1500 87.5500
" />
<path d="M132.1500 87.5500
L129.5500 90.1500
" />
<path d="M127.3500 90.1500
L126.8000 90.7000
" />
<path d="M126.8000 90.7000
L126.8000 100.0500
" />
<path d="M132.1500 57.9500
L131.9500 57.9500
" />
</g>
<g style="fill:none; 
stroke:#000000; stroke-width:0.5000; stroke-opacity:1; 
stroke-linecap:round; stroke-linejoin:round;">
<path d="M140.9000 81.7500
L147.4150 81.7500
" />
</g>
<g style="fill:none; 
stroke:#000000; stroke-width:0.3000; stroke-opacity:1; 
stroke-linecap:round; stroke-linejoin:round;">
<path d="M150.7500 85.2500
L150.7500 85.0850
" />
</g>
<g style="fill:none; 
stroke:#000000; stroke-width:0.5000; stroke-opacity:1; 
stroke-linecap:round; stroke-linejoin:round;">
<path d="M147.4150 81.7500
L150.7500 85.0850
" />
<path d="M130.1000 114.6000
L140.9000 103.8000
" />
</g>
<g style="fill:none; 
stroke:#000000; stroke-width:0.3000; stroke-opacity:1; 
stroke-linecap:round; stroke-linejoin:round;">
<path d="M153.5500 88.0500
L150.7500 85.2500
" />
</g>
<g style="fill:none; 
stroke:#000000; stroke-width:0.5000; stroke-opacity:1; 
stroke-linecap:round; stroke-linejoin:round;">
<path d="M140.9000 103.8000
L140.9000 81.7500
" />
</g>
<g style="fill:none; 
stroke:#000000; stroke-width:0.3000; stroke-opacity:1; 
stroke-linecap:round; stroke-linejoin:round;">
<path d="M153.5500 97.5000
L153.5500 88.0500
" />
</g>
<g style="fill:none; 
stroke:#000000; stroke-width:0.5000; stroke-opacity:1; 
stroke-linecap:round; stroke-linejoin:round;">
<path d="M155.0500 114.9500
L155.1000 114.9000
" />
<path d="M138.6000 114.9500
L155.0500 114.9500
" />
<path style="fill:#000000; fill-opacity:1.0000; stroke:none;fill-rule:evenodd;"
d="M 157.5430,31.9947
157.5888,32.0475
157.6000,32.0990
157.6000,141.1760
157.5803,141.2430
157.5275,141.2888
157.4760,141.3000
124.6740,141.3000
124.6070,141.2803
124.5612,141.2275
124.5500,141.1760
124.5500,131.1800
125.4571,131.1800
125.4766,131.5263
125.4766,131.5263
125.5347,131.8682
125.5347,131.8682
125.6307,132.2015
125.6307,132.2015
125.7634,132.5219
125.9312,132.8255
126.1319,133.1084
126.3630,133.3670
126.6216,133.5981
126.9045,133.7988
127.2081,133.9666
127.5285,134.0993
127.8618,134.1953
128.2037,134.2534
128.5500,134.2729
128.8963,134.2534
129.2382,134.1953
129.5715,134.0993
129.8919,133.9666
130.1955,133.7988
130.4784,133.5981
130.7370,133.3670
130.9681,133.1084
131.1688,132.8255
131.3366,132.5219
131.4693,132.2015
131.5653,131.8682
131.6234,131.5263
131.6429,131.1800
131.6234,130.8337
131.5653,130.4918
131.4693,130.1585
131.3366,129.8381
131.2934,129.7600
133.9497,129.7600
133.9689,130.0033
133.9689,130.0033
133.9689,130.0033
134.0135,130.1892
134.0258,130.2406
134.1192,130.4661
134.2467,130.6742
134.2467,130.6742
134.3004,130.7371
134.4052,130.8598
134.5489,130.9825
134.5908,131.0183
134.5908,131.0183
134.7989,131.1458
135.0244,131.2392
135.0244,131.2392
135.0244,131.2392
135.0244,131.2392
135.2617,131.2961
135.5050,131.3153
135.6817,131.3014
135.7501,131.3158
135.7998,131.3648
135.8152,131.4330
135.7912,131.4986
135.7857,131.5055
135.6317,131.6858
135.6317,131.6858
135.5042,131.8939
135.4108,132.1194
135.3539,132.3567
135.3347,132.6000
135.3539,132.8433
135.4108,133.0806
135.5042,133.3061
135.6317,133.5142
135.6317,133.5142
135.6854,133.5771
135.7902,133.6998
135.9062,133.7988
135.9758,133.8583
135.9758,133.8583
136.1839,133.9858
136.4094,134.0792
136.4094,134.0792
136.4094,134.0792
136.4094,134.0792
136.6467,134.1361
136.8900,134.1553
137.1333,134.1361
137.3706,134.0792
137.5961,133.9858
137.8042,133.8583
137.9898,133.6998
138.1483,133.5142
138.1693,133.4799
138.2211,133.4330
138.2900,133.4216
138.3542,133.4492
138.3807,133.4799
138.4017,133.5142
138.4017,133.5142
138.4734,133.5981
138.5602,133.6998
138.6762,133.7988
138.7458,133.8583
138.7458,133.8583
138.9539,133.9858
139.1794,134.0792
139.1794,134.0792
139.1794,134.0792
139.1794,134.0792
139.4167,134.1361
139.6600,134.1553
139.9033,134.1361
140.1406,134.0792
140.3661,133.9858
140.5742,133.8583
140.7598,133.6998
140.9183,133.5142
140.9393,133.4799
140.9911,133.4330
141.0600,133.4216
141.1242,133.4492
141.1507,133.4799
141.1717,133.5142
141.1717,133.5142
141.2434,133.5981
141.3302,133.6998
141.4462,133.7988
141.5158,133.8583
141.5158,133.8583
141.7239,133.9858
141.9494,134.0792
141.9494,134.0792
141.9494,134.0792
141.9494,134.0792
142.1867,134.1361
142.4300,134.1553
142.6733,134.1361
142.9106,134.0792
143.1361,133.9858
143.3442,133.8583
143.5298,133.6998
143.6883,133.5142
143.7093,133.4799
143.7611,133.4330
143.8300,133.4216
143.8942,133.4492
143.9207,133.4799
143.9417,133.5142
143.9417,133.5142
144.0134,133.5981
144.1002,133.6998
144.2162,133.7988
144.2858,133.8583
144.2858,133.8583
144.4939,133.9858
144.7194,134.0792
144.7194,134.0792
144.7194,134.0792
144.7194,134.0792
144.9567,134.1361
145.2000,134.1553
145.4433,134.1361
145.6806,134.0792
145.9061,133.9858
146.1142,133.8583
146.2998,133.6998
146.4583,133.5142
146.5858,133.3061
146.6792,133.0806
146.7361,132.8433
146.7553,132.6000
146.7361,132.3567
146.6792,132.1194
146.5858,131.8939
146.5858,131.8939
146.4583,131.6858
146.4583,131.6858
146.4225,131.6439
146.2998,131.5002
146.1412,131.3648
146.1142,131.3417
146.1142,131.3417
145.9061,131.2142
145.8235,131.1800
150.4471,131.1800
150.4666,131.5263
150.4666,131.5263
150.5247,131.8682
150.5247,131.8682
150.6207,132.2015
150.6207,132.2015
150.7534,132.5219
150.9212,132.8255
151.1219,133.1084
151.3530,133.3670
151.6116,133.5981
151.8945,133.7988
152.1981,133.9666
152.5185,134.0993
152.8518,134.1953
153.1937,134.2534
153.5400,134.2729
153.8863,134.2534
154.2282,134.1953
154.5615,134.0993
154.8819,133.9666
155.1855,133.7988
155.4684,133.5981
155.7270,133.3670
155.9581,133.1084
156.1588,132.8255
156.3266,132.5219
156.4593,132.2015
156.5553,131.8682
156.6134,131.5263
156.6329,131.1800
156.6134,130.8337
156.5553,130.4918
156.4593,130.1585
156.3266,129.8381
156.1588,129.5345
155.9581,129.2516
155.7270,128.9930
155.4684,128.7619
155.1855,128.5612
154.8819,128.3934
154.8356,128.3742
154.7982,128.3588
154.5615,128.2607
154.5615,128.2607
154.5615,128.2607
154.2282,128.1647
154.2282,128.1647
153.8863,128.1066
153.8863,128.1066
153.5400,128.0871
153.1937,128.1066
153.1937,128.1066
152.8518,128.1647
152.8518,128.1647
152.5185,128.2607
152.1981,128.3934
151.8945,128.5612
151.6116,128.7619
151.3530,128.9930
151.1219,129.2516
150.9212,129.5345
150.7534,129.8381
150.6207,130.1585
150.5247,130.4918
150.5247,130.4918
150.4666,130.8337
150.4666,130.8337
150.4471,131.1800
145.8235,131.1800
145.6806,131.1208
145.6806,131.1208
145.5750,131.0955
145.4433,131.0639
145.4433,131.0639
145.4433,131.0639
145.2279,131.0469
145.2000,131.0447
145.2000,131.0447
145.0233,131.0586
144.9549,131.0442
144.9052,130.9952
144.8898,130.9270
144.9138,130.8614
144.9193,130.8545
145.0733,130.6742
145.2008,130.4661
145.2076,130.4496
145.2502,130.3468
145.2940,130.2924
145.3603,130.2704
145.4280,130.2876
145.4756,130.3388
145.4771,130.3419
145.4983,130.3874
145.5419,130.4496
146.1020,129.8894
146.1191,129.9530
146.1849,130.0670
146.2780,130.1601
146.3920,130.2259
146.4556,130.2430
145.8954,130.8031
145.9576,130.8467
146.1558,130.9391
146.1558,130.9391
146.3671,130.9957
146.3671,130.9957
146.5850,131.0148
146.5850,131.0148
146.8029,130.9957
146.8029,130.9957
147.0142,130.9391
147.0142,130.9391
147.2124,130.8467
147.2124,130.8467
147.2746,130.8031
146.7144,130.2430
146.7780,130.2259
146.8920,130.1601
146.9851,130.0670
147.0509,129.9530
147.0680,129.8894
147.6281,130.4496
147.6717,130.3874
147.6717,130.3874
147.7641,130.1892
147.7641,130.1891
147.8207,129.9779
147.8207,129.9779
147.8398,129.7600
147.8398,129.7600
147.8207,129.5421
147.8207,129.5421
147.7641,129.3308
147.7641,129.3308
147.6717,129.1326
147.6717,129.1326
147.6281,129.0704
147.6281,129.0704
147.0680,129.6306
147.0509,129.5670
146.9851,129.4530
146.8920,129.3599
146.7780,129.2941
146.7144,129.2770
147.2746,128.7169
147.2124,128.6733
147.0142,128.5809
147.0142,128.5809
146.8029,128.5243
146.8029,128.5243
146.5850,128.5052
146.5850,128.5052
146.3671,128.5243
146.3671,128.5243
146.1558,128.5809
146.1558,128.5809
145.9576,128.6733
145.8954,128.7169
146.4556,129.2770
146.3920,129.2941
146.2780,129.3599
146.1849,129.4530
146.1191,129.5670
146.1020,129.6306
145.5419,129.0704
145.4983,129.1326
145.4771,129.1781
145.4309,129.2306
145.3637,129.2497
145.2969,129.2295
145.2515,129.1763
145.2502,129.1732
145.2008,129.0539
145.2008,129.0539
145.0733,128.8458
145.0733,128.8458
145.0375,128.8039
144.9148,128.6602
144.7921,128.5554
144.7292,128.5017
144.7292,128.5017
144.5211,128.3742
144.2956,128.2808
144.2956,128.2808
144.1900,128.2555
144.0583,128.2239
144.0583,128.2239
144.0583,128.2239
143.8150,128.2047
143.5717,128.2239
143.3344,128.2808
143.1089,128.3742
142.9008,128.5017
142.9008,128.5017
142.7152,128.6602
142.5567,128.8458
142.5357,128.8801
142.4839,128.9270
142.4150,128.9384
142.3508,128.9108
142.3243,128.8801
142.3160,128.8667
142.3033,128.8458
142.1448,128.6602
142.0221,128.5554
141.9592,128.5017
141.9592,128.5017
141.7511,128.3742
141.5256,128.2808
141.5256,128.2808
141.4200,128.2555
141.2883,128.2239
141.2883,128.2239
141.2883,128.2239
141.0450,128.2047
140.8017,128.2239
140.5644,128.2808
140.3389,128.3742
140.1308,128.5017
140.1308,128.5017
139.9452,128.6602
139.7867,128.8458
139.7657,128.8801
139.7139,128.9270
139.6450,128.9384
139.5808,128.9108
139.5543,128.8801
139.5460,128.8667
139.5333,128.8458
139.3748,128.6602
139.2521,128.5554
139.1892,128.5017
139.1892,128.5017
138.9811,128.3742
138.7556,128.2808
138.7556,128.2808
138.6500,128.2555
138.5183,128.2239
138.5183,128.2239
138.5183,128.2239
138.2750,128.2047
138.0317,128.2239
137.7944,128.2808
137.5689,128.3742
137.3608,128.5017
137.3608,128.5017
137.1752,128.6602
137.0167,128.8458
136.9957,128.8801
136.9439,128.9270
136.8750,128.9384
136.8108,128.9108
136.7843,128.8801
136.7760,128.8667
136.7633,128.8458
136.6048,128.6602
136.4821,128.5554
136.4192,128.5017
136.4192,128.5017
136.2111,128.3742
135.9856,128.2808
135.9856,128.2808
135.8800,128.2555
135.7483,128.2239
135.7483,128.2239
135.7483,128.2239
135.5050,128.2047
135.2617,128.2239
135.0244,128.2808
134.7989,128.3742
134.5908,128.5017
134.5908,128.5017
134.4052,128.6602
134.2467,128.8458
134.2467,128.8458
134.1192,129.0539
134.0258,129.2794
133.9689,129.5167
133.9497,129.7600
131.2934,129.7600
131.1688,129.5345
130.9681,129.2516
130.7370,128.9930
130.4784,128.7619
130.1955,128.5612
129.8919,128.3934
129.8456,128.3742
129.8082,128.3588
129.5715,128.2607
129.5715,128.2607
129.5715,128.2607
129.2382,128.1647
129.2382,128.1647
128.8963,128.1066
128.8963,128.1066
128.5500,128.0871
128.2037,128.1066
128.2037,128.1066
127.8618,128.1647
127.8618,128.1647
127.5285,128.2607
127.2081,128.3934
126.9045,128.5612
126.6216,128.7619
126.3630,128.9930
126.1319,129.2516
125.9312,129.5345
125.7634,129.8381
125.6307,130.1585
125.5347,130.4918
125.5347,130.4918
125.4766,130.8337
125.4766,130.8337
125.4571,131.1800
124.5500,131.1800
124.5500,123.1287
126.8495,123.1287
126.8495,123.3713
126.8812,123.6118
126.9439,123.8461
127.0368,124.0702
127.0368,124.0702
127.1581,124.2803
127.1581,124.2803
127.1581,124.2803
127.3057,124.4727
127.3057,124.4727
127.4773,124.6443
127.4773,124.6443
127.6697,124.7919
127.8798,124.9132
128.1039,125.0061
128.3382,125.0688
128.5186,125.0926
128.5787,125.1005
128.5787,125.1005
128.8213,125.1005
128.8694,125.0942
129.0618,125.0688
129.2961,125.0061
129.5202,124.9132
129.7303,124.7919
129.9227,124.6443
130.0943,124.4727
130.2419,124.2803
130.3632,124.0702
130.4561,123.8461
130.5188,123.6118
130.5505,123.3713
130.5505,123.1287
130.5505,123.1287
151.8495,123.1287
151.8495,123.3713
151.8812,123.6118
151.9439,123.8461
152.0368,124.0702
152.0368,124.0702
152.1581,124.2803
152.1581,124.2803
152.1581,124.2803
152.3057,124.4727
152.3057,124.4727
152.4773,124.6443
152.4773,124.6443
152.6697,124.7919
152.8798,124.9132
153.1039,125.0061
153.3382,125.0688
153.5186,125.0926
153.5787,125.1005
153.5787,125.1005
153.8213,125.1005
153.8694,125.0942
154.0618,125.0688
154.2961,125.0061
154.5202,124.9132
154.7303,124.7919
154.9227,124.6443
155.0943,124.4727
155.2419,124.2803
155.3632,124.0702
155.4561,123.8461
155.5188,123.6118
155.5505,123.3713
155.5505,123.1287
155.5188,122.8882
155.4561,122.6539
155.3632,122.4298
155.2419,122.2197
155.0943,122.0273
155.0943,122.0273
154.9227,121.8557
154.9227,121.8557
154.7303,121.7081
154.7303,121.7081
154.7303,121.7081
154.5202,121.5868
154.5202,121.5868
154.2961,121.4939
154.0618,121.4312
153.8213,121.3995
153.8213,121.3995
153.5787,121.3995
153.5787,121.3995
153.3382,121.4312
153.1039,121.4939
152.8798,121.5868
152.8798,121.5868
152.6697,121.7081
152.4773,121.8557
152.4773,121.8557
152.3057,122.0273
152.3057,122.0273
152.1581,122.2197
152.0368,122.4298
152.0368,122.4298
151.9439,122.6539
151.8812,122.8882
151.8495,123.1287
130.5505,123.1287
130.5188,122.8882
130.4561,122.6539
130.3632,122.4298
130.2419,122.2197
130.0943,122.0273
130.0943,122.0273
129.9227,121.8557
129.9227,121.8557
129.7303,121.7081
129.7303,121.7081
129.7303,121.7081
129.5202,121.5868
129.5202,121.5868
129.2961,121.4939
129.0618,121.4312
128.8213,121.3995
128.8213,121.3995
128.5787,121.3995
128.5787,121.3995
128.3382,121.4312
128.1039,121.4939
127.8798,121.5868
127.8798,121.5868
127.6697,121.7081
127.4773,121.8557
127.4773,121.8557
127.3057,122.0273
127.3057,122.0273
127.1581,122.2197
127.0368,122.4298
127.0368,122.4298
126.9439,122.6539
126.8812,122.8882
126.8495,123.1287
124.5500,123.1287
124.5500,90.6055
125.5995,90.6055
125.5995,100.1445
125.6291,100.3311
125.6875,100.5108
125.7732,100.6792
125.8843,100.8321
125.8843,100.8321
128.2046,103.1523
128.2380,103.2136
128.2331,103.2833
128.2046,103.3277
127.2843,104.2479
127.2482,104.2976
127.1768,104.3959
127.1768,104.3959
127.1732,104.4008
127.1732,104.4008
127.0875,104.5692
127.0291,104.7489
126.9995,104.9355
126.9995,113.0888
126.9990,113.1002
126.9944,113.1500
126.9944,113.1500
126.9990,113.1998
126.9995,113.2112
126.9995,113.2445
127.0076,113.2955
127.0086,113.3034
127.0149,113.3715
127.0149,113.3715
127.0235,113.4019
127.0267,113.4165
127.0291,113.4311
127.0507,113.4977
127.0520,113.5021
127.0738,113.5785
127.0758,113.5855
127.0758,113.5855
127.0816,113.5973
127.0854,113.6064
127.0856,113.6063
127.0875,113.6108
127.1276,113.6896
127.1281,113.6906
127.1749,113.7847
127.1749,113.7847
127.2346,113.8637
127.2359,113.8655
127.2843,113.9321
127.2843,113.9321
127.2861,113.9339
127.2974,113.9468
127.3090,113.9622
127.3686,114.0166
127.3728,114.0205
127.4179,114.0657
127.4179,114.0657
127.4349,114.0780
127.4455,114.0867
127.4734,114.1121
127.5264,114.1449
127.5340,114.1500
127.5708,114.1768
127.5708,114.1768
127.6059,114.1946
127.6149,114.1997
127.6626,114.2292
127.7035,114.2451
127.7035,114.2451
127.7150,114.2502
127.7392,114.2625
127.7941,114.2804
127.8006,114.2827
127.8701,114.3096
127.8701,114.3096
127.8701,114.3096
127.8951,114.3143
127.9106,114.3183
127.9189,114.3209
127.9590,114.3273
127.9941,114.3329
127.9975,114.3334
128.0888,114.3505
128.0888,114.3505
128.3112,114.3505
128.3112,114.3505
128.4025,114.3334
128.4059,114.3329
128.4811,114.3209
128.4894,114.3182
128.5049,114.3143
128.5299,114.3096
128.5903,114.2862
128.5994,114.2827
128.6059,114.2804
128.6608,114.2625
128.6850,114.2502
128.6965,114.2451
128.7374,114.2292
128.7374,114.2292
128.7422,114.2268
128.8110,114.2146
128.8755,114.2414
128.9153,114.2989
128.9176,114.3687
128.9168,114.3718
128.9149,114.3785
128.8944,114.6000
128.8944,114.6000
128.9149,114.8215
128.9149,114.8215
128.9758,115.0355
128.9758,115.0355
129.0749,115.2347
129.0749,115.2347
129.2090,115.4122
129.3734,115.5621
129.3734,115.5621
129.5626,115.6792
129.5626,115.6792
129.5626,115.6792
129.7701,115.7596
129.9888,115.8005
129.9888,115.8005
130.2112,115.8005
130.2112,115.8005
130.4299,115.7596
130.6374,115.6792
130.8266,115.5621
130.9910,115.4122
131.1251,115.2347
131.2242,115.0355
131.2449,114.9629
131.2765,114.9092
141.5697,104.6160
141.5697,104.6160
141.7160,104.4697
141.8309,104.2976
141.9101,104.1064
141.9505,103.9035
141.9505,82.9245
141.9702,82.8575
142.0230,82.8117
142.0745,82.8005
146.9285,82.8005
146.9955,82.8202
147.0162,82.8368
147.5242,83.3448
147.5576,83.4061
147.5527,83.4758
147.5108,83.5317
147.4903,83.5442
147.3574,83.6082
147.1468,83.7518
147.0243,83.8654
146.9618,83.8965
146.8924,83.8890
146.8557,83.8654
146.7332,83.7518
146.5226,83.6082
146.5226,83.6082
146.5226,83.6082
146.5226,83.6082
146.2930,83.4976
146.2930,83.4976
146.0495,83.4225
146.0495,83.4225
146.0495,83.4225
145.9282,83.4042
145.7974,83.3845
145.7974,83.3845
145.5426,83.3845
145.5426,83.3845
145.3992,83.4061
145.2905,83.4225
145.2905,83.4225
145.2905,83.4225
145.0470,83.4976
144.8174,83.6082
144.8174,83.6082
144.6068,83.7518
144.4200,83.9251
144.4200,83.9251
144.2610,84.1244
144.1336,84.3451
144.0405,84.5824
144.0405,84.5824
143.9838,84.8308
143.9647,85.0850
143.9647,85.0850
143.9838,85.3392
144.0308,85.5450
144.0405,85.5876
144.1336,85.8249
144.2610,86.0456
144.4000,86.2199
144.4200,86.2449
144.4407,86.2641
144.4764,86.3241
144.4740,86.3940
144.4407,86.4459
144.4200,86.4651
144.2610,86.6644
144.1336,86.8851
144.0405,87.1224
144.0405,87.1224
143.9838,87.3708
143.9647,87.6250
143.9647,87.6250
143.9838,87.8792
144.0341,88.0995
144.0405,88.1276
144.1336,88.3649
144.2610,88.5856
144.4200,88.7849
144.6068,88.9582
144.6654,88.9982
144.7097,89.0522
144.7195,89.1006
144.7195,96.9264
144.7195,97.1136
144.7195,97.1136
144.7210,97.1212
144.7210,97.1212
144.7560,97.2972
144.7560,97.2973
144.7635,97.3153
144.7635,97.3153
144.7635,97.3153
144.8277,97.4702
144.8277,97.4702
144.9317,97.6259
144.9317,97.6259
145.3768,98.0711
145.4103,98.1324
145.4126,98.1473
145.4149,98.1715
145.4149,98.1715
145.4758,98.3855
145.4758,98.3855
145.5749,98.5847
145.5749,98.5847
145.7090,98.7622
145.8734,98.9121
145.8734,98.9121
146.0626,99.0292
146.0626,99.0292
146.0626,99.0292
146.2701,99.1096
146.4888,99.1505
146.4888,99.1505
146.7112,99.1505
146.7112,99.1505
146.7527,99.1427
146.8222,99.1498
146.8769,99.1933
146.8994,99.2594
146.8995,99.2646
146.8995,100.2444
146.8798,100.3115
146.8270,100.3572
146.7579,100.3672
146.7307,100.3600
146.6799,100.3404
146.6799,100.3404
146.6799,100.3404
146.4612,100.2995
146.2388,100.2995
146.0201,100.3404
145.8910,100.3904
145.8126,100.4208
145.8126,100.4208
145.7865,100.4369
145.7191,100.4555
145.6764,100.4471
145.6501,100.4369
145.5299,100.3904
145.3112,100.3495
145.0888,100.3495
144.8701,100.3904
144.7723,100.4282
144.6626,100.4708
144.6626,100.4708
144.4734,100.5879
144.4734,100.5879
144.3090,100.7378
144.1749,100.9153
144.1749,100.9153
144.0758,101.1145
144.0758,101.1145
144.0149,101.3285
144.0149,101.3285
143.9944,101.5500
143.9944,101.5500
144.0149,101.7715
144.0149,101.7715
144.0758,101.9855
144.0758,101.9855
144.1749,102.1847
144.1749,102.1847
144.2245,102.2503
144.2491,102.3156
144.2495,102.3250
144.2495,113.0250
144.2298,113.0921
144.2245,113.0997
144.1749,113.1653
144.1749,113.1653
144.0758,113.3645
144.0758,113.3645
144.0149,113.5785
144.0149,113.5785
143.9956,113.7869
143.9698,113.8519
143.9130,113.8926
143.8721,113.8995
139.2191,113.8995
139.1538,113.8809
139.1374,113.8708
139.1374,113.8708
138.9299,113.7904
138.7112,113.7495
138.4888,113.7495
138.2701,113.7904
138.1917,113.8208
138.0626,113.8708
138.0626,113.8708
137.8734,113.9879
137.8734,113.9879
137.7090,114.1378
137.5749,114.3153
137.5749,114.3153
137.4758,114.5145
137.4758,114.5145
137.4149,114.7285
137.4149,114.7285
137.3944,114.9500
137.3944,114.9500
137.4149,115.1715
137.4149,115.1715
137.4758,115.3855
137.4758,115.3855
137.5749,115.5847
137.5749,115.5847
137.7090,115.7622
137.8734,115.9121
137.8734,115.9121
138.0626,116.0292
138.0626,116.0292
138.0626,116.0292
138.2701,116.1096
138.4888,116.1505
138.4888,116.1505
138.7112,116.1505
138.7112,116.1505
138.9299,116.1096
139.1374,116.0292
139.1538,116.0191
139.2191,116.0005
154.5943,116.0005
154.6391,116.0089
154.7701,116.0596
154.9888,116.1005
154.9888,116.1005
155.2112,116.1005
155.2112,116.1005
155.4299,116.0596
155.6374,115.9792
155.8266,115.8621
155.9910,115.7122
156.1251,115.5347
156.2242,115.3355
156.2851,115.1215
156.3056,114.9000
156.2984,114.8215
156.2851,114.6785
156.2851,114.6785
156.2628,114.6000
156.2242,114.4645
156.2242,114.4645
156.1251,114.2653
156.1251,114.2653
155.9910,114.0878
155.8266,113.9379
155.8266,113.9379
155.6374,113.8208
155.6374,113.8208
155.4299,113.7404
155.2112,113.6995
154.9888,113.6995
154.7701,113.7404
154.6557,113.7847
154.5626,113.8208
154.5626,113.8208
154.4654,113.8809
154.4001,113.8995
148.4233,113.8995
148.3562,113.8798
148.3105,113.8270
148.2998,113.7869
148.2851,113.6285
148.2851,113.6285
148.2788,113.6063
148.2242,113.4145
148.2242,113.4145
148.1251,113.2153
148.1251,113.2153
147.9910,113.0378
147.8266,112.8879
147.8266,112.8879
147.6374,112.7708
147.6374,112.7708
147.4299,112.6904
147.4299,112.6904
147.4299,112.6904
147.4017,112.6851
147.3394,112.6534
147.3042,112.5931
147.3005,112.5632
147.3005,102.3441
147.3202,102.2770
147.3730,102.2313
147.4421,102.2213
147.5057,102.2504
147.5122,102.2564
149.3768,104.1211
149.4103,104.1824
149.4126,104.1973
149.4149,104.2215
149.4149,104.2215
149.4758,104.4355
149.4758,104.4355
149.5749,104.6347
149.5749,104.6347
149.7090,104.8122
149.8734,104.9621
149.8734,104.9621
150.0626,105.0792
150.0626,105.0792
150.0626,105.0792
150.2701,105.1596
150.4888,105.2005
150.4888,105.2005
150.7112,105.2005
150.7112,105.2005
150.9299,105.1596
151.1374,105.0792
151.3266,104.9621
151.4910,104.8122
151.6251,104.6347
151.6361,104.6126
151.7242,104.4355
151.7242,104.4355
151.7242,104.4355
151.7851,104.2215
151.8056,104.0000
151.7943,103.8772
151.7851,103.7785
151.7851,103.7785
151.7728,103.7351
151.7242,103.5645
151.6921,103.5000
151.6251,103.3653
151.6251,103.3653
151.4910,103.1878
151.3266,103.0379
151.3266,103.0379
151.1374,102.9208
151.1374,102.9208
150.9299,102.8404
150.9299,102.8404
150.9299,102.8404
150.7889,102.8140
150.7266,102.7823
150.7240,102.7798
148.8368,100.8926
148.8033,100.8313
148.8005,100.8049
148.8005,98.8250
148.8202,98.7579
148.8255,98.7503
148.8751,98.6847
148.8751,98.6847
148.9742,98.4855
149.0062,98.3730
149.0435,98.3139
149.1068,98.2844
149.1761,98.2938
149.2292,98.3391
149.2495,98.4059
149.2495,98.4070
149.2495,98.9936
149.2566,99.0292
149.2566,99.0292
149.2765,99.1292
149.2860,99.1772
149.2860,99.1773
149.3577,99.3502
149.3577,99.3502
149.4617,99.5059
149.4617,99.5059
153.6372,103.6814
153.6687,103.7351
153.7258,103.9355
153.7258,103.9355
153.8249,104.1347
153.8249,104.1347
153.9590,104.3122
154.1234,104.4621
154.1234,104.4621
154.3126,104.5792
154.3126,104.5792
154.3126,104.5792
154.5201,104.6596
154.7388,104.7005
154.7388,104.7005
154.9612,104.7005
154.9612,104.7005
155.1799,104.6596
155.3874,104.5792
155.5766,104.4621
155.7410,104.3122
155.8751,104.1347
155.9742,103.9355
156.0351,103.7215
156.0556,103.5000
156.0431,103.3649
156.0351,103.2785
156.0351,103.2785
156.0167,103.2136
155.9742,103.0645
155.9390,102.9937
155.8751,102.8653
155.8751,102.8653
155.7410,102.6878
155.5766,102.5379
155.5766,102.5379
155.3874,102.4208
155.3874,102.4208
155.1799,102.3404
155.0881,102.3232
154.9774,102.3025
154.9151,102.2709
154.9125,102.2683
151.1868,98.5426
151.1533,98.4813
151.1505,98.4549
151.1505,96.2250
151.1702,96.1579
151.1755,96.1503
151.2251,96.0847
151.2251,96.0847
151.3242,95.8855
151.3851,95.6715
151.4056,95.4500
151.3851,95.2285
151.3242,95.0145
151.3242,95.0145
151.2251,94.8153
151.2251,94.8153
151.0910,94.6378
150.9266,94.4879
150.9266,94.4879
150.7374,94.3708
150.7374,94.3708
150.5299,94.2904
150.3112,94.2495
150.0888,94.2495
149.8701,94.2904
149.7389,94.3412
149.6626,94.3708
149.6626,94.3708
149.4734,94.4879
149.4734,94.4879
149.3090,94.6378
149.1749,94.8153
149.1749,94.8153
149.0758,95.0145
149.0758,95.0145
149.0149,95.2285
149.0149,95.2285
148.9944,95.4500
148.9944,95.4500
149.0149,95.6715
149.0149,95.6715
149.0758,95.8855
149.0758,95.8855
149.1749,96.0847
149.1749,96.0847
149.2245,96.1503
149.2491,96.2156
149.2495,96.2250
149.2495,97.6930
149.2298,97.7601
149.1770,97.8058
149.1079,97.8158
149.0443,97.7867
149.0065,97.7280
149.0062,97.7270
149.0047,97.7215
148.9742,97.6145
148.9742,97.6145
148.8751,97.4153
148.8751,97.4153
148.7410,97.2378
148.5766,97.0879
148.5766,97.0879
148.3874,96.9708
148.3874,96.9708
148.1799,96.8904
147.9612,96.8495
147.7388,96.8495
147.5201,96.8904
147.5201,96.8904
147.5201,96.8904
147.3618,96.9517
147.2921,96.9576
147.2517,96.9415
147.1374,96.8708
147.1374,96.8708
146.9299,96.7904
146.9299,96.7904
146.9299,96.7904
146.7889,96.7640
146.7266,96.7323
146.7240,96.7298
146.6568,96.6626
146.6233,96.6013
146.6205,96.5749
146.6205,93.3245
146.6402,93.2575
146.6930,93.2117
146.7445,93.2005
146.7612,93.2005
146.7612,93.2005
146.9799,93.1596
147.1874,93.0792
147.3766,92.9621
147.5410,92.8122
147.6751,92.6347
147.7742,92.4355
147.8351,92.2215
147.8374,92.1973
147.8631,92.1324
147.8731,92.1211
148.9483,91.0459
148.9537,91.0379
149.0523,90.8902
149.1240,90.7173
149.1605,90.5336
149.1605,89.1006
149.1802,89.0336
149.2146,88.9982
149.2732,88.9582
149.4600,88.7849
149.6190,88.5856
149.7464,88.3649
149.7950,88.2411
149.8227,88.1987
150.2589,87.7626
150.2748,87.8219
150.3419,87.9381
150.4369,88.0331
150.5531,88.1002
150.6124,88.1161
149.9512,88.7774
149.9816,88.8010
150.1857,88.9115
150.1857,88.9115
150.4051,88.9868
150.6340,89.0250
150.8660,89.0250
151.0949,88.9868
151.3143,88.9115
151.3143,88.9115
151.5184,88.8010
151.5488,88.7774
151.5488,88.7773
150.8876,88.1161
150.9469,88.1002
151.0631,88.0331
151.1581,87.9381
151.2252,87.8219
151.2411,87.7626
151.9012,88.4226
151.9855,88.2936
152.0540,88.1373
152.0990,88.0839
152.1657,88.0632
152.2330,88.0818
152.2553,88.0995
152.5632,88.4074
152.5967,88.4687
152.5995,88.4951
152.5995,96.7250
152.5798,96.7921
152.5745,96.7997
152.5249,96.8653
152.5249,96.8653
152.4258,97.0645
152.4258,97.0645
152.3649,97.2785
152.3649,97.2785
152.3444,97.5000
152.3444,97.5000
152.3649,97.7215
152.3649,97.7215
152.4258,97.9355
152.4258,97.9355
152.5249,98.1347
152.5249,98.1347
152.6590,98.3122
152.8234,98.4621
152.8234,98.4621
153.0126,98.5792
153.0126,98.5792
153.0126,98.5792
153.2201,98.6596
153.4388,98.7005
153.4388,98.7005
153.6612,98.7005
153.6612,98.7005
153.8799,98.6596
154.0874,98.5792
154.2766,98.4621
154.4410,98.3122
154.5751,98.1347
154.6742,97.9355
154.7351,97.7215
154.7556,97.5000
154.7529,97.4702
154.7351,97.2785
154.7351,97.2785
154.7235,97.2378
154.6742,97.0645
154.6742,97.0645
154.5751,96.8653
154.5751,96.8653
154.5255,96.7997
154.5009,96.7344
154.5005,96.7250
154.5005,87.9564
154.5005,87.9564
154.4640,87.7728
154.4640,87.7727
154.4108,87.6445
154.3923,87.5998
154.3923,87.5998
154.3923,87.5998
154.2883,87.4441
154.2883,87.4441
152.4377,85.5935
152.4042,85.5322
152.4045,85.4782
152.4362,85.3392
152.4553,85.0850
152.4362,84.8308
152.3795,84.5824
152.2864,84.3451
152.1590,84.1244
152.0000,83.9251
151.8132,83.7518
151.6026,83.6082
151.6026,83.6082
151.6026,83.6082
151.6026,83.6082
151.3730,83.4976
151.3730,83.4976
151.1295,83.4225
151.1295,83.4225
151.1295,83.4225
151.0082,83.4042
150.8774,83.3845
150.8774,83.3845
150.6226,83.3845
150.6226,83.3845
150.6226,83.3845
150.6085,83.3866
150.5393,83.3771
150.5023,83.3517
148.2353,81.0847
148.2353,81.0847
148.0847,80.9340
147.9986,80.8765
147.9126,80.8191
147.7214,80.7399
147.7214,80.7399
147.5185,80.6995
147.5185,80.6995
141.1390,80.6995
141.0720,80.6798
141.0263,80.6270
141.0163,80.5579
141.0453,80.4943
141.0514,80.4878
145.6445,75.8947
153.5920,67.9472
153.7123,67.7816
153.7588,67.6904
153.8052,67.5992
153.8685,67.4045
153.9005,67.2024
153.9005,65.2122
153.9010,65.2014
153.9055,65.1500
153.9055,65.1500
153.9010,65.0986
153.9005,65.0878
153.9005,63.3976
153.8685,63.1955
153.8052,63.0008
153.7588,62.9096
153.7588,62.9096
153.7123,62.8184
153.5920,62.6528
146.9333,55.9941
146.8998,55.9328
146.8969,55.9064
146.8969,45.8787
151.8495,45.8787
151.8495,46.1213
151.8812,46.3618
151.9439,46.5961
152.0368,46.8202
152.0368,46.8202
152.1581,47.0303
152.1581,47.0303
152.1581,47.0303
152.3057,47.2227
152.3057,47.2227
152.4773,47.3943
152.4773,47.3943
152.6697,47.5419
152.8798,47.6632
153.1039,47.7561
153.3382,47.8188
153.5186,47.8426
153.5787,47.8505
153.5787,47.8505
153.8213,47.8505
153.8694,47.8442
154.0618,47.8188
154.2961,47.7561
154.5202,47.6632
154.7303,47.5419
154.9227,47.3943
155.0943,47.2227
155.2419,47.0303
155.3632,46.8202
155.4561,46.5961
155.5188,46.3618
155.5505,46.1213
155.5505,45.8787
155.5188,45.6382
155.4561,45.4039
155.3632,45.1798
155.2419,44.9697
155.0943,44.7773
155.0943,44.7773
154.9227,44.6057
154.9227,44.6057
154.7303,44.4581
154.7303,44.4581
154.7303,44.4581
154.5202,44.3368
154.5202,44.3368
154.2961,44.2439
154.0618,44.1812
153.8213,44.1495
153.8213,44.1495
153.5787,44.1495
153.5787,44.1495
153.3382,44.1812
153.1039,44.2439
152.8798,44.3368
152.8798,44.3368
152.6697,44.4581
152.4773,44.6057
152.4773,44.6057
152.3057,44.7773
152.3057,44.7773
152.1581,44.9697
152.0368,45.1798
152.0368,45.1798
151.9439,45.4039
151.8812,45.6382
151.8495,45.8787
146.8969,45.8787
146.8969,42.8936
146.9166,42.8266
146.9333,42.8059
151.1524,38.5868
151.2137,38.5533
151.2400,38.5505
153.1950,38.5505
153.1950,38.5505
153.2621,38.5429
153.3292,38.5354
153.3293,38.5354
153.3293,38.5354
153.4995,38.4758
153.6523,38.3798
153.7798,38.2523
153.8758,38.0995
153.9354,37.9293
153.9505,37.7950
153.9505,34.7050
153.9449,34.6550
153.9354,34.5707
153.9354,34.5707
153.8830,34.4210
153.8758,34.4005
153.7798,34.2477
153.6523,34.1202
153.5727,34.0702
153.4995,34.0242
153.3293,33.9646
153.3292,33.9646
153.1950,33.9495
153.1950,33.9495
150.1050,33.9495
150.1050,33.9495
149.9707,33.9646
149.9707,33.9646
149.8005,34.0242
149.6477,34.1202
149.5202,34.2477
149.4242,34.4005
149.3646,34.5707
149.3646,34.5707
149.3495,34.7050
149.3495,36.6600
149.3298,36.7270
149.3132,36.7476
149.0796,36.9812
149.0183,37.0147
148.9486,37.0097
148.8927,36.9678
148.8682,36.9024
148.8745,36.8537
148.8769,36.8467
148.9357,36.5509
148.9554,36.2500
148.9357,35.9491
148.9258,35.8991
148.8769,35.6533
148.8769,35.6533
148.7799,35.3677
148.7553,35.3177
148.6466,35.0973
148.6466,35.0973
148.4790,34.8465
148.2802,34.6198
148.0535,34.4210
147.8027,34.2534
147.8027,34.2534
147.5323,34.1201
147.5322,34.1201
147.2467,34.0231
147.2467,34.0231
147.2467,34.0231
147.2467,34.0231
147.2467,34.0231
146.9509,33.9643
146.9509,33.9643
146.9509,33.9643
146.6500,33.9446
146.3491,33.9643
146.3491,33.9643
146.3491,33.9643
146.0533,34.0231
146.0533,34.0231
145.7678,34.1201
145.7677,34.1201
145.4973,34.2534
145.4973,34.2534
145.2465,34.4210
145.0198,34.6198
144.8210,34.8465
144.6534,35.0973
144.6534,35.0973
144.5201,35.3677
144.5201,35.3678
144.4231,35.6533
144.4231,35.6533
144.3643,35.9491
144.3643,35.9491
144.3643,35.9491
144.3446,36.2500
144.3577,36.4509
144.3643,36.5509
144.3643,36.5509
144.4231,36.8467
144.4231,36.8467
144.5201,37.1322
144.5201,37.1323
144.6534,37.4027
144.6534,37.4027
144.8210,37.6535
145.0198,37.8802
145.2465,38.0790
145.4973,38.2466
145.4973,38.2466
145.7677,38.3799
145.7677,38.3799
145.7677,38.3799
146.0533,38.4769
146.2533,38.5167
146.3491,38.5357
146.3491,38.5357
146.3491,38.5357
146.6500,38.5554
146.9509,38.5357
147.2467,38.4769
147.2537,38.4745
147.3235,38.4716
147.3838,38.5069
147.4154,38.5692
147.4084,38.6387
147.3812,38.6796
144.9476,41.1132
144.8863,41.1467
144.8600,41.1495
139.9900,41.1495
139.9230,41.1298
139.9024,41.1132
137.3414,38.5522
137.3079,38.4909
137.3129,38.4212
137.3548,38.3653
137.4202,38.3409
137.4885,38.3557
137.4951,38.3596
137.6005,38.4258
137.7707,38.4854
137.7707,38.4854
137.8612,38.4956
137.9050,38.5005
137.9050,38.5005
137.9050,38.5005
140.9950,38.5005
140.9950,38.5005
141.0801,38.4909
141.1292,38.4854
141.1293,38.4854
141.1293,38.4854
141.2995,38.4258
141.4523,38.3298
141.5798,38.2023
141.6758,38.0495
141.7354,37.8793
141.7505,37.7450
141.7505,34.6550
141.7410,34.5707
141.7354,34.5207
141.7354,34.5207
141.6830,34.3710
141.6758,34.3505
141.5798,34.1977
141.4523,34.0702
141.4521,34.0701
141.2995,33.9742
141.1293,33.9146
141.1292,33.9146
140.9950,33.8995
140.9950,33.8995
137.9050,33.8995
137.9050,33.8995
137.7707,33.9146
137.7707,33.9146
137.6005,33.9742
137.4477,34.0702
137.3202,34.1977
137.2242,34.3505
137.1646,34.5207
137.1646,34.5207
137.1495,34.6550
137.1495,37.7450
137.1646,37.8792
137.1646,37.8793
137.2242,38.0495
137.2904,38.1549
137.3094,38.2222
137.2891,38.2890
137.2358,38.3342
137.1666,38.3435
137.1033,38.3138
137.0978,38.3086
136.3965,37.6073
136.3630,37.5460
136.3680,37.4763
136.3811,37.4507
136.4466,37.3527
136.5799,37.0823
136.6769,36.7967
136.7357,36.5009
136.7554,36.2000
136.7357,35.8991
136.7258,35.8491
136.6868,35.6533
136.6769,35.6033
136.5799,35.3177
136.5553,35.2677
136.4466,35.0473
136.4466,35.0473
136.2790,34.7965
136.0802,34.5698
135.8535,34.3710
135.6027,34.2034
135.6027,34.2034
135.3323,34.0701
135.3322,34.0701
135.0467,33.9731
135.0467,33.9731
135.0467,33.9731
135.0467,33.9731
135.0467,33.9731
134.7509,33.9143
134.7509,33.9143
134.7509,33.9143
134.4500,33.8946
134.1491,33.9143
134.1491,33.9143
134.1491,33.9143
133.8533,33.9731
133.8533,33.9731
133.5678,34.0701
133.5677,34.0701
133.2973,34.2034
133.2973,34.2034
133.0465,34.3710
132.8198,34.5698
132.6210,34.7965
132.4534,35.0473
132.4534,35.0473
132.3201,35.3177
132.3201,35.3178
132.2231,35.6033
132.2231,35.6033
132.1643,35.8991
132.1643,35.8991
132.1446,36.2000
132.1643,36.5009
132.1643,36.5009
132.2231,36.7967
132.2231,36.7967
132.3201,37.0822
132.3201,37.0823
132.4534,37.3527
132.4534,37.3527
132.6210,37.6035
132.8198,37.8302
132.9895,37.9790
133.0465,38.0290
133.1520,38.0995
133.2973,38.1966
133.2973,38.1966
133.2973,38.1966
133.3497,38.2224
133.3952,38.2608
133.4092,38.2799
133.4580,38.3472
133.4580,38.3472
138.2541,43.1433
138.2542,43.1434
138.3012,43.1904
138.3012,43.1904
138.3340,43.2232
138.3340,43.2232
138.4174,43.3066
138.6047,43.4503
138.8091,43.5683
139.0271,43.6586
139.0271,43.6586
139.1893,43.7021
139.2551,43.7197
139.2551,43.7197
139.2551,43.7197
139.3578,43.7332
139.4891,43.7505
139.6071,43.7505
144.1719,43.7505
144.2390,43.7702
144.2847,43.8230
144.2959,43.8745
144.2959,56.5988
144.3280,56.8010
144.3505,56.8705
144.3912,56.9957
144.3912,56.9957
144.3912,56.9957
144.4042,57.0212
144.4842,57.1781
144.6045,57.3437
144.6045,57.3437
151.2632,64.0024
151.2967,64.0637
151.2995,64.0900
151.2995,65.0878
151.2990,65.0986
151.2945,65.1500
151.2945,65.1500
151.2990,65.2014
151.2995,65.2122
151.2995,66.5100
151.2798,66.5770
151.2632,66.5976
136.8728,80.9880
136.8141,81.0209
136.6894,81.0508
136.6894,81.0508
136.4639,81.1442
136.4639,81.1442
136.2558,81.2717
136.2558,81.2717
136.0702,81.4302
135.9117,81.6158
135.9117,81.6158
135.7842,81.8239
135.6908,82.0494
135.6339,82.2867
135.6147,82.5300
135.6339,82.7733
135.6339,82.7733
135.6339,82.7733
135.6908,83.0106
135.6908,83.0106
135.6908,83.0106
135.7842,83.2361
135.9117,83.4442
135.9117,83.4442
135.9393,83.4764
136.0702,83.6298
136.2131,83.7518
136.2558,83.7883
136.2558,83.7883
136.4639,83.9158
136.6894,84.0092
136.6894,84.0092
136.6894,84.0092
136.6894,84.0092
136.9267,84.0661
137.1700,84.0853
137.4133,84.0661
137.6506,84.0092
137.8761,83.9158
138.0842,83.7883
138.2698,83.6298
138.4283,83.4442
138.5558,83.2361
138.5558,83.2361
138.6492,83.0106
138.6492,83.0106
138.6791,82.8859
138.7120,82.8272
139.6378,81.9014
139.6991,81.8679
139.7688,81.8729
139.8248,81.9147
139.8492,81.9802
139.8495,81.9890
139.8495,103.3135
139.8298,103.3805
139.8132,103.4012
139.2356,103.9788
139.1743,104.0123
139.1046,104.0073
139.0486,103.9654
139.0242,103.9000
139.0247,103.8772
139.0255,103.8700
139.0255,102.5800
139.0104,102.4457
138.9508,102.2755
138.8548,102.1227
138.7273,101.9952
138.5969,101.9132
138.5506,101.8609
138.5399,101.7919
138.5683,101.7280
138.5734,101.7227
138.5733,101.7227
138.5768,101.7189
138.5768,101.7189
138.7340,101.5482
138.8609,101.3538
138.9542,101.1413
139.0111,100.9163
139.0112,100.9153
139.0303,100.6850
139.0303,100.6850
139.0111,100.4537
139.0111,100.4537
138.9542,100.2287
138.8609,100.0162
138.7340,99.8219
138.7340,99.8218
138.7340,99.8218
138.5768,99.6511
138.5768,99.6511
138.5768,99.6511
138.3936,99.5085
138.3936,99.5085
138.1895,99.3981
138.1895,99.3981
137.9700,99.3227
137.7983,99.2940
137.7410,99.2845
137.5090,99.2845
137.4632,99.2921
137.2800,99.3227
137.0605,99.3981
137.0605,99.3981
136.8564,99.5085
136.8564,99.5085
136.6732,99.6511
136.6732,99.6511
136.5160,99.8219
136.3891,100.0162
136.2958,100.2287
136.2389,100.4537
136.2389,100.4537
136.2197,100.6850
136.2197,100.6850
136.2389,100.9163
136.2389,100.9163
136.2958,101.1413
136.3891,101.3538
136.5160,101.5481
136.5160,101.5482
136.5160,101.5482
136.6732,101.7189
136.6732,101.7189
136.6767,101.7227
136.6753,101.7239
136.7072,101.7769
136.7050,101.8468
136.6655,101.9044
136.6531,101.9132
136.5227,101.9952
136.5227,101.9952
136.3952,102.1227
136.2992,102.2755
136.2396,102.4457
136.2396,102.4457
136.2245,102.5800
136.2245,103.8700
136.2396,104.0042
136.2396,104.0043
136.2992,104.1745
136.3857,104.3122
136.3952,104.3273
136.5227,104.4548
136.6755,104.5508
136.7674,104.5830
136.8457,104.6104
136.8457,104.6104
136.9362,104.6206
136.9800,104.6255
136.9800,104.6255
136.9800,104.6255
138.2699,104.6255
138.2700,104.6255
138.2772,104.6247
138.3460,104.6367
138.3974,104.6841
138.4150,104.7517
138.3933,104.8181
138.3788,104.8356
129.7950,113.4194
129.7521,113.4473
129.5626,113.5207
129.5577,113.5232
129.4890,113.5354
129.4245,113.5086
129.3847,113.4511
129.3824,113.3812
129.3832,113.3783
129.3851,113.3715
129.3914,113.3034
129.3924,113.2955
129.4005,113.2445
129.4005,113.2112
129.4010,113.1998
129.4056,113.1500
129.4056,113.1500
129.4010,113.1002
129.4005,113.0888
129.4005,105.5786
129.4202,105.5116
129.4368,105.4909
130.3152,104.6126
130.3626,104.5830
130.5695,104.5119
130.7736,104.4015
130.7807,104.3959
130.9071,104.2976
130.9568,104.2589
131.1140,104.0882
131.2409,103.8938
131.3342,103.6813
131.3911,103.4563
131.3957,103.4012
131.4103,103.2250
131.4103,103.2250
131.3911,102.9937
131.3911,102.9937
131.3342,102.7687
131.2409,102.5562
131.1140,102.3619
131.1140,102.3618
131.1140,102.3618
130.9568,102.1911
130.7792,102.0529
130.7384,101.9961
130.7347,101.9264
130.7693,101.8657
130.7792,101.8571
130.9568,101.7189
131.1140,101.5482
131.2409,101.3538
131.3342,101.1413
131.3911,100.9163
131.3912,100.9153
131.4103,100.6850
131.4103,100.6850
131.3911,100.4537
131.3911,100.4537
131.3342,100.2287
131.2409,100.0162
131.1140,99.8219
131.1140,99.8218
131.1140,99.8218
130.9568,99.6511
130.9568,99.6511
130.9568,99.6511
130.7736,99.5085
130.7736,99.5085
130.5695,99.3981
130.5695,99.3981
130.3500,99.3227
130.1783,99.2940
130.1210,99.2845
129.8890,99.2845
129.8432,99.2921
129.6600,99.3227
129.4405,99.3981
129.4405,99.3981
129.2364,99.5085
129.2364,99.5085
129.0532,99.6511
129.0532,99.6511
128.8960,99.8219
128.7691,100.0161
128.7489,100.0621
128.7040,100.1155
128.6372,100.1362
128.5699,100.1176
128.5477,100.0999
128.0368,99.5891
128.0033,99.5277
128.0005,99.5014
128.0005,91.4745
128.0202,91.4075
128.0730,91.3617
128.1245,91.3505
128.5224,91.3505
128.5895,91.3702
128.6030,91.3802
128.6358,91.4083
128.6358,91.4083
128.6358,91.4083
128.6358,91.4083
128.8439,91.5358
129.0694,91.6292
129.0694,91.6292
129.0694,91.6292
129.0694,91.6292
129.3067,91.6861
129.5500,91.7053
129.7933,91.6861
130.0306,91.6292
130.2561,91.5358
130.4642,91.4083
130.6498,91.2498
130.8083,91.0642
130.9358,90.8561
131.0292,90.6306
131.0861,90.3933
131.0895,90.3502
131.1144,90.2850
131.1255,90.2723
132.0427,89.3550
135.6195,89.3550
135.6195,90.9450
135.6346,91.0792
135.6346,91.0793
135.6942,91.2495
135.7577,91.3505
135.7902,91.4023
135.9177,91.5298
136.0705,91.6258
136.2407,91.6854
136.2407,91.6854
136.3312,91.6956
136.3750,91.7005
136.3750,91.7005
136.3750,91.7005
137.9650,91.7005
137.9650,91.7005
138.0321,91.6929
138.0992,91.6854
138.0993,91.6854
138.0993,91.6854
138.2695,91.6258
138.4223,91.5298
138.5498,91.4023
138.6458,91.2495
138.7054,91.0793
138.7071,91.0642
138.7205,90.9450
138.7205,90.9450
138.7205,89.3550
138.7205,89.3550
138.7054,89.2207
138.7054,89.2207
138.6458,89.0505
138.6376,89.0375
138.5823,88.9495
138.5498,88.8977
138.4223,88.7702
138.4128,88.7642
138.2695,88.6742
138.0993,88.6146
138.0992,88.6146
137.9650,88.5995
137.9650,88.5995
136.3750,88.5995
136.3750,88.5995
136.2407,88.6146
136.2407,88.6146
136.0705,88.6742
135.9177,88.7702
135.7902,88.8977
135.6942,89.0505
135.6346,89.2207
135.6346,89.2207
135.6195,89.3550
132.0427,89.3550
133.0657,88.3321
133.1768,88.1792
133.2625,88.0108
133.3209,87.8311
133.3341,87.7482
133.3505,87.6445
133.3505,77.4500
135.6147,77.4500
135.6339,77.6933
135.6908,77.9306
135.7842,78.1561
135.9117,78.3642
135.9117,78.3642
135.9117,78.3642
136.0702,78.5498
136.2139,78.6725
136.2558,78.7083
136.2558,78.7083
136.4639,78.8358
136.6894,78.9292
136.6894,78.9292
136.6894,78.9292
136.6894,78.9292
136.9267,78.9861
137.1700,79.0053
137.4133,78.9861
137.6506,78.9292
137.8761,78.8358
138.0842,78.7083
138.2698,78.5498
138.4283,78.3642
138.5558,78.1561
138.6492,77.9306
138.7061,77.6933
138.7253,77.4500
138.7061,77.2067
138.6492,76.9694
138.5558,76.7439
138.5558,76.7439
138.4283,76.5358
138.4283,76.5358
138.3788,76.4779
138.2698,76.3502
138.1471,76.2454
138.0842,76.1917
138.0842,76.1917
137.8761,76.0642
137.6506,75.9708
137.6506,75.9708
137.5450,75.9455
137.4133,75.9139
137.4133,75.9139
137.4133,75.9139
137.1700,75.8947
136.9267,75.9139
136.6894,75.9708
136.4639,76.0642
136.2558,76.1917
136.2558,76.1917
136.0702,76.3502
135.9117,76.5358
135.9117,76.5358
135.7842,76.7439
135.6908,76.9694
135.6339,77.2067
135.6147,77.4500
133.3505,77.4500
133.3505,72.3700
135.6147,72.3700
135.6339,72.6133
135.6908,72.8506
135.7842,73.0761
135.9117,73.2842
135.9117,73.2842
135.9117,73.2842
136.0702,73.4698
136.2139,73.5925
136.2558,73.6283
136.2558,73.6283
136.4639,73.7558
136.6894,73.8492
136.6894,73.8492
136.6894,73.8492
136.6894,73.8492
136.9267,73.9061
137.1700,73.9253
137.4133,73.9061
137.6506,73.8492
137.8761,73.7558
138.0842,73.6283
138.2698,73.4698
138.4283,73.2842
138.5558,73.0761
138.6492,72.8506
138.7061,72.6133
138.7253,72.3700
138.7061,72.1267
138.6492,71.8894
138.5558,71.6639
138.5558,71.6639
138.4283,71.4558
138.4283,71.4558
138.3788,71.3979
138.2698,71.2702
138.1471,71.1654
138.0842,71.1117
138.0842,71.1117
137.8761,70.9842
137.6506,70.8908
137.6506,70.8908
137.5450,70.8655
137.4133,70.8339
137.4133,70.8339
137.4133,70.8339
137.1700,70.8147
136.9267,70.8339
136.6894,70.8908
136.4639,70.9842
136.2558,71.1117
136.2558,71.1117
136.0702,71.2702
135.9117,71.4558
135.9117,71.4558
135.7842,71.6639
135.6908,71.8894
135.6339,72.1267
135.6147,72.3700
133.3505,72.3700
133.3505,57.8555
133.3209,57.6689
133.2625,57.4892
133.2173,57.4003
133.1768,57.3208
133.0657,57.1679
132.9321,57.0343
132.7792,56.9232
132.7792,56.9232
132.7792,56.9232
132.6833,56.8744
132.6685,56.8655
132.6548,56.8559
132.6027,56.8194
132.5632,56.8010
132.3965,56.7233
132.3965,56.7233
132.1767,56.6644
132.1767,56.6644
132.1767,56.6644
132.1767,56.6644
132.1767,56.6644
131.9500,56.6445
131.9500,56.6445
131.7233,56.6644
131.7233,56.6644
131.5035,56.7233
131.5035,56.7233
131.2973,56.8194
131.2973,56.8194
131.1109,56.9500
130.9500,57.1109
130.8194,57.2973
130.8194,57.2973
130.7233,57.5035
130.7233,57.5035
130.6644,57.7233
130.6644,57.7233
130.6445,57.9500
130.6445,57.9500
130.6644,58.1767
130.6644,58.1767
130.7233,58.3965
130.7233,58.3965
130.8194,58.6027
130.8194,58.6027
130.9271,58.7565
130.9494,58.8227
130.9495,58.8276
130.9495,71.2851
130.9298,71.3521
130.8770,71.3979
130.8079,71.4078
130.7443,71.3788
130.7312,71.3656
130.7197,71.3521
130.6498,71.2702
130.5271,71.1654
130.4642,71.1117
130.4642,71.1117
130.2561,70.9842
130.0306,70.8908
130.0306,70.8908
129.9250,70.8655
129.7933,70.8339
129.7933,70.8339
129.7933,70.8339
129.5500,70.8147
129.3067,70.8339
129.0694,70.8908
128.8439,70.9842
128.6358,71.1117
128.6358,71.1117
128.4502,71.2702
128.2917,71.4558
128.2917,71.4558
128.1642,71.6639
128.0708,71.8894
128.0139,72.1267
127.9947,72.3700
128.0139,72.6133
128.0708,72.8506
128.1642,73.0761
128.2917,73.2842
128.2917,73.2842
128.2917,73.2842
128.4502,73.4698
128.5939,73.5925
128.6358,73.6283
128.6358,73.6283
128.8439,73.7558
129.0694,73.8492
129.0694,73.8492
129.0694,73.8492
129.0694,73.8492
129.3067,73.9061
129.5500,73.9253
129.7933,73.9061
130.0306,73.8492
130.2561,73.7558
130.4642,73.6283
130.6498,73.4698
130.7312,73.3744
130.7897,73.3362
130.8596,73.3357
130.9186,73.3731
130.9481,73.4364
130.9495,73.4549
130.9495,76.3651
130.9298,76.4321
130.8770,76.4779
130.8079,76.4878
130.7443,76.4588
130.7312,76.4456
130.7197,76.4321
130.6498,76.3502
130.5271,76.2454
130.4642,76.1917
130.4642,76.1917
130.2561,76.0642
130.0306,75.9708
130.0306,75.9708
129.9250,75.9455
129.7933,75.9139
129.7933,75.9139
129.7933,75.9139
129.5500,75.8947
129.3067,75.9139
129.0694,75.9708
128.8439,76.0642
128.6358,76.1917
128.6358,76.1917
128.4502,76.3502
128.2917,76.5358
128.2917,76.5358
128.1642,76.7439
128.0708,76.9694
128.0139,77.2067
127.9947,77.4500
128.0139,77.6933
128.0708,77.9306
128.1642,78.1561
128.2917,78.3642
128.2917,78.3642
128.2917,78.3642
128.4502,78.5498
128.5939,78.6725
128.6358,78.7083
128.6358,78.7083
128.8439,78.8358
129.0694,78.9292
129.0694,78.9292
129.0694,78.9292
129.0694,78.9292
129.3067,78.9861
129.5500,79.0053
129.7933,78.9861
130.0306,78.9292
130.2561,78.8358
130.4642,78.7083
130.6498,78.5498
130.7312,78.4544
130.7897,78.4162
130.8596,78.4157
130.9186,78.4531
130.9481,78.5164
130.9495,78.5349
130.9495,81.4451
130.9298,81.5121
130.8770,81.5579
130.8079,81.5678
130.7443,81.5388
130.7312,81.5256
130.7197,81.5121
130.6498,81.4302
130.5271,81.3254
130.4642,81.2717
130.4642,81.2717
130.2561,81.1442
130.0306,81.0508
130.0306,81.0508
129.8719,81.0127
129.7933,80.9939
129.7933,80.9939
129.7933,80.9939
129.5500,80.9747
129.3067,80.9939
129.3067,80.9939
129.0694,81.0508
129.0694,81.0508
128.8439,81.1442
128.6358,81.2717
128.6358,81.2717
128.4502,81.4302
128.2917,81.6158
128.2917,81.6158
128.1642,81.8239
128.0708,82.0494
128.0139,82.2867
127.9947,82.5300
128.0139,82.7733
128.0139,82.7733
128.0139,82.7733
128.0708,83.0106
128.0708,83.0106
128.0708,83.0106
128.1642,83.2361
128.2917,83.4442
128.2917,83.4442
128.3193,83.4764
128.4502,83.6298
128.5931,83.7518
128.6358,83.7883
128.6358,83.7883
128.8439,83.9158
129.0694,84.0092
129.0694,84.0092
129.0694,84.0092
129.0694,84.0092
129.3067,84.0661
129.5500,84.0853
129.7933,84.0661
130.0306,84.0092
130.2561,83.9158
130.4642,83.7883
130.6498,83.6298
130.7312,83.5344
130.7897,83.4962
130.8596,83.4957
130.9186,83.5331
130.9481,83.5964
130.9495,83.6149
130.9495,87.0014
130.9298,87.0684
130.9132,87.0891
129.4277,88.5745
129.3664,88.6080
129.3498,88.6105
129.3460,88.6108
129.3067,88.6139
129.0694,88.6708
129.0694,88.6708
128.8439,88.7642
128.6358,88.8917
128.6358,88.8917
128.6030,88.9198
128.5392,88.9484
128.5224,88.9495
127.2555,88.9495
127.0689,88.9791
126.8892,89.0375
126.7208,89.1232
126.5679,89.2343
125.8843,89.9179
125.8284,89.9949
125.7901,90.0476
125.7901,90.0476
125.7732,90.0708
125.6875,90.2392
125.6291,90.4189
125.5995,90.6055
124.5500,90.6055
124.5500,45.8787
126.8495,45.8787
126.8495,46.1213
126.8812,46.3618
126.9439,46.5961
127.0368,46.8202
127.0368,46.8202
127.1581,47.0303
127.1581,47.0303
127.1581,47.0303
127.3057,47.2227
127.3057,47.2227
127.4773,47.3943
127.4773,47.3943
127.6697,47.5419
127.8798,47.6632
128.1039,47.7561
128.3382,47.8188
128.5186,47.8426
128.5787,47.8505
128.5787,47.8505
128.8213,47.8505
128.8694,47.8442
129.0618,47.8188
129.2961,47.7561
129.5202,47.6632
129.7303,47.5419
129.9227,47.3943
130.0943,47.2227
130.2419,47.0303
130.3632,46.8202
130.4561,46.5961
130.5188,46.3618
130.5505,46.1213
130.5505,45.8787
130.5188,45.6382
130.4561,45.4039
130.3632,45.1798
130.2419,44.9697
130.0943,44.7773
130.0943,44.7773
129.9227,44.6057
129.9227,44.6057
129.7303,44.4581
129.7303,44.4581
129.7303,44.4581
129.5202,44.3368
129.5202,44.3368
129.2961,44.2439
129.0618,44.1812
128.8213,44.1495
128.8213,44.1495
128.5787,44.1495
128.5787,44.1495
128.3382,44.1812
128.1039,44.2439
127.8798,44.3368
127.8798,44.3368
127.6697,44.4581
127.4773,44.6057
127.4773,44.6057
127.3057,44.7773
127.3057,44.7773
127.1581,44.9697
127.0368,45.1798
127.0368,45.1798
126.9439,45.4039
126.8812,45.6382
126.8495,45.8787
124.5500,45.8787
124.5500,36.1500
127.1446,36.1500
127.1643,36.4509
127.1643,36.4509
127.2231,36.7467
127.2231,36.7467
127.3201,37.0322
127.3201,37.0323
127.4534,37.3027
127.4534,37.3027
127.6210,37.5535
127.8198,37.7802
128.0465,37.9790
128.2973,38.1466
128.2973,38.1466
128.5677,38.2799
128.5677,38.2799
128.5677,38.2799
128.8533,38.3769
129.0533,38.4167
129.1491,38.4357
129.1491,38.4357
129.1491,38.4357
129.4500,38.4554
129.7509,38.4357
130.0467,38.3769
130.3323,38.2799
130.6027,38.1466
130.8535,37.9790
131.0802,37.7802
131.2790,37.5535
131.4466,37.3027
131.5799,37.0323
131.6769,36.7467
131.7357,36.4509
131.7554,36.1500
131.7357,35.8491
131.6769,35.5533
131.5799,35.2677
131.4959,35.0973
131.4466,34.9973
131.4466,34.9973
131.2790,34.7465
131.0802,34.5198
130.8535,34.3210
130.6027,34.1534
130.6027,34.1534
130.3323,34.0201
130.3322,34.0201
130.0467,33.9231
130.0467,33.9231
130.0467,33.9231
130.0467,33.9231
130.0467,33.9231
129.7509,33.8643
129.7509,33.8643
129.7509,33.8643
129.4500,33.8446
129.1491,33.8643
129.1491,33.8643
129.1491,33.8643
128.8533,33.9231
128.8533,33.9231
128.5678,34.0201
128.5677,34.0201
128.2973,34.1534
128.2973,34.1534
128.0465,34.3210
127.8198,34.5198
127.6210,34.7465
127.4534,34.9973
127.4534,34.9973
127.3201,35.2677
127.3201,35.2678
127.2231,35.5533
127.2231,35.5533
127.1643,35.8491
127.1643,35.8491
127.1643,35.8491
127.1577,35.9491
127.1446,36.1500
124.5500,36.1500
124.5500,32.0990
124.5697,32.0320
124.6225,31.9862
124.6740,31.9750
157.4760,31.9750
Z" /> 
<path style="fill:#000000; fill-opacity:1.0000; stroke:none;fill-rule:evenodd;"
d="M 146.9876,88.8210
147.0243,88.8446
147.1468,88.9582
147.2054,88.9982
147.2497,89.0522
147.2595,89.1006
147.2595,89.9949
147.2398,90.0620
147.2232,90.0826
146.8322,90.4736
146.7709,90.5071
146.7012,90.5021
146.6452,90.4602
146.6208,90.3948
146.6205,90.3859
146.6205,89.1006
146.6402,89.0336
146.6746,88.9982
146.7332,88.9582
146.8557,88.8446
146.9182,88.8135
Z" /> 
<path style="fill:#000000; fill-opacity:1.0000; stroke:none;fill-rule:evenodd;"
d="M 142.5092,130.6092
142.5357,130.6399
142.5567,130.6742
142.5567,130.6742
142.7107,130.8545
142.7393,130.9182
142.7289,130.9873
142.6827,131.0398
142.6155,131.0590
142.6067,131.0586
142.4660,131.0475
142.4300,131.0447
142.4300,131.0447
142.2533,131.0586
142.1849,131.0442
142.1352,130.9952
142.1198,130.9270
142.1438,130.8614
142.1493,130.8545
142.3033,130.6742
142.3243,130.6399
142.3761,130.5930
142.4450,130.5816
Z" /> 
<path style="fill:#000000; fill-opacity:1.0000; stroke:none;fill-rule:evenodd;"
d="M 139.7392,130.6092
139.7657,130.6399
139.7867,130.6742
139.7867,130.6742
139.9407,130.8545
139.9693,130.9182
139.9589,130.9873
139.9127,131.0398
139.8455,131.0590
139.8367,131.0586
139.6960,131.0475
139.6600,131.0447
139.6600,131.0447
139.4833,131.0586
139.4149,131.0442
139.3652,130.9952
139.3498,130.9270
139.3738,130.8614
139.3793,130.8545
139.5333,130.6742
139.5543,130.6399
139.6061,130.5930
139.6750,130.5816
Z" /> 
<path style="fill:#000000; fill-opacity:1.0000; stroke:none;fill-rule:evenodd;"
d="M 136.9692,130.6092
136.9957,130.6399
137.0167,130.6742
137.0167,130.6742
137.1707,130.8545
137.1993,130.9182
137.1889,130.9873
137.1427,131.0398
137.0755,131.0590
137.0667,131.0586
136.9260,131.0475
136.8900,131.0447
136.8900,131.0447
136.7133,131.0586
136.6449,131.0442
136.5952,130.9952
136.5798,130.9270
136.6038,130.8614
136.6093,130.8545
136.7633,130.6742
136.7843,130.6399
136.8361,130.5930
136.9050,130.5816
Z" /> 
<path style="fill:#000000; fill-opacity:1.0000; stroke:none;fill-rule:evenodd;"
d="M 143.6383,131.3014
143.8150,131.3153
143.9917,131.3014
144.0601,131.3158
144.1098,131.3648
144.1252,131.4330
144.1012,131.4986
144.0957,131.5055
143.9417,131.6858
143.9207,131.7201
143.8689,131.7670
143.8000,131.7784
143.7358,131.7508
143.7093,131.7201
143.6883,131.6858
143.6883,131.6858
143.5343,131.5055
143.5057,131.4418
143.5161,131.3727
143.5623,131.3202
143.6295,131.3010
Z" /> 
<path style="fill:#000000; fill-opacity:1.0000; stroke:none;fill-rule:evenodd;"
d="M 140.8683,131.3014
141.0450,131.3153
141.2217,131.3014
141.2901,131.3158
141.3398,131.3648
141.3552,131.4330
141.3312,131.4986
141.3257,131.5055
141.1717,131.6858
141.1507,131.7201
141.0989,131.7670
141.0300,131.7784
140.9658,131.7508
140.9393,131.7201
140.9183,131.6858
140.9183,131.6858
140.7643,131.5055
140.7357,131.4418
140.7461,131.3727
140.7923,131.3202
140.8595,131.3010
Z" /> 
<path style="fill:#000000; fill-opacity:1.0000; stroke:none;fill-rule:evenodd;"
d="M 138.0983,131.3014
138.2750,131.3153
138.4517,131.3014
138.5201,131.3158
138.5698,131.3648
138.5852,131.4330
138.5612,131.4986
138.5557,131.5055
138.4017,131.6858
138.3807,131.7201
138.3289,131.7670
138.2600,131.7784
138.1958,131.7508
138.1693,131.7201
138.1483,131.6858
138.1483,131.6858
137.9943,131.5055
137.9657,131.4418
137.9761,131.3727
138.0223,131.3202
138.0895,131.3010
Z" /> 
</g> 
</svg>
