<?xml version="1.0" standalone="no"?>
 <!DOCTYPE svg PUBLIC "-//W3C//DTD SVG 1.1//EN" 
 "http://www.w3.org/Graphics/SVG/1.1/DTD/svg11.dtd"> 
<svg
  xmlns:svg="http://www.w3.org/2000/svg"
  xmlns="http://www.w3.org/2000/svg"
  xmlns:xlink="http://www.w3.org/1999/xlink"
  version="1.1"
  width="297.0022mm" height="210.0072mm" viewBox="0.0000 0.0000 297.0022 210.0072">
<title>SVG Image created as Timer_Flashar-F_Paste.svg date 2024/07/30 16:54:25 </title>
  <desc>Image generated by PCBNEW </desc>
<g style="fill:#000000; fill-opacity:1.0000;stroke:#000000; stroke-opacity:1.0000;
stroke-linecap:round; stroke-linejoin:round;"
 transform="translate(0 0) scale(1 1)">
<path style="fill:#000000; fill-opacity:1.0000; stroke:none;fill-rule:evenodd;"
d="M 152.5450,112.4385
152.5450,110.9135
153.1950,110.9135
153.1950,112.4385
Z" /> 
<path style="fill:#000000; fill-opacity:1.0000; stroke:none;fill-rule:evenodd;"
d="M 151.2750,112.4385
151.2750,110.9135
151.9250,110.9135
151.9250,112.4385
Z" /> 
<path style="fill:#000000; fill-opacity:1.0000; stroke:none;fill-rule:evenodd;"
d="M 150.0050,112.4385
150.0050,110.9135
150.6550,110.9135
150.6550,112.4385
Z" /> 
<path style="fill:#000000; fill-opacity:1.0000; stroke:none;fill-rule:evenodd;"
d="M 148.7350,112.4385
148.7350,110.9135
149.3850,110.9135
149.3850,112.4385
Z" /> 
<path style="fill:#000000; fill-opacity:1.0000; stroke:none;fill-rule:evenodd;"
d="M 147.4650,112.4385
147.4650,110.9135
148.1150,110.9135
148.1150,112.4385
Z" /> 
<path style="fill:#000000; fill-opacity:1.0000; stroke:none;fill-rule:evenodd;"
d="M 146.1950,112.4385
146.1950,110.9135
146.8450,110.9135
146.8450,112.4385
Z" /> 
<path style="fill:#000000; fill-opacity:1.0000; stroke:none;fill-rule:evenodd;"
d="M 144.9250,112.4385
144.9250,110.9135
145.5750,110.9135
145.5750,112.4385
Z" /> 
<path style="fill:#000000; fill-opacity:1.0000; stroke:none;fill-rule:evenodd;"
d="M 143.6550,112.4385
143.6550,110.9135
144.3050,110.9135
144.3050,112.4385
Z" /> 
<path style="fill:#000000; fill-opacity:1.0000; stroke:none;fill-rule:evenodd;"
d="M 143.6550,117.8625
143.6550,116.3375
144.3050,116.3375
144.3050,117.8625
Z" /> 
<path style="fill:#000000; fill-opacity:1.0000; stroke:none;fill-rule:evenodd;"
d="M 144.9250,117.8625
144.9250,116.3375
145.5750,116.3375
145.5750,117.8625
Z" /> 
<path style="fill:#000000; fill-opacity:1.0000; stroke:none;fill-rule:evenodd;"
d="M 146.1950,117.8625
146.1950,116.3375
146.8450,116.3375
146.8450,117.8625
Z" /> 
<path style="fill:#000000; fill-opacity:1.0000; stroke:none;fill-rule:evenodd;"
d="M 147.4650,117.8625
147.4650,116.3375
148.1150,116.3375
148.1150,117.8625
Z" /> 
<path style="fill:#000000; fill-opacity:1.0000; stroke:none;fill-rule:evenodd;"
d="M 148.7350,117.8625
148.7350,116.3375
149.3850,116.3375
149.3850,117.8625
Z" /> 
<path style="fill:#000000; fill-opacity:1.0000; stroke:none;fill-rule:evenodd;"
d="M 150.0050,117.8625
150.0050,116.3375
150.6550,116.3375
150.6550,117.8625
Z" /> 
<path style="fill:#000000; fill-opacity:1.0000; stroke:none;fill-rule:evenodd;"
d="M 151.2750,117.8625
151.2750,116.3375
151.9250,116.3375
151.9250,117.8625
Z" /> 
<path style="fill:#000000; fill-opacity:1.0000; stroke:none;fill-rule:evenodd;"
d="M 152.5450,117.8625
152.5450,116.3375
153.1950,116.3375
153.1950,117.8625
Z" /> 
<path style="fill:#000000; fill-opacity:1.0000; stroke:none;fill-rule:evenodd;"
d="M 141.2750,110.4500
141.3820,110.4656
141.4929,110.5198
141.5802,110.6071
141.6344,110.7180
141.6500,110.8250
141.6500,112.0750
141.6344,112.1820
141.5802,112.2929
141.4929,112.3802
141.3820,112.4344
141.2750,112.4500
140.5250,112.4500
140.4180,112.4344
140.3071,112.3802
140.2198,112.2929
140.1656,112.1820
140.1500,112.0750
140.1500,110.8250
140.1656,110.7180
140.2198,110.6071
140.3071,110.5198
140.4180,110.4656
140.5250,110.4500
Z" /> 
<path style="fill:#000000; fill-opacity:1.0000; stroke:none;fill-rule:evenodd;"
d="M 138.9750,110.4500
139.0820,110.4656
139.1929,110.5198
139.2802,110.6071
139.3344,110.7180
139.3500,110.8250
139.3500,112.0750
139.3344,112.1820
139.2802,112.2929
139.1929,112.3802
139.0820,112.4344
138.9750,112.4500
138.2250,112.4500
138.1180,112.4344
138.0071,112.3802
137.9198,112.2929
137.8656,112.1820
137.8500,112.0750
137.8500,110.8250
137.8656,110.7180
137.9198,110.6071
138.0071,110.5198
138.1180,110.4656
138.2250,110.4500
Z" /> 
<path style="fill:#000000; fill-opacity:1.0000; stroke:none;fill-rule:evenodd;"
d="M 140.0000,116.7500
140.1063,116.7614
140.2396,116.8112
140.3536,116.8964
140.4388,117.0104
140.4886,117.1437
140.5000,117.2500
140.5000,118.2500
140.4886,118.3563
140.4388,118.4896
140.3536,118.6036
140.2396,118.6888
140.1063,118.7386
140.0000,118.7500
137.2000,118.7500
137.0937,118.7386
136.9604,118.6888
136.8464,118.6036
136.7612,118.4896
136.7114,118.3563
136.7000,118.2500
136.7000,117.2500
136.7114,117.1437
136.7612,117.0104
136.8464,116.8964
136.9604,116.8112
137.0937,116.7614
137.2000,116.7500
Z" /> 
<path style="fill:#000000; fill-opacity:1.0000; stroke:none;fill-rule:evenodd;"
d="M 136.6750,110.4500
136.7820,110.4656
136.8929,110.5198
136.9802,110.6071
137.0344,110.7180
137.0500,110.8250
137.0500,112.0750
137.0344,112.1820
136.9802,112.2929
136.8929,112.3802
136.7820,112.4344
136.6750,112.4500
135.9250,112.4500
135.8180,112.4344
135.7071,112.3802
135.6198,112.2929
135.5656,112.1820
135.5500,112.0750
135.5500,110.8250
135.5656,110.7180
135.6198,110.6071
135.7071,110.5198
135.8180,110.4656
135.9250,110.4500
Z" /> 
<path style="fill:#000000; fill-opacity:1.0000; stroke:none;fill-rule:evenodd;"
d="M 148.5750,101.7500
148.5921,101.6639
148.6409,101.5909
148.7139,101.5421
148.8000,101.5250
149.2500,101.5250
149.3361,101.5421
149.4091,101.5909
149.4579,101.6639
149.4750,101.7500
149.4750,102.2500
149.4579,102.3361
149.4091,102.4091
149.3361,102.4579
149.2500,102.4750
148.8000,102.4750
148.7139,102.4579
148.6409,102.4091
148.5921,102.3361
148.5750,102.2500
Z" /> 
<path style="fill:#000000; fill-opacity:1.0000; stroke:none;fill-rule:evenodd;"
d="M 150.1250,101.7500
150.1421,101.6639
150.1909,101.5909
150.2639,101.5421
150.3500,101.5250
150.8000,101.5250
150.8861,101.5421
150.9591,101.5909
151.0079,101.6639
151.0250,101.7500
151.0250,102.2500
151.0079,102.3361
150.9591,102.4091
150.8861,102.4579
150.8000,102.4750
150.3500,102.4750
150.2639,102.4579
150.1909,102.4091
150.1421,102.3361
150.1250,102.2500
Z" /> 
<path style="fill:#000000; fill-opacity:1.0000; stroke:none;fill-rule:evenodd;"
d="M 129.5500,109.3500
129.5329,109.4361
129.4841,109.5091
129.4111,109.5579
129.3250,109.5750
128.8750,109.5750
128.7889,109.5579
128.7159,109.5091
128.6671,109.4361
128.6500,109.3500
128.6500,108.8500
128.6671,108.7639
128.7159,108.6909
128.7889,108.6421
128.8750,108.6250
129.3250,108.6250
129.4111,108.6421
129.4841,108.6909
129.5329,108.7639
129.5500,108.8500
Z" /> 
<path style="fill:#000000; fill-opacity:1.0000; stroke:none;fill-rule:evenodd;"
d="M 128.0000,109.3500
127.9829,109.4361
127.9341,109.5091
127.8611,109.5579
127.7750,109.5750
127.3250,109.5750
127.2389,109.5579
127.1659,109.5091
127.1171,109.4361
127.1000,109.3500
127.1000,108.8500
127.1171,108.7639
127.1659,108.6909
127.2389,108.6421
127.3250,108.6250
127.7750,108.6250
127.8611,108.6421
127.9341,108.6909
127.9829,108.7639
128.0000,108.8500
Z" /> 
<path style="fill:#000000; fill-opacity:1.0000; stroke:none;fill-rule:evenodd;"
d="M 146.6000,106.1500
146.5829,106.2361
146.5341,106.3091
146.4611,106.3579
146.3750,106.3750
145.9250,106.3750
145.8389,106.3579
145.7659,106.3091
145.7171,106.2361
145.7000,106.1500
145.7000,105.6500
145.7171,105.5639
145.7659,105.4909
145.8389,105.4421
145.9250,105.4250
146.3750,105.4250
146.4611,105.4421
146.5341,105.4909
146.5829,105.5639
146.6000,105.6500
Z" /> 
<path style="fill:#000000; fill-opacity:1.0000; stroke:none;fill-rule:evenodd;"
d="M 145.0500,106.1500
145.0329,106.2361
144.9841,106.3091
144.9111,106.3579
144.8250,106.3750
144.3750,106.3750
144.2889,106.3579
144.2159,106.3091
144.1671,106.2361
144.1500,106.1500
144.1500,105.6500
144.1671,105.5639
144.2159,105.4909
144.2889,105.4421
144.3750,105.4250
144.8250,105.4250
144.9111,105.4421
144.9841,105.4909
145.0329,105.5639
145.0500,105.6500
Z" /> 
<path style="fill:#000000; fill-opacity:1.0000; stroke:none;fill-rule:evenodd;"
d="M 135.9500,95.8750
135.9500,96.9250
135.3500,96.9250
135.3500,95.8750
Z" /> 
<path style="fill:#000000; fill-opacity:1.0000; stroke:none;fill-rule:evenodd;"
d="M 137.8500,95.8750
137.8500,96.9250
137.2500,96.9250
137.2500,95.8750
Z" /> 
<path style="fill:#000000; fill-opacity:1.0000; stroke:none;fill-rule:evenodd;"
d="M 136.9000,93.6750
136.9000,94.7250
136.3000,94.7250
136.3000,93.6750
Z" /> 
<path style="fill:#000000; fill-opacity:1.0000; stroke:none;fill-rule:evenodd;"
d="M 155.3000,66.8000
155.2886,66.9063
155.2388,67.0396
155.1536,67.1536
155.0396,67.2388
154.9063,67.2886
154.8000,67.3000
151.8000,67.3000
151.6937,67.2886
151.5604,67.2388
151.4464,67.1536
151.3612,67.0396
151.3114,66.9063
151.3000,66.8000
151.3000,65.8000
151.3114,65.6937
151.3612,65.5604
151.4464,65.4464
151.5604,65.3612
151.6937,65.3114
151.8000,65.3000
154.8000,65.3000
154.9063,65.3114
155.0396,65.3612
155.1536,65.4464
155.2388,65.5604
155.2886,65.6937
155.3000,65.8000
Z" /> 
<path style="fill:#000000; fill-opacity:1.0000; stroke:none;fill-rule:evenodd;"
d="M 155.3000,64.3000
155.2886,64.4063
155.2388,64.5396
155.1536,64.6536
155.0396,64.7388
154.9063,64.7886
154.8000,64.8000
151.8000,64.8000
151.6937,64.7886
151.5604,64.7388
151.4464,64.6536
151.3612,64.5396
151.3114,64.4063
151.3000,64.3000
151.3000,63.3000
151.3114,63.1937
151.3612,63.0604
151.4464,62.9464
151.5604,62.8612
151.6937,62.8114
151.8000,62.8000
154.8000,62.8000
154.9063,62.8114
155.0396,62.8612
155.1536,62.9464
155.2388,63.0604
155.2886,63.1937
155.3000,63.3000
Z" /> 
<path style="fill:#000000; fill-opacity:1.0000; stroke:none;fill-rule:evenodd;"
d="M 155.2500,55.6000
155.2386,55.7063
155.1888,55.8396
155.1036,55.9536
154.9896,56.0388
154.8563,56.0886
154.7500,56.1000
151.7500,56.1000
151.6437,56.0886
151.5104,56.0388
151.3964,55.9536
151.3112,55.8396
151.2614,55.7063
151.2500,55.6000
151.2500,54.6000
151.2614,54.4937
151.3112,54.3604
151.3964,54.2464
151.5104,54.1612
151.6437,54.1114
151.7500,54.1000
154.7500,54.1000
154.8563,54.1114
154.9896,54.1612
155.1036,54.2464
155.1888,54.3604
155.2386,54.4937
155.2500,54.6000
Z" /> 
<path style="fill:#000000; fill-opacity:1.0000; stroke:none;fill-rule:evenodd;"
d="M 155.2500,53.1500
155.2386,53.2563
155.1888,53.3896
155.1036,53.5036
154.9896,53.5888
154.8563,53.6386
154.7500,53.6500
151.7500,53.6500
151.6437,53.6386
151.5104,53.5888
151.3964,53.5036
151.3112,53.3896
151.2614,53.2563
151.2500,53.1500
151.2500,52.1500
151.2614,52.0437
151.3112,51.9104
151.3964,51.7964
151.5104,51.7112
151.6437,51.6614
151.7500,51.6500
154.7500,51.6500
154.8563,51.6614
154.9896,51.7112
155.1036,51.7964
155.1888,51.9104
155.2386,52.0437
155.2500,52.1500
Z" /> 
<path style="fill:#000000; fill-opacity:1.0000; stroke:none;fill-rule:evenodd;"
d="M 131.0000,66.7500
130.9886,66.8563
130.9388,66.9896
130.8536,67.1036
130.7396,67.1888
130.6063,67.2386
130.5000,67.2500
127.5000,67.2500
127.3937,67.2386
127.2604,67.1888
127.1464,67.1036
127.0612,66.9896
127.0114,66.8563
127.0000,66.7500
127.0000,65.7500
127.0114,65.6437
127.0612,65.5104
127.1464,65.3964
127.2604,65.3112
127.3937,65.2614
127.5000,65.2500
130.5000,65.2500
130.6063,65.2614
130.7396,65.3112
130.8536,65.3964
130.9388,65.5104
130.9886,65.6437
131.0000,65.7500
Z" /> 
<path style="fill:#000000; fill-opacity:1.0000; stroke:none;fill-rule:evenodd;"
d="M 131.0500,64.3500
131.0386,64.4563
130.9888,64.5896
130.9036,64.7036
130.7896,64.7888
130.6563,64.8386
130.5500,64.8500
127.5500,64.8500
127.4437,64.8386
127.3104,64.7888
127.1964,64.7036
127.1112,64.5896
127.0614,64.4563
127.0500,64.3500
127.0500,63.3500
127.0614,63.2437
127.1112,63.1104
127.1964,62.9964
127.3104,62.9112
127.4437,62.8614
127.5500,62.8500
130.5500,62.8500
130.6563,62.8614
130.7896,62.9112
130.9036,62.9964
130.9888,63.1104
131.0386,63.2437
131.0500,63.3500
Z" /> 
<path style="fill:#000000; fill-opacity:1.0000; stroke:none;fill-rule:evenodd;"
d="M 131.0000,55.5000
130.9886,55.6063
130.9388,55.7396
130.8536,55.8536
130.7396,55.9388
130.6063,55.9886
130.5000,56.0000
127.5000,56.0000
127.3937,55.9886
127.2604,55.9388
127.1464,55.8536
127.0612,55.7396
127.0114,55.6063
127.0000,55.5000
127.0000,54.5000
127.0114,54.3937
127.0612,54.2604
127.1464,54.1464
127.2604,54.0612
127.3937,54.0114
127.5000,54.0000
130.5000,54.0000
130.6063,54.0114
130.7396,54.0612
130.8536,54.1464
130.9388,54.2604
130.9886,54.3937
131.0000,54.5000
Z" /> 
<path style="fill:#000000; fill-opacity:1.0000; stroke:none;fill-rule:evenodd;"
d="M 131.0000,53.1500
130.9886,53.2563
130.9388,53.3896
130.8536,53.5036
130.7396,53.5888
130.6063,53.6386
130.5000,53.6500
127.5000,53.6500
127.3937,53.6386
127.2604,53.5888
127.1464,53.5036
127.0612,53.3896
127.0114,53.2563
127.0000,53.1500
127.0000,52.1500
127.0114,52.0437
127.0612,51.9104
127.1464,51.7964
127.2604,51.7112
127.3937,51.6614
127.5000,51.6500
130.5000,51.6500
130.6063,51.6614
130.7396,51.7112
130.8536,51.7964
130.9388,51.9104
130.9886,52.0437
131.0000,52.1500
Z" /> 
<path style="fill:#000000; fill-opacity:1.0000; stroke:none;fill-rule:evenodd;"
d="M 138.1250,109.3500
138.1079,109.4361
138.0591,109.5091
137.9861,109.5579
137.9000,109.5750
137.4500,109.5750
137.3639,109.5579
137.2909,109.5091
137.2421,109.4361
137.2250,109.3500
137.2250,108.8500
137.2421,108.7639
137.2909,108.6909
137.3639,108.6421
137.4500,108.6250
137.9000,108.6250
137.9861,108.6421
138.0591,108.6909
138.1079,108.7639
138.1250,108.8500
Z" /> 
<path style="fill:#000000; fill-opacity:1.0000; stroke:none;fill-rule:evenodd;"
d="M 136.5750,109.3500
136.5579,109.4361
136.5091,109.5091
136.4361,109.5579
136.3500,109.5750
135.9000,109.5750
135.8139,109.5579
135.7409,109.5091
135.6921,109.4361
135.6750,109.3500
135.6750,108.8500
135.6921,108.7639
135.7409,108.6909
135.8139,108.6421
135.9000,108.6250
136.3500,108.6250
136.4361,108.6421
136.5091,108.6909
136.5579,108.7639
136.5750,108.8500
Z" /> 
<path style="fill:#000000; fill-opacity:1.0000; stroke:none;fill-rule:evenodd;"
d="M 132.8250,109.3500
132.8079,109.4361
132.7591,109.5091
132.6861,109.5579
132.6000,109.5750
132.1500,109.5750
132.0639,109.5579
131.9909,109.5091
131.9421,109.4361
131.9250,109.3500
131.9250,108.8500
131.9421,108.7639
131.9909,108.6909
132.0639,108.6421
132.1500,108.6250
132.6000,108.6250
132.6861,108.6421
132.7591,108.6909
132.8079,108.7639
132.8250,108.8500
Z" /> 
<path style="fill:#000000; fill-opacity:1.0000; stroke:none;fill-rule:evenodd;"
d="M 131.2750,109.3500
131.2579,109.4361
131.2091,109.5091
131.1361,109.5579
131.0500,109.5750
130.6000,109.5750
130.5139,109.5579
130.4409,109.5091
130.3921,109.4361
130.3750,109.3500
130.3750,108.8500
130.3921,108.7639
130.4409,108.6909
130.5139,108.6421
130.6000,108.6250
131.0500,108.6250
131.1361,108.6421
131.2091,108.6909
131.2579,108.7639
131.2750,108.8500
Z" /> 
<path style="fill:#000000; fill-opacity:1.0000; stroke:none;fill-rule:evenodd;"
d="M 152.5000,102.0125
152.4043,101.9935
152.3232,101.9393
152.2690,101.8582
152.2500,101.7625
152.2500,101.2375
152.2690,101.1418
152.3232,101.0607
152.4043,101.0065
152.5000,100.9875
153.4000,100.9875
153.4957,101.0065
153.5768,101.0607
153.6310,101.1418
153.6500,101.2375
153.6500,101.7625
153.6310,101.8582
153.5768,101.9393
153.4957,101.9935
153.4000,102.0125
Z" /> 
<path style="fill:#000000; fill-opacity:1.0000; stroke:none;fill-rule:evenodd;"
d="M 152.5000,100.1875
152.4043,100.1685
152.3232,100.1143
152.2690,100.0332
152.2500,99.9375
152.2500,99.4125
152.2690,99.3168
152.3232,99.2357
152.4043,99.1815
152.5000,99.1625
153.4000,99.1625
153.4957,99.1815
153.5768,99.2357
153.6310,99.3168
153.6500,99.4125
153.6500,99.9375
153.6310,100.0332
153.5768,100.1143
153.4957,100.1685
153.4000,100.1875
Z" /> 
<path style="fill:#000000; fill-opacity:1.0000; stroke:none;fill-rule:evenodd;"
d="M 131.1000,98.1000
131.1152,98.0235
131.1586,97.9586
131.2235,97.9152
131.3000,97.9000
131.7000,97.9000
131.7765,97.9152
131.8414,97.9586
131.8848,98.0235
131.9000,98.1000
131.9000,98.6500
131.8848,98.7265
131.8414,98.7914
131.7765,98.8348
131.7000,98.8500
131.3000,98.8500
131.2235,98.8348
131.1586,98.7914
131.1152,98.7265
131.1000,98.6500
Z" /> 
<path style="fill:#000000; fill-opacity:1.0000; stroke:none;fill-rule:evenodd;"
d="M 132.7500,98.1000
132.7652,98.0235
132.8086,97.9586
132.8735,97.9152
132.9500,97.9000
133.3500,97.9000
133.4265,97.9152
133.4914,97.9586
133.5348,98.0235
133.5500,98.1000
133.5500,98.6500
133.5348,98.7265
133.4914,98.7914
133.4265,98.8348
133.3500,98.8500
132.9500,98.8500
132.8735,98.8348
132.8086,98.7914
132.7652,98.7265
132.7500,98.6500
Z" /> 
<path style="fill:#000000; fill-opacity:1.0000; stroke:none;fill-rule:evenodd;"
d="M 154.8500,118.5500
154.7639,118.5329
154.6909,118.4841
154.6421,118.4111
154.6250,118.3250
154.6250,117.8750
154.6421,117.7889
154.6909,117.7159
154.7639,117.6671
154.8500,117.6500
155.3500,117.6500
155.4361,117.6671
155.5091,117.7159
155.5579,117.7889
155.5750,117.8750
155.5750,118.3250
155.5579,118.4111
155.5091,118.4841
155.4361,118.5329
155.3500,118.5500
Z" /> 
<path style="fill:#000000; fill-opacity:1.0000; stroke:none;fill-rule:evenodd;"
d="M 154.8500,117.0000
154.7639,116.9829
154.6909,116.9341
154.6421,116.8611
154.6250,116.7750
154.6250,116.3250
154.6421,116.2389
154.6909,116.1659
154.7639,116.1171
154.8500,116.1000
155.3500,116.1000
155.4361,116.1171
155.5091,116.1659
155.5579,116.2389
155.5750,116.3250
155.5750,116.7750
155.5579,116.8611
155.5091,116.9341
155.4361,116.9829
155.3500,117.0000
Z" /> 
<path style="fill:#000000; fill-opacity:1.0000; stroke:none;fill-rule:evenodd;"
d="M 141.4500,102.3500
141.4500,104.5500
139.9000,104.5500
139.9000,102.3500
Z" /> 
<path style="fill:#000000; fill-opacity:1.0000; stroke:none;fill-rule:evenodd;"
d="M 141.4500,98.2500
141.4500,100.4500
139.9000,100.4500
139.9000,98.2500
Z" /> 
<path style="fill:#000000; fill-opacity:1.0000; stroke:none;fill-rule:evenodd;"
d="M 144.8500,99.0505
144.8500,100.5255
144.4000,100.5255
144.4000,99.0505
Z" /> 
<path style="fill:#000000; fill-opacity:1.0000; stroke:none;fill-rule:evenodd;"
d="M 145.5000,99.0505
145.5000,100.5255
145.0500,100.5255
145.0500,99.0505
Z" /> 
<path style="fill:#000000; fill-opacity:1.0000; stroke:none;fill-rule:evenodd;"
d="M 146.1500,99.0505
146.1500,100.5255
145.7000,100.5255
145.7000,99.0505
Z" /> 
<path style="fill:#000000; fill-opacity:1.0000; stroke:none;fill-rule:evenodd;"
d="M 146.8000,99.0505
146.8000,100.5255
146.3500,100.5255
146.3500,99.0505
Z" /> 
<path style="fill:#000000; fill-opacity:1.0000; stroke:none;fill-rule:evenodd;"
d="M 147.4500,99.0505
147.4500,100.5255
147.0000,100.5255
147.0000,99.0505
Z" /> 
<path style="fill:#000000; fill-opacity:1.0000; stroke:none;fill-rule:evenodd;"
d="M 148.1000,99.0505
148.1000,100.5255
147.6500,100.5255
147.6500,99.0505
Z" /> 
<path style="fill:#000000; fill-opacity:1.0000; stroke:none;fill-rule:evenodd;"
d="M 148.7500,99.0505
148.7500,100.5255
148.3000,100.5255
148.3000,99.0505
Z" /> 
<path style="fill:#000000; fill-opacity:1.0000; stroke:none;fill-rule:evenodd;"
d="M 149.4000,99.0505
149.4000,100.5255
148.9500,100.5255
148.9500,99.0505
Z" /> 
<path style="fill:#000000; fill-opacity:1.0000; stroke:none;fill-rule:evenodd;"
d="M 150.0500,99.0505
150.0500,100.5255
149.6000,100.5255
149.6000,99.0505
Z" /> 
<path style="fill:#000000; fill-opacity:1.0000; stroke:none;fill-rule:evenodd;"
d="M 150.7000,99.0505
150.7000,100.5255
150.2500,100.5255
150.2500,99.0505
Z" /> 
<path style="fill:#000000; fill-opacity:1.0000; stroke:none;fill-rule:evenodd;"
d="M 150.7000,93.1745
150.7000,94.6495
150.2500,94.6495
150.2500,93.1745
Z" /> 
<path style="fill:#000000; fill-opacity:1.0000; stroke:none;fill-rule:evenodd;"
d="M 150.0500,93.1745
150.0500,94.6495
149.6000,94.6495
149.6000,93.1745
Z" /> 
<path style="fill:#000000; fill-opacity:1.0000; stroke:none;fill-rule:evenodd;"
d="M 149.4000,93.1745
149.4000,94.6495
148.9500,94.6495
148.9500,93.1745
Z" /> 
<path style="fill:#000000; fill-opacity:1.0000; stroke:none;fill-rule:evenodd;"
d="M 148.7500,93.1745
148.7500,94.6495
148.3000,94.6495
148.3000,93.1745
Z" /> 
<path style="fill:#000000; fill-opacity:1.0000; stroke:none;fill-rule:evenodd;"
d="M 148.1000,93.1745
148.1000,94.6495
147.6500,94.6495
147.6500,93.1745
Z" /> 
<path style="fill:#000000; fill-opacity:1.0000; stroke:none;fill-rule:evenodd;"
d="M 147.4500,93.1745
147.4500,94.6495
147.0000,94.6495
147.0000,93.1745
Z" /> 
<path style="fill:#000000; fill-opacity:1.0000; stroke:none;fill-rule:evenodd;"
d="M 146.8000,93.1745
146.8000,94.6495
146.3500,94.6495
146.3500,93.1745
Z" /> 
<path style="fill:#000000; fill-opacity:1.0000; stroke:none;fill-rule:evenodd;"
d="M 146.1500,93.1745
146.1500,94.6495
145.7000,94.6495
145.7000,93.1745
Z" /> 
<path style="fill:#000000; fill-opacity:1.0000; stroke:none;fill-rule:evenodd;"
d="M 145.5000,93.1745
145.5000,94.6495
145.0500,94.6495
145.0500,93.1745
Z" /> 
<path style="fill:#000000; fill-opacity:1.0000; stroke:none;fill-rule:evenodd;"
d="M 144.8500,93.1745
144.8500,94.6495
144.4000,94.6495
144.4000,93.1745
Z" /> 
<path style="fill:#000000; fill-opacity:1.0000; stroke:none;fill-rule:evenodd;"
d="M 155.3500,111.6000
155.4361,111.6171
155.5091,111.6659
155.5579,111.7389
155.5750,111.8250
155.5750,112.2750
155.5579,112.3611
155.5091,112.4341
155.4361,112.4829
155.3500,112.5000
154.8500,112.5000
154.7639,112.4829
154.6909,112.4341
154.6421,112.3611
154.6250,112.2750
154.6250,111.8250
154.6421,111.7389
154.6909,111.6659
154.7639,111.6171
154.8500,111.6000
Z" /> 
<path style="fill:#000000; fill-opacity:1.0000; stroke:none;fill-rule:evenodd;"
d="M 155.3500,113.1500
155.4361,113.1671
155.5091,113.2159
155.5579,113.2889
155.5750,113.3750
155.5750,113.8250
155.5579,113.9111
155.5091,113.9841
155.4361,114.0329
155.3500,114.0500
154.8500,114.0500
154.7639,114.0329
154.6909,113.9841
154.6421,113.9111
154.6250,113.8250
154.6250,113.3750
154.6421,113.2889
154.6909,113.2159
154.7639,113.1671
154.8500,113.1500
Z" /> 
<path style="fill:#000000; fill-opacity:1.0000; stroke:none;fill-rule:evenodd;"
d="M 132.8500,107.0000
132.8329,107.0861
132.7841,107.1591
132.7111,107.2079
132.6250,107.2250
132.1750,107.2250
132.0889,107.2079
132.0159,107.1591
131.9671,107.0861
131.9500,107.0000
131.9500,106.5000
131.9671,106.4139
132.0159,106.3409
132.0889,106.2921
132.1750,106.2750
132.6250,106.2750
132.7111,106.2921
132.7841,106.3409
132.8329,106.4139
132.8500,106.5000
Z" /> 
<path style="fill:#000000; fill-opacity:1.0000; stroke:none;fill-rule:evenodd;"
d="M 131.3000,107.0000
131.2829,107.0861
131.2341,107.1591
131.1611,107.2079
131.0750,107.2250
130.6250,107.2250
130.5389,107.2079
130.4659,107.1591
130.4171,107.0861
130.4000,107.0000
130.4000,106.5000
130.4171,106.4139
130.4659,106.3409
130.5389,106.2921
130.6250,106.2750
131.0750,106.2750
131.1611,106.2921
131.2341,106.3409
131.2829,106.4139
131.3000,106.5000
Z" /> 
<path style="fill:#000000; fill-opacity:1.0000; stroke:none;fill-rule:evenodd;"
d="M 155.4000,102.0250
155.4765,102.0402
155.5414,102.0836
155.5848,102.1485
155.6000,102.2250
155.6000,102.6250
155.5848,102.7015
155.5414,102.7664
155.4765,102.8098
155.4000,102.8250
154.3700,102.8250
154.2935,102.8098
154.2286,102.7664
154.1852,102.7015
154.1700,102.6250
154.1700,102.2250
154.1852,102.1485
154.2286,102.0836
154.2935,102.0402
154.3700,102.0250
Z" /> 
<path style="fill:#000000; fill-opacity:1.0000; stroke:none;fill-rule:evenodd;"
d="M 154.5125,100.0250
154.5556,100.0336
154.5921,100.0579
154.6164,100.0944
154.6250,100.1375
154.6250,101.0125
154.6164,101.0556
154.5921,101.0921
154.5556,101.1164
154.5125,101.1250
154.2875,101.1250
154.2444,101.1164
154.2079,101.0921
154.1836,101.0556
154.1750,101.0125
154.1750,100.1375
154.1836,100.0944
154.2079,100.0579
154.2444,100.0336
154.2875,100.0250
Z" /> 
<path style="fill:#000000; fill-opacity:1.0000; stroke:none;fill-rule:evenodd;"
d="M 155.4100,98.4050
155.4865,98.4202
155.5514,98.4636
155.5948,98.5285
155.6100,98.6050
155.6100,99.0050
155.5948,99.0815
155.5514,99.1464
155.4865,99.1898
155.4100,99.2050
154.3800,99.2050
154.3035,99.1898
154.2386,99.1464
154.1952,99.0815
154.1800,99.0050
154.1800,98.6050
154.1952,98.5285
154.2386,98.4636
154.3035,98.4202
154.3800,98.4050
Z" /> 
<path style="fill:#000000; fill-opacity:1.0000; stroke:none;fill-rule:evenodd;"
d="M 141.3500,109.3500
141.3329,109.4361
141.2841,109.5091
141.2111,109.5579
141.1250,109.5750
140.6750,109.5750
140.5889,109.5579
140.5159,109.5091
140.4671,109.4361
140.4500,109.3500
140.4500,108.8500
140.4671,108.7639
140.5159,108.6909
140.5889,108.6421
140.6750,108.6250
141.1250,108.6250
141.2111,108.6421
141.2841,108.6909
141.3329,108.7639
141.3500,108.8500
Z" /> 
<path style="fill:#000000; fill-opacity:1.0000; stroke:none;fill-rule:evenodd;"
d="M 139.8000,109.3500
139.7829,109.4361
139.7341,109.5091
139.6611,109.5579
139.5750,109.5750
139.1250,109.5750
139.0389,109.5579
138.9659,109.5091
138.9171,109.4361
138.9000,109.3500
138.9000,108.8500
138.9171,108.7639
138.9659,108.6909
139.0389,108.6421
139.1250,108.6250
139.5750,108.6250
139.6611,108.6421
139.7341,108.6909
139.7829,108.7639
139.8000,108.8500
Z" /> 
<path style="fill:#000000; fill-opacity:1.0000; stroke:none;fill-rule:evenodd;"
d="M 155.2985,96.4600
155.3750,96.4752
155.4399,96.5186
155.4832,96.5835
155.4985,96.6600
155.4985,97.0600
155.4832,97.1365
155.4399,97.2014
155.3750,97.2448
155.2985,97.2600
154.2685,97.2600
154.1919,97.2448
154.1270,97.2014
154.0837,97.1365
154.0685,97.0600
154.0685,96.6600
154.0837,96.5835
154.1270,96.5186
154.1919,96.4752
154.2685,96.4600
Z" /> 
<path style="fill:#000000; fill-opacity:1.0000; stroke:none;fill-rule:evenodd;"
d="M 154.4110,94.4600
154.4540,94.4686
154.4905,94.4929
154.5149,94.5294
154.5235,94.5725
154.5235,95.4475
154.5149,95.4906
154.4905,95.5271
154.4540,95.5514
154.4110,95.5600
154.1860,95.5600
154.1429,95.5514
154.1064,95.5271
154.0820,95.4906
154.0735,95.4475
154.0735,94.5725
154.0820,94.5294
154.1064,94.4929
154.1429,94.4686
154.1860,94.4600
Z" /> 
<path style="fill:#000000; fill-opacity:1.0000; stroke:none;fill-rule:evenodd;"
d="M 155.2985,92.7400
155.3750,92.7552
155.4399,92.7986
155.4832,92.8635
155.4985,92.9400
155.4985,93.3400
155.4832,93.4165
155.4399,93.4814
155.3750,93.5248
155.2985,93.5400
154.2685,93.5400
154.1919,93.5248
154.1270,93.4814
154.0837,93.4165
154.0685,93.3400
154.0685,92.9400
154.0837,92.8635
154.1270,92.7986
154.1919,92.7552
154.2685,92.7400
Z" /> 
<path style="fill:#000000; fill-opacity:1.0000; stroke:none;fill-rule:evenodd;"
d="M 129.9250,96.0000
127.7250,96.0000
127.7250,94.4500
129.9250,94.4500
Z" /> 
<path style="fill:#000000; fill-opacity:1.0000; stroke:none;fill-rule:evenodd;"
d="M 134.0250,96.0000
131.8250,96.0000
131.8250,94.4500
134.0250,94.4500
Z" /> 
<path style="fill:#000000; fill-opacity:1.0000; stroke:none;fill-rule:evenodd;"
d="M 129.5000,107.0000
129.4829,107.0861
129.4341,107.1591
129.3611,107.2079
129.2750,107.2250
128.8250,107.2250
128.7389,107.2079
128.6659,107.1591
128.6171,107.0861
128.6000,107.0000
128.6000,106.5000
128.6171,106.4139
128.6659,106.3409
128.7389,106.2921
128.8250,106.2750
129.2750,106.2750
129.3611,106.2921
129.4341,106.3409
129.4829,106.4139
129.5000,106.5000
Z" /> 
<path style="fill:#000000; fill-opacity:1.0000; stroke:none;fill-rule:evenodd;"
d="M 127.9500,107.0000
127.9329,107.0861
127.8841,107.1591
127.8111,107.2079
127.7250,107.2250
127.2750,107.2250
127.1889,107.2079
127.1159,107.1591
127.0671,107.0861
127.0500,107.0000
127.0500,106.5000
127.0671,106.4139
127.1159,106.3409
127.1889,106.2921
127.2750,106.2750
127.7250,106.2750
127.8111,106.2921
127.8841,106.3409
127.9329,106.4139
127.9500,106.5000
Z" /> 
<path style="fill:#000000; fill-opacity:1.0000; stroke:none;fill-rule:evenodd;"
d="M 150.6000,108.9750
150.6171,108.8889
150.6659,108.8159
150.7389,108.7671
150.8250,108.7500
151.2750,108.7500
151.3611,108.7671
151.4341,108.8159
151.4829,108.8889
151.5000,108.9750
151.5000,109.4750
151.4829,109.5611
151.4341,109.6341
151.3611,109.6829
151.2750,109.7000
150.8250,109.7000
150.7389,109.6829
150.6659,109.6341
150.6171,109.5611
150.6000,109.4750
Z" /> 
<path style="fill:#000000; fill-opacity:1.0000; stroke:none;fill-rule:evenodd;"
d="M 152.1500,108.9750
152.1671,108.8889
152.2159,108.8159
152.2889,108.7671
152.3750,108.7500
152.8250,108.7500
152.9111,108.7671
152.9841,108.8159
153.0329,108.8889
153.0500,108.9750
153.0500,109.4750
153.0329,109.5611
152.9841,109.6341
152.9111,109.6829
152.8250,109.7000
152.3750,109.7000
152.2889,109.6829
152.2159,109.6341
152.1671,109.5611
152.1500,109.4750
Z" /> 
<path style="fill:#000000; fill-opacity:1.0000; stroke:none;fill-rule:evenodd;"
d="M 147.3750,108.9750
147.3921,108.8889
147.4409,108.8159
147.5139,108.7671
147.6000,108.7500
148.0500,108.7500
148.1361,108.7671
148.2091,108.8159
148.2579,108.8889
148.2750,108.9750
148.2750,109.4750
148.2579,109.5611
148.2091,109.6341
148.1361,109.6829
148.0500,109.7000
147.6000,109.7000
147.5139,109.6829
147.4409,109.6341
147.3921,109.5611
147.3750,109.4750
Z" /> 
<path style="fill:#000000; fill-opacity:1.0000; stroke:none;fill-rule:evenodd;"
d="M 148.9250,108.9750
148.9421,108.8889
148.9909,108.8159
149.0639,108.7671
149.1500,108.7500
149.6000,108.7500
149.6861,108.7671
149.7591,108.8159
149.8079,108.8889
149.8250,108.9750
149.8250,109.4750
149.8079,109.5611
149.7591,109.6341
149.6861,109.6829
149.6000,109.7000
149.1500,109.7000
149.0639,109.6829
148.9909,109.6341
148.9421,109.5611
148.9250,109.4750
Z" /> 
<path style="fill:#000000; fill-opacity:1.0000; stroke:none;fill-rule:evenodd;"
d="M 138.1250,107.0000
138.1079,107.0861
138.0591,107.1591
137.9861,107.2079
137.9000,107.2250
137.4500,107.2250
137.3639,107.2079
137.2909,107.1591
137.2421,107.0861
137.2250,107.0000
137.2250,106.5000
137.2421,106.4139
137.2909,106.3409
137.3639,106.2921
137.4500,106.2750
137.9000,106.2750
137.9861,106.2921
138.0591,106.3409
138.1079,106.4139
138.1250,106.5000
Z" /> 
<path style="fill:#000000; fill-opacity:1.0000; stroke:none;fill-rule:evenodd;"
d="M 136.5750,107.0000
136.5579,107.0861
136.5091,107.1591
136.4361,107.2079
136.3500,107.2250
135.9000,107.2250
135.8139,107.2079
135.7409,107.1591
135.6921,107.0861
135.6750,107.0000
135.6750,106.5000
135.6921,106.4139
135.7409,106.3409
135.8139,106.2921
135.9000,106.2750
136.3500,106.2750
136.4361,106.2921
136.5091,106.3409
136.5579,106.4139
136.5750,106.5000
Z" /> 
<path style="fill:#000000; fill-opacity:1.0000; stroke:none;fill-rule:evenodd;"
d="M 126.7000,103.1500
126.6043,103.1310
126.5232,103.0768
126.4690,102.9957
126.4500,102.9000
126.4500,102.2500
126.4690,102.1543
126.5232,102.0732
126.6043,102.0190
126.7000,102.0000
128.0000,102.0000
128.0957,102.0190
128.1768,102.0732
128.2310,102.1543
128.2500,102.2500
128.2500,102.9000
128.2310,102.9957
128.1768,103.0768
128.0957,103.1310
128.0000,103.1500
Z" /> 
<path style="fill:#000000; fill-opacity:1.0000; stroke:none;fill-rule:evenodd;"
d="M 126.7000,100.2000
126.6043,100.1810
126.5232,100.1268
126.4690,100.0457
126.4500,99.9500
126.4500,99.3000
126.4690,99.2043
126.5232,99.1232
126.6043,99.0690
126.7000,99.0500
128.0000,99.0500
128.0957,99.0690
128.1768,99.1232
128.2310,99.2043
128.2500,99.3000
128.2500,99.9500
128.2310,100.0457
128.1768,100.1268
128.0957,100.1810
128.0000,100.2000
Z" /> 
<path style="fill:#000000; fill-opacity:1.0000; stroke:none;fill-rule:evenodd;"
d="M 136.9700,98.5600
136.9597,98.6117
136.9305,98.6555
136.8867,98.6847
136.8350,98.6950
136.5650,98.6950
136.5133,98.6847
136.4695,98.6555
136.4403,98.6117
136.4300,98.5600
136.4300,98.1900
136.4403,98.1383
136.4695,98.0945
136.5133,98.0653
136.5650,98.0550
136.8350,98.0550
136.8867,98.0653
136.9305,98.0945
136.9597,98.1383
136.9700,98.1900
Z" /> 
<path style="fill:#000000; fill-opacity:1.0000; stroke:none;fill-rule:evenodd;"
d="M 135.9500,98.5600
135.9397,98.6117
135.9105,98.6555
135.8667,98.6847
135.8150,98.6950
135.5450,98.6950
135.4933,98.6847
135.4495,98.6555
135.4203,98.6117
135.4100,98.5600
135.4100,98.1900
135.4203,98.1383
135.4495,98.0945
135.4933,98.0653
135.5450,98.0550
135.8150,98.0550
135.8667,98.0653
135.9105,98.0945
135.9397,98.1383
135.9500,98.1900
Z" /> 
<path style="fill:#000000; fill-opacity:1.0000; stroke:none;fill-rule:evenodd;"
d="M 132.7750,110.4500
132.8820,110.4656
132.9929,110.5198
133.0802,110.6071
133.1344,110.7180
133.1500,110.8250
133.1500,112.0750
133.1344,112.1820
133.0802,112.2929
132.9929,112.3802
132.8820,112.4344
132.7750,112.4500
132.0250,112.4500
131.9180,112.4344
131.8071,112.3802
131.7198,112.2929
131.6656,112.1820
131.6500,112.0750
131.6500,110.8250
131.6656,110.7180
131.7198,110.6071
131.8071,110.5198
131.9180,110.4656
132.0250,110.4500
Z" /> 
<path style="fill:#000000; fill-opacity:1.0000; stroke:none;fill-rule:evenodd;"
d="M 130.4750,110.4500
130.5820,110.4656
130.6929,110.5198
130.7802,110.6071
130.8344,110.7180
130.8500,110.8250
130.8500,112.0750
130.8344,112.1820
130.7802,112.2929
130.6929,112.3802
130.5820,112.4344
130.4750,112.4500
129.7250,112.4500
129.6180,112.4344
129.5071,112.3802
129.4198,112.2929
129.3656,112.1820
129.3500,112.0750
129.3500,110.8250
129.3656,110.7180
129.4198,110.6071
129.5071,110.5198
129.6180,110.4656
129.7250,110.4500
Z" /> 
<path style="fill:#000000; fill-opacity:1.0000; stroke:none;fill-rule:evenodd;"
d="M 131.5000,116.7500
131.6063,116.7614
131.7396,116.8112
131.8536,116.8964
131.9388,117.0104
131.9886,117.1437
132.0000,117.2500
132.0000,118.2500
131.9886,118.3563
131.9388,118.4896
131.8536,118.6036
131.7396,118.6888
131.6063,118.7386
131.5000,118.7500
128.7000,118.7500
128.5937,118.7386
128.4604,118.6888
128.3464,118.6036
128.2612,118.4896
128.2114,118.3563
128.2000,118.2500
128.2000,117.2500
128.2114,117.1437
128.2612,117.0104
128.3464,116.8964
128.4604,116.8112
128.5937,116.7614
128.7000,116.7500
Z" /> 
<path style="fill:#000000; fill-opacity:1.0000; stroke:none;fill-rule:evenodd;"
d="M 128.1750,110.4500
128.2820,110.4656
128.3929,110.5198
128.4802,110.6071
128.5344,110.7180
128.5500,110.8250
128.5500,112.0750
128.5344,112.1820
128.4802,112.2929
128.3929,112.3802
128.2820,112.4344
128.1750,112.4500
127.4250,112.4500
127.3180,112.4344
127.2071,112.3802
127.1198,112.2929
127.0656,112.1820
127.0500,112.0750
127.0500,110.8250
127.0656,110.7180
127.1198,110.6071
127.2071,110.5198
127.3180,110.4656
127.4250,110.4500
Z" /> 
<path style="fill:#000000; fill-opacity:1.0000; stroke:none;fill-rule:evenodd;"
d="M 141.3250,107.0000
141.3079,107.0861
141.2591,107.1591
141.1861,107.2079
141.1000,107.2250
140.6500,107.2250
140.5639,107.2079
140.4909,107.1591
140.4421,107.0861
140.4250,107.0000
140.4250,106.5000
140.4421,106.4139
140.4909,106.3409
140.5639,106.2921
140.6500,106.2750
141.1000,106.2750
141.1861,106.2921
141.2591,106.3409
141.3079,106.4139
141.3250,106.5000
Z" /> 
<path style="fill:#000000; fill-opacity:1.0000; stroke:none;fill-rule:evenodd;"
d="M 139.7750,107.0000
139.7579,107.0861
139.7091,107.1591
139.6361,107.2079
139.5500,107.2250
139.1000,107.2250
139.0139,107.2079
138.9409,107.1591
138.8921,107.0861
138.8750,107.0000
138.8750,106.5000
138.8921,106.4139
138.9409,106.3409
139.0139,106.2921
139.1000,106.2750
139.5500,106.2750
139.6361,106.2921
139.7091,106.3409
139.7579,106.4139
139.7750,106.5000
Z" /> 
<path style="fill:#000000; fill-opacity:1.0000; stroke:none;fill-rule:evenodd;"
d="M 144.1000,108.9750
144.1171,108.8889
144.1659,108.8159
144.2389,108.7671
144.3250,108.7500
144.7750,108.7500
144.8611,108.7671
144.9341,108.8159
144.9829,108.8889
145.0000,108.9750
145.0000,109.4750
144.9829,109.5611
144.9341,109.6341
144.8611,109.6829
144.7750,109.7000
144.3250,109.7000
144.2389,109.6829
144.1659,109.6341
144.1171,109.5611
144.1000,109.4750
Z" /> 
<path style="fill:#000000; fill-opacity:1.0000; stroke:none;fill-rule:evenodd;"
d="M 145.6500,108.9750
145.6671,108.8889
145.7159,108.8159
145.7889,108.7671
145.8750,108.7500
146.3250,108.7500
146.4111,108.7671
146.4841,108.8159
146.5329,108.8889
146.5500,108.9750
146.5500,109.4750
146.5329,109.5611
146.4841,109.6341
146.4111,109.6829
146.3250,109.7000
145.8750,109.7000
145.7889,109.6829
145.7159,109.6341
145.6671,109.5611
145.6500,109.4750
Z" /> 
<path style="fill:#000000; fill-opacity:1.0000; stroke:none;fill-rule:evenodd;"
d="M 146.5500,103.8500
146.5329,103.9361
146.4841,104.0091
146.4111,104.0579
146.3250,104.0750
145.8750,104.0750
145.7889,104.0579
145.7159,104.0091
145.6671,103.9361
145.6500,103.8500
145.6500,103.3500
145.6671,103.2639
145.7159,103.1909
145.7889,103.1421
145.8750,103.1250
146.3250,103.1250
146.4111,103.1421
146.4841,103.1909
146.5329,103.2639
146.5500,103.3500
Z" /> 
<path style="fill:#000000; fill-opacity:1.0000; stroke:none;fill-rule:evenodd;"
d="M 145.0000,103.8500
144.9829,103.9361
144.9341,104.0091
144.8611,104.0579
144.7750,104.0750
144.3250,104.0750
144.2389,104.0579
144.1659,104.0091
144.1171,103.9361
144.1000,103.8500
144.1000,103.3500
144.1171,103.2639
144.1659,103.1909
144.2389,103.1421
144.3250,103.1250
144.7750,103.1250
144.8611,103.1421
144.9341,103.1909
144.9829,103.2639
145.0000,103.3500
Z" /> 
<path style="fill:#000000; fill-opacity:1.0000; stroke:none;fill-rule:evenodd;"
d="M 153.2000,103.7000
153.2000,106.1000
151.5000,106.1000
151.5000,103.7000
Z" /> 
<path style="fill:#000000; fill-opacity:1.0000; stroke:none;fill-rule:evenodd;"
d="M 149.5000,103.7000
149.5000,106.1000
147.8000,106.1000
147.8000,103.7000
Z" /> 
<path style="fill:#000000; fill-opacity:1.0000; stroke:none;fill-rule:evenodd;"
d="M 153.2500,93.6500
153.3457,93.6690
153.4268,93.7232
153.4810,93.8043
153.5000,93.9000
153.5000,94.4250
153.4810,94.5207
153.4268,94.6018
153.3457,94.6560
153.2500,94.6750
152.3500,94.6750
152.2543,94.6560
152.1732,94.6018
152.1190,94.5207
152.1000,94.4250
152.1000,93.9000
152.1190,93.8043
152.1732,93.7232
152.2543,93.6690
152.3500,93.6500
Z" /> 
<path style="fill:#000000; fill-opacity:1.0000; stroke:none;fill-rule:evenodd;"
d="M 153.2500,95.4750
153.3457,95.4940
153.4268,95.5482
153.4810,95.6293
153.5000,95.7250
153.5000,96.2500
153.4810,96.3457
153.4268,96.4268
153.3457,96.4810
153.2500,96.5000
152.3500,96.5000
152.2543,96.4810
152.1732,96.4268
152.1190,96.3457
152.1000,96.2500
152.1000,95.7250
152.1190,95.6293
152.1732,95.5482
152.2543,95.4940
152.3500,95.4750
Z" /> 
</g> 
</svg>
